<svg viewBox="0 0 96 96" xmlns="http://www.w3.org/2000/svg" xmlns:xlink="http://www.w3.org/1999/xlink" id="Icons_Gorilla" overflow="hidden"><style>
.MsftOfcThm_Text1_Fill_v2 {
 fill:#000000; 
}
</style>
<path d="M84.68 34 81.68 31 82.6 28.39C83.2669 26.4897 82.8873 24.3788 81.6 22.83L76.24 16.32C75.0515 14.866 73.2779 14.0158 71.4 14 66.8 14 63 15 61 19L59.31 22.35C58.9128 23.5772 57.8844 24.4947 56.62 24.75L54.56 24.8C51.1648 24.8675 47.8738 25.9855 45.14 28L30.26 42.47C29.4176 43.3117 28.1917 43.6429 27.04 43.34 24.928 42.7518 22.7056 42.6797 20.56 43.13 15.17 44.24 11 48.58 11 54.08 11 58.35 13.65 62.26 17 64.64L17 76.92C17 79.6814 19.2386 81.92 22 81.92 24.7614 81.92 27 79.6814 27 76.92L27 66 36 66C39.9596 65.9988 43.8931 65.3606 47.65 64.11L49.97 63.11 49.97 76.92C49.97 79.6814 52.2086 81.92 54.97 81.92 57.7314 81.92 59.97 79.6814 59.97 76.92L59.97 58.42C59.97 58.42 59.97 58.34 59.97 58.31L61.97 57.11 61.97 76.92C61.97 79.6814 64.2086 81.92 66.97 81.92 69.7314 81.92 71.97 79.6814 71.97 76.92L71.97 44.51C72.1106 44.0471 72.3611 43.6251 72.7 43.28L73.34 42.64C73.7568 42.2255 74.3222 41.995 74.91 42L82 42C83.3241 41.9739 84.4339 40.9912 84.62 39.68L85.3 37.07C85.7328 36.0154 85.4882 34.804 84.68 34Z" class="MsftOfcThm_Text1_Fill_v2"/><path d="M29 68 29 76.92C29 79.6814 31.2386 81.92 34 81.92 36.7614 81.92 39 79.6814 39 76.92L39 67.92C38 68 37 68 36 68Z" class="MsftOfcThm_Text1_Fill_v2"/></svg>