<svg viewBox="0 0 96 96" xmlns="http://www.w3.org/2000/svg" xmlns:xlink="http://www.w3.org/1999/xlink" id="Icons_Crab" overflow="hidden"><style>
.MsftOfcThm_Text1_Fill_v2 {
 fill:#000000; 
}
</style>
<path d="M75.4 50.6C75 50.2 74.5 50 74 50L69.1 50 68.7 46.1 77.5 37.3C82.4 35.5 86 29.8 86 23 86 14.7 80.6 8 74 8L74 30 62.5 18.5C62.2 19.9 62 21.4 62 23 62 30.2 66.1 36.2 71.5 37.7L67.2 42C66.1 40.4 64.4 39.2 62.4 38.8L56.1 37.4C57.2 36.7 58 35.5 58 34 58 31.8 56.2 30 54 30 51.8 30 50 31.8 50 34 50 34.8 50.2 35.5 50.6 36.1L50.4 36.1C50.1 36 49.9 36 49.6 36L48 36 46.4 36C46.1 36 45.8 36 45.5 36.1L45.3 36.1C45.7 35.5 45.9 34.7 45.9 34 45.9 31.8 44.1 30 41.9 30 39.7 30 37.9 31.8 37.9 34 37.9 35.4 38.6 36.7 39.8 37.4L33.5 38.8C31.5 39.2 29.8 40.4 28.7 42L24.4 37.7C29.9 36.2 34 30.2 34 23 34 21.4 33.8 19.9 33.5 18.5L22 30 22 8C15.4 8 10 14.7 10 23 10 29.8 13.6 35.5 18.5 37.4L27.3 46.2 26.9 50 22 50C21.5 50 21 50.2 20.6 50.6L14.6 56.6C13.8 57.4 13.8 58.6 14.6 59.4 15 59.8 15.5 60 16 60 16.5 60 17 59.8 17.4 59.4L22.8 54 26.4 54 25.8 59 24 59C23.5 59 23 59.2 22.6 59.6L16.6 65.6C15.8 66.4 15.8 67.6 16.6 68.4 17 68.8 17.5 69 18 69 18.5 69 19 68.8 19.4 68.4L24.8 63 25.6 63C25.8 64.7 26.7 66.2 28 67.2L22.6 72.6C22.2 73 22 73.5 22 74L22 82C22 83.1 22.9 84 24 84 25.1 84 26 83.1 26 82L26 74.8 32.1 68.7 37.2 69.9 34.5 72.6C34.2 73 34 73.5 34 74L34 86C34 87.1 34.9 88 36 88 37.1 88 38 87.1 38 86L38 74.8 41.8 71 45.5 71.9C45.8 72 46.1 72 46.4 72L48 72 49.5 72C49.8 72 50.1 72 50.4 71.9L54.1 71 57.9 74.8 57.9 86C57.9 87.1 58.8 88 59.9 88 61 88 61.9 87.1 61.9 86L61.9 74C61.9 73.5 61.7 73 61.3 72.6L58.6 69.9 63.7 68.7 69.8 74.8 69.8 82C69.8 83.1 70.7 84 71.8 84 72.9 84 73.8 83.1 73.8 82L73.8 74C73.8 73.5 73.6 73 73.2 72.6L68 67.2C69.3 66.2 70.2 64.7 70.4 63L71.2 63 76.6 68.4C77 68.8 77.5 69 78 69 78.5 69 79 68.8 79.4 68.4 80.2 67.6 80.2 66.4 79.4 65.6L73.4 59.6C73 59.2 72.5 59 72 59L70.1 59 69.5 54 73.1 54 78.5 59.4C79 59.8 79.5 60 80 60 80.5 60 81 59.8 81.4 59.4 82.2 58.6 82.2 57.4 81.4 56.6L75.4 50.6Z" class="MsftOfcThm_Text1_Fill_v2"/></svg>