<svg viewBox="0 0 96 96" xmlns="http://www.w3.org/2000/svg" xmlns:xlink="http://www.w3.org/1999/xlink" id="Icons_ScientistFemale" overflow="hidden"><style>
.MsftOfcThm_Text1_Fill_v2 {
 fill:#000000; 
}
</style>
<g id="Icons"><path d="M28.6 80.6 22 65.7 22 55.6C22.023 54.3769 22.6626 53.2483 23.7 52.6 24.2425 52.3533 24.4822 51.7136 24.2356 51.1711 24.2246 51.147 24.2127 51.1233 24.2 51.1 24.0176 50.6685 23.5616 50.4198 23.1 50.5L11.7 50.5C11.0765 50.4617 10.5401 50.936 10.5018 51.5595 10.5009 51.573 10.5003 51.5865 10.5 51.6 10.4649 52.0531 10.7001 52.4842 11.1 52.7 12.1693 53.3172 12.8201 54.4655 12.8 55.7L12.8 65.8 6.3 80.6C5.52672 82.2705 6.25404 84.2515 7.92451 85.0248 7.98227 85.0515 8.0408 85.0766 8.1 85.1 8.53795 85.3047 9.01664 85.4072 9.5 85.4L25.5 85.4C27.3622 85.4155 28.8845 83.9185 28.9 82.0562 28.9002 82.0375 28.9002 82.0187 28.9 82 28.9072 81.5166 28.8047 81.0379 28.6 80.6ZM19.7 55.6 19.7 57.9 15.2 57.9 15.2 55.6C15.231 54.5749 14.9522 53.5642 14.4 52.7L20.5 52.7C19.9925 53.5835 19.7172 54.5812 19.7 55.6Z" class="MsftOfcThm_Text1_Fill_v2"/><path d="M75.3 57.479C72.166 54.818 67.87 52.528 61.869 50.302 63.9768 50.0729 66.0437 49.5585 68.013 48.773 68.013 48.773 65.752 47.42 64.35 41.882 63.461 38.403 66.863 29.705 66.892 23.582 66.892 18.682 65.5 16.489 62.872 15.001 61.354 14.14 57.856 14.933 57.856 14.933 57.856 14.933 56.047 11.508 50 9.623 45.028 8.2691 39.7217 8.94722 35.25 11.508 31.51 13.924 29.702 16.582 29.615 25.724 29.538 34.103 30.688 41.544 30.157 45.052 29.9119 46.994 29.1731 48.8408 28.011 50.416 29.8471 50.5701 31.691 50.6102 33.532 50.536 30.2117 51.7387 27.0188 53.2675 24 55.1L24 59.967C27.0815 57.7073 30.471 55.901 34.065 54.603L32.145 63.182C31.9639 63.9904 32.4723 64.7925 33.2807 64.9737 33.3885 64.9978 33.4986 65.01 33.609 65.01L37.249 65.01 35.33 68.71C34.9834 69.3785 35.1862 70.2004 35.804 70.631L46.51 78.1 46.51 83.989C41.2612 83.9493 36.0202 83.5789 30.818 82.88 30.5891 84.3902 29.7198 85.7282 28.433 86.551 35.0023 87.6017 41.6474 88.1051 48.3 88.056 61.1 88.056 73.8 86.4 78.2 83.1L79 82.5 79 64.961C78.891 62.0532 77.5446 59.3306 75.3 57.479ZM55 64.2 57.447 68.925 50.663 73.655 56.834 52.855 58.734 53.823 60.565 62.013 56.335 62.013C55.5066 62.0121 54.8343 62.683 54.8334 63.5114 54.8332 63.751 54.8903 63.9871 55 64.2ZM36.009 33 36.009 27.942C36.4967 27.9125 36.9822 27.8545 37.463 27.768 40.8179 27.3257 44.0919 26.4043 47.185 25.032 50.662 23.284 52.656 22.426 55.541 19.813 55.9221 19.4389 56.5344 19.4446 56.9085 19.8257 57.0502 19.97 57.143 20.1551 57.174 20.355 57.404 21.944 58.002 25.443 58.798 26.839 59.1569 27.5253 59.5618 28.1865 60.01 28.818L60.01 33C60.0028 39.6244 54.6344 44.9928 48.01 45L48.01 45C41.3852 44.9934 36.0162 39.6248 36.009 33ZM38.6 68.927 41.051 64.2C41.4321 63.4644 41.1447 62.5592 40.4091 62.1781 40.1959 62.0676 39.9592 62.01 39.719 62.01L35.486 62.01 37.318 53.82 39.218 52.852 45.389 73.652ZM48.025 72.005 41.58 50.272C41.5662 50.2346 41.5505 50.1978 41.533 50.162 41.8414 49.5 42.0008 48.7783 42 48.048L42 47.823C45.8478 49.3944 50.1582 49.3944 54.006 47.823L54.006 48.045C54.0055 48.7945 54.1729 49.5347 54.496 50.211 54.489 50.231 54.478 50.249 54.472 50.269ZM75 80.41C70.775 82.734 60.3 83.924 49.506 83.994L49.506 78.122 60.241 70.636C60.8588 70.2054 61.0616 69.3835 60.715 68.715L58.797 65.015 62.435 65.015C63.2634 65.0161 63.9359 64.3454 63.937 63.517 63.9371 63.4049 63.9247 63.2933 63.9 63.184L61.988 54.635C65.8563 56.0052 69.4762 57.9952 72.706 60.527 74.078 61.619 74.9138 63.2486 75 65Z" class="MsftOfcThm_Text1_Fill_v2"/><circle cx="18.604" cy="36.7" r="1.7" class="MsftOfcThm_Text1_Fill_v2"/><path d="M19.8 41.9C19.8 42.8389 20.5611 43.6 21.5 43.6 22.4389 43.6 23.2 42.8389 23.2 41.9 23.2 40.9611 22.4389 40.2 21.5 40.2 20.5611 40.2 19.8 40.9611 19.8 41.9Z" class="MsftOfcThm_Text1_Fill_v2"/><path d="M15.2 42.4C16.1389 42.4 16.9 41.6389 16.9 40.7 16.9 39.7611 16.1389 39 15.2 39 14.2611 39 13.5 39.7611 13.5 40.7 13.5 41.6389 14.2611 42.4 15.2 42.4Z" class="MsftOfcThm_Text1_Fill_v2"/><path d="M14 47C14 48.2703 15.0297 49.3 16.3 49.3 17.5703 49.3 18.6 48.2703 18.6 47 18.6 45.7297 17.5703 44.7 16.3 44.7 15.0297 44.7 14 45.7297 14 47Z" class="MsftOfcThm_Text1_Fill_v2"/></g></svg>