<svg viewBox="0 0 96 96" xmlns="http://www.w3.org/2000/svg" xmlns:xlink="http://www.w3.org/1999/xlink" id="Icons_Flashlight" overflow="hidden"><g><rect x="64.8" y="9.3" width="11.8" height="32" transform="matrix(0.7071 -0.7071 0.7071 0.7071 2.8596 57.4089)"/><path d="M52.3 32.4 10.9 73.8C9.3 75.4 9.3 77.9 10.9 79.5L16.6 85.2C18.2 86.8 20.7 86.8 22.3 85.2L63.6 43.8 74.9 43.8 52.3 21.1 52.3 32.4ZM54.4 45.8C53.2 47 51.3 47 50.2 45.8 49 44.6 49 42.7 50.2 41.6 51.4 40.4 53.3 40.4 54.4 41.6 55.6 42.7 55.6 44.6 54.4 45.8Z"/></g></svg>