<svg viewBox="0 0 96 96" xmlns="http://www.w3.org/2000/svg" xmlns:xlink="http://www.w3.org/1999/xlink" id="Icons_Tyrannosaurus" overflow="hidden"><style>
.MsftOfcThm_Text1_Fill_v2 {
 fill:#000000; 
}
</style>
<path d="M92.3 32.11C90.1568 30.1146 87.3383 29.0036 84.41 29L80.08 29C76.19 29 74.72 30.81 72.08 34.46 71.1375 35.8436 70.0066 37.0889 68.72 38.16L66.72 39.72C65.5392 40.627 64.0889 41.1127 62.6 41.1L32.68 41.1C17.78 40.85 7.88 36.69 7.88 32.8 7.88 28.91 18.42 24.5 34.13 24.5L34.38 24.5C34.7942 24.5 35.13 24.1642 35.13 23.75 35.13 23.3358 34.7942 23 34.38 23 26.99 23 2.88 23.76 2.88 33.57 2.88 40 11.83 46 23.15 48 24.7973 48.2933 26.2473 49.2612 27.15 50.67L27.15 50.67C29.1436 53.8298 31.8275 56.4966 35 58.47L35 62C35.0022 62.5296 35.2144 63.0367 35.59 63.41L44.59 72.41C44.9634 72.7856 45.4704 72.9978 46 73L49 73C50.1046 73 51 72.1046 51 71 51 69.8954 50.1046 69 49 69L46.83 69 39 61.17 39 60.47 39.15 60.53C40.4762 60.4906 41.7365 59.9428 42.67 59 44.7183 56.9468 44.7183 53.6231 42.67 51.57 42.3108 51.1505 42.3596 50.5192 42.7791 50.16 43.1535 49.8394 43.7056 49.8394 44.08 50.16 46.9104 52.9944 46.9104 57.5856 44.08 60.42 43.6414 60.8522 43.151 61.2283 42.62 61.54 45.4906 62.1416 48.4422 62.2532 51.35 61.87 52.2865 61.7554 53.2126 61.5681 54.12 61.31L54.91 61.09C59.46 59.83 65.2 56.26 67.72 52.99L75.17 52.99 77.59 55.4C78.429 56.1185 79.6915 56.0208 80.41 55.1818 81.0512 54.4331 81.0512 53.3288 80.41 52.58L77.41 49.58C77.035 49.2081 76.5282 48.9996 76 49L70.63 49 74.83 43.88C76.6065 42.1017 79.0164 41.1018 81.53 41.1L89.33 41.1C90.0865 41.1125 90.7099 40.5093 90.7224 39.7528 90.7316 39.1957 90.4025 38.6886 89.89 38.47L84.45 36.05C83.9859 35.857 83.7662 35.3244 83.9592 34.8603 84.1032 34.514 84.445 34.2915 84.82 34.3L91.45 34.3C92.1459 34.2999 92.7099 33.7358 92.7099 33.0399 92.7098 32.6861 92.5611 32.3487 92.3 32.11Z" class="MsftOfcThm_Text1_Fill_v2"/><path d="M61 69 58.83 69 53.39 63.56C52.81 63.68 52.24 63.78 51.61 63.87 50.5018 64.0073 49.3866 64.0808 48.27 64.09L56.59 72.41C56.9634 72.7856 57.4704 72.9978 58 73L61 73C62.1046 73 63 72.1046 63 71 63 69.8954 62.1046 69 61 69Z" class="MsftOfcThm_Text1_Fill_v2"/></svg>