<svg viewBox="0 0 96 96" xmlns="http://www.w3.org/2000/svg" xmlns:xlink="http://www.w3.org/1999/xlink" id="Icons_HighTemperature" overflow="hidden"><style>
.MsftOfcThm_Text1_Fill_v2 {
 fill:#000000; 
}
</style>
<path d="M49.14 61.27 49.14 39.73 46.9 39.73 46.9 61.27C43.8753 61.8886 41.9248 64.842 42.5434 67.8667 43.1619 70.8913 46.1153 72.8419 49.14 72.2233 52.1647 71.6047 54.1152 68.6513 53.4967 65.6267 53.048 63.433 51.3337 61.7186 49.14 61.27Z" class="MsftOfcThm_Text1_Fill_v2"/><path d="M90.55 80 51.47 12C50.3711 10.0836 47.9267 9.42084 46.0103 10.5197 45.3942 10.873 44.8833 11.3839 44.53 12L5.45 80C4.34543 81.9132 5.00093 84.3595 6.9141 85.4641 7.52097 85.8145 8.20924 85.9993 8.91 86L87.09 86C89.2991 85.9977 91.0882 84.205 91.0859 81.9959 91.0852 81.2951 90.9004 80.6069 90.55 80ZM56.31 68.63C55.5114 72.2573 52.4501 74.9461 48.75 75.27L48.75 75.27 48 75.27C43.2725 75.2602 39.4479 71.4199 39.4577 66.6923 39.4642 63.5697 41.1704 60.6984 43.91 59.2L43.91 35.09C43.7983 32.8339 45.5367 30.9145 47.7928 30.8028 50.0489 30.6912 51.9683 32.4296 52.08 34.6856 52.0867 34.8204 52.0867 34.9553 52.08 35.09L52.08 59.25C55.432 61.0761 57.1604 64.9088 56.31 68.63Z" class="MsftOfcThm_Text1_Fill_v2"/></svg>