<svg viewBox="0 0 96 96" xmlns="http://www.w3.org/2000/svg" xmlns:xlink="http://www.w3.org/1999/xlink" id="Icons_Germ1" overflow="hidden"><style>
.MsftOfcThm_Text1_Fill_v2 {
 fill:#000000; 
}
</style>
<path d="M83.5058 41.9988C85.991 42.0022 88.0085 39.9902 88.0119 37.5049 88.0152 35.0196 86.0033 33.0022 83.518 32.9988 81.4078 32.9959 79.5791 34.4597 79.1198 36.5193L71.3702 39.1024C70.1615 35.9353 68.3214 33.047 65.9618 30.613L72.9101 22.4563C76.2113 23.9051 80.062 22.4035 81.5108 19.1023 82.9597 15.8011 81.4581 11.9504 78.1569 10.5016 74.8557 9.05269 71.005 10.5543 69.5561 13.8555 68.7113 15.7803 68.8452 17.9942 69.9157 19.8033L62.963 27.9651C59.1498 25.1126 54.5978 23.4148 49.848 23.0735L49.7312 19.4543C52.1968 18.2209 53.1957 15.2221 51.9622 12.7564 50.7288 10.2907 47.73 9.29184 45.2643 10.5253 42.7986 11.7588 41.7997 14.7576 43.0332 17.2233 43.5953 18.3468 44.5603 19.2171 45.7357 19.6605L45.8465 23.0977C40.9735 23.513 36.331 25.356 32.4999 28.396L28.1732 23.676C29.9429 20.5355 28.8316 16.5551 25.6911 14.7854 22.5506 13.0158 18.5701 14.1271 16.8005 17.2676 15.0309 20.4081 16.1422 24.3885 19.2827 26.1582 21.1136 27.1899 23.3293 27.2768 25.2355 26.3918L29.5681 31.1181C25.636 35.3999 23.3258 40.9224 23.0379 46.7286L19.6759 46.6378C18.6432 43.7864 15.4945 42.3121 12.6432 43.3448 9.79177 44.3775 8.31745 47.5262 9.35017 50.3776 10.3829 53.229 13.5316 54.7033 16.3829 53.6706 17.8234 53.1489 18.9804 52.0491 19.5745 50.6369L23.1576 50.7339C23.6188 54.9722 25.1625 59.0206 27.6404 62.4899L19.0711 68.8476C16.2148 67.1412 12.516 68.0733 10.8095 70.9296 9.10303 73.7859 10.0352 77.4848 12.8915 79.1912 15.7478 80.8977 19.4466 79.9656 21.1531 77.1093 22.0885 75.5436 22.2643 73.6386 21.6312 71.9282L30.216 65.5588C33.4292 68.8192 37.4769 71.1334 41.9167 72.2483L40.3095 78.0339C36.4592 78.4154 33.6472 81.8458 34.0286 85.6961 34.41 89.5464 37.8405 92.3584 41.6908 91.977 45.541 91.5956 48.3531 88.1651 47.9717 84.3148 47.739 81.9661 46.3393 79.8925 44.2481 78.7982L45.8857 72.9028C46.5853 72.9617 47.291 72.9988 48.0058 72.9988 52.0295 73.003 55.9942 72.0313 59.56 70.167L64.8813 78.5288C63.2182 81.0979 63.9527 84.5288 66.5218 86.1919 69.0909 87.855 72.5218 87.1205 74.1849 84.5514 75.848 81.9823 75.1135 78.5514 72.5444 76.8883 71.2372 76.0421 69.6343 75.785 68.128 76.1798L62.9495 68.0423C66.6116 65.3069 69.4564 61.6225 71.1762 57.3875L77.0208 59.2012C77.0156 59.3003 77.0058 59.3983 77.0058 59.4988 77.0001 62.5421 79.4625 65.0138 82.5058 65.0195 85.5491 65.0252 88.0208 62.5628 88.0265 59.5195 88.0322 56.4762 85.5698 54.0045 82.5265 53.9988 81.1003 53.9961 79.7287 54.5465 78.6999 55.5342L72.3747 53.571C73.1737 50.0781 73.2145 46.4545 72.4942 42.9445L80.0999 40.4094C80.9464 41.414 82.1921 41.9952 83.5058 41.9988ZM46.0058 59.9988C44.3489 59.9988 43.0058 58.6556 43.0058 56.9988 43.0058 55.3419 44.3489 53.9988 46.0058 53.9988 47.6626 53.9988 49.0058 55.3419 49.0058 56.9988 49.0058 58.6556 47.6626 59.9988 46.0058 59.9988ZM52.5058 46.9988C50.5728 46.9988 49.0058 45.4318 49.0058 43.4988 49.0058 41.5658 50.5728 39.9988 52.5058 39.9988 54.4388 39.9988 56.0058 41.5658 56.0058 43.4988 56.0058 45.4317 54.4388 46.9987 52.5059 46.9988 52.5058 46.9988 52.5058 46.9988 52.5058 46.9988ZM58.5058 59.9988C56.5728 59.9988 55.0058 58.4318 55.0058 56.4988 55.0058 54.5658 56.5728 52.9988 58.5058 52.9988 60.4388 52.9988 62.0058 54.5658 62.0058 56.4988 62.0058 58.4317 60.4388 59.9987 58.5059 59.9988 58.5058 59.9988 58.5058 59.9988 58.5058 59.9988Z" class="MsftOfcThm_Text1_Fill_v2"/></svg>