<svg font-family="sans-serif" viewBox="0 0 753 387" xmlns:xlink="http://www.w3.org/1999/xlink" text-decoration="none" font-style="normal" width="753px" xmlns="http://www.w3.org/2000/svg" font-size="15" version="1.1" font-weight="normal" height="387px"><title>Average Hourly Temperature in Split</title><defs><clipPath id="plot-sample-bounds-15"><rect y="0" x="75.8" height="365" width="601.3"></rect></clipPath><clipPath id="plot-sample-bounds-scaled-15"><rect y="0" x="758.3" height="3650" width="6013.5"></rect></clipPath></defs><g transform="scale(0.1)"><path fill-opacity="1.000" stroke-width="10" stroke="#5ca0b4" d="" fill="#5ca0b4" stroke-opacity="1.0"></path><path fill-opacity="1.000" stroke-width="10" stroke="#83c2d5" d="" fill="#83c2d5" stroke-opacity="1.0"></path><path fill-opacity="1.000" stroke-width="10" stroke="#679568" d="M758,624l0,0l17,14l16,13l17,5l16,7l17,6l16,2l17,5l16,16l17,16l16,2l17,12l17,0l16,-6l17,5l16,-23l17,5l16,0l17,-11l16,-14l17,-2l16,-5l17,-12l16,-7l17,-1l16,-5l17,0l16,5l17,5l16,3l17,-3l16,-5l17,-1l16,-5l17,0l16,-1l17,-8l17,-5l16,-9l4,-4l13,-18l16,-19l17,-19l16,-27l17,-28l16,-25l6,-12l11,-30l16,-29l17,-33l16,-28l17,-7l16,-21l17,-30l16,-29l17,-12l16,-21l17,-28l16,-21l5,-7l12,-21l16,-35l8,-18l-966,0ZM6559,100l11,74l3,12l17,62l17,60l3,14l13,66l17,49l16,16l6,17l11,17l16,11l17,9l16,9l17,15l16,26l17,24l0,-481ZM758,3650l966,0l9,-23l16,-45l3,-6l14,-55l17,-56l11,-37l5,-18l17,-47l16,-53l8,-30l9,-34l16,-80l7,-34l10,-53l16,-95l14,-148l3,-16l16,-113l3,-18l11,-148l-14,-16l-16,-18l-17,-17l-16,-19l-17,-22l-16,-25l-17,-25l-4,-6l-12,-7l-17,-8l-16,-10l-17,-10l-17,-11l-16,-10l-17,-12l-16,-8l-17,-8l-16,-6l-17,-7l-16,-6l-17,-8l-16,-9l-17,-7l-16,-7l-17,-7l-14,-7l-2,-2l-17,-9l-16,-10l-17,-8l-16,-8l-17,-6l-16,-7l-17,-6l-16,-7l-17,-4l-16,-3l-17,-3l-17,-5l-16,-1l-17,-2l-16,-4l-17,-4l-16,-2l-17,0l-16,0l-17,0l-16,-1l-17,0l-16,-4l-17,-1l-16,-4l-17,-1l-16,-1l-17,0l-16,-2l-17,0l-16,0l-17,1l-16,-2l-17,-2l-16,0l-17,1l-17,2l-16,4l-17,5l-16,0l-17,1l-16,4l-17,5l-16,3l-17,2l-16,5l-17,6ZM6587,2245l-14,11l-16,18l-17,13l-16,22l-17,18l-16,16l-17,22l-16,23l-5,5l-9,148l11,148l3,74l2,73l13,148l1,37l7,111l10,93l8,55l8,41l17,80l3,27l13,79l12,69l5,63l2,11l213,0l0,-1466l0,0l-17,5l-16,4l-17,5l-16,3l-17,5l-16,3l-17,6l-16,4l-17,8l-16,9l-17,7Z" fill="#679568" stroke-opacity="1.0"></path><path fill-opacity="1.000" stroke-width="10" stroke="#74a877" d="M1721,100l-5,12l-16,34l-17,28l-16,21l-17,28l-16,21l-17,11l-16,30l-17,29l-5,8l-11,14l-17,7l-16,28l-17,32l-16,30l-14,37l-3,6l-16,25l-17,28l-16,27l-17,19l-16,19l-17,24l-16,8l-17,5l-17,8l-16,1l-17,1l-16,4l-17,1l-16,5l-17,4l-16,-4l-17,-5l-16,-4l-17,0l-16,4l-17,1l-16,6l-17,12l-16,6l-17,1l-16,14l-17,11l-16,0l-17,-5l-16,22l-17,-4l-16,6l-17,0l-17,-12l-16,-3l-17,-16l-16,-16l-17,-4l-16,-2l-17,-7l-16,-6l-17,-5l-16,-14l-17,-13l0,0l0,1558l17,-6l16,-4l17,-2l16,-4l17,-5l16,-4l17,0l16,0l17,-6l16,-4l17,-1l17,-1l16,-1l17,2l16,3l17,-2l16,0l17,1l16,1l17,1l16,0l17,1l16,4l17,1l16,4l17,0l16,1l17,1l16,0l17,0l16,2l17,4l16,3l17,2l16,2l17,4l17,3l16,3l17,4l16,7l17,7l16,7l17,5l16,9l17,8l16,9l17,10l16,9l17,7l16,7l17,7l16,9l17,8l16,6l17,6l16,6l17,9l16,7l17,12l16,11l17,10l17,11l16,9l17,8l10,6l6,9l17,25l16,24l17,22l16,20l17,16l16,19l12,13l-12,148l-16,115l-5,32l-12,124l-2,24l-14,81l-12,67l-5,23l-16,80l-11,45l-6,20l-16,54l-17,46l-8,28l-8,28l-17,55l-17,65l-16,46l-12,28l803,0l2,-4l16,-36l15,-34l2,-6l17,-47l16,-38l17,-40l6,-17l10,-39l17,-70l10,-39l6,-23l17,-70l11,-55l5,-24l17,-66l10,-58l6,-42l15,-106l2,-10l16,-92l10,-45l-10,-37l-16,-92l-3,-19l-14,-17l-16,-21l-17,-17l-16,-18l-17,-20l-16,-23l-17,-18l-11,-14l-5,-4l-17,-13l-16,-12l-17,-11l-17,-14l-16,-14l-17,-13l-16,-14l-17,-11l-16,-12l-17,-11l-16,-12l-11,-7l-6,-5l-16,-9l-17,-8l-16,-11l-17,-9l-16,-11l-17,-10l-16,-9l-17,-6l-16,-8l-17,-8l-16,-6l-17,-9l-16,-5l-17,-8l-16,-8l-17,-9l-17,-9l-16,-15l-17,-17l-16,-18l-17,-19l-16,-14l-17,-12l-16,-16l-17,-11l-16,-15l-12,-11l-5,-7l-16,-27l-17,-22l-16,-23l-17,-20l-16,-28l-15,-21l-2,-5l-16,-43l-17,-36l-16,-37l-12,-27l-5,-18l-16,-74l-11,-56l-4,-148l15,-65l16,-66l5,-17l12,-21l16,-29l17,-32l16,-35l15,-31l2,-2l16,-17l17,-16l16,-19l17,-23l16,-23l17,-25l15,-22l1,-3l17,-20l16,-23l17,-19l16,-21l17,-26l16,-28l6,-8l11,-16l16,-24l17,-23l17,-21l16,-21l17,-17l16,-17l7,-9l10,-13l16,-21l17,-20l16,-19l17,-19l16,-24l17,-23l7,-9l9,-18l17,-30l16,-24l17,-26l16,-27l13,-23l4,-10l16,-43l17,-33l16,-38l11,-24l6,-13l16,-31l15,-30ZM5812,100l2,25l3,49l13,74l13,74l4,15l16,83l10,50l7,24l16,68l15,56l2,5l16,51l17,49l13,43l3,7l17,38l16,44l17,43l6,16l10,12l17,23l16,18l17,20l16,22l17,20l16,21l9,11l8,11l16,22l17,22l17,18l16,21l17,20l16,20l13,14l4,9l16,29l17,36l16,25l17,32l9,17l7,74l8,74l-8,50l-12,98l-4,10l-17,36l-16,36l-17,50l-7,16l-9,13l-17,34l-16,34l-17,33l-16,31l-2,3l-15,17l-17,21l-16,24l-17,23l-16,22l-17,26l-9,15l-7,7l-17,16l-16,15l-17,18l-16,19l-17,18l-16,17l-17,12l-16,12l-17,12l-2,2l-14,10l-17,13l-16,11l-17,14l-16,12l-17,11l-16,13l-17,11l-16,10l-17,11l-17,9l-16,10l-17,11l-2,2l-14,35l-17,53l-16,40l-7,20l7,98l4,50l12,98l5,49l12,87l10,61l6,41l14,107l3,23l16,91l8,34l9,46l17,102l16,91l9,57l6,74l750,0l-5,-32l-3,-42l-14,-79l-11,-69l-5,-40l-17,-81l-5,-27l-11,-74l-8,-74l-9,-148l-12,-148l-4,-147l-12,-148l9,-148l3,-3l16,-23l17,-21l16,-17l17,-17l16,-22l17,-13l16,-19l17,-13l17,-8l16,-9l17,-7l16,-5l17,-6l16,-3l17,-4l16,-3l17,-5l16,-5l17,-4l0,0l0,-1615l-17,-23l-16,-26l-17,-15l-16,-9l-17,-10l-16,-10l-6,-8l-11,-33l-16,-17l-17,-49l-10,-49l-6,-27l-17,-59l-17,-62l-11,-74Z" fill="#74a877" stroke-opacity="1.0"></path><path fill-opacity="1.000" stroke-width="10" stroke="#8dbf71" d="M2522,100l-13,26l-16,31l-8,17l-9,19l-16,38l-17,34l-16,42l-6,15l-11,20l-16,27l-17,25l-16,24l-17,30l-11,22l-5,7l-17,22l-16,25l-17,18l-16,20l-17,19l-16,21l-11,16l-6,6l-16,18l-17,17l-16,21l-17,20l-17,24l-16,24l-12,18l-5,6l-16,27l-17,27l-16,21l-17,19l-16,23l-17,20l-3,5l-13,20l-17,25l-16,22l-17,24l-16,18l-17,17l-16,17l-4,4l-13,27l-16,34l-17,32l-16,29l-15,26l-2,9l-16,65l-17,74l4,148l13,65l16,74l2,9l15,32l16,37l17,37l16,42l17,25l16,28l17,19l16,23l17,22l16,27l3,4l14,13l16,16l17,11l16,15l17,12l16,15l17,18l16,18l17,17l14,13l2,1l17,10l17,9l16,8l17,8l16,4l17,10l16,6l17,8l16,7l17,7l16,8l17,11l16,10l17,10l16,11l17,8l16,9l4,3l13,9l16,11l17,12l16,11l17,12l16,13l17,13l16,14l17,14l17,12l16,11l17,13l3,3l13,16l17,18l16,23l17,20l16,18l17,17l16,21l13,15l4,29l16,91l7,28l-7,34l-16,92l-3,21l-14,96l-7,52l-9,50l-17,65l-6,33l-10,47l-17,70l-8,31l-8,31l-17,70l-12,47l-4,11l-17,40l-16,38l-17,47l-4,12l-13,30l-16,36l-4,8l653,0l12,-21l16,-27l15,-26l2,-4l16,-35l17,-35l16,-39l17,-35l16,-46l17,-41l16,-31l15,-30l2,-6l17,-52l16,-51l11,-39l6,-20l16,-54l17,-53l6,-21l10,-41l17,-62l11,-45l5,-55l9,-92l-9,-13l-16,-24l-17,-19l-16,-20l-17,-22l-16,-24l-17,-24l-2,-2l-14,-9l-17,-10l-17,-9l-16,-9l-17,-9l-16,-11l-17,-11l-16,-12l-17,-10l-16,-11l-17,-11l-16,-12l-17,-11l-16,-12l-2,-1l-15,-14l-16,-14l-17,-14l-16,-14l-17,-13l-16,-11l-17,-12l-16,-11l-17,-9l-16,-12l-17,-12l-15,-12l-2,-2l-16,-19l-17,-19l-16,-23l-17,-19l-16,-17l-17,-19l-16,-20l-10,-10l-7,-10l-16,-26l-17,-32l-16,-30l-17,-29l-13,-21l-3,-7l-17,-32l-16,-40l-17,-43l-11,-26l-5,-18l-17,-49l-16,-54l-9,-27l-8,-37l-16,-61l-15,-50l-2,-16l-16,-115l-2,-17l2,-148l16,-65l17,-65l3,-18l13,-38l17,-64l12,-45l4,-11l17,-42l16,-46l17,-42l2,-7l14,-24l17,-26l16,-27l17,-31l16,-28l7,-12l10,-15l16,-20l17,-21l16,-19l17,-20l16,-19l17,-20l12,-14l4,-7l17,-23l16,-24l17,-20l17,-17l16,-16l17,-17l16,-16l8,-8l9,-13l16,-27l17,-29l16,-28l17,-29l11,-22l5,-10l17,-29l16,-27l5,-8ZM5176,100l10,35l10,39l6,15l17,46l16,51l12,36l5,13l16,42l17,45l16,48l17,33l16,37l17,33l16,38l3,7l14,21l17,30l16,34l17,31l16,29l1,3l16,19l16,19l17,21l16,23l17,22l16,26l12,18l5,7l16,22l17,23l16,23l17,25l16,21l17,21l4,5l12,30l17,40l16,36l17,31l6,11l10,42l17,77l7,29l4,148l-11,85l-9,63l-8,23l-16,42l-17,43l-13,40l-3,6l-17,35l-16,31l-17,29l-16,26l-12,21l-5,6l-16,17l-17,17l-16,18l-17,16l-16,18l-17,17l-16,15l-17,15l-9,9l-7,5l-17,13l-16,12l-17,14l-16,14l-17,13l-17,13l-16,10l-17,11l-16,12l-17,11l-16,11l-15,9l-2,1l-16,9l-17,12l-16,9l-17,9l-16,9l-17,9l-16,10l-17,10l-16,5l-17,6l-16,9l-17,7l-16,9l-17,9l-16,7l-17,8l-15,10l-1,3l-17,30l-17,25l-16,23l-17,22l-16,23l-17,22l10,148l7,27l16,74l12,46l5,17l16,66l17,57l2,8l15,66l16,75l2,7l15,50l16,49l17,49l16,50l17,49l16,49l17,47l16,33l17,50l5,18l11,47l7,27l638,0l-6,-74l-11,-68l-14,-80l-2,-11l-17,-103l-7,-34l-10,-45l-16,-91l-2,-12l-15,-121l-4,-27l-12,-74l-10,-74l-7,-65l-10,-82l-6,-74l-5,-74l5,-15l16,-40l17,-52l16,-41l17,-12l16,-9l17,-10l17,-11l16,-10l17,-11l16,-13l17,-11l16,-12l17,-13l16,-11l17,-14l16,-11l17,-12l16,-12l17,-12l16,-18l17,-18l16,-18l17,-18l16,-16l17,-15l8,-9l8,-13l17,-26l16,-22l17,-23l16,-24l17,-21l17,-19l16,-30l17,-34l16,-34l17,-33l11,-17l5,-11l17,-50l16,-36l17,-36l6,-15l10,-82l11,-66l-11,-98l-5,-50l-11,-21l-17,-32l-16,-25l-17,-36l-16,-29l-2,-5l-15,-16l-16,-20l-17,-20l-16,-21l-17,-18l-17,-22l-16,-22l-6,-9l-11,-13l-16,-21l-17,-20l-16,-22l-17,-20l-16,-18l-17,-22l-9,-11l-7,-20l-17,-43l-16,-44l-17,-38l-1,-3l-15,-48l-17,-49l-16,-51l-17,-62l-16,-68l-5,-18l-12,-58l-16,-83l-2,-7l-15,-83l-11,-65l-5,-74Z" fill="#8dbf71" stroke-opacity="1.0"></path><path fill-opacity="1.000" stroke-width="10" stroke="#e9cc77" d="M3173,100l-3,5l-16,27l-17,29l-6,13l-10,19l-17,29l-16,28l-17,29l-16,26l-11,17l-6,6l-16,16l-17,17l-16,16l-17,17l-17,20l-16,24l-17,23l-6,9l-10,13l-17,20l-16,18l-17,20l-16,19l-17,22l-16,19l-12,17l-5,9l-16,29l-17,31l-16,26l-17,26l-15,27l-1,3l-17,42l-16,46l-17,42l-6,15l-10,39l-17,65l-15,43l-1,9l-17,65l-16,66l-3,8l-1,148l4,33l16,115l17,57l16,62l6,29l11,32l16,53l17,50l4,13l12,30l17,42l16,40l17,33l1,3l15,24l17,28l16,30l17,32l16,27l5,7l12,12l16,20l17,18l16,18l17,19l16,23l17,19l16,19l17,13l17,13l16,11l17,10l16,11l17,11l16,12l17,12l16,14l17,14l16,14l14,13l3,2l16,12l17,12l16,12l17,11l16,11l17,9l16,12l17,11l16,11l17,9l16,9l17,9l17,10l12,8l4,5l17,24l16,23l17,23l16,20l17,19l16,23l7,11l-7,74l-7,73l-9,37l-17,62l-12,49l-4,14l-17,54l-16,53l-8,27l-9,32l-16,52l-17,51l-5,13l-12,25l-16,31l-17,41l-16,46l-2,5l-15,31l-16,39l-17,35l-16,34l-4,9l-13,23l-16,26l-14,25l793,0l14,-9l16,-11l17,-12l16,-9l17,-9l16,-9l17,-9l11,-6l5,-4l17,-11l16,-4l17,-11l16,-8l17,-10l17,-1l16,2l17,-2l16,-4l17,4l16,4l17,1l16,-5l17,2l16,4l17,3l16,9l17,11l16,12l9,8l8,7l16,11l17,12l16,19l17,21l3,4l684,0l-10,-35l-9,-39l-7,-24l-17,-50l-16,-32l-15,-42l-2,-6l-16,-49l-17,-50l-14,-43l-2,-7l-17,-49l-16,-49l-13,-43l-4,-15l-16,-75l-13,-58l-4,-16l-17,-58l-16,-65l-2,-9l-15,-55l-16,-74l-5,-18l-10,-148l15,-20l16,-22l17,-22l16,-23l17,-25l17,-30l3,-6l13,-9l17,-8l16,-7l17,-9l16,-8l17,-8l16,-9l17,-6l16,-5l17,-10l16,-10l17,-8l16,-10l17,-8l16,-10l17,-12l16,-9l5,-2l12,-7l16,-12l17,-11l16,-12l17,-11l16,-10l17,-13l17,-13l16,-14l17,-13l16,-13l17,-13l9,-6l7,-8l17,-15l16,-15l17,-16l16,-18l17,-16l16,-18l17,-17l16,-17l7,-8l10,-18l16,-26l17,-28l16,-32l17,-35l4,-9l12,-36l17,-43l16,-41l9,-28l8,-53l12,-95l-4,-148l-8,-35l-17,-77l-9,-36l-7,-14l-17,-31l-16,-36l-17,-40l-11,-27l-5,-7l-17,-21l-16,-21l-17,-24l-16,-24l-17,-23l-16,-22l-4,-5l-13,-19l-16,-26l-17,-23l-16,-23l-17,-20l-16,-20l-14,-17l-3,-5l-16,-30l-17,-31l-16,-33l-17,-31l-12,-18l-5,-11l-16,-37l-17,-33l-16,-38l-15,-29l-2,-5l-16,-47l-17,-45l-16,-43l-3,-8l-14,-41l-16,-51l-17,-46l-4,-10l-12,-47l-7,-27l-684,0l13,21l17,28l14,25l2,3l17,25l17,27l16,32l17,32l16,26l2,3l15,19l16,21l17,23l16,23l17,24l16,25l8,13l9,8l16,21l17,17l16,22l17,20l16,23l17,25l8,12l8,9l17,20l16,17l17,18l16,17l17,21l16,19l17,20l5,7l12,18l16,25l17,23l16,22l17,24l16,24l9,12l8,16l16,32l17,26l16,33l17,28l6,12l10,33l17,44l16,45l8,26l9,81l7,67l-7,148l-17,57l-16,46l-17,45l-16,34l-17,34l-16,36l-17,29l-9,15l-7,8l-17,23l-16,24l-17,24l-16,24l-17,20l-16,20l-4,5l-13,13l-17,19l-16,18l-17,19l-16,20l-17,17l-16,19l-17,17l-4,6l-12,9l-17,16l-16,13l-17,14l-16,11l-17,13l-16,14l-17,11l-16,12l-17,11l-16,13l-15,11l-2,1l-16,10l-17,10l-16,8l-17,11l-16,9l-17,9l-17,8l-16,8l-17,9l-16,6l-17,7l-16,6l-17,5l-16,4l-17,5l-16,5l-17,4l-16,3l-17,4l-16,2l-17,3l-16,2l-17,2l-16,3l-17,4l-16,1l-17,1l-16,2l-17,3l-17,-1l-16,0l-17,1l-16,-1l-17,-1l-16,-1l-17,-2l-16,0l-17,-1l-8,-1l-8,-1l-17,-3l-16,-2l-17,-4l-16,-4l-17,-3l-16,-3l-17,-3l-16,-5l-17,-4l-16,-6l-17,-6l-16,-7l-17,-8l-16,-7l-17,-6l-17,-8l-16,-8l-17,-8l-16,-7l-17,-7l-16,-8l-17,-7l-16,-9l-17,-11l-4,-3l-12,-12l-17,-17l-16,-19l-17,-15l-16,-20l-17,-24l-16,-21l-15,-20l-2,-3l-16,-23l-17,-23l-16,-19l-17,-20l-16,-22l-17,-28l-7,-10l-9,-20l-17,-32l-17,-29l-16,-26l-17,-24l-10,-17l-6,-13l-17,-39l-16,-42l-17,-45l-3,-9l-13,-56l-17,-57l-10,-35l-6,-55l-9,-93l0,-148l9,-57l16,-80l2,-11l15,-49l16,-72l6,-26l11,-34l16,-40l17,-40l15,-34l1,-3l17,-24l16,-22l17,-28l17,-28l16,-27l8,-16l9,-11l16,-15l17,-14l16,-16l17,-16l16,-18l17,-20l16,-18l17,-20l16,-16l17,-15l16,-17l17,-14l16,-16l17,-12l16,-11l17,-10l16,-9l17,-10l16,-11l10,-7l7,-8l16,-19l17,-15l17,-15l16,-18l17,-19l16,-15l17,-16l16,-13l13,-10l4,-3l16,-12l17,-15l16,-14l17,-15l16,-13l3,-2Z" fill="#e9cc77" stroke-opacity="1.0"></path><path fill-opacity="1.000" stroke-width="10" stroke="#c77560" d="M3961,100l-14,12l-17,15l-16,14l-17,14l-16,13l-7,6l-10,8l-16,12l-17,16l-16,16l-17,18l-16,18l-17,16l-17,15l-16,18l-9,11l-8,5l-16,11l-17,10l-16,9l-17,10l-16,11l-17,13l-16,15l-17,14l-16,17l-17,16l-16,15l-2,2l-15,19l-16,17l-17,21l-16,17l-17,16l-16,16l-17,14l-16,16l-10,12l-7,13l-16,27l-17,28l-17,29l-16,22l-17,23l-3,6l-13,30l-17,39l-16,41l-13,38l-4,20l-16,71l-17,56l-16,80l-11,68l0,148l11,111l4,37l12,42l17,57l11,49l5,13l17,45l16,42l17,39l4,9l12,21l17,24l16,26l17,29l17,31l8,17l8,13l17,28l16,21l17,21l16,19l17,23l16,23l17,22l16,21l17,24l16,20l17,15l16,19l17,17l10,10l6,4l17,11l16,10l17,7l16,8l17,6l16,8l17,8l16,7l17,8l17,6l16,7l17,8l16,7l17,7l16,5l17,5l16,4l17,3l16,3l17,4l16,3l17,4l16,2l17,3l16,2l17,1l16,0l17,2l16,1l17,1l16,1l17,-1l16,0l17,2l17,-4l16,-2l17,-1l16,-1l6,-1l11,-3l16,-3l17,-2l16,-2l17,-3l16,-2l17,-4l16,-3l17,-4l16,-5l17,-5l16,-4l17,-5l16,-6l17,-7l16,-7l17,-8l16,-8l17,-8l17,-9l16,-9l17,-11l16,-8l17,-10l16,-10l3,-2l14,-10l16,-12l17,-12l16,-12l17,-11l16,-14l17,-13l16,-11l17,-14l16,-13l17,-15l13,-11l3,-4l17,-17l16,-19l17,-17l16,-20l17,-19l16,-18l17,-19l15,-15l2,-3l16,-19l17,-21l16,-23l17,-24l16,-25l17,-23l9,-10l7,-11l17,-30l16,-35l17,-34l16,-34l2,-4l15,-40l16,-45l17,-57l1,-6l8,-148l-9,-80l-8,-68l-9,-31l-16,-45l-17,-44l-8,-28l-8,-15l-17,-29l-16,-33l-17,-25l-16,-32l-6,-13l-11,-14l-16,-24l-17,-24l-16,-22l-17,-23l-16,-25l-11,-16l-6,-8l-17,-20l-16,-19l-17,-21l-16,-18l-17,-18l-16,-17l-17,-20l-7,-7l-9,-14l-17,-25l-16,-23l-17,-20l-16,-22l-17,-17l-16,-20l-7,-7l-10,-15l-16,-26l-17,-24l-16,-22l-17,-24l-16,-21l-13,-16l-4,-7l-16,-25l-17,-32l-16,-33l-17,-26l-17,-25l-16,-29l-17,-29l-11,-16ZM4079,764l16,-7l17,-2l16,-4l17,0l16,-6l17,-1l17,0l16,-2l17,-2l16,-2l17,1l16,0l17,0l16,2l17,4l16,6l17,4l16,5l13,6l4,3l16,11l17,6l16,14l17,17l16,17l17,15l16,20l17,23l16,22l17,41l17,46l16,51l3,9l14,93l12,55l4,99l2,49l-2,15l-16,133l-17,63l-16,57l-10,28l-7,14l-17,30l-16,23l-17,23l-16,18l-17,23l-13,17l-3,2l-17,12l-16,5l-17,7l-16,5l-17,9l-16,5l-17,4l-16,1l-17,1l-16,-5l-17,-2l-16,2l-17,-2l-16,0l-17,-5l-16,-2l-17,-2l-17,-8l-16,-7l-17,-3l-16,-7l-17,-5l-11,-5l-5,-4l-17,-14l-16,-17l-17,-11l-16,-17l-17,-14l-16,-15l-17,-17l-16,-18l-17,-21l-16,-37l-17,-25l-16,-28l-17,-45l-5,-13l-11,-59l-13,-89l-4,-98l-2,-50l2,-18l15,-130l2,-6l16,-41l17,-41l16,-24l17,-24l6,-11l10,-12l17,-23l16,-17l17,-11l16,-20l17,-11l16,-17l17,-12l16,-15l13,-10ZM4084,3576l-5,3l-17,9l-16,9l-17,9l-16,9l-17,12l-16,11l-17,10l-2,2l536,0l-5,-8l-17,-20l-16,-20l-17,-12l-16,-11l-4,-3l-13,-12l-16,-12l-17,-11l-16,-9l-17,-3l-16,-4l-17,-2l-16,5l-17,-1l-16,-4l-17,-4l-16,4l-17,2l-16,-2l-17,1l-17,10l-16,8l-17,11l-16,4l-17,11Z" fill="#c77560" stroke-opacity="1.0"></path><path fill-opacity="1.000" stroke-width="10" stroke="#b05b5a" d="M4071,766l-9,7l-16,14l-17,12l-16,17l-17,11l-16,20l-17,11l-16,18l-17,22l-13,16l-3,5l-17,24l-16,24l-17,41l-16,41l-5,12l-12,111l-4,37l4,99l2,49l15,104l8,44l8,20l17,45l16,28l17,24l13,31l3,4l17,21l16,17l17,18l16,14l17,14l16,18l17,10l16,18l17,14l16,7l17,6l16,7l17,2l16,8l17,7l17,2l16,3l17,4l16,1l17,2l16,-2l17,2l16,4l17,0l16,-2l17,-3l16,-6l17,-9l16,-4l17,-7l16,-6l17,-11l5,-5l11,-13l17,-24l16,-18l17,-22l16,-24l17,-30l9,-17l8,-23l16,-57l17,-62l1,-6l15,-118l3,-30l-3,-98l-2,-50l-14,-64l-13,-84l-4,-13l-16,-51l-17,-46l-15,-37l-2,-3l-16,-22l-17,-23l-16,-19l-17,-16l-16,-17l-17,-17l-16,-14l-17,-6l-16,-11l-17,-8l-16,-5l-17,-4l-16,-6l-17,-4l-16,-2l-17,0l-16,0l-17,-1l-16,2l-17,2l-16,2l-17,0l-17,1l-16,6l-17,0l-16,4l-17,2l-16,6Z" fill="#b05b5a" stroke-opacity="1.0"></path><path fill-opacity="1.000" stroke-width="10" stroke="#984b44" d="" fill="#984b44" stroke-opacity="1.0"></path><path fill-opacity="0.125" stroke="none" d="" fill="#000"></path><path fill-opacity="0.251" stroke="none" d="M6772,3650l0,-1022l-17,0l-16,1l-17,1l-16,0l-17,1l-16,1l-17,1l-16,1l-17,1l-16,1l-17,2l-17,1l-16,2l-17,1l-16,2l-17,2l-16,1l-17,2l-16,2l-17,2l-16,2l-17,2l-16,2l-17,3l-16,2l-17,2l-16,3l-17,2l-16,3l-17,2l-16,3l-17,2l-16,3l-17,3l-16,2l-17,3l-17,3l-16,3l-17,3l-16,2l-17,3l-16,3l-17,3l-16,3l-17,3l-16,3l-17,3l-16,3l-17,3l-16,3l-17,3l-16,3l-17,3l-16,3l-17,3l-16,3l-17,3l-16,3l-17,3l-16,3l-17,3l-17,3l-16,-145l-17,3l-16,3l-17,3l-16,3l-17,3l-16,3l-17,3l-16,3l-17,3l-16,3l-17,3l-16,3l-17,3l-16,3l-17,3l-16,3l-17,3l-16,2l-17,3l-16,3l-17,3l-17,3l-16,3l-17,3l-16,2l-17,3l-16,3l-17,3l-16,3l-17,3l-16,2l-17,3l-16,3l-17,3l-16,3l-17,3l-16,2l-17,3l-16,3l-17,3l-16,3l-17,3l-16,2l-17,3l-16,3l-17,3l-17,3l-16,3l-17,2l-16,3l-17,3l-16,3l-17,3l-16,3l-17,3l-16,3l-17,2l-16,3l-17,3l-16,3l-17,3l-16,3l-17,3l-16,3l-17,3l-16,3l-17,3l-16,3l-17,3l-16,3l-17,3l-17,3l-16,3l-17,3l-16,3l-17,3l-16,3l-17,3l-16,3l-17,3l-16,3l-17,3l-16,3l-17,3l-16,3l-17,3l-16,3l-17,3l-16,3l-17,3l-16,2l-17,3l-16,3l-17,3l-17,3l-16,3l-17,2l-16,3l-17,3l-16,2l-17,3l-16,3l-17,2l-16,3l-17,2l-16,2l-17,3l-16,2l-17,2l-16,2l-17,3l-16,2l-17,2l-16,2l-17,1l-16,2l-17,2l-16,1l-17,2l-17,1l-16,2l-17,1l-16,1l-17,1l-16,2l-17,0l-16,1l-17,1l-16,1l-17,0l-16,1l-17,0l-16,0l-17,1l-16,0l-17,0l-16,-1l-17,0l-16,0l-17,-1l-16,0l-17,-1l-16,-1l-17,0l-17,-1l-16,-1l-17,-2l-16,-1l-17,-1l-16,-2l-17,-1l-16,-2l-17,-1l-16,-2l-17,-2l-16,-2l-17,-2l-16,-3l-17,-2l-16,-2l-17,-3l-16,-2l-17,-3l-16,-2l-17,-3l-16,-3l-17,-3l-17,-3l-16,-3l-17,-3l-16,-3l-17,-3l-16,-4l-17,-3l-16,-3l-17,-4l-16,-3l-17,-4l-16,-4l-17,-3l-16,-4l-17,-4l-16,-4l-17,-3l-16,-4l-17,-4l-16,-4l-17,-4l-16,-4l-17,-4l-16,-5l-17,-4l-17,-4l-16,-4l-17,-4l-16,-5l-17,-4l-16,-4l-17,-5l-16,-4l-17,-4l-16,-5l-17,-4l-16,-5l-17,-4l-16,-5l-17,-4l-16,-4l-17,-5l-16,-4l-17,-5l-16,-4l-17,-5l-16,-4l-17,-5l-16,-4l-17,143l-17,-5l-16,-4l-17,-5l-16,-4l-17,-4l-16,-5l-17,-4l-16,-5l-17,-4l-16,-5l-17,-4l-16,-4l-17,-5l-16,-4l-17,-4l-16,-5l-17,-4l-16,-4l-17,-4l-16,-5l-17,-4l-16,-4l-17,-4l-17,-4l-16,-4l-17,-4l-16,-4l-17,-4l-16,-4l-17,-4l-16,-4l-17,-3l-16,-4l-17,-4l-16,-3l-17,-4l-16,-3l-17,-4l-16,-3l-17,-4l-16,-3l-17,-3l-16,-3l-17,-4l-16,-3l-17,-3l-16,-3l-17,-2l-17,-3l-16,-3l-17,-3l-16,-2l-17,-3l-16,-2l-17,-2l-16,-3l-17,-2l-16,-2l-17,-2l-16,-2l-17,-2l-16,-2l-17,-2l-16,-1l-17,-2l-16,-1l-17,-2l-16,-1l-17,-1l-16,-1l-17,-1l-16,-1l-17,-1l-17,0l-16,-1l-17,-1l-16,0l-17,0l-16,-1l-17,0l-16,0l-17,0l-16,0l-17,1l0,1022Z" fill="#000"></path><path fill-opacity="0.125" stroke="none" d="M758,2628l17,-1l16,0l17,0l16,0l17,0l16,1l17,0l16,0l17,1l16,1l17,0l17,1l16,1l17,1l16,1l17,1l16,1l17,2l16,1l17,2l16,1l17,2l16,2l17,2l16,2l17,2l16,2l17,2l16,3l17,2l16,2l17,3l16,2l17,3l16,3l17,3l17,2l16,3l17,3l16,3l17,4l16,3l17,3l16,3l17,4l16,3l17,4l16,3l17,4l16,3l17,4l16,4l17,3l16,4l17,4l16,4l17,4l16,4l17,4l16,4l17,4l17,4l16,4l17,4l16,5l17,4l16,4l17,4l16,5l17,4l16,4l17,5l16,4l17,4l16,5l17,4l16,5l17,4l16,5l17,4l16,4l17,5l16,4l17,5l17,-143l16,4l17,5l16,4l17,5l16,4l17,5l16,4l17,5l16,4l17,4l16,5l17,4l16,5l17,4l16,5l17,4l16,4l17,5l16,4l17,4l16,5l17,4l16,4l17,4l17,4l16,5l17,4l16,4l17,4l16,4l17,4l16,4l17,3l16,4l17,4l16,4l17,3l16,4l17,4l16,3l17,4l16,3l17,3l16,4l17,3l16,3l17,3l16,3l17,3l17,3l16,3l17,3l16,2l17,3l16,2l17,3l16,2l17,2l16,3l17,2l16,2l17,2l16,2l17,1l16,2l17,1l16,2l17,1l16,1l17,2l16,1l17,1l17,0l16,1l17,1l16,0l17,1l16,0l17,0l16,1l17,0l16,0l17,-1l16,0l17,0l16,-1l17,0l16,-1l17,-1l16,-1l17,0l16,-2l17,-1l16,-1l17,-1l16,-2l17,-1l17,-2l16,-1l17,-2l16,-2l17,-1l16,-2l17,-2l16,-2l17,-3l16,-2l17,-2l16,-2l17,-3l16,-2l17,-2l16,-3l17,-2l16,-3l17,-3l16,-2l17,-3l16,-3l17,-2l16,-3l17,-3l17,-3l16,-3l17,-3l16,-2l17,-3l16,-3l17,-3l16,-3l17,-3l16,-3l17,-3l16,-3l17,-3l16,-3l17,-3l16,-3l17,-3l16,-3l17,-3l16,-3l17,-3l16,-3l17,-3l17,-3l16,-3l17,-3l16,-3l17,-3l16,-3l17,-3l16,-3l17,-3l16,-3l17,-3l16,-3l17,-3l16,-3l17,-2l16,-3l17,-3l16,-3l17,-3l16,-3l17,-3l16,-3l17,-2l16,-3l17,-3l17,-3l16,-3l17,-3l16,-2l17,-3l16,-3l17,-3l16,-3l17,-3l16,-2l17,-3l16,-3l17,-3l16,-3l17,-3l16,-2l17,-3l16,-3l17,-3l16,-3l17,-3l16,-2l17,-3l16,-3l17,-3l17,-3l16,-3l17,-3l16,-2l17,-3l16,-3l17,-3l16,-3l17,-3l16,-3l17,-3l16,-3l17,-3l16,-3l17,-3l16,-3l17,-3l16,-3l17,-3l16,-3l17,-3l16,145l17,-3l17,-3l16,-3l17,-3l16,-3l17,-3l16,-3l17,-3l16,-3l17,-3l16,-3l17,-3l16,-3l17,-3l16,-3l17,-3l16,-3l17,-3l16,-3l17,-3l16,-3l17,-3l16,-2l17,-3l16,-3l17,-3l17,-3l16,-2l17,-3l16,-3l17,-2l16,-3l17,-2l16,-3l17,-2l16,-3l17,-2l16,-2l17,-3l16,-2l17,-2l16,-2l17,-2l16,-2l17,-2l16,-1l17,-2l16,-2l17,-1l16,-2l17,-1l17,-2l16,-1l17,-1l16,-1l17,-1l16,-1l17,-1l16,0l17,-1l16,-1l17,0l0,-80l-17,0l-16,0l-17,1l-16,1l-17,0l-16,1l-17,1l-16,1l-17,1l-16,2l-17,1l-17,1l-16,2l-17,1l-16,2l-17,2l-16,2l-17,2l-16,2l-17,2l-16,2l-17,2l-16,2l-17,3l-16,2l-17,3l-16,2l-17,3l-16,2l-17,3l-16,3l-17,3l-16,2l-17,3l-16,3l-17,3l-17,3l-16,3l-17,3l-16,3l-17,3l-16,3l-17,3l-16,4l-17,3l-16,3l-17,3l-16,3l-17,4l-16,3l-17,3l-16,3l-17,3l-16,4l-17,3l-16,3l-17,3l-16,3l-17,4l-16,3l-17,3l-17,3l-16,-145l-17,4l-16,3l-17,3l-16,3l-17,3l-16,3l-17,3l-16,4l-17,3l-16,3l-17,3l-16,3l-17,3l-16,3l-17,3l-16,3l-17,3l-16,3l-17,3l-16,3l-17,2l-17,3l-16,3l-17,3l-16,3l-17,3l-16,3l-17,3l-16,2l-17,3l-16,3l-17,3l-16,3l-17,3l-16,2l-17,3l-16,3l-17,3l-16,2l-17,3l-16,3l-17,3l-16,2l-17,3l-16,3l-17,3l-17,2l-16,3l-17,3l-16,3l-17,2l-16,3l-17,3l-16,3l-17,2l-16,3l-17,3l-16,3l-17,2l-16,3l-17,3l-16,3l-17,2l-16,3l-17,3l-16,3l-17,2l-16,3l-17,3l-16,3l-17,2l-17,3l-16,3l-17,3l-16,2l-17,3l-16,3l-17,3l-16,2l-17,3l-16,3l-17,2l-16,3l-17,3l-16,2l-17,3l-16,3l-17,2l-16,3l-17,3l-16,2l-17,3l-16,3l-17,2l-17,2l-16,3l-17,3l-16,2l-17,2l-16,3l-17,2l-16,2l-17,3l-16,2l-17,2l-16,2l-17,2l-16,2l-17,2l-16,2l-17,2l-16,2l-17,2l-16,2l-17,1l-16,2l-17,1l-16,2l-17,1l-17,2l-16,1l-17,1l-16,1l-17,1l-16,1l-17,1l-16,1l-17,1l-16,0l-17,1l-16,0l-17,1l-16,0l-17,0l-16,0l-17,0l-16,0l-17,0l-16,0l-17,0l-16,-1l-17,0l-16,-1l-17,-1l-17,0l-16,-1l-17,-1l-16,-1l-17,-1l-16,-2l-17,-1l-16,-1l-17,-2l-16,-1l-17,-2l-16,-2l-17,-2l-16,-1l-17,-2l-16,-3l-17,-2l-16,-2l-17,-2l-16,-3l-17,-2l-16,-3l-17,-2l-17,-3l-16,-2l-17,-3l-16,-3l-17,-3l-16,-3l-17,-3l-16,-3l-17,-3l-16,-4l-17,-3l-16,-3l-17,-4l-16,-3l-17,-4l-16,-3l-17,-4l-16,-3l-17,-4l-16,-4l-17,-4l-16,-3l-17,-4l-16,-4l-17,-4l-17,-4l-16,-4l-17,-4l-16,-4l-17,-4l-16,-4l-17,-5l-16,-4l-17,-4l-16,-4l-17,-4l-16,-5l-17,-4l-16,-4l-17,-5l-16,-4l-17,-4l-16,-5l-17,-4l-16,-5l-17,-4l-16,-4l-17,-5l-16,-4l-17,143l-17,-4l-16,-4l-17,-5l-16,-4l-17,-5l-16,-4l-17,-5l-16,-4l-17,-4l-16,-5l-17,-4l-16,-5l-17,-4l-16,-4l-17,-5l-16,-4l-17,-4l-16,-5l-17,-4l-16,-4l-17,-4l-16,-5l-17,-4l-17,-4l-16,-4l-17,-4l-16,-4l-17,-4l-16,-4l-17,-4l-16,-4l-17,-4l-16,-4l-17,-3l-16,-4l-17,-4l-16,-4l-17,-3l-16,-4l-17,-3l-16,-4l-17,-3l-16,-4l-17,-3l-16,-3l-17,-3l-16,-3l-17,-3l-17,-3l-16,-3l-17,-3l-16,-3l-17,-3l-16,-2l-17,-3l-16,-2l-17,-3l-16,-2l-17,-2l-16,-3l-17,-2l-16,-2l-17,-1l-16,-2l-17,-2l-16,-2l-17,-1l-16,-2l-17,-1l-16,-1l-17,-2l-16,-1l-17,-1l-17,0l-16,-1l-17,-1l-16,-1l-17,0l-16,0l-17,-1l-16,0l-17,0l-16,0l-17,0Z" fill="#000"></path><path fill-opacity="0.125" stroke="none" d="M758,1213l17,-2l16,-2l17,-3l16,-2l17,-2l16,-3l17,-3l16,-2l17,-3l16,-3l17,-3l17,-2l16,-3l17,-3l16,-3l17,-3l16,-3l17,-4l16,-3l17,-3l16,-3l17,-3l16,-4l17,-3l16,-3l17,-3l16,-4l17,-3l16,-3l17,-4l16,-3l17,-3l16,-4l17,-3l16,-3l17,-4l17,-3l16,-3l17,-4l16,-3l17,-4l16,-3l17,-3l16,-4l17,-3l16,-3l17,-3l16,-4l17,-3l16,-3l17,-3l16,-4l17,-3l16,-3l17,-3l16,-4l17,-3l16,-3l17,-3l16,-3l17,-3l17,-4l16,-3l17,-3l16,-3l17,-3l16,-3l17,-3l16,-3l17,-3l16,-3l17,-3l16,-3l17,-3l16,-3l17,-3l16,-3l17,-3l16,-3l17,-3l16,-3l17,-3l16,-3l17,-3l17,-151l16,-3l17,-3l16,-3l17,-2l16,-3l17,-3l16,-3l17,-3l16,-3l17,-3l16,-3l17,-3l16,-3l17,-3l16,-3l17,-3l16,-2l17,-3l16,-3l17,-3l16,-3l17,-3l16,-3l17,-3l17,-3l16,-3l17,-3l16,-3l17,-3l16,-2l17,-3l16,-3l17,-3l16,-3l17,-3l16,-3l17,-3l16,-3l17,-2l16,-3l17,-3l16,-3l17,-3l16,-2l17,-3l16,-3l17,-3l16,-2l17,-3l17,-3l16,-2l17,-3l16,-2l17,-3l16,-2l17,-3l16,-2l17,-3l16,-2l17,-2l16,-3l17,-2l16,-2l17,-2l16,-2l17,-2l16,-2l17,-2l16,-2l17,-2l16,-1l17,-2l17,-2l16,-1l17,-1l16,-2l17,-1l16,-1l17,-1l16,-2l17,0l16,-1l17,-1l16,-1l17,-1l16,0l17,-1l16,0l17,0l16,0l17,0l16,0l17,0l16,0l17,0l16,0l17,1l17,0l16,1l17,1l16,1l17,0l16,1l17,2l16,1l17,1l16,1l17,2l16,1l17,2l16,2l17,1l16,2l17,2l16,2l17,2l16,3l17,2l16,2l17,3l16,2l17,3l17,2l16,3l17,3l16,3l17,3l16,3l17,3l16,3l17,3l16,3l17,4l16,3l17,3l16,4l17,3l16,4l17,4l16,3l17,4l16,4l17,3l16,4l17,4l17,4l16,4l17,4l16,4l17,4l16,4l17,4l16,5l17,4l16,4l17,4l16,5l17,4l16,4l17,4l16,5l17,4l16,5l17,4l16,4l17,5l16,4l17,5l16,4l17,5l17,4l16,5l17,4l16,5l17,4l16,5l17,4l16,5l17,4l16,5l17,4l16,5l17,4l16,5l17,4l16,5l17,4l16,5l17,4l16,4l17,5l16,4l17,5l16,4l17,4l17,4l16,5l17,4l16,4l17,4l16,4l17,5l16,4l17,4l16,4l17,4l16,3l17,4l16,4l17,4l16,4l17,3l16,4l17,4l16,3l17,4l16,151l17,4l17,3l16,3l17,3l16,4l17,3l16,3l17,3l16,2l17,3l16,3l17,3l16,2l17,3l16,2l17,3l16,2l17,2l16,2l17,2l16,2l17,2l16,2l17,1l16,2l17,1l17,2l16,1l17,1l16,1l17,1l16,1l17,1l16,1l17,0l16,1l17,0l16,0l17,1l16,0l17,0l16,0l17,-1l16,0l17,-1l16,0l17,-1l16,-1l17,0l16,-1l17,-1l17,-2l16,-1l17,-1l16,-2l17,-1l16,-2l17,-1l16,-2l17,-2l16,-2l17,-2l0,-80l-17,1l-16,2l-17,2l-16,2l-17,2l-16,1l-17,2l-16,1l-17,1l-16,2l-17,1l-17,1l-16,1l-17,1l-16,1l-17,0l-16,1l-17,0l-16,1l-17,0l-16,0l-17,1l-16,0l-17,0l-16,-1l-17,0l-16,0l-17,-1l-16,0l-17,-1l-16,-1l-17,0l-16,-1l-17,-1l-16,-1l-17,-2l-17,-1l-16,-1l-17,-2l-16,-1l-17,-2l-16,-2l-17,-1l-16,-2l-17,-2l-16,-2l-17,-3l-16,-2l-17,-2l-16,-3l-17,-2l-16,-3l-17,-2l-16,-3l-17,-3l-16,-2l-17,-3l-16,-3l-17,-3l-16,-3l-17,-4l-17,-3l-16,-151l-17,-3l-16,-4l-17,-3l-16,-4l-17,-3l-16,-4l-17,-4l-16,-3l-17,-4l-16,-4l-17,-4l-16,-4l-17,-4l-16,-4l-17,-4l-16,-4l-17,-4l-16,-4l-17,-4l-16,-4l-17,-4l-17,-5l-16,-4l-17,-4l-16,-4l-17,-5l-16,-4l-17,-5l-16,-4l-17,-4l-16,-5l-17,-4l-16,-5l-17,-4l-16,-5l-17,-4l-16,-5l-17,-5l-16,-4l-17,-5l-16,-4l-17,-5l-16,-4l-17,-5l-16,-5l-17,-4l-17,-5l-16,-4l-17,-5l-16,-4l-17,-5l-16,-5l-17,-4l-16,-5l-17,-4l-16,-5l-17,-4l-16,-5l-17,-4l-16,-5l-17,-4l-16,-4l-17,-5l-16,-4l-17,-5l-16,-4l-17,-4l-16,-4l-17,-5l-16,-4l-17,-4l-17,-4l-16,-4l-17,-4l-16,-4l-17,-4l-16,-4l-17,-4l-16,-4l-17,-4l-16,-3l-17,-4l-16,-4l-17,-3l-16,-4l-17,-3l-16,-4l-17,-3l-16,-3l-17,-4l-16,-3l-17,-3l-16,-3l-17,-3l-17,-3l-16,-2l-17,-3l-16,-3l-17,-2l-16,-3l-17,-2l-16,-3l-17,-2l-16,-2l-17,-2l-16,-2l-17,-2l-16,-2l-17,-1l-16,-2l-17,-1l-16,-2l-17,-1l-16,-1l-17,-1l-16,-1l-17,-1l-16,-1l-17,-1l-17,0l-16,-1l-17,0l-16,-1l-17,0l-16,0l-17,0l-16,0l-17,1l-16,0l-17,0l-16,1l-17,1l-16,0l-17,1l-16,1l-17,1l-16,1l-17,2l-16,1l-17,1l-16,2l-17,1l-16,2l-17,2l-17,1l-16,2l-17,2l-16,2l-17,2l-16,3l-17,2l-16,2l-17,2l-16,3l-17,2l-16,3l-17,2l-16,3l-17,3l-16,2l-17,3l-16,3l-17,3l-16,3l-17,3l-16,2l-17,3l-17,3l-16,3l-17,3l-16,3l-17,3l-16,4l-17,3l-16,3l-17,3l-16,3l-17,3l-16,3l-17,3l-16,4l-17,3l-16,3l-17,3l-16,3l-17,3l-16,4l-17,3l-16,3l-17,3l-16,3l-17,3l-17,3l-16,4l-17,3l-16,3l-17,3l-16,3l-17,3l-16,3l-17,3l-16,4l-17,3l-16,3l-17,3l-16,3l-17,3l-16,3l-17,3l-16,3l-17,3l-16,3l-17,3l-16,3l-17,3l-16,3l-17,151l-17,3l-16,3l-17,3l-16,3l-17,3l-16,3l-17,3l-16,3l-17,3l-16,3l-17,4l-16,2l-17,4l-16,3l-17,3l-16,3l-17,3l-16,3l-17,3l-16,3l-17,3l-16,3l-17,3l-17,3l-16,3l-17,3l-16,3l-17,3l-16,3l-17,4l-16,3l-17,3l-16,3l-17,3l-16,3l-17,3l-16,3l-17,4l-16,3l-17,3l-16,3l-17,3l-16,3l-17,3l-16,4l-17,3l-16,3l-17,3l-17,3l-16,4l-17,3l-16,3l-17,3l-16,3l-17,3l-16,3l-17,4l-16,3l-17,3l-16,3l-17,3l-16,3l-17,3l-16,3l-17,3l-16,3l-17,3l-16,3l-17,3l-16,2l-17,3l-16,3l-17,3l-17,2l-16,3l-17,2l-16,3l-17,2l-16,3l-17,2l-16,2l-17,3l-16,2l-17,2Z" fill="#000"></path><path fill-opacity="0.251" stroke="none" d="M758,1133l17,-2l16,-2l17,-3l16,-2l17,-2l16,-3l17,-2l16,-3l17,-2l16,-3l17,-2l17,-3l16,-3l17,-3l16,-2l17,-3l16,-3l17,-3l16,-3l17,-3l16,-3l17,-3l16,-3l17,-3l16,-3l17,-3l16,-3l17,-4l16,-3l17,-3l16,-3l17,-3l16,-3l17,-3l16,-4l17,-3l17,-3l16,-3l17,-3l16,-4l17,-3l16,-3l17,-3l16,-3l17,-3l16,-3l17,-4l16,-3l17,-3l16,-3l17,-3l16,-3l17,-3l16,-3l17,-4l16,-3l17,-3l16,-3l17,-3l16,-3l17,-3l17,-3l16,-3l17,-3l16,-3l17,-3l16,-3l17,-3l16,-3l17,-3l16,-3l17,-4l16,-2l17,-4l16,-3l17,-3l16,-3l17,-3l16,-3l17,-3l16,-3l17,-3l16,-3l17,-3l17,-151l16,-3l17,-3l16,-3l17,-3l16,-3l17,-3l16,-3l17,-3l16,-3l17,-3l16,-3l17,-3l16,-3l17,-3l16,-4l17,-3l16,-3l17,-3l16,-3l17,-3l16,-3l17,-3l16,-4l17,-3l17,-3l16,-3l17,-3l16,-3l17,-3l16,-4l17,-3l16,-3l17,-3l16,-3l17,-3l16,-4l17,-3l16,-3l17,-3l16,-3l17,-3l16,-3l17,-3l16,-4l17,-3l16,-3l17,-3l16,-3l17,-3l17,-3l16,-2l17,-3l16,-3l17,-3l16,-3l17,-3l16,-2l17,-3l16,-3l17,-2l16,-3l17,-2l16,-3l17,-2l16,-2l17,-2l16,-3l17,-2l16,-2l17,-2l16,-2l17,-1l17,-2l16,-2l17,-1l16,-2l17,-1l16,-1l17,-2l16,-1l17,-1l16,-1l17,-1l16,0l17,-1l16,-1l17,0l16,0l17,-1l16,0l17,0l16,0l17,0l16,1l17,0l16,1l17,0l17,1l16,1l17,1l16,1l17,1l16,1l17,1l16,2l17,1l16,2l17,1l16,2l17,2l16,2l17,2l16,2l17,2l16,3l17,2l16,3l17,2l16,3l17,3l16,2l17,3l17,3l16,3l17,3l16,3l17,4l16,3l17,3l16,4l17,3l16,4l17,3l16,4l17,4l16,3l17,4l16,4l17,4l16,4l17,4l16,4l17,4l16,4l17,4l17,4l16,4l17,5l16,4l17,4l16,4l17,5l16,4l17,5l16,4l17,4l16,5l17,4l16,5l17,4l16,5l17,4l16,5l17,4l16,5l17,5l16,4l17,5l16,4l17,5l17,4l16,5l17,5l16,4l17,5l16,4l17,5l16,4l17,5l16,5l17,4l16,5l17,4l16,5l17,4l16,5l17,4l16,4l17,5l16,4l17,5l16,4l17,4l16,4l17,5l17,4l16,4l17,4l16,4l17,4l16,4l17,4l16,4l17,4l16,4l17,4l16,4l17,4l16,3l17,4l16,4l17,3l16,4l17,3l16,4l17,3l16,151l17,3l17,4l16,3l17,3l16,3l17,3l16,2l17,3l16,3l17,2l16,3l17,2l16,3l17,2l16,2l17,3l16,2l17,2l16,2l17,1l16,2l17,2l16,1l17,2l16,1l17,1l17,2l16,1l17,1l16,1l17,0l16,1l17,1l16,0l17,1l16,0l17,0l16,1l17,0l16,0l17,-1l16,0l17,0l16,-1l17,0l16,-1l17,0l16,-1l17,-1l16,-1l17,-1l17,-1l16,-2l17,-1l16,-1l17,-2l16,-1l17,-2l16,-2l17,-2l16,-2l17,-1l0,-1036l-6014,0Z" fill="#000"></path><path fill-opacity="0.125" stroke="none" d="" fill="#000"></path></g><g transform="scale(0.1)"></g><g stroke-width="1" stroke="#000" fill="none" stroke-opacity="0.2"><line x2="126.2" y1="10" x1="126.2" y2="370" stroke-opacity="0.2"></line><line x2="172.5" y1="10" x1="172.5" y2="370" stroke-opacity="0.2"></line><line x2="223.7" y1="10" x1="223.7" y2="370" stroke-opacity="0.2"></line><line x2="273.2" y1="10" x1="273.2" y2="370" stroke-opacity="0.2"></line><line x2="324.5" y1="10" x1="324.5" y2="370" stroke-opacity="0.2"></line><line x2="374" y1="10" x1="374" y2="370" stroke-opacity="0.2"></line><line x2="425.2" y1="10" x1="425.2" y2="370" stroke-opacity="0.2"></line><line x2="476.4" y1="10" x1="476.4" y2="370" stroke-opacity="0.2"></line><line x2="526" y1="10" x1="526" y2="370" stroke-opacity="0.2"></line><line x2="577.2" y1="10" x1="577.2" y2="370" stroke-opacity="0.2"></line><line x2="626.8" y1="10" x1="626.8" y2="370" stroke-opacity="0.2"></line><line x2="681" y1="365" x1="72" y2="365"></line><line x2="681" y1="335.4" x1="72" y2="335.4"></line><line x2="681" y1="305.8" x1="72" y2="305.8"></line><line x2="681" y1="276.3" x1="72" y2="276.3"></line><line x2="681" y1="246.7" x1="72" y2="246.7"></line><line x2="681" y1="217.1" x1="72" y2="217.1"></line><line x2="681" y1="187.5" x1="72" y2="187.5"></line><line x2="681" y1="157.9" x1="72" y2="157.9"></line><line x2="681" y1="128.3" x1="72" y2="128.3"></line><line x2="681" y1="98.8" x1="72" y2="98.8"></line><line x2="681" y1="69.2" x1="72" y2="69.2"></line><line x2="681" y1="39.6" x1="72" y2="39.6"></line><line x2="681" y1="10" x1="72" y2="10"></line></g><g><rect fill-opacity="0.004" y="10" x="75" height="355" width="51.2" fill="#fff"></rect><text stroke="none" y="381.5" text-anchor="middle" x="100.6">Jan</text></g><g><rect fill-opacity="0.004" y="10" x="126.2" height="355" width="46.3" fill="#fff"></rect><text stroke="none" y="381.5" text-anchor="middle" x="149.3">Feb</text></g><g><rect fill-opacity="0.004" y="10" x="172.5" height="355" width="51.2" fill="#fff"></rect><text stroke="none" y="381.5" text-anchor="middle" x="198.1">Mar</text></g><g><rect fill-opacity="0.004" y="10" x="223.7" height="355" width="49.6" fill="#fff"></rect><text stroke="none" y="381.5" text-anchor="middle" x="248.5">Apr</text></g><g><rect fill-opacity="0.004" y="10" x="273.2" height="355" width="51.2" fill="#fff"></rect><text stroke="none" y="381.5" text-anchor="middle" x="298.9">May</text></g><g><rect fill-opacity="0.004" y="10" x="324.5" height="355" width="49.6" fill="#fff"></rect><text stroke="none" y="381.5" text-anchor="middle" x="349.2">Jun</text></g><g><rect fill-opacity="0.004" y="10" x="374" height="355" width="51.2" fill="#fff"></rect><text stroke="none" y="381.5" text-anchor="middle" x="399.6">Jul</text></g><g><rect fill-opacity="0.004" y="10" x="425.2" height="355" width="51.2" fill="#fff"></rect><text stroke="none" y="381.5" text-anchor="middle" x="450.8">Aug</text></g><g><rect fill-opacity="0.004" y="10" x="476.4" height="355" width="49.6" fill="#fff"></rect><text stroke="none" y="381.5" text-anchor="middle" x="501.2">Sep</text></g><g><rect fill-opacity="0.004" y="10" x="526" height="355" width="51.2" fill="#fff"></rect><text stroke="none" y="381.5" text-anchor="middle" x="551.6">Oct</text></g><g><rect fill-opacity="0.004" y="10" x="577.2" height="355" width="49.6" fill="#fff"></rect><text stroke="none" y="381.5" text-anchor="middle" x="602">Nov</text></g><g><rect fill-opacity="0.004" y="10" x="626.8" height="355" width="51.2" fill="#fff"></rect><text stroke="none" y="381.5" text-anchor="middle" x="652.4">Dec</text></g><g stroke="none" fill="#666"><text y="370.2" text-anchor="end" x="71">0</text><text y="370.2" x="682">0</text><text y="340.6" text-anchor="end" x="71">2</text><text y="340.6" x="682">2</text><text y="311" text-anchor="end" x="71">4</text><text y="311" x="682">4</text><text y="281.4" text-anchor="end" x="71">6</text><text y="281.4" x="682">6</text><text y="251.9" text-anchor="end" x="71">8</text><text y="251.9" x="682">8</text><text y="222.3" text-anchor="end" x="71">10</text><text y="222.3" x="682">10</text><text y="192.7" text-anchor="end" x="71">12</text><text y="192.7" x="682">12</text><text y="163.1" text-anchor="end" x="71">14</text><text y="163.1" x="682">14</text><text y="133.5" text-anchor="end" x="71">16</text><text y="133.5" x="682">16</text><text y="103.9" text-anchor="end" x="71">18</text><text y="103.9" x="682">18</text><text y="74.4" text-anchor="end" x="71">20</text><text y="74.4" x="682">20</text><text y="44.8" text-anchor="end" x="71">22</text><text y="44.8" x="682">22</text><text y="15.2" text-anchor="end" x="71">0</text><text y="15.2" x="682">0</text></g><g font-family="sans-serif" text-decoration="none" font-style="normal" font-size="15" font-weight="normal"><text font-family="sans-serif" stroke="none" opacity="0.8" y="33.6" text-decoration="none" text-anchor="middle" x="114.9" font-style="normal" font-size="15" fill="#fff" font-weight="normal">0°-6°</text></g><g font-family="sans-serif" text-decoration="none" font-style="normal" font-size="15" font-weight="normal"><text font-family="sans-serif" stroke="none" opacity="0.8" y="272.6" text-decoration="none" text-anchor="middle" x="134.6" font-style="normal" font-size="15" fill="#fff" font-weight="normal">0°-6°</text></g><g font-family="sans-serif" text-decoration="none" font-style="normal" font-size="15" font-weight="normal"><text font-family="sans-serif" stroke="none" opacity="0.8" y="144.8" text-decoration="none" text-anchor="middle" x="127" font-style="normal" font-size="15" fill="#fff" font-weight="normal">7°-12°</text></g><g font-family="sans-serif" text-decoration="none" font-style="normal" font-size="15" font-weight="normal"><text font-family="sans-serif" stroke="none" opacity="0.8" y="77.3" text-decoration="none" text-anchor="middle" x="637.6" font-style="normal" font-size="15" fill="#fff" font-weight="normal">7°-12°</text></g><g font-family="sans-serif" text-decoration="none" font-style="normal" font-size="15" font-weight="normal"><text font-family="sans-serif" stroke="none" opacity="0.8" y="151.9" text-decoration="none" text-anchor="middle" x="218.9" font-style="normal" font-size="15" fill="#fff" font-weight="normal">13°-17°</text></g><g font-family="sans-serif" text-decoration="none" font-style="normal" font-size="15" font-weight="normal"><text font-family="sans-serif" stroke="none" opacity="0.8" y="272.6" text-decoration="none" text-anchor="middle" x="529.1" font-style="normal" font-size="15" fill="#fff" font-weight="normal">13°-17°</text></g><g font-family="sans-serif" text-decoration="none" font-style="normal" font-size="15" font-weight="normal"><text font-family="sans-serif" stroke="none" opacity="0.8" y="304.5" text-decoration="none" text-anchor="middle" x="422.2" font-style="normal" font-size="15" fill="#fff" font-weight="normal">18°-23°</text></g><g font-family="sans-serif" text-decoration="none" font-style="normal" font-size="15" font-weight="normal"><text font-family="sans-serif" stroke="none" opacity="0.8" y="48.6" text-decoration="none" text-anchor="middle" x="419.2" font-style="normal" font-size="15" fill="#fff" font-weight="normal">24°-28°</text></g><g font-family="sans-serif" text-decoration="none" font-style="normal" font-size="15" font-weight="normal"><text font-family="sans-serif" stroke="none" opacity="0.8" y="133.1" text-decoration="none" text-anchor="middle" x="423.1" font-style="normal" font-size="15" fill="#fff" font-weight="normal">29°-34°</text></g><g font-family="sans-serif" text-decoration="none" font-style="normal" font-size="15" font-weight="normal"><text font-family="sans-serif" stroke="none" opacity="0.8" y="359.5" text-decoration="none" text-anchor="middle" x="425.3" font-style="normal" font-size="15" fill="#fff" font-weight="normal">24°-28°</text></g><g font-family="sans-serif" text-decoration="none" font-style="normal" font-size="15" font-weight="normal"><text font-family="sans-serif" stroke="none" opacity="0.8" y="259.5" text-decoration="none" text-anchor="middle" x="642.7" font-style="normal" font-size="15" fill="#fff" font-weight="normal">0°-6°</text></g><g font-family="sans-serif" text-decoration="none" font-style="normal" font-size="15" font-weight="normal"><text font-family="sans-serif" stroke="none" opacity="0.8" y="25.9" text-decoration="none" text-anchor="middle" x="642.7" font-style="normal" font-size="15" fill="#fff" font-weight="normal">0°-6°</text></g></svg>