<svg font-family="sans-serif" viewBox="0 0 753 387" xmlns:xlink="http://www.w3.org/1999/xlink" text-decoration="none" font-style="normal" width="753px" xmlns="http://www.w3.org/2000/svg" font-size="15" version="1.1" font-weight="normal" height="387px"><title>Average Hourly Temperature in Islamabad</title><defs><clipPath id="plot-sample-bounds-8"><rect y="0" x="75.8" height="365" width="601.3"></rect></clipPath><clipPath id="plot-sample-bounds-scaled-8"><rect y="0" x="758.3" height="3650" width="6013.5"></rect></clipPath></defs><g transform="scale(0.1)"><path fill-opacity="1.000" stroke-width="10" stroke="#5ca0b4" d="" fill="#5ca0b4" stroke-opacity="1.0"></path><path fill-opacity="1.000" stroke-width="10" stroke="#83c2d5" d="" fill="#83c2d5" stroke-opacity="1.0"></path><path fill-opacity="1.000" stroke-width="10" stroke="#679568" d="M758,3596l5,-20l12,-102l16,3l17,6l16,4l17,2l16,7l17,2l16,0l17,-4l16,2l17,-13l17,-6l16,-11l17,-15l16,-5l17,-3l13,-15l3,-4l17,-15l16,-15l17,-15l16,-19l17,-23l16,-15l17,-19l16,-19l4,-4l13,-18l16,-28l17,-25l16,-39l17,-23l10,-15l6,-11l17,-38l16,-30l17,-32l16,-37l17,-27l17,-44l16,-49l10,-28l7,-17l16,-45l17,-40l16,-34l6,-11l11,-60l11,-88l-10,-148l-1,-2l-17,-14l-16,-13l-17,-15l-16,-16l-17,-21l-16,-20l-17,-17l-17,-16l-14,-14l-2,-1l-17,-9l-16,-6l-17,-7l-16,-5l-17,-7l-16,-7l-17,-7l-16,-6l-17,-6l-16,-6l-17,-4l-16,-6l-17,-5l-16,-5l-17,-4l-16,-6l-17,-4l-16,-4l-17,-4l-16,0l-17,-4l-16,-2l-17,-2l-17,-3l-16,-2l-17,-1l-16,1l-17,-1l-16,2l-17,1l-16,1l-17,3l-16,1l-17,2l0,0ZM6439,2245l-14,12l-17,15l-16,14l-17,16l-16,14l-17,12l-16,13l-17,15l-16,14l-17,14l-10,9l-6,59l-10,89l10,88l7,60l9,30l17,56l16,55l2,6l15,35l16,39l17,35l16,34l3,5l14,30l16,32l17,34l16,33l14,19l3,4l16,24l17,20l16,24l17,24l16,11l17,21l14,20l2,4l17,18l17,18l16,19l17,19l16,18l17,19l16,11l17,15l8,7l8,7l17,15l16,7l17,4l0,-1324l-17,3l-16,2l-17,4l-16,5l-17,4l-16,6l-17,5l-16,6l-17,6l-16,6l-17,5l-17,7l-16,6l-17,6l-16,3l-17,5l-16,5l-17,6l-16,8l-17,9Z" fill="#679568" stroke-opacity="1.0"></path><path fill-opacity="1.000" stroke-width="10" stroke="#74a877" d="M758,775l17,4l16,3l17,-1l16,3l17,3l16,3l17,0l16,-1l17,-3l16,-1l17,-2l17,-4l16,-4l17,-5l16,-4l17,-9l16,-7l17,-7l16,-7l17,-7l16,-9l17,-7l16,-7l17,-8l16,-9l17,-10l16,-11l17,-12l16,-9l17,-13l16,-11l7,-5l10,-9l16,-17l17,-10l16,-16l17,-16l17,-20l16,-14l17,-17l16,-13l17,-14l2,-2l14,-14l17,-19l16,-17l17,-21l16,-19l17,-21l16,-19l13,-18l4,-5l16,-24l17,-26l16,-24l17,-24l16,-27l13,-18l4,-5l16,-24l17,-23l15,-22l-957,0ZM6072,100l6,17l16,42l6,15l11,18l16,27l17,26l16,28l17,25l17,24l16,23l17,25l16,24l17,20l16,25l17,24l5,7l11,10l17,17l16,18l17,15l16,14l17,12l16,18l17,16l16,13l17,11l5,4l11,6l17,10l16,9l17,9l16,8l17,12l16,9l17,11l17,11l16,11l17,11l16,8l17,7l16,7l17,6l16,3l17,5l16,3l6,2l11,2l0,-668ZM758,2133l17,-2l16,-1l17,-3l16,-1l17,-1l16,-2l17,1l16,-1l17,1l16,2l17,3l17,2l16,2l17,4l16,0l17,4l16,4l17,4l16,6l17,4l16,5l17,5l16,6l17,4l16,6l17,6l16,6l17,7l16,7l17,7l16,5l17,7l16,6l17,9l16,16l17,16l17,17l16,20l17,21l16,16l17,14l16,14l17,14l9,148l-9,74l-14,74l-3,5l-16,34l-17,40l-16,45l-9,23l-8,22l-16,50l-17,44l-17,27l-2,5l-14,32l-17,32l-16,30l-17,37l-10,17l-6,10l-17,24l-16,38l-17,25l-16,29l-17,22l-16,19l-17,19l-16,15l-17,23l-16,19l-17,15l-16,15l-17,16l-6,7l-10,12l-17,3l-16,4l-17,15l-16,12l-17,5l-17,14l-16,-3l-17,4l-16,0l-17,-1l-16,-8l-17,-2l-16,-4l-17,-5l-16,-4l-12,106l-5,19l0,55l957,0l1,-3l17,-26l16,-27l12,-18l5,-11l17,-38l16,-32l17,-35l14,-32l2,-4l17,-40l16,-48l17,-36l8,-20l8,-22l17,-45l16,-50l12,-31l5,-14l16,-46l17,-46l13,-42l3,-9l17,-55l16,-44l14,-40l3,-13l16,-60l17,-61l4,-13l-4,-50l-7,-98l-10,-18l-16,-28l-17,-34l-16,-37l-13,-31l-4,-4l-16,-16l-17,-18l-16,-17l-17,-17l-16,-17l-17,-20l-16,-14l-17,-17l-7,-8l-9,-8l-17,-12l-16,-11l-17,-11l-16,-11l-17,-12l-17,-12l-16,-12l-17,-12l-16,-11l-17,-11l-16,-11l-17,-13l-1,-1l-15,-11l-17,-10l-16,-11l-17,-11l-16,-11l-17,-11l-16,-10l-17,-9l-16,-8l-17,-9l-16,-9l-17,-8l-16,-6l-17,-7l-16,-7l-17,-9l-2,-1l-14,-8l-17,-9l-17,-10l-16,-6l-17,-6l-16,-8l-17,-8l-16,-6l-17,-7l-16,-7l-17,-6l-16,-5l-17,-5l-16,-5l-17,-3l-16,-5l-17,-5l-16,-4l-17,-5l-16,-5l-17,-4l-16,-3l-17,-3l-16,-2l-17,-1l-16,-3l-17,-2l-17,-1l-16,-1l-17,1l-16,-1l-17,0l-16,3l-17,3l-16,2l-17,3l-16,2l-17,5ZM6478,1949l-4,2l-16,11l-17,9l-16,8l-17,8l-16,8l-17,5l-16,6l-17,9l-16,8l-17,9l-16,8l-17,5l-16,8l-17,8l-16,11l-17,11l-16,14l-17,14l-17,12l-16,9l-17,8l-16,8l-17,7l-16,10l-17,10l-16,11l-17,7l-16,8l-17,8l-16,11l-17,14l-12,11l-4,4l-17,17l-16,17l-17,16l-16,16l-17,15l-16,16l-17,17l-16,16l-15,14l-2,7l-16,54l-17,48l-14,39l1,148l13,54l17,67l6,26l10,33l17,60l16,55l17,59l16,58l9,31l8,23l16,47l17,47l12,31l4,10l17,44l16,40l17,41l5,13l11,26l17,38l16,42l17,39l1,3l15,44l11,30l700,0l0,-192l-17,-5l-16,-7l-17,-14l-4,-4l-12,-11l-17,-14l-16,-12l-17,-18l-16,-19l-17,-18l-16,-20l-17,-18l-17,-18l-16,-24l-17,-21l-16,-11l-17,-24l-16,-24l-17,-20l-16,-24l-17,-24l-16,-33l-17,-33l-16,-33l-12,-25l-5,-9l-16,-35l-17,-35l-16,-39l-13,-30l-4,-13l-16,-54l-17,-56l-7,-24l-9,-74l-9,-74l9,-74l8,-74l8,-8l17,-13l16,-14l17,-15l16,-13l17,-13l16,-14l17,-15l16,-15l17,-14l16,-14l17,-9l16,-8l17,-6l16,-5l17,-5l16,-3l17,-6l16,-6l17,-7l17,-5l16,-6l17,-6l16,-6l17,-5l16,-6l17,-4l16,-5l17,-4l16,-2l17,-3l0,-307l-17,4l-16,4l-17,3l-16,5l-17,5l-16,6l-17,6l-16,7l-17,9l-16,9l-17,8l-17,9l-16,7l-17,5l-16,6l-17,7l-16,9Z" fill="#74a877" stroke-opacity="1.0"></path><path fill-opacity="1.000" stroke-width="10" stroke="#8dbf71" d="M1713,100l-13,19l-17,24l-16,23l-6,8l-11,15l-16,28l-17,23l-16,25l-17,26l-16,23l-5,8l-12,16l-16,19l-17,20l-16,20l-17,21l-16,17l-17,19l-16,16l-17,14l-16,13l-17,17l-16,14l-17,20l-17,16l-16,16l-17,10l-16,17l-12,11l-5,3l-16,12l-17,12l-16,9l-17,12l-16,11l-17,10l-16,9l-17,8l-16,8l-17,7l-16,8l-17,7l-16,7l-17,7l-16,7l-17,9l-5,2l-11,3l-17,4l-16,5l-17,4l-17,1l-16,2l-17,3l-16,1l-17,-1l-16,-3l-17,-3l-16,-2l-17,1l-16,-3l-17,-4l0,0l0,1051l0,0l17,-5l16,-2l17,-3l16,-2l17,-3l16,-3l17,0l16,1l17,-1l16,1l17,1l17,2l16,3l17,1l16,2l17,3l16,3l17,4l16,5l17,5l16,4l17,5l16,5l17,3l16,5l17,5l16,5l17,7l16,6l17,7l16,6l17,9l16,7l17,6l16,6l17,10l17,9l12,7l4,2l17,9l16,7l17,7l16,6l17,8l16,9l17,9l16,8l17,9l16,10l17,11l16,11l17,11l16,11l17,10l13,10l3,2l17,14l16,10l17,11l16,11l17,12l16,12l17,12l17,12l16,11l17,11l16,11l17,12l7,7l9,9l17,17l16,15l17,19l16,17l17,17l16,17l17,18l16,16l3,3l14,34l16,37l17,34l16,28l9,15l8,123l2,25l-2,6l-17,61l-16,60l-5,20l-12,35l-16,44l-17,55l-4,14l-12,37l-17,47l-16,46l-7,18l-10,26l-16,50l-17,45l-10,27l-6,16l-17,36l-16,48l-17,40l-3,8l-13,28l-17,36l-16,31l-17,39l-7,14l-10,15l-16,28l-17,26l-3,5l577,0l5,-7l16,-28l17,-28l7,-11l9,-22l17,-36l16,-38l17,-42l4,-10l12,-33l17,-46l16,-43l10,-26l7,-20l16,-50l17,-49l13,-29l3,-9l17,-47l16,-57l11,-35l6,-18l17,-53l16,-55l6,-22l11,-84l9,-63l-9,-24l-17,-52l-16,-60l-4,-12l-13,-17l-17,-21l-16,-22l-17,-19l-16,-19l-17,-21l-16,-23l-5,-6l-12,-12l-16,-15l-17,-14l-16,-17l-17,-15l-16,-16l-17,-15l-16,-16l-17,-17l-10,-11l-6,-8l-17,-12l-16,-13l-17,-12l-16,-13l-17,-13l-16,-14l-17,-13l-16,-13l-17,-13l-17,-11l-16,-12l-2,-1l-15,-11l-16,-13l-17,-12l-16,-13l-17,-14l-16,-13l-17,-13l-16,-12l-17,-15l-16,-15l-17,-13l-5,-4l-11,-11l-17,-19l-16,-14l-17,-16l-16,-15l-17,-16l-16,-17l-17,-12l-16,-11l-17,-16l-1,-1l-16,-19l-16,-23l-17,-23l-16,-22l-17,-21l-16,-19l-17,-19l-1,-2l-15,-24l-17,-30l-16,-27l-17,-29l-16,-27l-7,-11l-10,-40l-16,-56l-17,-33l-10,-19l10,-55l14,-93l3,-6l16,-54l17,-74l3,-14l13,-24l17,-28l16,-30l17,-33l16,-30l2,-2l15,-18l16,-19l17,-18l16,-20l17,-23l16,-23l17,-20l6,-7l11,-13l16,-19l17,-15l16,-22l17,-19l16,-16l17,-16l16,-20l7,-8l10,-15l16,-21l17,-19l16,-24l17,-21l16,-19l17,-16l11,-13l5,-7l17,-19l16,-24l17,-20l16,-19l17,-21l16,-21l14,-17l3,-5l17,-26l16,-24l17,-29l16,-28l17,-24l9,-12l7,-9l17,-23l16,-24l12,-18ZM5607,100l8,34l10,40l7,16l16,39l17,39l16,40l7,14l10,18l16,27l17,28l16,25l17,29l15,21l2,2l16,22l17,23l16,20l17,22l16,22l17,22l11,15l5,5l17,16l16,15l17,18l16,18l17,17l16,18l17,17l16,18l6,6l11,7l16,14l17,12l16,12l17,12l16,11l17,14l16,14l17,12l17,13l16,15l15,12l2,1l16,17l17,15l16,14l17,15l16,14l17,15l16,17l17,16l16,13l13,10l4,5l16,24l17,20l16,21l17,21l16,18l17,23l13,16l3,10l17,35l16,39l17,49l6,15l-6,17l-17,55l-16,43l-12,33l-5,4l-16,17l-17,17l-16,17l-17,18l-16,18l-17,20l-16,21l-14,16l-3,3l-16,12l-17,15l-16,15l-17,17l-16,14l-17,15l-16,16l-17,18l-16,18l-5,5l-12,11l-16,12l-17,10l-17,9l-16,13l-17,11l-16,11l-17,11l-16,12l-17,12l-16,12l-17,13l-11,11l-5,6l-17,13l-16,11l-17,10l-16,8l-17,7l-16,11l-17,10l-16,10l-17,9l-16,8l-17,9l-16,10l-17,13l-14,13l-2,2l-17,13l-17,11l-16,10l-17,8l-16,8l-17,10l-16,12l-17,12l-16,13l-17,9l-16,12l-17,14l-12,14l-4,4l-17,17l-16,17l-17,16l-16,16l-17,17l-16,17l-17,17l-16,17l-10,10l-7,17l-16,34l-17,41l-17,41l-6,15l-9,148l15,110l6,37l11,51l17,70l6,27l10,41l17,66l10,41l6,19l17,57l16,57l5,15l12,39l16,44l17,51l5,14l11,32l17,47l16,52l6,17l11,40l8,34l466,0l-12,-34l-13,-40l-3,-6l-17,-39l-16,-42l-17,-38l-9,-23l-7,-17l-17,-40l-16,-40l-17,-44l-3,-7l-13,-35l-17,-47l-16,-47l-7,-19l-10,-36l-16,-58l-16,-54l-1,-4l-16,-56l-17,-60l-8,-28l-8,-31l-17,-67l-11,-49l-2,-148l13,-36l17,-47l16,-54l3,-11l14,-13l16,-16l17,-17l16,-16l17,-15l16,-16l17,-16l16,-16l17,-17l6,-6l10,-10l17,-14l16,-11l17,-9l16,-8l17,-7l16,-10l17,-11l16,-10l17,-7l16,-7l17,-8l16,-9l17,-11l17,-15l1,-1l15,-13l17,-11l16,-11l17,-8l16,-8l17,-6l16,-7l17,-9l16,-9l17,-8l16,-6l17,-6l16,-7l17,-8l16,-8l17,-9l16,-11l5,-3l12,-8l16,-8l17,-8l16,-6l17,-5l16,-7l17,-9l17,-9l16,-8l17,-9l16,-7l17,-6l16,-6l17,-5l16,-5l17,-3l16,-4l17,-4l0,0l0,-1065l0,0l-6,-1l-11,-4l-16,-3l-17,-5l-16,-3l-17,-6l-16,-6l-17,-8l-16,-8l-17,-10l-16,-11l-17,-11l-17,-12l-16,-9l-17,-11l-16,-8l-17,-9l-16,-9l-17,-11l-8,-4l-8,-6l-17,-11l-16,-13l-17,-15l-16,-18l-17,-13l-16,-14l-17,-15l-16,-18l-17,-16l-9,-9l-7,-10l-17,-23l-16,-25l-17,-21l-16,-24l-17,-25l-15,-20l-1,-3l-17,-24l-17,-24l-16,-28l-17,-27l-16,-26l-9,-16l-8,-19l-16,-42l-5,-13Z" fill="#8dbf71" stroke-opacity="1.0"></path><path fill-opacity="1.000" stroke-width="10" stroke="#e9cc77" d="M2289,100l-11,16l-16,23l-17,23l-9,12l-7,10l-17,23l-16,29l-17,29l-16,24l-17,26l-5,7l-12,15l-16,21l-17,21l-16,19l-17,20l-16,24l-17,19l-6,9l-10,11l-17,17l-16,18l-17,21l-16,24l-17,19l-16,21l-12,17l-5,6l-16,21l-17,15l-16,16l-17,19l-16,22l-17,16l-16,19l-12,14l-5,5l-17,20l-16,23l-17,23l-16,21l-17,18l-16,18l-17,20l-16,30l-17,33l-16,30l-17,28l-15,26l-1,7l-17,74l-16,54l-6,13l-11,74l-13,74l13,25l17,33l16,57l9,33l8,13l16,28l17,29l16,27l17,30l13,21l3,4l17,19l16,19l17,21l16,22l17,23l16,23l14,17l3,3l17,15l16,12l17,12l16,16l17,17l16,14l17,16l16,15l17,19l9,9l7,6l17,12l16,15l17,15l16,12l17,13l16,13l17,14l16,13l17,13l16,12l14,10l3,2l16,12l17,11l17,13l16,13l17,13l16,14l17,13l16,13l17,12l16,13l17,12l6,7l10,12l17,17l16,16l17,15l16,16l17,15l16,17l17,14l16,15l11,11l6,8l16,22l17,21l16,20l17,19l16,21l17,22l12,15l5,16l16,60l17,52l7,20l-7,52l-12,95l-5,18l-16,54l-17,54l-7,22l-10,31l-16,56l-17,48l-5,13l-11,25l-17,49l-16,50l-8,24l-9,22l-16,43l-17,46l-13,37l-3,6l-17,42l-16,39l-17,35l-11,26l-5,9l-17,28l-16,28l-6,9l486,0l15,-21l17,-22l16,-20l11,-11l6,-9l16,-33l17,-30l16,-28l17,-21l16,-27l17,-30l16,-26l17,-29l17,-23l16,-20l9,-20l8,-18l16,-32l17,-26l16,-25l17,-25l12,-22l4,-7l17,-22l16,-30l17,-24l16,-31l17,-30l2,-4l14,-26l17,-29l16,-32l17,-19l16,-15l17,-19l5,-8l11,-147l-16,-14l-17,-7l-16,-8l-17,-9l-16,-16l-17,-16l-16,-15l-17,-17l-16,-14l-17,-13l-16,-17l-2,-2l-15,-9l-16,-9l-17,-10l-16,-10l-17,-9l-16,-11l-17,-13l-16,-10l-17,-11l-17,-11l-16,-12l-17,-13l-16,-12l-12,-8l-5,-4l-16,-11l-17,-11l-16,-11l-17,-11l-16,-11l-17,-12l-16,-13l-17,-15l-16,-14l-17,-14l-16,-11l-11,-10l-6,-6l-16,-12l-17,-12l-16,-15l-17,-16l-16,-14l-17,-14l-16,-15l-17,-16l-17,-14l-13,-14l-3,-4l-17,-16l-16,-15l-17,-14l-16,-15l-17,-18l-16,-18l-17,-16l-16,-17l-14,-15l-3,-5l-16,-23l-17,-20l-16,-23l-17,-26l-16,-24l-17,-22l-3,-5l-13,-24l-17,-25l-16,-23l-17,-27l-16,-25l-13,-24l-4,-9l-16,-37l-17,-37l-17,-34l-16,-28l-2,-3l-15,-66l-16,-82l7,-148l9,-44l17,-68l8,-36l8,-17l17,-36l17,-42l16,-40l5,-12l12,-17l16,-22l17,-18l16,-18l17,-22l16,-23l17,-27l1,-1l15,-20l17,-24l16,-19l17,-22l16,-23l17,-23l14,-17l2,-4l17,-21l16,-26l17,-25l16,-21l17,-17l16,-21l9,-13l8,-13l16,-24l17,-23l17,-22l16,-24l17,-24l12,-18l4,-6l17,-26l16,-23l17,-23l16,-21l17,-20l16,-27l1,-2l16,-24l16,-26l17,-23l1,-1ZM5165,100l4,9l17,51l5,14l11,21l17,35l16,37l17,35l9,20l7,14l17,29l16,27l17,30l16,27l11,21l6,9l16,27l17,23l17,23l16,22l17,23l15,21l1,1l17,19l16,17l17,18l16,19l17,19l16,20l17,18l14,17l2,2l17,15l16,17l17,16l16,16l17,16l16,15l17,13l16,16l17,13l12,9l4,4l17,17l17,14l16,16l17,17l16,14l17,13l16,15l17,15l16,16l7,6l10,18l16,28l17,27l16,30l17,26l12,19l4,14l17,63l16,58l4,13l-4,19l-16,80l-10,49l-7,10l-16,22l-17,26l-16,26l-17,26l-16,26l-9,12l-8,9l-16,16l-17,17l-16,17l-17,14l-16,16l-17,17l-16,18l-17,15l-9,9l-8,6l-16,10l-17,11l-16,13l-17,11l-16,15l-17,14l-16,14l-17,15l-16,14l-17,15l-11,10l-5,4l-17,14l-16,11l-17,9l-16,12l-17,11l-16,12l-17,13l-16,12l-17,12l-16,12l-17,11l-17,14l-1,1l-15,14l-17,11l-16,10l-17,11l-16,12l-17,12l-16,12l-17,12l-16,13l-17,10l-16,13l-17,11l-10,7l-6,5l-17,10l-16,12l-17,11l-16,10l-17,9l-16,10l-17,11l-16,11l-17,14l-16,12l-17,13l-17,11l-14,9l-2,2l-17,22l-16,24l-17,24l-16,15l-17,20l-16,18l-17,20l-2,3l-14,63l-17,74l-2,11l2,9l17,69l14,69l2,7l17,38l16,42l17,37l9,24l7,16l17,39l16,51l17,42l16,33l17,32l17,38l16,37l4,8l13,35l16,46l17,38l16,29l17,40l16,32l17,36l16,40l17,44l12,30l443,0l-9,-38l-10,-36l-7,-21l-16,-51l-17,-48l-10,-28l-6,-17l-17,-52l-16,-44l-11,-35l-6,-18l-16,-58l-17,-57l-5,-15l-11,-46l-17,-66l-9,-36l-7,-31l-17,-70l-10,-47l-7,-44l-14,-103l9,-148l5,-13l17,-41l17,-40l16,-35l8,-19l9,-9l16,-17l17,-17l16,-17l17,-17l16,-16l17,-16l16,-17l17,-17l5,-5l11,-13l17,-15l16,-11l17,-9l16,-13l17,-12l16,-12l17,-11l16,-7l17,-8l16,-10l17,-11l17,-13l3,-3l13,-12l17,-13l16,-10l17,-10l16,-7l17,-10l16,-9l17,-10l16,-11l17,-7l16,-8l17,-10l16,-11l17,-13l6,-7l10,-10l17,-13l16,-12l17,-12l16,-12l17,-11l16,-12l17,-10l16,-13l17,-10l17,-9l16,-12l13,-12l4,-4l16,-18l17,-17l16,-17l17,-15l16,-14l17,-16l16,-16l17,-15l16,-12l5,-4l12,-14l16,-21l17,-21l16,-17l17,-18l16,-17l17,-17l16,-18l7,-5l10,-27l16,-44l17,-55l8,-22l-8,-20l-17,-49l-16,-39l-17,-35l-1,-5l-15,-19l-17,-22l-16,-18l-17,-21l-16,-21l-17,-20l-16,-24l-2,-3l-15,-11l-16,-14l-17,-16l-16,-17l-17,-14l-16,-14l-17,-15l-16,-14l-17,-16l-16,-16l-17,-13l-16,-16l-17,-12l-17,-13l-16,-14l-17,-13l-16,-12l-17,-11l-16,-12l-17,-12l-16,-14l-9,-6l-8,-7l-16,-18l-17,-18l-16,-17l-17,-18l-16,-17l-17,-18l-16,-15l-17,-16l-4,-4l-12,-17l-17,-22l-16,-22l-17,-21l-16,-21l-17,-23l-16,-22l-17,-23l-17,-29l-16,-26l-17,-27l-16,-27l-9,-16l-8,-17l-16,-40l-17,-39l-16,-39l-6,-13l-11,-45l-7,-29Z" fill="#e9cc77" stroke-opacity="1.0"></path><path fill-opacity="1.000" stroke-width="10" stroke="#c77560" d="M2773,100l-16,22l-16,26l-17,26l-16,27l-17,19l-16,22l-17,23l-16,23l-17,25l-5,9l-11,16l-17,24l-16,24l-17,22l-17,23l-16,24l-9,15l-8,11l-16,21l-17,18l-16,21l-17,25l-16,25l-17,22l-3,5l-13,16l-17,22l-16,24l-17,21l-16,20l-17,24l-16,21l-17,27l-16,22l-17,22l-16,18l-17,18l-16,22l-13,19l-4,9l-16,40l-17,41l-17,37l-9,20l-7,29l-17,68l-10,51l-6,119l-2,29l2,8l16,81l14,59l3,6l16,28l17,34l17,37l16,37l2,6l15,26l16,26l17,27l16,23l17,24l11,22l5,6l17,23l16,24l17,26l16,23l17,19l16,24l2,3l15,16l16,17l17,16l16,18l17,18l16,15l17,15l16,15l17,16l2,2l14,15l17,14l17,16l16,15l17,14l16,14l17,16l16,15l17,12l16,12l5,5l12,11l16,11l17,14l16,14l17,15l16,13l17,12l16,11l17,11l16,11l17,11l16,11l4,3l13,10l16,12l17,13l16,11l17,11l17,11l16,10l17,13l16,12l17,8l16,10l17,10l16,9l13,8l4,4l16,16l17,14l16,14l17,17l16,15l17,16l16,16l17,9l16,8l17,7l14,12l-12,147l-2,4l-17,19l-16,15l-17,19l-16,32l-17,30l-16,29l-17,30l-16,31l-17,24l-16,30l-17,22l-6,11l-10,18l-17,26l-16,25l-17,25l-16,33l-9,21l-8,16l-16,20l-17,23l-17,30l-16,26l-17,30l-1,3l-15,24l-17,21l-16,28l-17,30l-16,33l-8,12l-9,8l-16,21l-17,22l-16,22l-1,1l2394,0l-14,-35l-15,-39l-2,-4l-16,-41l-17,-36l-16,-31l-15,-36l-2,-4l-16,-29l-17,-38l-16,-47l-11,-30l-6,-13l-16,-36l-17,-39l-17,-32l-14,-28l-2,-5l-17,-42l-16,-51l-17,-39l-4,-11l-12,-30l-17,-37l-16,-42l-17,-39l-16,-78l-17,-69l17,-74l16,-74l17,-20l16,-19l17,-19l16,-15l17,-24l16,-24l17,-22l5,-5l11,-8l17,-11l17,-13l16,-12l17,-14l16,-11l17,-11l16,-10l17,-9l16,-10l17,-10l16,-13l17,-10l8,-6l8,-6l17,-11l16,-13l17,-10l16,-13l17,-12l16,-12l17,-12l16,-12l17,-11l16,-10l17,-11l16,-15l17,-14l17,-11l16,-12l17,-12l16,-13l17,-12l16,-12l17,-12l16,-11l17,-9l16,-11l17,-13l6,-6l10,-9l17,-15l16,-14l17,-15l16,-14l17,-14l16,-15l17,-11l16,-13l17,-10l16,-11l9,-7l8,-8l17,-15l16,-17l17,-18l16,-16l17,-14l16,-16l17,-18l16,-16l10,-10l7,-10l16,-26l17,-26l16,-26l17,-26l16,-22l8,-12l9,-43l16,-80l6,-25l-6,-18l-16,-58l-17,-62l-2,-10l-14,-21l-17,-26l-16,-30l-17,-27l-16,-28l-9,-16l-8,-7l-16,-17l-17,-15l-16,-14l-17,-13l-16,-15l-17,-16l-16,-16l-17,-15l-17,-17l-3,-2l-13,-10l-17,-13l-16,-16l-17,-13l-16,-15l-17,-16l-16,-16l-17,-16l-16,-17l-17,-15l-1,-1l-15,-18l-17,-19l-16,-19l-17,-20l-16,-18l-17,-18l-16,-17l-17,-19l-16,-23l-17,-23l-16,-22l-17,-22l-17,-24l-16,-27l-5,-7l-12,-23l-16,-27l-17,-30l-16,-27l-17,-30l-6,-11l-10,-23l-17,-35l-16,-37l-17,-35l-10,-18l-6,-19l-17,-50l-2,-5ZM3600,174l16,-6l17,3l16,-3l17,3l16,0l17,3l16,0l17,3l16,0l17,-3l17,3l16,3l17,6l16,15l17,9l16,13l17,13l16,13l17,15l16,12l17,16l16,16l17,10l8,4l8,3l17,9l16,6l17,13l16,16l17,13l16,17l17,15l16,17l17,12l16,10l17,10l17,4l5,3l11,5l17,8l16,8l17,8l16,8l17,4l16,13l17,9l16,0l17,7l16,6l17,4l16,7l17,7l16,10l17,8l16,3l17,4l16,8l17,5l16,11l17,2l8,3l9,2l16,6l17,2l16,4l17,5l16,4l17,6l16,9l17,9l16,4l17,4l16,4l17,3l16,5l17,6l16,5l17,3l16,6l17,7l16,7l17,9l16,7l17,7l16,4l17,7l17,9l6,4l10,4l17,7l16,5l17,4l16,8l17,5l16,6l17,9l16,7l17,7l16,8l17,10l16,9l17,10l16,13l17,11l16,14l15,11l2,1l16,19l17,20l16,23l17,22l16,21l17,17l17,16l10,8l6,10l17,35l16,36l17,36l16,31l17,109l6,39l-6,24l-17,56l-16,63l-2,5l-15,19l-16,22l-17,20l-16,18l-17,21l-17,18l-16,25l-3,5l-14,15l-16,17l-17,16l-16,16l-17,18l-16,17l-17,15l-16,16l-17,14l-4,4l-12,8l-17,8l-16,7l-17,9l-16,7l-17,6l-16,5l-17,3l-16,5l-17,4l-16,3l-17,7l-16,5l-17,7l-17,5l-16,4l-17,3l-16,6l-17,6l-16,5l-17,9l-16,1l-17,5l-16,4l-17,9l-16,1l-17,4l-16,2l-17,3l-16,4l-17,3l-16,2l-17,2l-16,0l-17,2l-16,0l-17,2l-16,4l-17,6l-17,2l-16,2l-17,5l-16,4l-17,0l-16,2l-17,3l-16,3l-17,6l-16,2l-17,0l-16,3l-17,0l-16,2l-17,7l-16,5l-17,2l-16,6l-17,4l-16,4l-17,9l-16,3l-17,2l-17,11l-16,7l-17,11l-16,9l-10,6l-7,4l-16,7l-17,10l-16,11l-17,8l-16,10l-17,5l-16,5l-17,8l-16,10l-17,10l-16,11l-17,9l-16,9l-17,12l-16,12l-17,7l-16,7l-17,7l-16,3l-17,3l-17,5l-16,4l-17,5l-16,3l-17,3l-16,4l-17,2l-16,4l-17,1l-16,3l-17,2l-16,0l-17,-2l-16,-2l-17,0l-16,-2l-17,0l-16,-2l-17,-1l-16,-3l-17,-5l-16,-6l-17,-4l-16,-6l-17,-5l-17,-7l-16,-7l-11,-4l-6,-3l-16,-5l-17,-6l-16,-3l-17,-5l-16,-7l-17,-8l-16,-9l-17,-10l-16,-9l-17,-9l-16,-11l-17,-12l-16,-10l-17,-10l-16,-10l-17,-9l-16,-10l-4,-2l-13,-10l-16,-12l-17,-12l-17,-11l-16,-12l-17,-13l-16,-12l-17,-11l-16,-13l-17,-15l-16,-12l-17,-11l-5,-4l-11,-11l-17,-17l-16,-19l-17,-21l-16,-23l-17,-22l-16,-20l-13,-15l-4,-7l-16,-27l-17,-21l-16,-28l-17,-34l-16,-31l-17,-41l-16,-44l-17,-40l-9,-23l-8,-40l-16,-94l-2,-14l0,-148l2,-16l16,-115l3,-17l14,-34l17,-38l16,-44l15,-31l2,-2l16,-27l17,-24l16,-20l17,-18l16,-19l17,-18l13,-20l3,-5l17,-22l16,-17l17,-17l16,-18l17,-13l16,-15l17,-15l16,-15l12,-11l5,-5l16,-11l17,-13l16,-14l17,-11l16,-13l17,-10l17,-11l16,-15l17,-15l16,-9l17,-13l11,-8l5,-5l17,-15l16,-15l17,-15l16,-10l17,-14l16,-12l17,-12l16,-12l17,-11l16,-7l17,-3l16,-6l17,-11l16,-8l17,-12l16,-10l17,-12l17,-13l16,-10l17,-13l16,-10l17,-8l16,-10l17,-5l16,-5l17,-6l16,-4l17,-2l16,-9l17,-4l16,-2l17,-5Z" fill="#c77560" stroke-opacity="1.0"></path><path fill-opacity="1.000" stroke-width="10" stroke="#b05b5a" d="M3592,174l-9,2l-16,2l-17,5l-16,8l-17,3l-16,4l-17,6l-16,5l-17,5l-16,10l-17,7l-16,11l-17,13l-16,10l-17,13l-17,12l-16,10l-17,12l-16,8l-2,2l-15,9l-16,7l-17,3l-16,6l-17,11l-16,12l-17,13l-16,11l-17,14l-16,11l-17,14l-16,16l-17,14l-7,7l-9,7l-17,12l-16,10l-17,14l-16,15l-17,11l-17,10l-16,13l-17,12l-16,14l-17,13l-16,11l-6,6l-11,10l-16,15l-17,14l-16,16l-17,13l-16,18l-17,17l-16,16l-17,23l-4,6l-12,18l-17,19l-16,18l-17,19l-16,20l-17,23l-16,27l-3,4l-14,29l-16,43l-17,38l-15,37l-2,9l-16,115l-3,24l0,148l3,20l16,95l7,33l10,26l17,40l16,44l15,38l2,2l16,31l17,34l16,29l17,21l16,26l3,5l14,16l16,21l17,22l16,22l17,21l16,19l17,17l10,10l6,5l17,11l16,12l17,15l16,13l17,11l16,13l17,12l16,12l17,11l17,13l16,11l12,9l5,3l16,10l17,9l16,10l17,10l16,10l17,12l16,11l17,9l16,9l17,10l16,9l17,8l16,7l17,5l16,3l17,6l16,6l3,1l14,5l16,7l17,7l17,5l16,6l17,4l16,6l17,5l16,3l17,1l16,2l17,0l16,2l17,0l16,2l17,2l16,0l17,-2l16,-3l17,-1l16,-4l17,-1l16,-5l17,-3l16,-2l17,-6l16,-4l17,-5l17,-2l16,-3l17,-7l16,-8l4,-1l13,-5l16,-12l17,-12l16,-9l17,-9l16,-11l17,-10l16,-10l17,-8l16,-6l17,-4l16,-10l17,-8l16,-11l17,-10l16,-7l10,-6l7,-4l16,-8l17,-12l16,-7l17,-11l17,-2l16,-3l17,-9l16,-4l17,-4l16,-6l17,-2l16,-5l17,-6l16,-3l17,0l16,-2l17,0l16,-3l17,-6l16,-3l17,-3l16,-2l17,0l16,-4l17,-5l16,-2l17,-2l17,-6l16,-4l17,-2l16,0l17,-2l16,0l17,-2l16,-2l17,-4l16,-3l17,-3l16,-2l17,-4l16,-2l17,-8l16,-4l17,-5l16,-2l17,-8l16,-5l17,-7l16,-5l17,-3l16,-5l17,-4l17,-7l16,-6l17,-6l16,-4l17,-3l16,-5l17,-4l16,-5l17,-6l16,-7l17,-8l16,-8l17,-7l14,-10l2,-2l17,-14l16,-16l17,-15l16,-17l17,-18l16,-16l17,-16l16,-17l15,-17l2,-2l16,-25l17,-18l17,-21l16,-19l17,-20l16,-21l17,-22l16,-62l17,-56l8,-30l-8,-49l-15,-99l-2,-3l-16,-31l-17,-36l-16,-36l-17,-35l-4,-7l-12,-10l-17,-15l-17,-18l-16,-21l-17,-21l-16,-24l-17,-20l-16,-18l-17,-13l-16,-13l-17,-11l-16,-13l-17,-10l-16,-9l-17,-10l-16,-8l-17,-7l-16,-8l-17,-8l-16,-6l-17,-6l-16,-7l-17,-4l-16,-6l-17,-7l-7,-2l-9,-5l-17,-10l-17,-7l-16,-3l-17,-8l-16,-6l-17,-10l-16,-6l-17,-7l-16,-7l-17,-3l-16,-5l-17,-6l-16,-5l-17,-3l-16,-4l-17,-3l-16,-5l-17,-9l-16,-9l-17,-6l-16,-4l-17,-5l-16,-4l-17,-2l-16,-6l-17,-5l-17,-3l-16,-11l-17,-5l-16,-8l-17,-3l-16,-4l-17,-8l-16,-10l-17,-6l-16,-7l-17,-4l-16,-7l-17,-7l-16,0l-17,-9l-16,-13l-17,-3l-16,-9l-17,-8l-16,-8l-17,-8l-5,-2l-11,-7l-17,-3l-17,-10l-16,-10l-17,-12l-16,-17l-17,-15l-16,-17l-17,-13l-16,-16l-17,-13l-16,-6l-17,-9l-16,-7l-17,-10l-16,-17l-17,-15l-16,-12l-17,-15l-16,-13l-17,-13l-16,-13l-17,-9l-16,-15l-17,-6l-16,-3l-17,-3l-17,3l-16,0l-17,-3l-16,0l-17,-3l-16,0l-17,-3l-16,3l-17,-2l-16,5ZM3451,762l17,0l16,0l17,0l16,0l17,2l8,2l8,1l17,4l16,4l17,8l16,8l17,8l16,9l17,12l16,9l17,11l16,12l17,10l16,13l17,11l17,9l16,12l6,7l11,19l16,31l17,35l16,35l12,27l5,74l6,74l-6,37l-13,111l-4,17l-16,46l-17,48l-14,37l-2,3l-17,13l-16,18l-17,19l-17,12l-16,25l-17,12l-16,18l-17,19l-6,9l-10,12l-17,11l-16,15l-17,14l-16,15l-17,14l-16,5l-17,8l-16,2l-17,5l-16,5l-17,5l-16,5l-17,0l-16,4l-17,-4l-16,-5l-17,-5l-16,-5l-17,-10l-17,-10l-16,-9l-17,-7l-16,-8l-17,-7l-16,-3l-17,-6l-16,-14l-17,-5l-16,-19l-2,-3l-15,-26l-16,-26l-17,-25l-16,-31l-17,-31l-6,-9l-10,-28l-17,-51l-16,-52l-7,-17l-10,-123l-2,-25l2,-9l17,-74l11,-65l5,-8l17,-27l16,-30l17,-30l16,-22l17,-28l2,-2l14,-12l17,-16l16,-11l17,-14l16,-6l17,-4l16,-8l17,-10l16,-7l17,-10l16,-7l17,-13l17,-7l16,-4l17,-7l16,-7l17,-4l4,-1Z" fill="#b05b5a" stroke-opacity="1.0"></path><path fill-opacity="1.000" stroke-width="10" stroke="#984b44" d="M3426,766l-8,1l-16,7l-17,7l-16,4l-17,7l-17,13l-16,7l-17,10l-16,7l-17,11l-16,8l-17,3l-16,7l-17,14l-16,10l-17,16l-16,14l-2,2l-15,24l-16,22l-17,30l-16,30l-17,28l-8,13l-8,47l-17,74l-6,27l6,74l6,74l11,29l16,51l17,51l6,17l10,16l17,30l16,31l17,25l16,25l12,21l5,7l16,19l17,6l16,13l17,7l16,3l17,7l16,7l17,8l16,9l17,10l17,10l16,5l17,5l16,5l17,4l16,-4l17,0l16,-5l17,-5l16,-5l17,-5l16,-1l17,-9l16,-5l17,-14l16,-15l17,-14l16,-15l17,-11l14,-17l2,-3l17,-18l16,-19l17,-12l16,-25l17,-12l17,-19l16,-18l17,-13l6,-9l10,-26l17,-48l16,-45l7,-29l10,-86l10,-62l-10,-123l-2,-25l-15,-35l-16,-35l-17,-35l-16,-31l-7,-11l-10,-11l-16,-12l-17,-9l-17,-12l-16,-12l-17,-10l-16,-12l-17,-11l-16,-9l-17,-12l-16,-9l-17,-8l-16,-8l-17,-8l-16,-4l-9,-1l-8,-2l-16,-2l-17,-3l-16,0l-17,0l-16,0l-17,0l-16,5Z" fill="#984b44" stroke-opacity="1.0"></path><path fill-opacity="0.125" stroke="none" d="" fill="#000"></path><path fill-opacity="0.251" stroke="none" d="M6772,3650l0,-998l-17,1l-16,1l-17,1l-16,1l-17,0l-16,2l-17,1l-16,1l-17,1l-16,1l-17,1l-17,2l-16,1l-17,2l-16,1l-17,2l-16,1l-17,2l-16,2l-17,1l-16,2l-17,2l-16,2l-17,2l-16,1l-17,2l-16,2l-17,2l-16,2l-17,2l-16,2l-17,2l-16,3l-17,2l-16,2l-17,2l-17,2l-16,2l-17,2l-16,2l-17,3l-16,2l-17,2l-16,2l-17,2l-16,2l-17,3l-16,2l-17,2l-16,2l-17,2l-16,2l-17,3l-16,2l-17,2l-16,2l-17,2l-16,2l-17,2l-16,2l-17,2l-17,3l-16,2l-17,2l-16,2l-17,2l-16,2l-17,2l-16,2l-17,1l-16,2l-17,2l-16,2l-17,2l-16,2l-17,2l-16,2l-17,2l-16,2l-17,1l-16,2l-17,2l-16,2l-17,2l-17,1l-16,2l-17,2l-16,2l-17,2l-16,1l-17,2l-16,2l-17,2l-16,1l-17,2l-16,2l-17,1l-16,2l-17,2l-16,2l-17,1l-16,2l-17,2l-16,1l-17,2l-16,2l-17,2l-16,1l-17,2l-17,2l-16,1l-17,2l-16,2l-17,2l-16,1l-17,2l-16,2l-17,2l-16,2l-17,1l-16,2l-17,2l-16,2l-17,1l-16,2l-17,2l-16,2l-17,2l-16,2l-17,1l-16,2l-17,2l-16,2l-17,2l-17,2l-16,2l-17,2l-16,2l-17,1l-16,2l-17,2l-16,2l-17,2l-16,2l-17,2l-16,2l-17,2l-16,2l-17,2l-16,2l-17,2l-16,1l-17,2l-16,2l-17,2l-16,2l-17,2l-17,2l-16,2l-17,2l-16,1l-17,2l-16,2l-17,2l-16,2l-17,1l-16,2l-17,2l-16,1l-17,2l-16,2l-17,1l-16,2l-17,1l-16,2l-17,1l-16,1l-17,2l-16,1l-17,1l-16,2l-17,1l-17,1l-16,1l-17,1l-16,1l-17,1l-16,1l-17,0l-16,1l-17,1l-16,0l-17,1l-16,0l-17,1l-16,0l-17,0l-16,1l-17,0l-16,0l-17,0l-16,0l-17,0l-16,0l-17,-1l-16,0l-17,0l-17,-1l-16,0l-17,-1l-16,-1l-17,-1l-16,0l-17,-1l-16,-1l-17,-1l-16,-1l-17,-2l-16,-1l-17,-1l-16,-1l-17,-2l-16,-1l-17,-2l-16,-2l-17,-1l-16,-2l-17,-2l-16,-2l-17,-2l-17,-2l-16,-2l-17,-2l-16,-2l-17,-2l-16,-2l-17,-3l-16,-2l-17,-3l-16,-2l-17,-2l-16,-3l-17,-3l-16,-2l-17,-3l-16,-3l-17,-2l-16,-3l-17,-3l-16,-3l-17,-3l-16,-3l-17,-3l-16,-3l-17,-3l-17,-3l-16,-3l-17,-3l-16,-3l-17,-3l-16,-4l-17,-3l-16,-3l-17,-3l-16,-4l-17,-3l-16,-3l-17,-3l-16,-4l-17,-3l-16,-3l-17,-4l-16,-3l-17,-4l-16,-3l-17,-3l-16,-4l-17,-3l-16,-3l-17,-4l-17,-3l-16,-4l-17,-3l-16,-3l-17,-4l-16,-3l-17,-3l-16,-4l-17,-3l-16,-3l-17,-4l-16,-3l-17,-3l-16,-3l-17,-4l-16,-3l-17,-3l-16,-3l-17,-3l-16,-3l-17,-3l-16,-3l-17,-3l-17,-3l-16,-3l-17,-3l-16,-3l-17,-3l-16,-3l-17,-3l-16,-3l-17,-2l-16,-3l-17,-3l-16,-2l-17,-3l-16,-2l-17,-3l-16,-2l-17,-2l-16,-3l-17,-2l-16,-2l-17,-2l-16,-2l-17,-2l-16,-2l-17,-2l-17,-2l-16,-2l-17,-2l-16,-2l-17,-1l-16,-2l-17,-1l-16,-2l-17,-1l-16,-1l-17,-2l-16,-1l-17,-1l-16,-1l-17,-1l-16,-1l-17,-1l-16,0l-17,-1l-16,-1l-17,0l-16,-1l-17,0l-16,0l-17,0l-17,-1l-16,0l-17,0l-16,0l-17,0l-16,1l-17,0l-16,0l-17,1l-16,0l-17,1l0,998Z" fill="#000"></path><path fill-opacity="0.125" stroke="none" d="M758,2652l17,-1l16,0l17,-1l16,0l17,0l16,-1l17,0l16,0l17,0l16,0l17,1l17,0l16,0l17,0l16,1l17,0l16,1l17,1l16,0l17,1l16,1l17,1l16,1l17,1l16,1l17,2l16,1l17,1l16,2l17,1l16,2l17,1l16,2l17,2l16,2l17,2l17,2l16,2l17,2l16,2l17,2l16,2l17,2l16,3l17,2l16,2l17,3l16,2l17,3l16,2l17,3l16,3l17,2l16,3l17,3l16,3l17,3l16,3l17,3l16,3l17,3l17,3l16,3l17,3l16,3l17,3l16,3l17,3l16,3l17,4l16,3l17,3l16,3l17,4l16,3l17,3l16,4l17,3l16,3l17,4l16,3l17,3l16,4l17,3l17,4l16,3l17,3l16,4l17,3l16,3l17,4l16,3l17,4l16,3l17,3l16,4l17,3l16,3l17,3l16,4l17,3l16,3l17,3l16,4l17,3l16,3l17,3l16,3l17,3l17,3l16,3l17,3l16,3l17,3l16,3l17,3l16,3l17,2l16,3l17,3l16,2l17,3l16,3l17,2l16,2l17,3l16,2l17,3l16,2l17,2l16,2l17,2l16,2l17,2l17,2l16,2l17,2l16,2l17,1l16,2l17,2l16,1l17,2l16,1l17,1l16,1l17,2l16,1l17,1l16,1l17,1l16,0l17,1l16,1l17,1l16,0l17,1l17,0l16,0l17,1l16,0l17,0l16,0l17,0l16,0l17,0l16,-1l17,0l16,0l17,-1l16,0l17,-1l16,0l17,-1l16,-1l17,0l16,-1l17,-1l16,-1l17,-1l16,-1l17,-1l17,-1l16,-2l17,-1l16,-1l17,-2l16,-1l17,-1l16,-2l17,-1l16,-2l17,-1l16,-2l17,-2l16,-1l17,-2l16,-2l17,-1l16,-2l17,-2l16,-2l17,-2l16,-1l17,-2l16,-2l17,-2l17,-2l16,-2l17,-2l16,-2l17,-2l16,-1l17,-2l16,-2l17,-2l16,-2l17,-2l16,-2l17,-2l16,-2l17,-2l16,-2l17,-2l16,-2l17,-1l16,-2l17,-2l16,-2l17,-2l17,-2l16,-2l17,-2l16,-2l17,-1l16,-2l17,-2l16,-2l17,-2l16,-2l17,-1l16,-2l17,-2l16,-2l17,-1l16,-2l17,-2l16,-2l17,-2l16,-1l17,-2l16,-2l17,-2l16,-1l17,-2l17,-2l16,-1l17,-2l16,-2l17,-2l16,-1l17,-2l16,-2l17,-1l16,-2l17,-2l16,-2l17,-1l16,-2l17,-2l16,-1l17,-2l16,-2l17,-2l16,-1l17,-2l16,-2l17,-2l16,-2l17,-1l17,-2l16,-2l17,-2l16,-2l17,-1l16,-2l17,-2l16,-2l17,-2l16,-2l17,-2l16,-2l17,-2l16,-2l17,-1l16,-2l17,-2l16,-2l17,-2l16,-2l17,-2l16,-2l17,-3l17,-2l16,-2l17,-2l16,-2l17,-2l16,-2l17,-2l16,-2l17,-3l16,-2l17,-2l16,-2l17,-2l16,-2l17,-3l16,-2l17,-2l16,-2l17,-2l16,-2l17,-3l16,-2l17,-2l16,-2l17,-2l17,-2l16,-2l17,-2l16,-3l17,-2l16,-2l17,-2l16,-2l17,-2l16,-2l17,-2l16,-1l17,-2l16,-2l17,-2l16,-2l17,-1l16,-2l17,-2l16,-1l17,-2l16,-1l17,-2l16,-1l17,-2l17,-1l16,-1l17,-1l16,-1l17,-1l16,-2l17,0l16,-1l17,-1l16,-1l17,-1l0,-68l-17,1l-16,1l-17,0l-16,1l-17,1l-16,1l-17,1l-16,1l-17,2l-16,1l-17,1l-17,2l-16,1l-17,1l-16,2l-17,2l-16,1l-17,2l-16,2l-17,1l-16,2l-17,2l-16,2l-17,2l-16,2l-17,2l-16,2l-17,2l-16,2l-17,2l-16,2l-17,3l-16,2l-17,2l-16,2l-17,2l-17,3l-16,2l-17,2l-16,2l-17,3l-16,2l-17,2l-16,3l-17,2l-16,2l-17,3l-16,2l-17,2l-16,2l-17,3l-16,2l-17,2l-16,3l-17,2l-16,2l-17,2l-16,3l-17,2l-16,2l-17,2l-17,2l-16,2l-17,3l-16,2l-17,2l-16,2l-17,2l-16,2l-17,2l-16,2l-17,2l-16,2l-17,2l-16,2l-17,2l-16,2l-17,2l-16,2l-17,2l-16,2l-17,1l-16,2l-17,2l-17,2l-16,2l-17,2l-16,1l-17,2l-16,2l-17,2l-16,1l-17,2l-16,2l-17,2l-16,1l-17,2l-16,2l-17,2l-16,1l-17,2l-16,2l-17,1l-16,2l-17,2l-16,1l-17,2l-16,2l-17,1l-17,2l-16,2l-17,1l-16,2l-17,2l-16,1l-17,2l-16,2l-17,1l-16,2l-17,2l-16,1l-17,2l-16,2l-17,1l-16,2l-17,2l-16,1l-17,2l-16,2l-17,2l-16,1l-17,2l-16,2l-17,2l-17,1l-16,2l-17,2l-16,1l-17,2l-16,2l-17,2l-16,2l-17,1l-16,2l-17,2l-16,2l-17,1l-16,2l-17,2l-16,2l-17,1l-16,2l-17,2l-16,2l-17,1l-16,2l-17,2l-17,2l-16,1l-17,2l-16,2l-17,1l-16,2l-17,1l-16,2l-17,2l-16,1l-17,2l-16,1l-17,2l-16,1l-17,2l-16,1l-17,2l-16,1l-17,1l-16,1l-17,2l-16,1l-17,1l-16,1l-17,1l-17,1l-16,1l-17,1l-16,1l-17,1l-16,1l-17,1l-16,0l-17,1l-16,1l-17,0l-16,1l-17,0l-16,0l-17,1l-16,0l-17,0l-16,0l-17,0l-16,0l-17,0l-16,0l-17,0l-16,0l-17,-1l-17,0l-16,0l-17,-1l-16,0l-17,-1l-16,-1l-17,-1l-16,0l-17,-1l-16,-1l-17,-1l-16,-1l-17,-2l-16,-1l-17,-1l-16,-1l-17,-2l-16,-1l-17,-2l-16,-1l-17,-2l-16,-2l-17,-1l-17,-2l-16,-2l-17,-2l-16,-2l-17,-2l-16,-2l-17,-2l-16,-3l-17,-2l-16,-2l-17,-2l-16,-3l-17,-2l-16,-3l-17,-2l-16,-3l-17,-2l-16,-3l-17,-3l-16,-2l-17,-3l-16,-3l-17,-3l-16,-3l-17,-3l-17,-3l-16,-2l-17,-3l-16,-3l-17,-4l-16,-3l-17,-3l-16,-3l-17,-3l-16,-3l-17,-3l-16,-3l-17,-4l-16,-3l-17,-3l-16,-3l-17,-4l-16,-3l-17,-3l-16,-4l-17,-3l-16,-3l-17,-4l-16,-3l-17,-3l-17,-4l-16,-3l-17,-3l-16,-4l-17,-3l-16,-3l-17,-4l-16,-3l-17,-3l-16,-3l-17,-4l-16,-3l-17,-3l-16,-4l-17,-3l-16,-3l-17,-3l-16,-3l-17,-4l-16,-3l-17,-3l-16,-3l-17,-3l-17,-3l-16,-3l-17,-3l-16,-3l-17,-3l-16,-3l-17,-3l-16,-3l-17,-2l-16,-3l-17,-3l-16,-3l-17,-2l-16,-3l-17,-2l-16,-3l-17,-2l-16,-3l-17,-2l-16,-2l-17,-3l-16,-2l-17,-2l-16,-2l-17,-2l-17,-2l-16,-2l-17,-2l-16,-2l-17,-2l-16,-1l-17,-2l-16,-2l-17,-1l-16,-2l-17,-1l-16,-1l-17,-1l-16,-2l-17,-1l-16,-1l-17,-1l-16,0l-17,-1l-16,-1l-17,-1l-16,0l-17,-1l-16,0l-17,0l-17,-1l-16,0l-17,0l-16,0l-17,0l-16,0l-17,0l-16,0l-17,1l-16,0l-17,1Z" fill="#000"></path><path fill-opacity="0.125" stroke="none" d="M758,1110l17,-1l16,-2l17,-2l16,-2l17,-2l16,-2l17,-2l16,-3l17,-2l16,-2l17,-2l17,-2l16,-3l17,-2l16,-2l17,-3l16,-2l17,-2l16,-3l17,-2l16,-2l17,-3l16,-2l17,-3l16,-2l17,-2l16,-3l17,-2l16,-3l17,-2l16,-3l17,-2l16,-2l17,-3l16,-2l17,-2l17,-3l16,-2l17,-3l16,-2l17,-2l16,-2l17,-3l16,-2l17,-2l16,-3l17,-2l16,-2l17,-2l16,-2l17,-3l16,-2l17,-2l16,-2l17,-2l16,-2l17,-2l16,-3l17,-2l16,-2l17,-2l17,-2l16,-2l17,-2l16,-2l17,-2l16,-2l17,-2l16,-2l17,-2l16,-2l17,-1l16,-2l17,-2l16,-2l17,-2l16,-2l17,-2l16,-2l17,-2l16,-1l17,-2l16,-2l17,-2l17,-2l16,-2l17,-1l16,-2l17,-2l16,-2l17,-2l16,-2l17,-1l16,-2l17,-2l16,-2l17,-2l16,-2l17,-2l16,-1l17,-2l16,-2l17,-2l16,-2l17,-2l16,-2l17,-1l16,-2l17,-2l17,-2l16,-2l17,-2l16,-2l17,-2l16,-1l17,-2l16,-2l17,-2l16,-2l17,-2l16,-2l17,-2l16,-2l17,-2l16,-1l17,-2l16,-2l17,-2l16,-2l17,-2l16,-2l17,-2l16,-1l17,-2l17,-2l16,-2l17,-2l16,-1l17,-2l16,-2l17,-2l16,-1l17,-2l16,-2l17,-1l16,-2l17,-2l16,-1l17,-2l16,-1l17,-2l16,-1l17,-2l16,-1l17,-1l16,-2l17,-1l17,-1l16,-1l17,-1l16,-1l17,-1l16,-1l17,-1l16,-1l17,-1l16,-1l17,-1l16,0l17,-1l16,0l17,-1l16,0l17,-1l16,0l17,0l16,0l17,-1l16,0l17,0l16,0l17,1l17,0l16,0l17,0l16,1l17,0l16,1l17,0l16,1l17,1l16,1l17,0l16,1l17,1l16,1l17,2l16,1l17,1l16,1l17,2l16,1l17,2l16,1l17,2l16,2l17,1l17,2l16,2l17,2l16,2l17,2l16,2l17,2l16,2l17,3l16,2l17,2l16,3l17,2l16,3l17,2l16,3l17,2l16,3l17,3l16,3l17,2l16,3l17,3l17,3l16,3l17,3l16,3l17,3l16,3l17,3l16,3l17,3l16,3l17,4l16,3l17,3l16,3l17,4l16,3l17,3l16,4l17,3l16,3l17,4l16,3l17,3l16,4l17,3l17,4l16,3l17,3l16,4l17,3l16,4l17,3l16,4l17,3l16,3l17,4l16,3l17,4l16,3l17,4l16,3l17,3l16,4l17,3l16,3l17,4l16,3l17,3l16,3l17,4l17,3l16,3l17,3l16,3l17,3l16,3l17,4l16,3l17,3l16,2l17,3l16,3l17,3l16,3l17,3l16,2l17,3l16,3l17,2l16,3l17,2l16,3l17,2l17,2l16,3l17,2l16,2l17,2l16,2l17,2l16,2l17,2l16,2l17,2l16,1l17,2l16,2l17,1l16,2l17,1l16,1l17,1l16,2l17,1l16,1l17,1l16,0l17,1l17,1l16,1l17,0l16,1l17,0l16,0l17,0l16,1l17,0l16,0l17,0l16,0l17,-1l16,0l17,0l16,-1l17,0l16,-1l17,-1l16,0l17,-1l16,-1l17,-1l16,-1l17,-1l17,-1l16,-2l17,-1l16,-1l17,-2l16,-1l17,-2l16,-1l17,-2l16,-2l17,-1l0,-68l-17,1l-16,2l-17,2l-16,1l-17,2l-16,1l-17,1l-16,2l-17,1l-16,1l-17,2l-17,1l-16,1l-17,1l-16,1l-17,1l-16,0l-17,1l-16,1l-17,0l-16,1l-17,0l-16,1l-17,0l-16,0l-17,0l-16,0l-17,0l-16,0l-17,0l-16,0l-17,0l-16,-1l-17,0l-16,-1l-17,0l-17,-1l-16,-1l-17,0l-16,-1l-17,-1l-16,-1l-17,-1l-16,-2l-17,-1l-16,-1l-17,-1l-16,-2l-17,-1l-16,-2l-17,-2l-16,-1l-17,-2l-16,-2l-17,-2l-16,-2l-17,-2l-16,-2l-17,-2l-16,-2l-17,-2l-17,-2l-16,-3l-17,-2l-16,-3l-17,-2l-16,-3l-17,-2l-16,-3l-17,-2l-16,-3l-17,-3l-16,-3l-17,-3l-16,-2l-17,-3l-16,-3l-17,-3l-16,-3l-17,-3l-16,-3l-17,-4l-16,-3l-17,-3l-17,-3l-16,-3l-17,-3l-16,-4l-17,-3l-16,-3l-17,-4l-16,-3l-17,-3l-16,-4l-17,-3l-16,-4l-17,-3l-16,-3l-17,-4l-16,-3l-17,-4l-16,-3l-17,-4l-16,-3l-17,-4l-16,-3l-17,-3l-16,-4l-17,-3l-17,-4l-16,-3l-17,-4l-16,-3l-17,-4l-16,-3l-17,-4l-16,-3l-17,-3l-16,-4l-17,-3l-16,-4l-17,-3l-16,-3l-17,-4l-16,-3l-17,-3l-16,-3l-17,-4l-16,-3l-17,-3l-16,-3l-17,-3l-16,-3l-17,-3l-17,-3l-16,-3l-17,-3l-16,-3l-17,-3l-16,-3l-17,-3l-16,-2l-17,-3l-16,-3l-17,-2l-16,-3l-17,-2l-16,-3l-17,-2l-16,-3l-17,-2l-16,-2l-17,-2l-16,-3l-17,-2l-16,-2l-17,-2l-17,-2l-16,-1l-17,-2l-16,-2l-17,-2l-16,-1l-17,-2l-16,-1l-17,-2l-16,-1l-17,-1l-16,-2l-17,-1l-16,-1l-17,-1l-16,-1l-17,0l-16,-1l-17,-1l-16,-1l-17,0l-16,-1l-17,0l-16,-1l-17,0l-17,0l-16,0l-17,0l-16,0l-17,0l-16,0l-17,0l-16,1l-17,0l-16,0l-17,1l-16,0l-17,1l-16,1l-17,0l-16,1l-17,1l-16,1l-17,1l-16,1l-17,1l-16,1l-17,2l-16,1l-17,1l-17,1l-16,2l-17,1l-16,2l-17,1l-16,2l-17,1l-16,2l-17,2l-16,1l-17,2l-16,2l-17,2l-16,2l-17,1l-16,2l-17,2l-16,2l-17,2l-16,2l-17,2l-16,2l-17,2l-17,2l-16,2l-17,2l-16,2l-17,2l-16,2l-17,2l-16,2l-17,2l-16,2l-17,2l-16,2l-17,2l-16,2l-17,3l-16,2l-17,2l-16,2l-17,2l-16,2l-17,2l-16,2l-17,2l-16,2l-17,2l-17,2l-16,2l-17,2l-16,2l-17,2l-16,2l-17,2l-16,2l-17,2l-16,2l-17,2l-16,2l-17,2l-16,2l-17,1l-16,2l-17,2l-16,2l-17,2l-16,2l-17,2l-16,2l-17,2l-16,2l-17,2l-17,1l-16,2l-17,2l-16,2l-17,2l-16,2l-17,2l-16,2l-17,2l-16,1l-17,2l-16,2l-17,2l-16,2l-17,2l-16,2l-17,2l-16,2l-17,2l-16,2l-17,2l-16,2l-17,2l-17,2l-16,2l-17,2l-16,2l-17,2l-16,2l-17,2l-16,2l-17,2l-16,2l-17,2l-16,2l-17,2l-16,2l-17,3l-16,2l-17,2l-16,2l-17,2l-16,3l-17,2l-16,2l-17,2l-16,2l-17,3l-17,2l-16,2l-17,2l-16,3l-17,2l-16,2l-17,3l-16,2l-17,2l-16,2l-17,3l-16,2l-17,2l-16,2l-17,3l-16,2l-17,2l-16,3l-17,2l-16,2l-17,2l-16,2l-17,3l-16,2l-17,2l-17,2l-16,2l-17,2l-16,2l-17,2l-16,2l-17,2l-16,2l-17,2l-16,2l-17,1Z" fill="#000"></path><path fill-opacity="0.251" stroke="none" d="M758,1042l17,-1l16,-2l17,-2l16,-2l17,-2l16,-2l17,-2l16,-2l17,-2l16,-2l17,-2l17,-2l16,-2l17,-3l16,-2l17,-2l16,-2l17,-2l16,-3l17,-2l16,-2l17,-3l16,-2l17,-2l16,-2l17,-3l16,-2l17,-2l16,-2l17,-3l16,-2l17,-2l16,-3l17,-2l16,-2l17,-2l17,-3l16,-2l17,-2l16,-2l17,-2l16,-3l17,-2l16,-2l17,-2l16,-2l17,-3l16,-2l17,-2l16,-2l17,-2l16,-2l17,-2l16,-2l17,-2l16,-2l17,-2l16,-2l17,-2l16,-2l17,-2l17,-2l16,-2l17,-2l16,-2l17,-2l16,-2l17,-2l16,-2l17,-2l16,-2l17,-2l16,-2l17,-2l16,-1l17,-2l16,-2l17,-2l16,-2l17,-2l16,-2l17,-2l16,-2l17,-1l17,-2l16,-2l17,-2l16,-2l17,-2l16,-2l17,-2l16,-2l17,-2l16,-2l17,-1l16,-2l17,-2l16,-2l17,-2l16,-2l17,-2l16,-2l17,-2l16,-2l17,-2l16,-2l17,-2l16,-2l17,-2l17,-2l16,-2l17,-2l16,-2l17,-2l16,-2l17,-2l16,-2l17,-2l16,-2l17,-3l16,-2l17,-2l16,-2l17,-2l16,-2l17,-2l16,-2l17,-2l16,-2l17,-2l16,-2l17,-2l16,-2l17,-2l17,-2l16,-2l17,-2l16,-2l17,-2l16,-2l17,-2l16,-2l17,-1l16,-2l17,-2l16,-2l17,-2l16,-1l17,-2l16,-2l17,-1l16,-2l17,-1l16,-2l17,-1l16,-2l17,-1l17,-1l16,-1l17,-2l16,-1l17,-1l16,-1l17,-1l16,-1l17,-1l16,-1l17,0l16,-1l17,-1l16,0l17,-1l16,0l17,0l16,-1l17,0l16,0l17,0l16,0l17,0l16,0l17,0l17,0l16,1l17,0l16,1l17,0l16,1l17,1l16,1l17,0l16,1l17,1l16,1l17,1l16,2l17,1l16,1l17,2l16,1l17,2l16,1l17,2l16,2l17,2l16,1l17,2l17,2l16,2l17,2l16,3l17,2l16,2l17,2l16,3l17,2l16,3l17,2l16,3l17,2l16,3l17,3l16,2l17,3l16,3l17,3l16,3l17,3l16,3l17,3l17,3l16,3l17,3l16,3l17,3l16,3l17,4l16,3l17,3l16,3l17,4l16,3l17,3l16,4l17,3l16,4l17,3l16,3l17,4l16,3l17,4l16,3l17,4l16,3l17,4l17,3l16,4l17,3l16,3l17,4l16,3l17,4l16,3l17,4l16,3l17,4l16,3l17,3l16,4l17,3l16,4l17,3l16,3l17,4l16,3l17,3l16,4l17,3l16,3l17,3l17,3l16,3l17,4l16,3l17,3l16,3l17,3l16,3l17,3l16,2l17,3l16,3l17,3l16,3l17,2l16,3l17,2l16,3l17,2l16,3l17,2l16,3l17,2l17,2l16,2l17,2l16,2l17,2l16,2l17,2l16,2l17,2l16,1l17,2l16,2l17,1l16,2l17,1l16,1l17,1l16,2l17,1l16,1l17,1l16,1l17,0l16,1l17,1l17,0l16,1l17,0l16,1l17,0l16,0l17,0l16,0l17,0l16,0l17,0l16,0l17,0l16,-1l17,0l16,-1l17,0l16,-1l17,-1l16,0l17,-1l16,-1l17,-1l16,-1l17,-1l17,-2l16,-1l17,-1l16,-2l17,-1l16,-1l17,-2l16,-1l17,-2l16,-2l17,-1l0,-945l-6014,0Z" fill="#000"></path><path fill-opacity="0.125" stroke="none" d="" fill="#000"></path></g><g transform="scale(0.1)"></g><g stroke-width="1" stroke="#000" fill="none" stroke-opacity="0.2"><line x2="126.2" y1="10" x1="126.2" y2="370" stroke-opacity="0.2"></line><line x2="172.5" y1="10" x1="172.5" y2="370" stroke-opacity="0.2"></line><line x2="223.7" y1="10" x1="223.7" y2="370" stroke-opacity="0.2"></line><line x2="273.2" y1="10" x1="273.2" y2="370" stroke-opacity="0.2"></line><line x2="324.5" y1="10" x1="324.5" y2="370" stroke-opacity="0.2"></line><line x2="374" y1="10" x1="374" y2="370" stroke-opacity="0.2"></line><line x2="425.2" y1="10" x1="425.2" y2="370" stroke-opacity="0.2"></line><line x2="476.4" y1="10" x1="476.4" y2="370" stroke-opacity="0.2"></line><line x2="526" y1="10" x1="526" y2="370" stroke-opacity="0.2"></line><line x2="577.2" y1="10" x1="577.2" y2="370" stroke-opacity="0.2"></line><line x2="626.8" y1="10" x1="626.8" y2="370" stroke-opacity="0.2"></line><line x2="681" y1="365" x1="72" y2="365"></line><line x2="681" y1="335.4" x1="72" y2="335.4"></line><line x2="681" y1="305.8" x1="72" y2="305.8"></line><line x2="681" y1="276.3" x1="72" y2="276.3"></line><line x2="681" y1="246.7" x1="72" y2="246.7"></line><line x2="681" y1="217.1" x1="72" y2="217.1"></line><line x2="681" y1="187.5" x1="72" y2="187.5"></line><line x2="681" y1="157.9" x1="72" y2="157.9"></line><line x2="681" y1="128.3" x1="72" y2="128.3"></line><line x2="681" y1="98.8" x1="72" y2="98.8"></line><line x2="681" y1="69.2" x1="72" y2="69.2"></line><line x2="681" y1="39.6" x1="72" y2="39.6"></line><line x2="681" y1="10" x1="72" y2="10"></line></g><g><rect fill-opacity="0.004" y="10" x="75" height="355" width="51.2" fill="#fff"></rect><text stroke="none" y="381.5" text-anchor="middle" x="100.6">Jan</text></g><g><rect fill-opacity="0.004" y="10" x="126.2" height="355" width="46.3" fill="#fff"></rect><text stroke="none" y="381.5" text-anchor="middle" x="149.3">Feb</text></g><g><rect fill-opacity="0.004" y="10" x="172.5" height="355" width="51.2" fill="#fff"></rect><text stroke="none" y="381.5" text-anchor="middle" x="198.1">Mar</text></g><g><rect fill-opacity="0.004" y="10" x="223.7" height="355" width="49.6" fill="#fff"></rect><text stroke="none" y="381.5" text-anchor="middle" x="248.5">Apr</text></g><g><rect fill-opacity="0.004" y="10" x="273.2" height="355" width="51.2" fill="#fff"></rect><text stroke="none" y="381.5" text-anchor="middle" x="298.9">May</text></g><g><rect fill-opacity="0.004" y="10" x="324.5" height="355" width="49.6" fill="#fff"></rect><text stroke="none" y="381.5" text-anchor="middle" x="349.2">Jun</text></g><g><rect fill-opacity="0.004" y="10" x="374" height="355" width="51.2" fill="#fff"></rect><text stroke="none" y="381.5" text-anchor="middle" x="399.6">Jul</text></g><g><rect fill-opacity="0.004" y="10" x="425.2" height="355" width="51.2" fill="#fff"></rect><text stroke="none" y="381.5" text-anchor="middle" x="450.8">Aug</text></g><g><rect fill-opacity="0.004" y="10" x="476.4" height="355" width="49.6" fill="#fff"></rect><text stroke="none" y="381.5" text-anchor="middle" x="501.2">Sep</text></g><g><rect fill-opacity="0.004" y="10" x="526" height="355" width="51.2" fill="#fff"></rect><text stroke="none" y="381.5" text-anchor="middle" x="551.6">Oct</text></g><g><rect fill-opacity="0.004" y="10" x="577.2" height="355" width="49.6" fill="#fff"></rect><text stroke="none" y="381.5" text-anchor="middle" x="602">Nov</text></g><g><rect fill-opacity="0.004" y="10" x="626.8" height="355" width="51.2" fill="#fff"></rect><text stroke="none" y="381.5" text-anchor="middle" x="652.4">Dec</text></g><g stroke="none" fill="#666"><text y="370.2" text-anchor="end" x="71">0</text><text y="370.2" x="682">0</text><text y="340.6" text-anchor="end" x="71">2</text><text y="340.6" x="682">2</text><text y="311" text-anchor="end" x="71">4</text><text y="311" x="682">4</text><text y="281.4" text-anchor="end" x="71">6</text><text y="281.4" x="682">6</text><text y="251.9" text-anchor="end" x="71">8</text><text y="251.9" x="682">8</text><text y="222.3" text-anchor="end" x="71">10</text><text y="222.3" x="682">10</text><text y="192.7" text-anchor="end" x="71">12</text><text y="192.7" x="682">12</text><text y="163.1" text-anchor="end" x="71">14</text><text y="163.1" x="682">14</text><text y="133.5" text-anchor="end" x="71">16</text><text y="133.5" x="682">16</text><text y="103.9" text-anchor="end" x="71">18</text><text y="103.9" x="682">18</text><text y="74.4" text-anchor="end" x="71">20</text><text y="74.4" x="682">20</text><text y="44.8" text-anchor="end" x="71">22</text><text y="44.8" x="682">22</text><text y="15.2" text-anchor="end" x="71">0</text><text y="15.2" x="682">0</text></g><g font-family="sans-serif" text-decoration="none" font-style="normal" font-size="15" font-weight="normal"><text font-family="sans-serif" stroke="none" opacity="0.8" y="259.4" text-decoration="none" text-anchor="middle" x="111.5" font-style="normal" font-size="15" fill="#fff" font-weight="normal">0°-6°</text></g><g font-family="sans-serif" text-decoration="none" font-style="normal" font-size="15" font-weight="normal"><text font-family="sans-serif" stroke="none" opacity="0.8" y="41.8" text-decoration="none" text-anchor="middle" x="110.7" font-style="normal" font-size="15" fill="#fff" font-weight="normal">7°-12°</text></g><g font-family="sans-serif" text-decoration="none" font-style="normal" font-size="15" font-weight="normal"><text font-family="sans-serif" stroke="none" opacity="0.8" y="34.9" text-decoration="none" text-anchor="middle" x="650.9" font-style="normal" font-size="15" fill="#fff" font-weight="normal">7°-12°</text></g><g font-family="sans-serif" text-decoration="none" font-style="normal" font-size="15" font-weight="normal"><text font-family="sans-serif" stroke="none" opacity="0.8" y="334.2" text-decoration="none" text-anchor="middle" x="154.7" font-style="normal" font-size="15" fill="#fff" font-weight="normal">7°-12°</text></g><g font-family="sans-serif" text-decoration="none" font-style="normal" font-size="15" font-weight="normal"><text font-family="sans-serif" stroke="none" opacity="0.8" y="137.7" text-decoration="none" text-anchor="middle" x="113.9" font-style="normal" font-size="15" fill="#fff" font-weight="normal">13°-17°</text></g><g font-family="sans-serif" text-decoration="none" font-style="normal" font-size="15" font-weight="normal"><text font-family="sans-serif" stroke="none" opacity="0.8" y="98.6" text-decoration="none" text-anchor="middle" x="656.6" font-style="normal" font-size="15" fill="#fff" font-weight="normal">13°-17°</text></g><g font-family="sans-serif" text-decoration="none" font-style="normal" font-size="15" font-weight="normal"><text font-family="sans-serif" stroke="none" opacity="0.8" y="308.1" text-decoration="none" text-anchor="middle" x="407.6" font-style="normal" font-size="15" fill="#fff" font-weight="normal">24°-28°</text></g><g font-family="sans-serif" text-decoration="none" font-style="normal" font-size="15" font-weight="normal"><text font-family="sans-serif" stroke="none" opacity="0.8" y="138.2" text-decoration="none" text-anchor="middle" x="465.7" font-style="normal" font-size="15" fill="#fff" font-weight="normal">29°-34°</text></g><g font-family="sans-serif" text-decoration="none" font-style="normal" font-size="15" font-weight="normal"><text font-family="sans-serif" stroke="none" opacity="0.8" y="130.5" text-decoration="none" text-anchor="middle" x="346.6" font-style="normal" font-size="15" fill="#fff" font-weight="normal">35°+</text></g><g font-family="sans-serif" text-decoration="none" font-style="normal" font-size="15" font-weight="normal"><text font-family="sans-serif" stroke="none" opacity="0.8" y="259.3" text-decoration="none" text-anchor="middle" x="642.7" font-style="normal" font-size="15" fill="#fff" font-weight="normal">0°-6°</text></g><g font-family="sans-serif" text-decoration="none" font-style="normal" font-size="15" font-weight="normal"><text font-family="sans-serif" stroke="none" opacity="0.8" y="283.2" text-decoration="none" text-anchor="middle" x="295.2" font-style="normal" font-size="15" fill="#fff" font-weight="normal">18°-23°</text></g><g font-family="sans-serif" text-decoration="none" font-style="normal" font-size="15" font-weight="normal"><text font-family="sans-serif" stroke="none" opacity="0.8" y="272.6" text-decoration="none" text-anchor="middle" x="508" font-style="normal" font-size="15" fill="#fff" font-weight="normal">18°-23°</text></g></svg>