<svg font-family="sans-serif" viewBox="0 0 753 387" xmlns:xlink="http://www.w3.org/1999/xlink" text-decoration="none" font-style="normal" width="753px" xmlns="http://www.w3.org/2000/svg" font-size="15" version="1.1" font-weight="normal" height="387px"><title>Average Hourly Temperature in Doha</title><defs><clipPath id="plot-sample-bounds-0"><rect y="0" x="75.8" height="365" width="601.3"></rect></clipPath><clipPath id="plot-sample-bounds-scaled-0"><rect y="0" x="758.3" height="3650" width="6013.5"></rect></clipPath></defs><g transform="scale(0.1)"><path fill-opacity="1.000" stroke-width="10" stroke="#5ca0b4" d="" fill="#5ca0b4" stroke-opacity="1.0"></path><path fill-opacity="1.000" stroke-width="10" stroke="#83c2d5" d="" fill="#83c2d5" stroke-opacity="1.0"></path><path fill-opacity="1.000" stroke-width="10" stroke="#679568" d="" fill="#679568" stroke-opacity="1.0"></path><path fill-opacity="1.000" stroke-width="10" stroke="#74a877" d="" fill="#74a877" stroke-opacity="1.0"></path><path fill-opacity="1.000" stroke-width="10" stroke="#8dbf71" d="M758,601l0,0l10,17l7,10l16,25l17,21l16,25l17,19l16,17l17,26l4,5l12,10l17,11l16,10l17,7l17,10l16,4l17,7l16,0l17,4l16,7l17,0l16,4l17,1l16,6l17,5l16,0l17,0l16,-2l17,-4l16,-6l17,-7l16,-10l17,-15l16,-7l17,-13l16,-13l13,-9l4,-5l16,-26l17,-15l17,-16l16,-17l17,-23l16,-22l17,-20l3,-4l13,-22l17,-22l16,-28l17,-27l16,-18l17,-26l4,-5l12,-20l17,-32l16,-29l17,-29l12,-38l4,-15l17,-63l16,-48l9,-22l8,-17l16,-36l9,-21l-934,0ZM6579,100l11,44l10,30l7,14l16,42l17,36l16,34l10,22l7,15l16,37l17,34l16,38l10,24l7,11l16,34l17,34l0,-449ZM758,3650l934,0l8,-17l16,-40l8,-17l9,-28l16,-53l17,-51l6,-16l11,-35l16,-61l17,-52l16,-57l17,-58l11,-33l5,-18l17,-65l14,-65l2,-13l17,-94l8,-41l8,-55l14,-92l-14,-28l-16,-33l-17,-36l-16,-46l-2,-5l-15,-15l-16,-13l-17,-14l-16,-15l-17,-14l-16,-14l-17,-17l-17,-15l-16,-18l-13,-13l-4,-3l-16,-12l-17,-10l-16,-10l-17,-14l-16,-13l-17,-14l-16,-12l-17,-9l-16,-9l-17,-9l-16,-9l-17,-6l-16,-7l-17,-10l-3,-1l-13,-8l-17,-9l-16,-11l-17,-9l-16,-9l-17,-8l-16,-6l-17,-8l-17,-8l-16,-9l-17,-9l-16,-7l-17,-6l-16,-6l-17,-7l-16,-6l-17,-4l-16,-3l-17,-3l-16,-1l-17,-2l-16,0l-17,0l-16,2l-17,0l-16,0l-17,1l-16,2l-17,-2l-16,2l-17,1l-16,3l-17,3l-17,2l-16,4l-17,5l-16,4l-17,7l-16,7l-17,8l-16,8l-17,8l-16,8l-17,7ZM6711,2245l-5,3l-17,8l-16,11l-17,8l-16,11l-17,8l-16,13l-17,13l-17,10l-16,11l-17,14l-16,14l-17,13l-11,11l-5,7l-17,19l-16,22l-17,23l-16,23l-17,20l-16,18l-13,16l-4,22l-16,94l-6,32l6,49l12,98l4,23l17,103l4,22l12,50l17,65l6,33l10,47l17,62l10,39l6,22l17,60l16,59l2,7l15,45l16,52l17,45l2,6l14,52l6,22l193,0l0,-1444l-17,11l-16,11l-17,10Z" fill="#8dbf71" stroke-opacity="1.0"></path><path fill-opacity="1.000" stroke-width="10" stroke="#e9cc77" d="M1690,100l-7,15l-16,36l-11,23l-6,15l-16,48l-17,63l-6,22l-10,32l-17,28l-16,30l-17,31l-16,27l-17,26l-16,18l-17,27l-16,27l-17,22l-16,28l-17,19l-16,22l-17,23l-16,17l-17,16l-17,15l-16,25l-8,11l-9,6l-16,13l-17,13l-16,7l-17,14l-16,10l-17,7l-16,7l-17,3l-16,2l-17,0l-16,0l-17,-5l-16,-5l-17,-2l-16,-3l-17,0l-16,-8l-17,-3l-16,0l-17,-7l-16,-5l-17,-9l-17,-7l-16,-10l-17,-11l-8,-7l-8,-11l-17,-25l-16,-17l-17,-19l-16,-25l-17,-21l-16,-25l-4,-5l-13,-23l0,0l0,1593l0,0l17,-8l16,-8l17,-7l16,-8l17,-8l16,-7l17,-7l16,-5l17,-4l16,-4l17,-2l17,-3l16,-3l17,-2l16,-1l17,1l16,-1l17,-2l16,0l17,0l16,-1l17,0l16,0l17,1l16,2l17,3l16,3l17,3l16,6l17,8l16,6l17,6l16,6l17,10l16,8l17,9l17,7l16,6l17,8l16,9l17,10l16,10l17,10l11,6l5,3l17,9l16,8l17,6l16,9l17,9l16,8l17,9l16,12l17,14l16,14l17,13l16,10l17,11l16,11l2,2l15,15l16,18l17,15l17,17l16,14l17,14l16,15l17,13l16,14l13,13l4,11l16,46l17,36l16,33l11,22l-11,74l-11,73l-5,27l-17,94l-4,27l-12,56l-17,65l-8,27l-8,25l-17,57l-16,58l-3,8l-14,44l-16,61l-14,43l-3,8l-17,51l-16,54l-12,35l-5,11l-16,40l-10,23l720,0l17,-55l6,-19l10,-49l17,-78l4,-21l12,-74l13,-74l4,-22l16,-89l8,-37l9,-52l16,-96l17,-123l4,-25l0,-147l-4,-5l-17,-27l-16,-26l-17,-29l-16,-33l-15,-28l-2,-2l-16,-17l-17,-17l-16,-17l-17,-16l-16,-16l-17,-16l-16,-15l-17,-17l-16,-15l-17,-15l-16,-16l-17,-15l-16,-15l-17,-15l-16,-16l-17,-15l-16,-15l-17,-14l-13,-12l-3,-3l-17,-15l-17,-14l-16,-15l-17,-17l-16,-15l-17,-18l-16,-16l-17,-16l-16,-16l-3,-3l-14,-15l-16,-18l-17,-18l-16,-14l-17,-14l-16,-13l-17,-15l-16,-16l-17,-18l-8,-7l-8,-11l-17,-22l-16,-21l-17,-21l-16,-19l-17,-19l-17,-17l-16,-18l-17,-49l-16,-45l-17,-39l-7,-15l-7,-148l14,-47l17,-62l10,-39l6,-11l17,-32l16,-25l17,-20l17,-23l16,-26l6,-11l11,-12l16,-17l17,-17l16,-20l17,-20l16,-20l17,-17l16,-15l10,-10l7,-6l16,-14l17,-20l16,-16l17,-14l16,-17l17,-20l16,-16l17,-20l3,-4l13,-22l17,-22l16,-22l17,-14l17,-25l16,-20l17,-23l16,-39l17,-37l16,-41l11,-31l6,-19l16,-48l17,-44l13,-37l3,-12l17,-59l16,-59l5,-18l12,-45l16,-71l9,-32l8,-25l16,-49l0,0ZM5982,100l8,74l5,26l17,75l9,47l7,32l17,75l8,41l8,33l17,60l13,55l3,16l17,63l16,63l2,6l15,39l16,42l17,43l9,24l8,13l16,27l17,27l16,26l17,23l16,29l2,2l15,25l16,27l17,25l16,25l17,22l16,22l2,2l15,35l16,32l17,35l16,31l9,15l8,35l16,76l9,37l-7,148l-2,6l-16,49l-17,42l-16,51l-17,25l-16,28l-17,31l-16,28l-17,27l-4,9l-12,18l-17,22l-16,26l-17,25l-16,24l-17,25l-5,8l-11,13l-17,19l-16,20l-17,20l-17,20l-16,21l-17,20l-10,15l-6,7l-17,19l-16,17l-17,19l-16,20l-17,19l-16,19l-17,18l-9,10l-7,9l-17,22l-16,20l-17,17l-16,15l-17,17l-16,18l-17,16l-13,14l-3,8l-17,42l-16,40l-17,41l-7,17l7,49l15,98l2,10l16,83l11,55l6,23l16,74l11,51l6,28l16,78l9,42l8,34l16,67l11,47l6,26l16,71l11,51l6,49l3,25l599,0l-8,-30l-11,-44l-5,-13l-17,-45l-16,-51l-12,-39l-5,-15l-16,-59l-17,-59l-4,-15l-12,-47l-17,-62l-8,-39l-8,-41l-17,-66l-10,-41l-6,-34l-17,-102l-2,-12l-14,-115l-4,-32l4,-22l16,-92l6,-34l11,-14l16,-18l17,-19l16,-23l17,-23l16,-23l17,-19l6,-9l10,-10l17,-13l16,-14l17,-14l16,-11l17,-10l17,-13l16,-12l17,-8l16,-11l17,-8l16,-11l17,-8l8,-5l8,-5l17,-11l16,-11l17,-11l0,-1663l-17,-34l-16,-35l-4,-5l-13,-31l-16,-39l-17,-34l-16,-37l-4,-7l-13,-30l-16,-34l-17,-35l-16,-42l-4,-7l-13,-39l-9,-35Z" fill="#e9cc77" stroke-opacity="1.0"></path><path fill-opacity="1.000" stroke-width="10" stroke="#c77560" d="M2409,100l-15,44l-10,30l-7,26l-16,70l-13,52l-4,12l-16,59l-17,59l-5,18l-11,32l-17,44l-16,48l-7,24l-10,27l-16,41l-17,37l-16,39l-2,4l-15,21l-16,20l-17,24l-17,15l-16,21l-17,23l-15,24l-1,2l-17,20l-16,16l-17,20l-16,17l-17,14l-16,16l-17,20l-16,14l-10,8l-7,8l-16,15l-17,17l-16,20l-17,19l-16,21l-17,16l-16,18l-13,14l-4,8l-16,26l-17,22l-17,20l-16,25l-17,33l-8,14l-8,31l-17,63l-16,54l7,148l9,20l17,39l16,45l15,44l2,3l16,17l17,18l17,18l16,19l17,22l16,20l17,23l6,8l10,9l17,18l16,16l17,15l16,13l17,14l16,14l17,18l16,18l12,13l5,4l16,16l17,16l16,17l17,17l16,15l17,18l16,14l17,15l17,14l1,2l15,13l17,15l16,14l17,15l16,16l17,16l16,14l17,16l16,15l15,14l2,1l16,15l17,17l16,16l17,15l16,16l17,16l16,17l17,17l16,18l17,31l16,32l17,29l16,26l17,27l2,3l0,147l-2,13l-17,124l-1,11l-15,87l-11,61l-6,30l-16,89l-6,29l-11,66l-13,82l-3,14l-17,78l-12,56l-4,14l-17,55l-1,5l525,0l5,-13l16,-48l5,-13l12,-38l17,-39l16,-48l9,-23l8,-20l16,-47l17,-47l11,-34l5,-13l17,-47l16,-52l12,-36l5,-16l16,-58l17,-50l7,-24l9,-59l14,-89l-14,-63l-16,-73l-3,-11l-14,-11l-16,-12l-17,-13l-16,-14l-17,-14l-16,-12l-17,-14l-16,-14l-17,-14l-16,-14l-17,-16l-17,-11l-16,-12l-17,-11l-16,-13l-17,-13l-16,-12l-17,-12l-16,-15l-17,-15l-16,-14l-17,-16l-5,-4l-11,-10l-17,-13l-16,-13l-17,-15l-16,-14l-17,-15l-16,-14l-17,-15l-16,-14l-17,-16l-9,-9l-7,-8l-17,-19l-16,-17l-17,-16l-17,-18l-16,-18l-17,-20l-16,-19l-12,-13l-5,-8l-16,-27l-17,-28l-16,-28l-17,-27l-16,-28l-2,-2l-15,-34l-16,-42l-17,-41l-12,-31l-4,-25l-17,-100l-4,-23l4,-55l8,-93l9,-29l16,-55l17,-59l1,-5l15,-36l17,-39l16,-46l10,-27l7,-11l16,-32l17,-32l16,-30l17,-25l10,-18l6,-9l17,-24l16,-22l17,-22l17,-23l16,-22l17,-22l2,-3l14,-21l17,-27l16,-25l17,-25l16,-24l17,-26l16,-37l17,-37l16,-30l17,-32l6,-12l10,-28l17,-52l16,-48l7,-20l10,-39l16,-67l14,-42l3,-12l16,-62l17,-62l3,-12l13,-40l12,-34ZM5333,100l1,4l17,42l8,28l8,20l17,36l17,41l16,41l5,10l12,25l16,39l17,38l16,41l2,5l15,31l16,38l17,38l16,41l17,35l16,43l17,39l11,31l5,9l17,33l16,32l17,34l16,36l2,4l15,20l16,26l17,25l16,26l17,27l14,23l3,5l16,28l17,29l16,27l17,31l16,28l17,37l16,36l17,36l16,36l1,3l16,71l16,71l2,6l5,148l-7,35l-16,91l-4,22l-13,32l-16,39l-17,38l-16,36l-2,3l-15,23l-16,26l-17,30l-16,24l-17,27l-13,18l-3,3l-17,18l-17,18l-16,16l-17,17l-16,17l-17,16l-16,15l-17,15l-16,13l-17,12l-16,11l-17,11l-16,11l-17,9l-16,11l-17,11l-16,9l-17,10l-16,9l-17,9l-16,9l-17,10l-16,10l-11,6l-6,4l-17,10l-16,9l-17,7l-16,11l-17,9l-16,9l-17,9l-16,8l-17,8l-16,8l-17,9l-16,9l-17,10l-16,8l-17,10l-16,10l-17,19l-16,19l-17,21l-16,20l-17,20l-16,16l-17,16l-16,17l16,126l3,21l14,47l16,55l12,46l5,14l16,50l17,44l14,40l2,6l17,33l16,43l17,33l14,33l2,5l17,34l16,35l17,37l16,37l17,31l16,33l17,33l16,35l9,16l8,22l15,52l650,0l-4,-37l-4,-37l-13,-58l-16,-71l-5,-19l-12,-54l-16,-67l-6,-27l-11,-49l-16,-78l-5,-21l-12,-59l-16,-74l-4,-15l-13,-64l-16,-84l-17,-110l-5,-37l5,-13l17,-41l16,-39l17,-43l4,-12l12,-12l17,-17l16,-17l17,-17l16,-16l17,-17l16,-20l17,-21l9,-11l7,-9l17,-18l16,-18l17,-19l16,-20l17,-20l16,-17l17,-19l7,-8l9,-13l17,-21l16,-20l17,-20l17,-21l16,-20l17,-19l12,-14l4,-6l17,-25l16,-24l17,-25l16,-25l17,-23l13,-20l3,-6l17,-28l16,-27l17,-31l16,-28l17,-25l2,-3l14,-45l17,-43l16,-49l4,-11l7,-148l-11,-46l-16,-76l-6,-26l-11,-19l-16,-31l-17,-35l-16,-31l-13,-32l-4,-5l-16,-22l-17,-22l-16,-25l-17,-24l-16,-27l-14,-23l-3,-5l-16,-28l-17,-24l-16,-26l-17,-26l-16,-28l-6,-10l-11,-28l-17,-43l-16,-42l-14,-35l-3,-11l-16,-63l-17,-64l-2,-10l-14,-61l-17,-60l-7,-27l-9,-47l-17,-75l-5,-26l-11,-54l-17,-75l-4,-19l-8,-74Z" fill="#c77560" stroke-opacity="1.0"></path><path fill-opacity="1.000" stroke-width="10" stroke="#b05b5a" d="M2933,100l-11,29l-15,45l-1,6l-17,62l-16,61l-5,19l-12,37l-16,67l-11,44l-6,16l-16,48l-17,52l-12,32l-4,9l-17,32l-16,30l-17,37l-16,37l-2,3l-15,24l-16,24l-17,25l-16,25l-17,27l-15,23l-1,1l-17,22l-16,22l-17,23l-17,22l-16,22l-17,24l-7,11l-9,16l-17,25l-16,30l-17,32l-16,32l-8,13l-9,23l-16,46l-17,40l-16,39l-17,59l-16,55l-11,34l-6,74l-5,74l5,31l17,101l2,16l14,34l17,42l16,41l14,31l3,4l16,27l17,28l16,28l17,28l16,27l4,6l13,15l16,19l17,19l16,18l17,18l17,17l16,16l17,19l5,7l11,10l17,16l16,14l17,15l16,14l17,15l16,14l17,15l16,13l17,13l10,9l6,5l17,16l16,14l17,15l16,15l17,13l16,12l17,12l16,13l17,11l16,12l15,10l2,1l17,16l16,15l17,13l16,14l17,15l16,12l17,13l16,15l17,13l16,12l12,9l5,22l16,73l12,52l-12,74l-12,74l-4,16l-17,50l-16,58l-7,24l-10,28l-16,53l-17,47l-7,20l-9,27l-17,47l-16,47l-10,27l-7,17l-16,49l-17,38l-13,44l-4,9l-16,48l-6,17l2403,0l-2,-4l-16,-55l-6,-15l-11,-21l-16,-35l-17,-33l-16,-33l-14,-26l-3,-5l-16,-37l-17,-37l-16,-36l-17,-33l-16,-38l-17,-33l-16,-44l-17,-33l-16,-47l-17,-44l-16,-50l-3,-7l-14,-55l-16,-56l-11,-37l-6,-42l-14,-105l14,-14l17,-16l16,-16l17,-20l16,-21l17,-20l16,-19l17,-20l2,-2l14,-9l17,-10l16,-8l17,-10l16,-9l17,-9l16,-8l17,-8l16,-8l17,-9l16,-8l17,-10l16,-10l17,-8l16,-9l17,-10l8,-5l9,-5l16,-9l17,-11l16,-9l17,-9l16,-9l17,-10l16,-9l17,-11l16,-10l17,-10l16,-10l17,-11l16,-12l17,-12l2,-1l14,-12l17,-15l16,-14l17,-16l16,-17l17,-17l16,-17l17,-17l17,-19l4,-4l12,-16l17,-27l16,-24l17,-30l16,-26l17,-25l16,-35l17,-39l16,-39l14,-35l3,-15l16,-91l8,-42l-5,-148l-3,-12l-16,-71l-14,-65l-3,-6l-16,-36l-17,-37l-16,-36l-15,-33l-2,-2l-16,-29l-17,-31l-16,-27l-17,-28l-16,-28l-2,-3l-15,-25l-17,-28l-16,-25l-17,-26l-16,-25l-13,-18l-4,-7l-16,-36l-17,-35l-16,-31l-17,-33l-3,-6l-13,-35l-17,-39l-16,-44l-15,-30l-2,-5l-16,-40l-17,-38l-16,-38l-13,-27l-4,-10l-16,-41l-17,-38l-16,-39l-10,-20l-7,-15l-16,-41l-17,-41l-17,-36l-6,-15l-10,-35l-15,-39ZM3914,606l16,-8l17,-1l16,0l17,-8l16,0l17,-2l16,-8l17,0l16,-6l17,6l16,0l17,0l16,-3l17,-6l16,0l17,-3l17,3l16,6l17,0l16,0l17,0l16,9l17,0l16,10l17,0l16,9l17,0l16,9l17,0l8,5l8,3l17,7l16,7l17,6l16,8l17,7l16,7l17,8l16,10l17,14l17,8l16,0l17,7l16,8l17,14l16,15l17,8l12,11l4,2l17,10l16,11l17,9l16,11l17,5l16,10l17,10l16,11l17,13l16,12l17,10l16,15l17,11l12,8l4,2l17,13l16,13l17,10l17,12l16,13l17,8l16,13l17,9l16,13l17,10l16,17l15,14l2,3l16,14l17,14l16,15l17,17l16,14l17,14l16,13l17,19l16,14l11,11l6,10l16,26l17,23l16,22l17,21l16,25l12,21l5,15l17,45l16,54l12,34l5,37l14,111l-14,74l-15,74l-2,3l-16,31l-17,31l-17,31l-16,24l-17,25l-2,3l-14,9l-17,13l-16,13l-17,14l-16,11l-17,14l-16,12l-17,9l-16,13l-17,14l-16,10l-17,11l-6,5l-10,6l-17,8l-16,12l-17,6l-16,8l-17,10l-16,6l-17,7l-16,8l-17,8l-17,8l-16,6l-17,8l-16,7l-17,7l-16,6l-17,7l-16,8l-17,8l-12,4l-4,1l-17,7l-16,5l-17,6l-16,7l-17,5l-16,7l-17,7l-16,5l-17,5l-16,5l-17,5l-16,6l-17,4l-16,2l-17,5l-17,5l-16,4l-17,4l-16,5l-17,3l-16,4l-17,6l-16,2l-17,2l-16,3l-17,2l-16,3l-17,2l-16,3l-17,5l-16,2l-17,2l-16,3l-17,0l-16,0l-17,2l-16,3l-9,1l-8,1l-17,0l-16,0l-17,0l-16,2l-17,0l-16,0l-17,3l-16,0l-17,-3l-16,0l-17,0l-16,0l-17,0l-16,-2l-17,0l-8,-1l-8,-1l-17,-3l-16,-2l-17,-2l-16,-2l-17,-2l-16,0l-17,0l-16,-2l-17,-2l-17,-2l-16,-2l-17,-2l-16,-4l-17,-3l-16,-1l-17,0l-16,-3l-17,-2l-16,-2l-17,-2l-16,-4l-17,-2l-16,-2l-17,-2l-16,-4l-17,-2l-16,-3l-17,-3l-16,-2l-17,-2l-16,-2l-17,-2l-16,-2l-17,-2l-17,0l-16,-3l-17,-4l-16,-6l-17,-6l-16,-5l-17,-5l-16,-5l-17,-4l-16,-5l-17,-7l-16,-8l-17,-6l-16,-8l-9,-3l-8,-4l-16,-10l-17,-12l-16,-10l-17,-11l-16,-11l-17,-12l-16,-13l-17,-14l-17,-14l-16,-15l-17,-18l-4,-4l-12,-17l-17,-26l-16,-22l-17,-22l-16,-26l-17,-26l-5,-9l-11,-37l-17,-47l-16,-41l-8,-23l-9,-103l-4,-45l4,-22l17,-89l6,-37l10,-37l17,-57l16,-50l2,-4l15,-43l16,-45l17,-43l7,-17l9,-15l17,-24l16,-32l17,-29l16,-23l17,-18l4,-7l13,-15l16,-18l17,-16l16,-14l17,-17l16,-16l17,-15l16,-14l17,-14l8,-8l8,-9l17,-10l16,-13l17,-13l16,-8l17,-8l16,-7l17,-10l16,-10l17,-9l16,-10l17,-6l16,-4l17,-3l17,0l16,-7l17,-6l16,-7l17,-3l12,-5l4,-3l17,-9l16,-9l17,-9l16,-5l17,-8l16,-6l17,-7l16,-7l17,-4l16,-5l17,-7l16,-2l17,-5l16,-3l17,-6l16,-8l17,-5l16,-9l17,-5l17,0l16,0l17,-4l16,-5l17,-5l16,-5l17,-5l16,0l4,-2Z" fill="#b05b5a" stroke-opacity="1.0"></path><path fill-opacity="1.000" stroke-width="10" stroke="#984b44" d="M3872,618l-8,2l-16,5l-17,5l-16,5l-17,4l-16,0l-17,0l-17,5l-16,9l-17,5l-16,8l-17,7l-16,2l-17,5l-16,2l-17,7l-16,5l-17,5l-16,6l-17,7l-16,7l-17,7l-16,6l-17,8l-16,9l-17,10l-12,7l-4,1l-17,4l-16,6l-17,7l-16,6l-17,1l-17,3l-16,4l-17,5l-16,10l-17,10l-16,10l-17,10l-16,6l-17,9l-16,8l-17,12l-16,14l-17,10l-11,12l-5,5l-17,13l-16,14l-17,15l-16,16l-17,17l-16,14l-17,16l-16,19l-16,18l-1,3l-17,18l-16,22l-17,29l-16,32l-17,24l-12,20l-4,10l-17,43l-16,45l-17,47l-1,3l-15,45l-17,58l-13,45l-3,22l-17,89l-7,37l7,74l6,74l11,29l16,42l17,47l9,30l7,13l17,26l16,26l17,22l16,22l17,26l10,13l6,6l17,18l16,15l17,15l17,13l16,13l17,12l16,12l17,11l16,9l17,13l16,10l3,1l14,5l16,9l17,5l16,9l17,6l16,5l17,4l16,5l17,5l16,5l17,7l16,5l17,4l16,3l17,0l17,2l16,2l17,2l16,2l17,2l16,2l17,3l16,3l17,2l16,4l17,2l16,2l17,2l16,4l17,2l16,2l17,3l16,2l17,0l16,1l17,3l16,4l17,2l16,2l17,2l17,2l16,2l17,0l16,0l17,2l16,2l17,2l16,3l8,1l9,1l16,2l17,0l16,3l17,0l16,0l17,0l16,0l17,2l16,0l17,-2l16,0l17,0l16,-3l17,0l16,0l17,0l17,-2l8,-1l8,-1l17,-3l16,0l17,0l16,-2l17,-3l16,-2l17,-5l16,-2l17,-3l16,-2l17,-2l16,-3l17,-3l16,-2l17,-6l16,-4l17,-3l16,-5l17,-4l16,-3l17,-5l17,-5l16,-3l17,-3l16,-6l17,-5l16,-5l17,-5l16,-5l17,-8l16,-6l17,-6l16,-7l17,-5l16,-5l17,-8l12,-3l4,-2l17,-7l16,-8l17,-8l16,-5l17,-8l16,-7l17,-7l16,-7l17,-7l17,-8l16,-8l17,-8l16,-6l17,-9l16,-9l17,-5l16,-13l17,-7l14,-9l2,-2l17,-10l16,-10l17,-14l16,-14l17,-9l16,-12l17,-13l16,-12l17,-13l16,-13l17,-14l16,-10l3,-2l14,-22l16,-24l17,-31l17,-31l16,-31l5,-9l12,-57l16,-82l2,-9l-2,-15l-16,-120l-2,-13l-15,-44l-16,-53l-17,-46l-2,-5l-15,-27l-16,-25l-17,-22l-16,-21l-17,-24l-16,-25l-2,-4l-15,-16l-16,-14l-17,-18l-16,-14l-17,-14l-16,-14l-17,-17l-16,-14l-17,-15l-14,-12l-2,-2l-17,-17l-16,-16l-17,-10l-16,-13l-17,-9l-16,-13l-17,-9l-16,-13l-17,-12l-17,-10l-16,-13l-14,-10l-3,-3l-16,-11l-17,-10l-16,-15l-17,-10l-16,-12l-17,-13l-16,-11l-17,-10l-16,-10l-17,-5l-16,-11l-17,-10l-16,-10l-13,-7l-4,-4l-16,-15l-17,-7l-16,-15l-17,-15l-16,-7l-17,-8l-16,0l-17,-7l-17,-15l-16,-10l-17,-7l-16,-7l-17,-7l-16,-7l-17,-7l-16,-7l-8,-3l-9,-5l-16,-9l-17,0l-16,-9l-17,0l-16,-10l-17,0l-16,-9l-17,0l-16,-9l-17,0l-16,0l-17,0l-16,-6l-17,-3l-17,3l-16,0l-17,6l-16,3l-17,0l-16,0l-17,-6l-16,6l-17,0l-16,9l-17,2l-16,0l-17,8l-16,0l-17,1l-16,8l-17,16l-16,0Z" fill="#984b44" stroke-opacity="1.0"></path><path fill-opacity="0.125" stroke="none" d="" fill="#000"></path><path fill-opacity="0.251" stroke="none" d="M6772,3650l0,-873l-17,1l-16,1l-17,1l-16,1l-17,1l-16,1l-17,1l-16,1l-17,1l-16,2l-17,1l-17,1l-16,1l-17,2l-16,1l-17,2l-16,1l-17,2l-16,1l-17,2l-16,1l-17,2l-16,1l-17,2l-16,2l-17,1l-16,2l-17,2l-16,1l-17,2l-16,2l-17,1l-16,2l-17,2l-16,1l-17,2l-17,2l-16,2l-17,1l-16,2l-17,2l-16,1l-17,2l-16,2l-17,1l-16,2l-17,1l-16,2l-17,2l-16,1l-17,2l-16,1l-17,2l-16,1l-17,2l-16,1l-17,2l-16,1l-17,2l-16,1l-17,2l-17,1l-16,1l-17,2l-16,1l-17,1l-16,2l-17,1l-16,1l-17,2l-16,1l-17,1l-16,1l-17,2l-16,1l-17,1l-16,1l-17,1l-16,1l-17,1l-16,2l-17,1l-16,1l-17,1l-17,1l-16,1l-17,1l-16,1l-17,1l-16,1l-17,1l-16,1l-17,1l-16,1l-17,1l-16,1l-17,1l-16,1l-17,1l-16,1l-17,1l-16,1l-17,0l-16,1l-17,1l-16,1l-17,1l-16,1l-17,1l-17,1l-16,1l-17,1l-16,1l-17,1l-16,1l-17,1l-16,1l-17,1l-16,1l-17,1l-16,1l-17,1l-16,1l-17,1l-16,1l-17,1l-16,2l-17,1l-16,1l-17,1l-16,1l-17,1l-16,1l-17,1l-17,2l-16,1l-17,1l-16,1l-17,1l-16,2l-17,1l-16,1l-17,1l-16,2l-17,1l-16,1l-17,1l-16,2l-17,1l-16,1l-17,1l-16,2l-17,1l-16,1l-17,2l-16,1l-17,1l-17,2l-16,1l-17,1l-16,2l-17,1l-16,1l-17,1l-16,2l-17,1l-16,1l-17,1l-16,2l-17,1l-16,1l-17,1l-16,1l-17,2l-16,1l-17,1l-16,1l-17,1l-16,1l-17,1l-16,1l-17,1l-17,1l-16,1l-17,1l-16,0l-17,1l-16,1l-17,1l-16,0l-17,1l-16,1l-17,0l-16,1l-17,0l-16,0l-17,1l-16,0l-17,0l-16,1l-17,0l-16,0l-17,0l-16,0l-17,0l-16,0l-17,0l-17,0l-16,-1l-17,0l-16,0l-17,-1l-16,0l-17,-1l-16,0l-17,-1l-16,-1l-17,0l-16,-1l-17,-1l-16,-1l-17,-1l-16,-1l-17,-1l-16,-1l-17,-1l-16,-1l-17,-1l-16,-2l-17,-1l-17,-1l-16,-2l-17,-1l-16,-2l-17,-1l-16,-2l-17,-2l-16,-1l-17,-2l-16,-2l-17,-2l-16,-2l-17,-2l-16,-1l-17,-2l-16,-2l-17,-2l-16,-3l-17,-2l-16,-2l-17,-2l-16,-2l-17,-2l-16,-3l-17,-2l-17,-2l-16,-3l-17,-2l-16,-2l-17,-3l-16,-2l-17,-3l-16,-2l-17,-3l-16,-2l-17,-3l-16,-2l-17,-3l-16,-2l-17,-3l-16,-2l-17,-3l-16,-3l-17,-2l-16,-3l-17,-2l-16,-3l-17,-3l-16,-2l-17,-3l-17,-2l-16,-3l-17,-3l-16,-2l-17,-3l-16,-2l-17,-3l-16,-3l-17,-2l-16,-3l-17,-2l-16,-3l-17,-2l-16,-3l-17,-2l-16,-3l-17,-2l-16,-2l-17,-3l-16,-2l-17,-2l-16,-3l-17,-2l-17,-2l-16,-3l-17,-2l-16,-2l-17,-2l-16,-2l-17,-2l-16,-2l-17,-2l-16,-2l-17,-2l-16,-2l-17,-2l-16,-2l-17,-2l-16,-1l-17,-2l-16,-2l-17,-1l-16,-2l-17,-1l-16,-2l-17,-1l-16,-1l-17,-2l-17,-1l-16,-1l-17,-1l-16,-1l-17,-1l-16,-1l-17,-1l-16,-1l-17,-1l-16,-1l-17,0l-16,-1l-17,-1l-16,0l-17,-1l-16,0l-17,0l-16,-1l-17,0l-16,0l-17,0l-16,0l-17,0l-16,0l-17,0l-17,0l-16,0l-17,1l-16,0l-17,0l-16,1l-17,0l-16,1l-17,1l-16,0l-17,1l0,874Z" fill="#000"></path><path fill-opacity="0.125" stroke="none" d="M758,2776l17,-1l16,0l17,-1l16,-1l17,0l16,-1l17,0l16,0l17,-1l16,0l17,0l17,0l16,0l17,0l16,0l17,0l16,0l17,0l16,1l17,0l16,0l17,1l16,0l17,1l16,1l17,0l16,1l17,1l16,1l17,1l16,1l17,1l16,1l17,1l16,1l17,1l17,2l16,1l17,1l16,2l17,1l16,2l17,1l16,2l17,2l16,1l17,2l16,2l17,2l16,2l17,2l16,2l17,2l16,2l17,2l16,2l17,2l16,2l17,2l16,3l17,2l17,2l16,3l17,2l16,2l17,3l16,2l17,2l16,3l17,2l16,3l17,2l16,3l17,2l16,3l17,2l16,3l17,3l16,2l17,3l16,2l17,3l16,3l17,2l17,3l16,2l17,3l16,3l17,2l16,3l17,2l16,3l17,3l16,2l17,3l16,2l17,3l16,2l17,3l16,2l17,3l16,2l17,3l16,2l17,3l16,2l17,2l16,3l17,2l17,2l16,3l17,2l16,2l17,2l16,2l17,2l16,3l17,2l16,2l17,2l16,1l17,2l16,2l17,2l16,2l17,2l16,1l17,2l16,2l17,1l16,2l17,1l16,2l17,1l17,1l16,2l17,1l16,1l17,1l16,1l17,1l16,1l17,1l16,1l17,1l16,1l17,0l16,1l17,1l16,0l17,1l16,0l17,1l16,0l17,0l16,1l17,0l17,0l16,0l17,0l16,0l17,0l16,0l17,0l16,-1l17,0l16,0l17,-1l16,0l17,0l16,-1l17,0l16,-1l17,-1l16,0l17,-1l16,-1l17,-1l16,0l17,-1l16,-1l17,-1l17,-1l16,-1l17,-1l16,-1l17,-1l16,-1l17,-1l16,-1l17,-2l16,-1l17,-1l16,-1l17,-1l16,-2l17,-1l16,-1l17,-1l16,-2l17,-1l16,-1l17,-1l16,-2l17,-1l16,-1l17,-2l17,-1l16,-1l17,-2l16,-1l17,-1l16,-2l17,-1l16,-1l17,-1l16,-2l17,-1l16,-1l17,-1l16,-2l17,-1l16,-1l17,-1l16,-2l17,-1l16,-1l17,-1l16,-1l17,-2l17,-1l16,-1l17,-1l16,-1l17,-1l16,-1l17,-1l16,-2l17,-1l16,-1l17,-1l16,-1l17,-1l16,-1l17,-1l16,-1l17,-1l16,-1l17,-1l16,-1l17,-1l16,-1l17,-1l16,-1l17,-1l17,-1l16,-1l17,-1l16,-1l17,-1l16,-1l17,0l16,-1l17,-1l16,-1l17,-1l16,-1l17,-1l16,-1l17,-1l16,-1l17,-1l16,-1l17,-1l16,-1l17,-1l16,-1l17,-1l16,-1l17,-1l17,-1l16,-1l17,-1l16,-2l17,-1l16,-1l17,-1l16,-1l17,-1l16,-1l17,-2l16,-1l17,-1l16,-1l17,-2l16,-1l17,-1l16,-2l17,-1l16,-1l17,-2l16,-1l17,-1l17,-2l16,-1l17,-2l16,-1l17,-2l16,-1l17,-2l16,-1l17,-2l16,-1l17,-2l16,-1l17,-2l16,-2l17,-1l16,-2l17,-1l16,-2l17,-2l16,-1l17,-2l16,-2l17,-1l16,-2l17,-2l17,-2l16,-1l17,-2l16,-2l17,-1l16,-2l17,-2l16,-1l17,-2l16,-2l17,-1l16,-2l17,-2l16,-1l17,-2l16,-1l17,-2l16,-1l17,-2l16,-1l17,-2l16,-1l17,-2l16,-1l17,-1l17,-1l16,-2l17,-1l16,-1l17,-1l16,-1l17,-1l16,-1l17,-1l16,-1l17,-1l0,-62l-17,1l-16,1l-17,1l-16,1l-17,1l-16,1l-17,1l-16,1l-17,1l-16,2l-17,1l-17,1l-16,2l-17,1l-16,1l-17,2l-16,1l-17,2l-16,1l-17,2l-16,2l-17,1l-16,2l-17,2l-16,1l-17,2l-16,2l-17,1l-16,2l-17,2l-16,2l-17,1l-16,2l-17,2l-16,2l-17,2l-17,1l-16,2l-17,2l-16,2l-17,2l-16,1l-17,2l-16,2l-17,2l-16,1l-17,2l-16,2l-17,1l-16,2l-17,2l-16,1l-17,2l-16,2l-17,1l-16,2l-17,2l-16,1l-17,2l-16,1l-17,2l-17,1l-16,2l-17,1l-16,1l-17,2l-16,1l-17,2l-16,1l-17,1l-16,2l-17,1l-16,1l-17,1l-16,2l-17,1l-16,1l-17,1l-16,1l-17,2l-16,1l-17,1l-16,1l-17,1l-17,1l-16,1l-17,1l-16,1l-17,1l-16,1l-17,1l-16,1l-17,1l-16,1l-17,1l-16,1l-17,1l-16,1l-17,1l-16,1l-17,1l-16,1l-17,1l-16,1l-17,1l-16,1l-17,1l-16,1l-17,1l-17,0l-16,1l-17,1l-16,1l-17,1l-16,1l-17,1l-16,1l-17,1l-16,1l-17,1l-16,1l-17,1l-16,1l-17,1l-16,1l-17,1l-16,1l-17,1l-16,1l-17,1l-16,1l-17,1l-16,1l-17,1l-17,1l-16,1l-17,1l-16,1l-17,1l-16,1l-17,1l-16,2l-17,1l-16,1l-17,1l-16,1l-17,1l-16,1l-17,2l-16,1l-17,1l-16,1l-17,1l-16,1l-17,2l-16,1l-17,1l-17,1l-16,1l-17,2l-16,1l-17,1l-16,1l-17,1l-16,1l-17,2l-16,1l-17,1l-16,1l-17,1l-16,1l-17,1l-16,1l-17,2l-16,1l-17,1l-16,1l-17,1l-16,1l-17,1l-16,0l-17,1l-17,1l-16,1l-17,1l-16,1l-17,0l-16,1l-17,1l-16,0l-17,1l-16,1l-17,0l-16,1l-17,0l-16,1l-17,0l-16,0l-17,1l-16,0l-17,0l-16,0l-17,0l-16,0l-17,0l-16,1l-17,-1l-17,0l-16,0l-17,0l-16,0l-17,-1l-16,0l-17,0l-16,-1l-17,0l-16,-1l-17,-1l-16,0l-17,-1l-16,-1l-17,-1l-16,-1l-17,0l-16,-1l-17,-1l-16,-2l-17,-1l-16,-1l-17,-1l-17,-1l-16,-2l-17,-1l-16,-1l-17,-2l-16,-1l-17,-2l-16,-1l-17,-2l-16,-2l-17,-1l-16,-2l-17,-2l-16,-2l-17,-2l-16,-2l-17,-1l-16,-2l-17,-2l-16,-3l-17,-2l-16,-2l-17,-2l-16,-2l-17,-2l-17,-2l-16,-3l-17,-2l-16,-2l-17,-2l-16,-3l-17,-2l-16,-3l-17,-2l-16,-2l-17,-3l-16,-2l-17,-3l-16,-2l-17,-3l-16,-2l-17,-3l-16,-2l-17,-3l-16,-2l-17,-3l-16,-3l-17,-2l-16,-3l-17,-2l-17,-3l-16,-2l-17,-3l-16,-3l-17,-2l-16,-3l-17,-2l-16,-3l-17,-2l-16,-3l-17,-2l-16,-3l-17,-3l-16,-2l-17,-3l-16,-2l-17,-2l-16,-3l-17,-2l-16,-3l-17,-2l-16,-2l-17,-3l-17,-2l-16,-2l-17,-3l-16,-2l-17,-2l-16,-2l-17,-2l-16,-2l-17,-2l-16,-2l-17,-3l-16,-1l-17,-2l-16,-2l-17,-2l-16,-2l-17,-2l-16,-1l-17,-2l-16,-2l-17,-1l-16,-2l-17,-1l-16,-2l-17,-1l-17,-2l-16,-1l-17,-1l-16,-1l-17,-1l-16,-1l-17,-2l-16,0l-17,-1l-16,-1l-17,-1l-16,-1l-17,0l-16,-1l-17,-1l-16,0l-17,-1l-16,0l-17,0l-16,-1l-17,0l-16,0l-17,0l-16,0l-17,0l-17,0l-16,0l-17,1l-16,0l-17,0l-16,1l-17,0l-16,1l-17,0l-16,1l-17,0Z" fill="#000"></path><path fill-opacity="0.125" stroke="none" d="M758,1147l17,-2l16,-2l17,-1l16,-2l17,-2l16,-1l17,-2l16,-2l17,-2l16,-2l17,-1l17,-2l16,-2l17,-2l16,-2l17,-2l16,-2l17,-1l16,-2l17,-2l16,-2l17,-2l16,-2l17,-2l16,-1l17,-2l16,-2l17,-2l16,-2l17,-2l16,-1l17,-2l16,-2l17,-2l16,-1l17,-2l17,-2l16,-1l17,-2l16,-2l17,-1l16,-2l17,-2l16,-1l17,-2l16,-1l17,-2l16,-1l17,-2l16,-1l17,-2l16,-1l17,-2l16,-1l17,-1l16,-2l17,-1l16,-1l17,-2l16,-1l17,-1l17,-2l16,-1l17,-1l16,-1l17,-2l16,-1l17,-1l16,-1l17,-1l16,-2l17,-1l16,-1l17,-1l16,-1l17,-1l16,-1l17,-2l16,-1l17,-1l16,-1l17,-1l16,-1l17,-1l17,-1l16,-1l17,-1l16,-1l17,-2l16,-1l17,-1l16,-1l17,-1l16,-1l17,-1l16,-1l17,-1l16,-1l17,-1l16,-2l17,-1l16,-1l17,-1l16,-1l17,-1l16,-1l17,-2l16,-1l17,-1l17,-1l16,-1l17,-1l16,-2l17,-1l16,-1l17,-1l16,-1l17,-2l16,-1l17,-1l16,-1l17,-2l16,-1l17,-1l16,-1l17,-2l16,-1l17,-1l16,-2l17,-1l16,-1l17,-1l16,-2l17,-1l17,-1l16,-2l17,-1l16,-1l17,-1l16,-2l17,-1l16,-1l17,-1l16,-2l17,-1l16,-1l17,-1l16,-2l17,-1l16,-1l17,-1l16,-1l17,-1l16,-1l17,-1l16,-1l17,-1l17,-1l16,-1l17,-1l16,-1l17,-1l16,-1l17,-1l16,0l17,-1l16,-1l17,-1l16,0l17,-1l16,0l17,-1l16,0l17,-1l16,0l17,0l16,-1l17,0l16,0l17,0l16,0l17,0l17,0l16,0l17,0l16,0l17,0l16,0l17,1l16,0l17,0l16,1l17,0l16,1l17,1l16,0l17,1l16,1l17,1l16,0l17,1l16,1l17,1l16,1l17,2l16,1l17,1l17,1l16,2l17,1l16,1l17,2l16,1l17,2l16,2l17,1l16,2l17,2l16,2l17,1l16,2l17,2l16,2l17,2l16,2l17,2l16,2l17,2l16,2l17,3l17,2l16,2l17,2l16,3l17,2l16,2l17,3l16,2l17,3l16,2l17,2l16,3l17,2l16,3l17,3l16,2l17,3l16,2l17,3l16,3l17,2l16,3l17,3l16,2l17,3l17,3l16,2l17,3l16,3l17,2l16,3l17,3l16,2l17,3l16,3l17,2l16,3l17,3l16,2l17,3l16,3l17,2l16,3l17,2l16,3l17,3l16,2l17,3l16,2l17,3l17,2l16,2l17,3l16,2l17,3l16,2l17,2l16,3l17,2l16,2l17,2l16,2l17,3l16,2l17,2l16,2l17,2l16,2l17,1l16,2l17,2l16,2l17,2l17,1l16,2l17,1l16,2l17,1l16,2l17,1l16,1l17,2l16,1l17,1l16,1l17,1l16,1l17,1l16,1l17,1l16,1l17,0l16,1l17,0l16,1l17,0l16,1l17,0l17,0l16,0l17,1l16,0l17,0l16,0l17,-1l16,0l17,0l16,0l17,-1l16,0l17,-1l16,0l17,-1l16,0l17,-1l16,-1l17,-1l16,-1l17,-1l16,-1l17,-1l16,-1l17,-1l17,-1l16,-1l17,-2l16,-1l17,-1l16,-2l17,-1l16,-2l17,-1l16,-2l17,-1l0,-62l-17,2l-16,1l-17,2l-16,1l-17,2l-16,1l-17,1l-16,2l-17,1l-16,1l-17,1l-17,1l-16,1l-17,2l-16,1l-17,1l-16,0l-17,1l-16,1l-17,1l-16,1l-17,0l-16,1l-17,0l-16,1l-17,0l-16,1l-17,0l-16,0l-17,0l-16,1l-17,0l-16,0l-17,0l-16,0l-17,-1l-17,0l-16,0l-17,0l-16,-1l-17,0l-16,-1l-17,0l-16,-1l-17,-1l-16,0l-17,-1l-16,-1l-17,-1l-16,-1l-17,-1l-16,-1l-17,-1l-16,-2l-17,-1l-16,-1l-17,-2l-16,-1l-17,-1l-16,-2l-17,-2l-17,-1l-16,-2l-17,-2l-16,-1l-17,-2l-16,-2l-17,-2l-16,-2l-17,-2l-16,-2l-17,-2l-16,-2l-17,-2l-16,-2l-17,-2l-16,-3l-17,-2l-16,-2l-17,-2l-16,-3l-17,-2l-16,-3l-17,-2l-17,-2l-16,-3l-17,-2l-16,-3l-17,-2l-16,-3l-17,-3l-16,-2l-17,-3l-16,-2l-17,-3l-16,-3l-17,-2l-16,-3l-17,-3l-16,-2l-17,-3l-16,-3l-17,-2l-16,-3l-17,-3l-16,-3l-17,-2l-16,-3l-17,-3l-17,-2l-16,-3l-17,-3l-16,-3l-17,-2l-16,-3l-17,-3l-16,-2l-17,-3l-16,-3l-17,-2l-16,-3l-17,-2l-16,-3l-17,-3l-16,-2l-17,-3l-16,-2l-17,-3l-16,-2l-17,-2l-16,-3l-17,-2l-16,-3l-17,-2l-17,-2l-16,-2l-17,-3l-16,-2l-17,-2l-16,-2l-17,-2l-16,-2l-17,-2l-16,-2l-17,-2l-16,-2l-17,-2l-16,-2l-17,-2l-16,-1l-17,-2l-16,-2l-17,-1l-16,-2l-17,-1l-16,-2l-17,-1l-17,-2l-16,-1l-17,-1l-16,-1l-17,-1l-16,-2l-17,-1l-16,-1l-17,0l-16,-1l-17,-1l-16,-1l-17,-1l-16,0l-17,-1l-16,0l-17,-1l-16,0l-17,-1l-16,0l-17,0l-16,-1l-17,0l-16,0l-17,0l-17,0l-16,0l-17,0l-16,0l-17,1l-16,0l-17,0l-16,0l-17,1l-16,0l-17,1l-16,0l-17,1l-16,1l-17,0l-16,1l-17,1l-16,1l-17,0l-16,1l-17,1l-16,1l-17,1l-16,1l-17,1l-17,1l-16,1l-17,2l-16,1l-17,1l-16,1l-17,1l-16,2l-17,1l-16,1l-17,1l-16,2l-17,1l-16,1l-17,2l-16,1l-17,1l-16,2l-17,1l-16,2l-17,1l-16,1l-17,2l-17,1l-16,2l-17,1l-16,1l-17,2l-16,1l-17,2l-16,1l-17,1l-16,2l-17,1l-16,2l-17,1l-16,1l-17,2l-16,1l-17,1l-16,2l-17,1l-16,1l-17,2l-16,1l-17,1l-16,2l-17,1l-17,1l-16,1l-17,2l-16,1l-17,1l-16,1l-17,2l-16,1l-17,1l-16,1l-17,1l-16,2l-17,1l-16,1l-17,1l-16,1l-17,1l-16,1l-17,2l-16,1l-17,1l-16,1l-17,1l-16,1l-17,1l-17,1l-16,2l-17,1l-16,1l-17,1l-16,1l-17,1l-16,1l-17,1l-16,2l-17,1l-16,1l-17,1l-16,1l-17,1l-16,2l-17,1l-16,1l-17,1l-16,1l-17,2l-16,1l-17,1l-17,1l-16,2l-17,1l-16,1l-17,1l-16,2l-17,1l-16,1l-17,2l-16,1l-17,1l-16,2l-17,1l-16,2l-17,1l-16,2l-17,1l-16,2l-17,1l-16,2l-17,1l-16,2l-17,1l-16,2l-17,1l-17,2l-16,2l-17,1l-16,2l-17,2l-16,1l-17,2l-16,2l-17,1l-16,2l-17,2l-16,2l-17,1l-16,2l-17,2l-16,2l-17,1l-16,2l-17,2l-16,2l-17,2l-16,1l-17,2l-16,2l-17,2l-17,1l-16,2l-17,2l-16,2l-17,1l-16,2l-17,2l-16,1l-17,2l-16,2l-17,1Z" fill="#000"></path><path fill-opacity="0.251" stroke="none" d="M758,1085l17,-1l16,-2l17,-2l16,-1l17,-2l16,-2l17,-1l16,-2l17,-2l16,-2l17,-1l17,-2l16,-2l17,-2l16,-1l17,-2l16,-2l17,-2l16,-2l17,-1l16,-2l17,-2l16,-2l17,-1l16,-2l17,-2l16,-2l17,-1l16,-2l17,-2l16,-1l17,-2l16,-2l17,-1l16,-2l17,-2l17,-1l16,-2l17,-1l16,-2l17,-1l16,-2l17,-1l16,-2l17,-1l16,-2l17,-1l16,-2l17,-1l16,-2l17,-1l16,-1l17,-2l16,-1l17,-1l16,-2l17,-1l16,-1l17,-1l16,-2l17,-1l17,-1l16,-1l17,-2l16,-1l17,-1l16,-1l17,-1l16,-2l17,-1l16,-1l17,-1l16,-1l17,-1l16,-2l17,-1l16,-1l17,-1l16,-1l17,-1l16,-1l17,-1l16,-2l17,-1l17,-1l16,-1l17,-1l16,-1l17,-1l16,-1l17,-2l16,-1l17,-1l16,-1l17,-1l16,-1l17,-1l16,-2l17,-1l16,-1l17,-1l16,-1l17,-2l16,-1l17,-1l16,-1l17,-2l16,-1l17,-1l17,-1l16,-2l17,-1l16,-1l17,-2l16,-1l17,-1l16,-2l17,-1l16,-1l17,-2l16,-1l17,-1l16,-2l17,-1l16,-2l17,-1l16,-1l17,-2l16,-1l17,-2l16,-1l17,-1l16,-2l17,-1l17,-2l16,-1l17,-1l16,-2l17,-1l16,-2l17,-1l16,-1l17,-2l16,-1l17,-1l16,-2l17,-1l16,-1l17,-1l16,-2l17,-1l16,-1l17,-1l16,-1l17,-2l16,-1l17,-1l17,-1l16,-1l17,-1l16,-1l17,-1l16,-1l17,0l16,-1l17,-1l16,-1l17,0l16,-1l17,-1l16,0l17,-1l16,0l17,-1l16,0l17,0l16,0l17,-1l16,0l17,0l16,0l17,0l17,0l16,0l17,0l16,1l17,0l16,0l17,1l16,0l17,1l16,0l17,1l16,0l17,1l16,1l17,1l16,1l17,0l16,1l17,1l16,2l17,1l16,1l17,1l16,1l17,2l17,1l16,2l17,1l16,2l17,1l16,2l17,2l16,1l17,2l16,2l17,2l16,2l17,2l16,2l17,2l16,2l17,2l16,2l17,2l16,2l17,3l16,2l17,2l17,2l16,3l17,2l16,3l17,2l16,2l17,3l16,2l17,3l16,2l17,3l16,3l17,2l16,3l17,2l16,3l17,3l16,2l17,3l16,3l17,2l16,3l17,3l16,3l17,2l17,3l16,3l17,2l16,3l17,3l16,3l17,2l16,3l17,3l16,2l17,3l16,3l17,2l16,3l17,3l16,2l17,3l16,2l17,3l16,3l17,2l16,3l17,2l16,3l17,2l17,2l16,3l17,2l16,3l17,2l16,2l17,2l16,3l17,2l16,2l17,2l16,2l17,2l16,2l17,2l16,2l17,2l16,2l17,2l16,1l17,2l16,2l17,1l17,2l16,2l17,1l16,1l17,2l16,1l17,1l16,2l17,1l16,1l17,1l16,1l17,1l16,1l17,1l16,0l17,1l16,1l17,0l16,1l17,0l16,1l17,0l16,0l17,0l17,1l16,0l17,0l16,0l17,0l16,-1l17,0l16,0l17,0l16,-1l17,0l16,-1l17,0l16,-1l17,0l16,-1l17,-1l16,-1l17,-1l16,0l17,-1l16,-1l17,-2l16,-1l17,-1l17,-1l16,-1l17,-1l16,-2l17,-1l16,-1l17,-2l16,-1l17,-2l16,-1l17,-2l0,-987l-6014,0Z" fill="#000"></path><path fill-opacity="0.125" stroke="none" d="" fill="#000"></path></g><g transform="scale(0.1)"></g><g stroke-width="1" stroke="#000" fill="none" stroke-opacity="0.2"><line x2="126.2" y1="10" x1="126.2" y2="370" stroke-opacity="0.2"></line><line x2="172.5" y1="10" x1="172.5" y2="370" stroke-opacity="0.2"></line><line x2="223.7" y1="10" x1="223.7" y2="370" stroke-opacity="0.2"></line><line x2="273.2" y1="10" x1="273.2" y2="370" stroke-opacity="0.2"></line><line x2="324.5" y1="10" x1="324.5" y2="370" stroke-opacity="0.2"></line><line x2="374" y1="10" x1="374" y2="370" stroke-opacity="0.2"></line><line x2="425.2" y1="10" x1="425.2" y2="370" stroke-opacity="0.2"></line><line x2="476.4" y1="10" x1="476.4" y2="370" stroke-opacity="0.2"></line><line x2="526" y1="10" x1="526" y2="370" stroke-opacity="0.2"></line><line x2="577.2" y1="10" x1="577.2" y2="370" stroke-opacity="0.2"></line><line x2="626.8" y1="10" x1="626.8" y2="370" stroke-opacity="0.2"></line><line x2="681" y1="365" x1="72" y2="365"></line><line x2="681" y1="335.4" x1="72" y2="335.4"></line><line x2="681" y1="305.8" x1="72" y2="305.8"></line><line x2="681" y1="276.3" x1="72" y2="276.3"></line><line x2="681" y1="246.7" x1="72" y2="246.7"></line><line x2="681" y1="217.1" x1="72" y2="217.1"></line><line x2="681" y1="187.5" x1="72" y2="187.5"></line><line x2="681" y1="157.9" x1="72" y2="157.9"></line><line x2="681" y1="128.3" x1="72" y2="128.3"></line><line x2="681" y1="98.8" x1="72" y2="98.8"></line><line x2="681" y1="69.2" x1="72" y2="69.2"></line><line x2="681" y1="39.6" x1="72" y2="39.6"></line><line x2="681" y1="10" x1="72" y2="10"></line></g><g><rect fill-opacity="0.004" y="10" x="75" height="355" width="51.2" fill="#fff"></rect><text stroke="none" y="381.5" text-anchor="middle" x="100.6">Jan</text></g><g><rect fill-opacity="0.004" y="10" x="126.2" height="355" width="46.3" fill="#fff"></rect><text stroke="none" y="381.5" text-anchor="middle" x="149.3">Feb</text></g><g><rect fill-opacity="0.004" y="10" x="172.5" height="355" width="51.2" fill="#fff"></rect><text stroke="none" y="381.5" text-anchor="middle" x="198.1">Mar</text></g><g><rect fill-opacity="0.004" y="10" x="223.7" height="355" width="49.6" fill="#fff"></rect><text stroke="none" y="381.5" text-anchor="middle" x="248.5">Apr</text></g><g><rect fill-opacity="0.004" y="10" x="273.2" height="355" width="51.2" fill="#fff"></rect><text stroke="none" y="381.5" text-anchor="middle" x="298.9">May</text></g><g><rect fill-opacity="0.004" y="10" x="324.5" height="355" width="49.6" fill="#fff"></rect><text stroke="none" y="381.5" text-anchor="middle" x="349.2">Jun</text></g><g><rect fill-opacity="0.004" y="10" x="374" height="355" width="51.2" fill="#fff"></rect><text stroke="none" y="381.5" text-anchor="middle" x="399.6">Jul</text></g><g><rect fill-opacity="0.004" y="10" x="425.2" height="355" width="51.2" fill="#fff"></rect><text stroke="none" y="381.5" text-anchor="middle" x="450.8">Aug</text></g><g><rect fill-opacity="0.004" y="10" x="476.4" height="355" width="49.6" fill="#fff"></rect><text stroke="none" y="381.5" text-anchor="middle" x="501.2">Sep</text></g><g><rect fill-opacity="0.004" y="10" x="526" height="355" width="51.2" fill="#fff"></rect><text stroke="none" y="381.5" text-anchor="middle" x="551.6">Oct</text></g><g><rect fill-opacity="0.004" y="10" x="577.2" height="355" width="49.6" fill="#fff"></rect><text stroke="none" y="381.5" text-anchor="middle" x="602">Nov</text></g><g><rect fill-opacity="0.004" y="10" x="626.8" height="355" width="51.2" fill="#fff"></rect><text stroke="none" y="381.5" text-anchor="middle" x="652.4">Dec</text></g><g stroke="none" fill="#666"><text y="370.2" text-anchor="end" x="71">0</text><text y="370.2" x="682">0</text><text y="340.6" text-anchor="end" x="71">2</text><text y="340.6" x="682">2</text><text y="311" text-anchor="end" x="71">4</text><text y="311" x="682">4</text><text y="281.4" text-anchor="end" x="71">6</text><text y="281.4" x="682">6</text><text y="251.9" text-anchor="end" x="71">8</text><text y="251.9" x="682">8</text><text y="222.3" text-anchor="end" x="71">10</text><text y="222.3" x="682">10</text><text y="192.7" text-anchor="end" x="71">12</text><text y="192.7" x="682">12</text><text y="163.1" text-anchor="end" x="71">14</text><text y="163.1" x="682">14</text><text y="133.5" text-anchor="end" x="71">16</text><text y="133.5" x="682">16</text><text y="103.9" text-anchor="end" x="71">18</text><text y="103.9" x="682">18</text><text y="74.4" text-anchor="end" x="71">20</text><text y="74.4" x="682">20</text><text y="44.8" text-anchor="end" x="71">22</text><text y="44.8" x="682">22</text><text y="15.2" text-anchor="end" x="71">0</text><text y="15.2" x="682">0</text></g><g font-family="sans-serif" text-decoration="none" font-style="normal" font-size="15" font-weight="normal"><text font-family="sans-serif" stroke="none" opacity="0.8" y="47.1" text-decoration="none" text-anchor="middle" x="113.7" font-style="normal" font-size="15" fill="#fff" font-weight="normal">13°-17°</text></g><g font-family="sans-serif" text-decoration="none" font-style="normal" font-size="15" font-weight="normal"><text font-family="sans-serif" stroke="none" opacity="0.8" y="292.2" text-decoration="none" text-anchor="middle" x="133.4" font-style="normal" font-size="15" fill="#fff" font-weight="normal">13°-17°</text></g><g font-family="sans-serif" text-decoration="none" font-style="normal" font-size="15" font-weight="normal"><text font-family="sans-serif" stroke="none" opacity="0.8" y="279.9" text-decoration="none" text-anchor="middle" x="657.3" font-style="normal" font-size="15" fill="#fff" font-weight="normal">13°-17°</text></g><g font-family="sans-serif" text-decoration="none" font-style="normal" font-size="15" font-weight="normal"><text font-family="sans-serif" stroke="none" opacity="0.8" y="116.4" text-decoration="none" text-anchor="middle" x="129.1" font-style="normal" font-size="15" fill="#fff" font-weight="normal">18°-23°</text></g><g font-family="sans-serif" text-decoration="none" font-style="normal" font-size="15" font-weight="normal"><text font-family="sans-serif" stroke="none" opacity="0.8" y="159" text-decoration="none" text-anchor="middle" x="200.8" font-style="normal" font-size="15" fill="#fff" font-weight="normal">24°-28°</text></g><g font-family="sans-serif" text-decoration="none" font-style="normal" font-size="15" font-weight="normal"><text font-family="sans-serif" stroke="none" opacity="0.8" y="293.9" text-decoration="none" text-anchor="middle" x="542.9" font-style="normal" font-size="15" fill="#fff" font-weight="normal">24°-28°</text></g><g font-family="sans-serif" text-decoration="none" font-style="normal" font-size="15" font-weight="normal"><text font-family="sans-serif" stroke="none" opacity="0.8" y="308.1" text-decoration="none" text-anchor="middle" x="412" font-style="normal" font-size="15" fill="#fff" font-weight="normal">29°-34°</text></g><g font-family="sans-serif" text-decoration="none" font-style="normal" font-size="15" font-weight="normal"><text font-family="sans-serif" stroke="none" opacity="0.8" y="155.9" text-decoration="none" text-anchor="middle" x="411.5" font-style="normal" font-size="15" fill="#fff" font-weight="normal">35°+</text></g><g font-family="sans-serif" text-decoration="none" font-style="normal" font-size="15" font-weight="normal"><text font-family="sans-serif" stroke="none" opacity="0.8" y="66.7" text-decoration="none" text-anchor="middle" x="631.2" font-style="normal" font-size="15" fill="#fff" font-weight="normal">18°-23°</text></g><g font-family="sans-serif" text-decoration="none" font-style="normal" font-size="15" font-weight="normal"><text font-family="sans-serif" stroke="none" opacity="0.8" y="25.9" text-decoration="none" text-anchor="middle" x="660.7" font-style="normal" font-size="15" fill="#fff" font-weight="normal">13°-17°</text></g></svg>