<svg font-family="sans-serif" viewBox="0 0 753 387" xmlns:xlink="http://www.w3.org/1999/xlink" text-decoration="none" font-style="normal" width="753px" xmlns="http://www.w3.org/2000/svg" font-size="15" version="1.1" font-weight="normal" height="387px"><title>Average Hourly Temperature in Dubai</title><defs><clipPath id="plot-sample-bounds-0"><rect y="0" x="75.8" height="365" width="601.3"></rect></clipPath><clipPath id="plot-sample-bounds-scaled-0"><rect y="0" x="758.3" height="3650" width="6013.5"></rect></clipPath></defs><g transform="scale(0.1)"><path fill-opacity="1.000" stroke-width="10" stroke="#5ca0b4" d="" fill="#5ca0b4" stroke-opacity="1.0"></path><path fill-opacity="1.000" stroke-width="10" stroke="#83c2d5" d="" fill="#83c2d5" stroke-opacity="1.0"></path><path fill-opacity="1.000" stroke-width="10" stroke="#679568" d="" fill="#679568" stroke-opacity="1.0"></path><path fill-opacity="1.000" stroke-width="10" stroke="#74a877" d="" fill="#74a877" stroke-opacity="1.0"></path><path fill-opacity="1.000" stroke-width="10" stroke="#8dbf71" d="M758,199l0,0l17,11l16,11l17,13l16,12l17,15l16,12l17,13l16,10l17,4l16,7l17,7l17,8l16,7l17,4l16,3l17,-4l16,-3l17,-3l8,-4l8,-4l17,0l16,0l17,0l16,0l17,-1l16,-4l17,-9l16,-1l17,-4l16,-5l17,-14l16,-14l17,-9l16,-11l17,-20l16,-19l17,-19l12,-14l5,-3l16,-14l17,-11l16,-13l17,-15l16,-15l3,-3l-697,0ZM6706,100l16,15l17,15l16,14l17,17l0,-61ZM758,3650l697,0l14,-13l16,-14l17,-13l16,-13l17,-10l16,-7l9,-4l8,-5l16,-5l17,-5l16,-19l17,-25l16,-32l17,-28l16,-24l4,-5l13,-23l16,-22l17,-35l16,-32l17,-36l17,-32l16,-31l17,-26l16,-25l17,-29l2,-5l14,-111l4,-37l13,-46l16,-57l13,-45l4,-22l16,-80l13,-45l-13,-99l-5,-49l-11,-23l-17,-37l-16,-42l-17,-46l-16,-10l-17,-8l-16,-8l-17,-6l-16,-11l-17,-10l-17,-10l-16,-10l-17,-9l-16,-8l-17,-7l-16,-7l-17,-10l-16,-12l-17,-9l-16,-7l-17,-5l-5,-1l-11,-3l-17,-3l-16,-3l-17,-3l-16,-6l-17,-8l-16,-5l-17,-8l-16,-6l-17,-7l-16,-6l-17,-7l-16,-7l-17,-6l-17,-6l-16,-4l-17,-5l-16,-3l-17,-2l-16,-4l-17,-2l-16,-2l-17,0l-16,0l-17,-2l-16,-1l-17,0l-16,0l-17,-1l-16,0l-17,-1l-16,-2l-17,0l-16,-1l-17,0l-16,0l-17,1l-16,0l-17,1l-17,2l-16,2l-17,3l-16,3l-17,4l-16,5l-17,4l-16,4l-17,4l-16,3l-17,3l0,0ZM6551,2245l-11,7l-16,15l-17,12l-16,10l-17,10l-16,11l-17,9l-16,11l-17,9l-16,10l-17,9l-16,10l-17,10l-16,10l-9,5l-8,22l-16,49l-17,44l-12,33l12,63l17,75l2,10l14,51l17,52l14,44l2,8l17,52l16,59l11,29l6,15l16,48l17,46l12,39l4,12l17,36l16,41l17,36l9,23l7,15l17,38l16,40l17,27l12,28l4,10l17,30l17,29l16,30l17,29l11,20l5,9l17,25l16,20l17,20l66,0l0,-1471l-17,4l-16,3l-17,3l-16,4l-17,4l-16,4l-17,5l-16,5l-17,4l-16,6l-17,5l-17,7l-16,8Z" fill="#8dbf71" stroke-opacity="1.0"></path><path fill-opacity="1.000" stroke-width="10" stroke="#e9cc77" d="M1452,100l-16,14l-17,15l-16,14l-17,11l-16,13l-9,7l-8,9l-17,20l-16,19l-17,19l-16,12l-17,9l-16,14l-17,14l-16,5l-17,4l-16,0l-17,9l-16,5l-17,0l-16,0l-17,0l-16,0l-17,1l-16,8l-17,4l-16,3l-17,3l-16,-3l-17,-4l-8,-3l-8,-4l-17,-7l-17,-7l-16,-7l-17,-5l-16,-10l-17,-13l-16,-12l-17,-14l-16,-13l-17,-13l-16,-11l-17,-11l0,0l0,1005l13,9l4,10l16,37l17,32l16,40l10,29l-10,148l-16,33l-17,41l-16,33l-17,26l0,0l0,533l17,-3l16,-3l17,-4l16,-4l17,-4l16,-5l17,-4l16,-3l17,-3l16,-2l17,-2l17,-1l16,0l17,-1l16,0l17,0l16,1l17,0l16,2l17,1l16,0l17,0l16,1l17,-1l16,2l17,2l16,0l17,0l16,2l17,2l16,3l17,3l16,3l17,5l16,4l17,6l17,6l16,7l17,7l16,6l17,7l16,6l17,8l16,5l17,8l16,6l17,3l16,3l17,4l5,1l11,2l17,5l16,8l17,8l16,13l17,9l16,7l17,7l16,8l17,10l16,9l17,10l17,10l16,11l17,6l16,8l17,8l14,9l2,5l17,46l16,42l17,36l9,19l7,74l10,74l-10,34l-16,79l-6,34l-11,37l-16,57l-15,54l-2,19l-16,129l-17,30l-16,24l-17,27l-16,30l-17,32l-3,5l-14,30l-16,33l-17,34l-16,23l-17,28l-16,24l-17,29l-16,31l-17,25l-16,19l-17,5l-16,5l-17,10l-16,7l-17,11l-16,12l-17,14l-16,13l-17,17l960,0l15,-21l16,-23l17,-24l4,-6l12,-30l17,-40l16,-34l17,-36l4,-8l12,-28l17,-37l17,-35l16,-29l9,-19l8,-12l16,-35l17,-35l16,-35l17,-31l16,-42l17,-44l16,-35l12,-27l5,-14l16,-49l17,-42l16,-43l17,-52l16,-73l5,-22l-5,-11l-16,-37l-17,-37l-16,-32l-13,-31l-4,-3l-16,-9l-17,-10l-16,-10l-17,-11l-16,-10l-17,-11l-16,-13l-17,-11l-16,-13l-17,-10l-16,-10l-17,-11l-17,-13l-4,-3l-12,-10l-17,-11l-16,-11l-17,-7l-16,-6l-17,-5l-16,-6l-17,-6l-16,-7l-17,-9l-16,-6l-17,-8l-16,-7l-17,-8l-16,-5l-17,-7l-16,-8l-17,-9l-16,-9l-6,-3l-11,-7l-16,-12l-17,-10l-16,-12l-17,-11l-17,-9l-16,-12l-17,-9l-16,-12l-17,-15l-16,-14l-17,-12l-16,-12l-2,-1l-15,-10l-16,-11l-17,-7l-16,-8l-17,-8l-16,-9l-17,-11l-16,-11l-17,-10l-16,-11l-17,-8l-16,-10l-17,-10l-16,-12l-17,-10l-5,-2l-12,-8l-16,-14l-17,-14l-16,-15l-17,-9l-16,-8l-17,-12l-16,-13l-17,-14l-16,-11l-17,-7l-16,-4l-17,-4l-16,-4l-17,-3l-16,-6l-4,-2l-13,-10l-16,-10l-17,-18l-16,-22l-17,-19l-16,-21l-17,-16l-16,-25l-7,-7l-10,-14l-17,-31l-16,-29l-17,-28l-16,-19l-17,-13l-16,-14l-13,-148l13,-17l16,-17l17,-19l16,-18l17,-29l16,-29l14,-19l3,-2l17,-8l16,-11l17,-11l16,-13l17,-15l16,-15l17,-13l16,-16l17,-14l16,-11l17,-9l12,-10l4,-2l17,-7l16,-9l17,-12l16,-16l17,-18l16,-17l17,-15l16,-11l17,-12l16,-17l11,-11l6,-7l16,-12l17,-15l17,-19l16,-14l17,-16l16,-13l17,-13l16,-13l17,-16l11,-10l5,-5l17,-16l16,-11l17,-12l16,-9l17,-12l16,-16l17,-19l16,-20l17,-17l9,-11l7,-11l17,-24l16,-21l17,-18l16,-19l17,-16l17,-20l16,-19l17,-35l16,-33l17,-26l16,-31l13,-23l4,-6l16,-24l17,-21l16,-22l17,-22l16,-23l17,-24l3,-6l13,-22l17,-23l16,-26l2,-3ZM5940,100l6,12l16,37l11,25l6,8l16,24l17,26l16,28l17,23l16,30l5,9l12,22l16,30l17,33l16,36l14,27l3,6l16,32l17,29l17,32l16,33l9,16l8,11l16,25l17,26l16,29l17,25l16,26l4,6l13,17l16,20l17,22l16,17l17,18l16,15l17,17l16,14l7,8l10,10l16,15l17,21l16,18l17,17l16,17l17,15l16,11l17,13l11,10l6,7l16,12l17,13l16,14l17,9l16,9l17,6l16,11l17,9l16,12l17,12l0,-1018l-17,-17l-16,-14l-17,-15l-12,-11ZM6620,1801l-13,7l-17,12l-17,10l-16,12l-17,13l-16,16l-17,14l-16,15l-17,16l-16,15l-17,16l-2,2l-14,8l-17,10l-16,9l-17,9l-16,11l-17,11l-16,12l-17,12l-16,11l-17,12l-16,12l-17,13l-16,13l-7,5l-10,6l-16,12l-17,10l-17,9l-16,11l-17,10l-16,10l-17,10l-16,10l-17,10l-16,10l-17,9l-16,7l-17,9l-16,10l-6,5l-11,7l-16,11l-17,8l-16,8l-17,9l-16,8l-17,10l-16,9l-17,7l-16,9l-17,8l-16,7l-17,7l-17,6l-16,5l-17,7l-16,7l-17,7l-14,8l-2,2l-17,18l-16,17l-17,14l-16,15l-17,16l-16,15l-17,14l-16,15l-17,18l-4,4l4,27l15,121l2,3l16,26l17,25l16,21l17,25l16,22l17,20l4,5l12,64l17,75l2,9l14,30l17,34l16,35l17,39l5,10l11,21l17,36l17,39l16,39l6,13l11,26l16,44l17,38l16,40l17,58l16,59l9,31l8,16l16,35l11,23l770,0l-4,-4l-17,-21l-16,-19l-17,-26l-3,-4l-13,-25l-17,-29l-16,-30l-17,-29l-17,-30l-2,-5l-14,-32l-17,-28l-16,-40l-17,-38l-4,-10l-12,-29l-17,-36l-16,-41l-17,-36l-2,-6l-14,-46l-17,-47l-16,-47l-3,-8l-14,-37l-16,-59l-17,-52l-16,-51l-17,-52l-12,-44l-4,-20l-17,-76l-10,-52l10,-28l17,-44l16,-49l10,-27l7,-4l16,-10l17,-9l16,-11l17,-9l16,-9l17,-10l16,-10l17,-10l16,-10l17,-10l16,-11l17,-12l16,-15l13,-8l4,-2l16,-9l17,-7l17,-5l16,-6l17,-4l16,-5l17,-5l16,-4l17,-4l16,-4l17,-3l16,-3l17,-4l0,-499l-17,14l-16,15l-17,11l-16,12l-17,11l-16,11l-17,14l-16,14l-17,15Z" fill="#e9cc77" stroke-opacity="1.0"></path><path fill-opacity="1.000" stroke-width="10" stroke="#c77560" d="M2410,100l-16,26l-17,23l-14,25l-2,3l-17,24l-16,23l-17,22l-16,22l-17,21l-16,24l-7,9l-10,19l-16,31l-17,26l-16,33l-17,35l-2,4l-14,16l-17,21l-17,16l-16,18l-17,19l-16,21l-17,23l-9,14l-7,8l-17,18l-16,20l-17,19l-16,15l-17,13l-16,9l-17,11l-16,12l-17,16l-7,7l-9,8l-17,16l-16,13l-17,13l-16,13l-17,16l-16,14l-17,19l-17,14l-16,13l-8,9l-9,8l-16,18l-17,12l-16,11l-17,14l-16,17l-17,19l-16,16l-17,11l-16,10l-17,7l-8,4l-8,7l-17,9l-16,11l-17,14l-16,16l-17,13l-16,15l-17,15l-16,13l-17,12l-16,10l-17,8l-7,5l-10,15l-16,28l-17,29l-16,18l-17,18l-16,17l-17,23l14,148l3,5l16,14l17,13l16,19l17,28l16,29l17,31l7,9l10,11l16,24l17,17l16,20l17,20l16,22l17,17l16,11l8,6l9,3l16,6l17,3l16,5l17,3l16,5l17,6l16,11l17,14l16,13l17,13l16,8l17,9l16,14l17,14l16,15l10,6l7,3l17,11l16,11l17,10l16,10l17,8l16,11l17,10l16,11l17,11l16,9l17,8l16,8l17,7l16,11l14,9l3,2l16,12l17,12l16,15l17,14l16,12l17,9l16,12l17,9l17,11l16,12l17,10l16,12l9,6l8,4l16,10l17,8l16,8l17,7l16,5l17,8l16,7l17,8l16,6l17,9l16,6l17,7l16,6l17,5l16,6l17,7l16,11l17,11l11,9l5,5l17,12l17,11l16,10l17,10l16,13l17,12l16,12l17,11l16,10l17,12l16,10l17,9l16,9l2,2l15,37l16,31l17,37l16,37l3,6l-3,11l-16,73l-17,54l-2,9l-14,36l-17,42l-16,49l-7,21l-10,22l-16,34l-17,45l-16,42l-2,5l-15,28l-16,35l-17,35l-16,34l-10,16l-7,15l-16,28l-17,36l-17,37l-14,32l-2,4l-17,36l-16,34l-17,40l-14,34l-2,3l-17,24l-16,23l-17,24l789,0l4,-2l17,-10l16,-9l17,-10l16,-10l17,-12l16,-12l14,-9l3,-3l16,-18l17,-25l17,-19l16,-16l17,-13l16,-14l17,-11l16,-11l17,-14l4,-4l12,-11l17,-8l16,-11l17,-12l16,-16l17,-14l16,-12l17,-14l16,-17l17,-16l13,-17l3,-4l17,-27l16,-24l17,-23l16,-27l17,-29l8,-14l8,-14l17,-32l17,-28l16,-31l17,-28l7,-15l9,-37l17,-58l16,-43l3,-10l14,-37l16,-51l17,-59l-17,-91l-12,-57l-4,-3l-17,-9l-16,-6l-17,-8l-16,-8l-17,-7l-16,-7l-17,-8l-17,-7l-16,-6l-17,-6l-16,-7l-17,-4l-16,-6l-17,-6l-16,-5l-17,-4l-16,-4l-17,-4l-16,-2l-17,-1l-16,-3l-17,-3l-16,-3l-17,-3l-16,-2l-17,-3l-16,-3l-17,-1l-16,-4l-17,-2l-12,-3l-4,-1l-17,-5l-17,-4l-16,-3l-17,-5l-16,-3l-17,-4l-16,-3l-17,-4l-16,-1l-17,-1l-16,-2l-17,-2l-16,-2l-17,-3l-16,-2l-17,-3l-16,-3l-17,-3l-16,-3l-17,-4l-16,-3l-17,-4l-16,-4l-17,-5l-17,-5l-16,-6l-17,-3l-16,-3l-17,-3l-16,-5l-17,-5l-16,-5l-17,-7l-16,-7l-17,-8l-16,-8l-11,-6l-6,-4l-16,-10l-17,-9l-16,-7l-17,-8l-16,-9l-17,-10l-16,-10l-17,-11l-16,-11l-17,-9l-16,-9l-17,-8l-17,-9l-16,-10l-17,-14l-16,-18l-17,-17l-16,-15l-17,-15l-16,-15l-17,-13l-16,-15l-17,-13l-16,-14l-14,-13l-3,-4l-16,-21l-17,-18l-16,-17l-17,-18l-16,-22l-17,-21l-16,-20l-8,-7l-9,-17l-16,-38l-17,-35l-16,-33l-15,-25l-2,-7l-17,-51l-16,-53l-10,-37l10,-26l16,-35l17,-30l17,-32l11,-25l5,-14l17,-42l16,-35l17,-31l11,-26l5,-9l17,-32l16,-28l17,-24l16,-26l17,-25l2,-4l14,-13l17,-15l16,-19l17,-13l16,-17l17,-15l16,-15l17,-19l16,-17l5,-4l12,-16l16,-18l17,-18l16,-14l17,-15l17,-16l16,-13l17,-15l16,-16l7,-7l10,-12l16,-25l17,-22l16,-25l17,-21l16,-21l17,-22l16,-19l17,-18l16,-19l17,-24l16,-23l17,-22l16,-23l17,-25l16,-22l17,-22l16,-21l17,-21l16,-22l12,-15l5,-7l17,-23l16,-16l17,-18l16,-17l17,-23l16,-21l17,-19l2,-4l14,-12l17,-12l16,-13l17,-10l16,-11l17,-10l12,-6ZM5217,100l2,6l16,42l11,26l6,5l16,18l17,16l16,17l17,18l16,17l17,17l16,17l17,18l6,5l11,15l16,28l17,27l16,27l17,27l14,24l2,3l17,19l16,22l17,19l16,22l17,22l16,21l15,20l2,2l16,19l17,23l16,20l17,23l16,26l17,24l7,11l9,14l17,25l16,26l17,24l17,25l16,25l6,9l11,13l16,20l17,20l16,19l17,20l16,21l17,21l11,13l5,8l17,28l16,28l17,28l16,26l17,28l1,2l15,26l17,37l16,34l17,36l7,15l-3,148l-4,26l-17,96l-4,26l-12,28l-17,41l-16,38l-17,38l-1,3l-15,18l-17,20l-16,22l-17,20l-16,17l-17,19l-16,19l-12,13l-5,4l-16,10l-17,11l-16,11l-17,11l-16,12l-17,12l-17,11l-16,11l-17,10l-16,11l-17,11l-16,11l-17,8l-6,4l-10,5l-17,9l-16,7l-17,6l-16,7l-17,8l-16,7l-17,9l-16,7l-17,8l-16,7l-17,8l-16,7l-17,7l-16,7l-17,7l-17,7l-16,7l-17,8l-16,10l-17,7l-16,8l-17,6l-16,6l-17,6l-16,5l-17,5l-16,6l-17,5l-16,7l-17,7l-16,7l-17,5l-16,6l-17,7l-16,6l-17,6l-16,5l-17,6l-16,6l-17,6l-17,7l-16,7l-9,6l-8,8l-16,15l-17,14l-16,13l-17,13l-16,13l-17,12l-16,15l-17,15l-16,13l-17,11l-8,6l8,74l7,74l10,39l16,66l8,42l9,42l16,52l17,40l5,14l11,25l17,43l16,39l17,36l2,5l14,33l17,39l16,38l17,33l2,5l15,21l16,19l17,24l16,21l17,27l16,22l10,14l7,10l16,24l17,19l16,18l17,25l16,22l17,24l4,6l12,31l15,43l725,0l-13,-27l-16,-35l-6,-12l-11,-37l-16,-59l-15,-52l-2,-4l-16,-41l-17,-38l-16,-43l-10,-22l-7,-18l-16,-38l-17,-40l-17,-35l-9,-17l-7,-14l-17,-40l-16,-34l-17,-35l-11,-25l-5,-18l-17,-77l-10,-53l-6,-8l-17,-20l-16,-22l-17,-25l-16,-21l-17,-25l-16,-26l-17,-135l-2,-13l2,-2l17,-18l16,-15l17,-14l16,-15l17,-16l16,-15l17,-14l16,-17l17,-18l4,-4l12,-7l17,-7l16,-7l17,-7l16,-5l17,-6l17,-7l16,-7l17,-8l16,-9l17,-7l16,-9l17,-10l16,-8l17,-9l16,-8l17,-8l16,-10l12,-9l5,-4l16,-10l17,-9l16,-8l17,-8l16,-10l17,-10l16,-10l17,-10l16,-10l17,-10l16,-11l17,-9l17,-10l16,-11l12,-8l5,-4l16,-13l17,-13l16,-12l17,-12l16,-11l17,-12l16,-11l17,-12l16,-10l17,-10l16,-9l17,-10l16,-9l17,-16l16,-15l17,-16l16,-15l17,-14l16,-16l17,-13l16,-12l17,-11l17,-11l16,-9l17,-15l16,-15l17,-13l16,-11l17,-11l16,-12l17,-11l16,-15l17,-14l0,-512l0,0l-17,-12l-16,-12l-17,-10l-16,-10l-17,-6l-16,-9l-17,-9l-16,-14l-17,-13l-16,-12l-3,-4l-14,-13l-17,-12l-16,-12l-17,-14l-16,-17l-17,-17l-16,-18l-17,-21l-16,-16l-7,-7l-10,-10l-16,-14l-17,-18l-16,-14l-17,-18l-16,-18l-17,-21l-16,-21l-11,-14l-6,-9l-16,-26l-17,-25l-16,-29l-17,-26l-16,-25l-6,-8l-11,-20l-16,-32l-17,-32l-17,-29l-16,-32l-2,-3l-15,-30l-16,-36l-17,-33l-16,-30l-10,-19l-7,-12l-16,-30l-17,-23l-16,-28l-17,-26l-16,-23l-4,-6l-13,-29l-16,-37l-4,-8ZM758,1645l0,0l17,-25l16,-33l17,-41l16,-33l4,-8l10,-148l-14,-39l-16,-40l-17,-32l-16,-37l-17,-12l0,0Z" fill="#c77560" stroke-opacity="1.0"></path><path fill-opacity="1.000" stroke-width="10" stroke="#b05b5a" d="M3194,100l-7,4l-17,10l-16,11l-17,10l-16,13l-17,12l-16,14l-17,19l-16,22l-17,22l-16,18l-17,18l-16,15l-17,24l-7,10l-10,12l-16,22l-17,21l-16,20l-17,22l-16,22l-17,26l-1,3l-15,21l-17,21l-16,24l-17,24l-16,18l-17,19l-16,18l-2,3l-15,19l-16,22l-17,20l-16,26l-17,22l-16,24l-11,15l-6,5l-16,16l-17,15l-16,13l-17,16l-17,15l-16,15l-17,17l-16,18l-14,18l-3,3l-16,16l-17,20l-16,15l-17,15l-16,16l-17,14l-16,18l-17,15l-16,15l-17,26l-16,26l-17,24l-16,28l-17,32l-7,12l-9,22l-17,31l-16,34l-17,43l-7,18l-9,21l-17,31l-17,31l-16,35l-12,30l12,43l16,54l17,51l17,28l16,33l17,36l16,38l7,13l10,9l16,20l17,21l16,22l17,18l16,16l17,19l16,21l2,2l15,14l16,14l17,13l16,15l17,13l16,15l17,15l16,15l17,17l15,17l1,1l17,14l16,10l17,9l17,8l16,9l17,9l16,11l17,10l16,11l17,10l16,9l17,8l16,7l17,9l16,11l4,2l13,8l16,7l17,8l16,7l17,7l16,5l17,5l16,4l17,4l16,3l17,3l16,5l17,6l17,5l16,3l17,4l16,4l17,3l16,3l17,3l16,4l17,3l16,2l17,3l16,2l17,1l16,3l17,1l16,1l17,4l16,3l17,4l16,3l17,5l16,3l17,4l17,5l16,4l17,2l16,5l17,0l16,3l17,3l16,2l17,3l16,3l17,3l16,3l17,1l16,2l17,4l16,4l17,4l16,5l17,6l16,6l17,4l16,7l17,6l16,7l17,6l17,8l16,8l17,7l16,7l17,8l16,7l17,8l2,2l14,68l15,80l-15,51l-16,52l-17,44l-16,44l-17,58l-12,46l-4,10l-17,29l-16,31l-17,27l-17,33l-11,18l-5,10l-17,28l-16,27l-17,23l-16,24l-17,27l-6,9l-10,13l-17,16l-16,16l-17,15l-16,12l-17,14l-16,17l-17,11l-16,11l-17,8l-16,15l-17,15l-16,10l-17,11l-16,15l-17,13l-16,15l-17,20l-17,24l-16,18l-7,7l-10,7l-16,12l-17,12l-16,10l-17,9l-16,10l-17,9l-9,5l2025,0l-17,-49l-9,-25l-7,-9l-17,-24l-16,-22l-17,-25l-16,-19l-17,-18l-16,-25l-5,-6l-12,-17l-16,-23l-17,-27l-16,-21l-17,-24l-16,-18l-12,-18l-5,-10l-17,-34l-16,-38l-17,-38l-11,-28l-5,-11l-17,-36l-16,-39l-17,-43l-8,-19l-8,-22l-17,-40l-16,-53l-8,-33l-9,-52l-16,-66l-7,-29l-10,-99l-5,-49l5,-4l17,-11l16,-13l17,-15l16,-15l17,-13l16,-12l17,-13l16,-13l17,-14l16,-15l10,-10l7,-5l16,-7l17,-7l17,-6l16,-6l17,-6l16,-5l17,-6l16,-7l17,-6l16,-6l17,-6l16,-6l17,-7l16,-7l17,-5l16,-6l17,-5l16,-5l17,-6l16,-6l17,-6l16,-7l17,-8l2,-1l14,-9l17,-8l16,-7l17,-7l17,-7l16,-7l17,-7l16,-7l17,-8l16,-7l17,-8l16,-7l17,-9l16,-7l17,-8l16,-7l17,-6l16,-7l17,-8l12,-7l4,-3l17,-8l16,-11l17,-11l16,-11l17,-10l16,-11l17,-10l17,-12l16,-13l17,-10l16,-12l17,-10l16,-11l7,-5l10,-11l16,-19l17,-19l16,-17l17,-20l16,-22l17,-20l16,-20l17,-38l16,-38l17,-41l13,-31l3,-17l17,-96l6,-35l2,-148l-8,-18l-17,-36l-16,-34l-17,-36l-13,-24l-3,-5l-17,-28l-16,-25l-17,-28l-16,-28l-17,-28l-3,-6l-13,-15l-17,-22l-16,-20l-17,-20l-16,-20l-17,-20l-16,-19l-10,-11l-7,-12l-16,-25l-17,-25l-17,-23l-16,-27l-17,-25l-7,-11l-9,-14l-17,-24l-16,-25l-17,-23l-16,-21l-17,-22l-16,-19l-17,-23l-16,-21l-17,-22l-16,-22l-17,-19l-16,-22l-17,-19l-16,-27l-17,-28l-16,-27l-17,-27l-16,-27l-9,-12l-8,-7l-17,-19l-16,-16l-17,-18l-16,-16l-17,-19l-16,-16l-17,-17l-16,-17l-3,-3l-14,-32l-16,-42l0,0ZM4261,466l16,0l17,-7l16,0l17,7l8,4l8,3l17,0l16,7l17,7l16,6l17,3l16,13l17,7l16,9l17,8l16,7l17,4l16,7l17,11l17,15l16,22l17,15l8,4l8,3l17,12l16,11l17,18l16,12l17,18l16,12l17,17l16,13l17,17l10,15l6,7l17,16l16,14l17,9l16,10l17,10l16,15l17,15l16,16l17,13l16,11l14,12l3,2l17,14l16,14l17,13l16,14l17,14l16,14l17,14l16,14l17,14l16,14l13,6l4,3l16,14l17,10l16,13l17,11l16,12l17,11l16,15l17,14l16,13l17,16l16,14l3,2l14,20l16,20l17,23l17,22l16,18l17,21l16,22l2,2l15,52l16,55l10,41l-10,93l-6,55l-10,12l-17,20l-16,20l-17,17l-16,20l-17,19l-17,27l-10,13l-6,5l-17,15l-16,12l-17,12l-16,10l-17,9l-16,11l-17,12l-16,10l-17,11l-16,12l-17,9l-16,10l-12,10l-5,3l-16,12l-17,7l-16,9l-17,9l-16,9l-17,8l-16,8l-17,8l-16,9l-17,8l-17,7l-16,6l-17,9l-16,9l-17,7l-16,9l-17,10l-2,1l-14,5l-17,7l-16,7l-17,7l-16,7l-17,8l-16,6l-17,6l-16,4l-17,3l-16,5l-17,6l-16,5l-17,5l-16,4l-17,5l-16,4l-17,5l-17,4l-16,4l-17,4l-16,4l-17,2l-16,4l-17,6l-16,3l-17,2l-16,4l-17,2l-16,2l-17,4l-16,3l-9,1l-8,1l-16,0l-17,0l-16,0l-9,-1l-8,-1l-16,0l-17,-3l-16,0l-17,0l-17,-2l-16,-2l-17,-2l-16,-4l-17,-2l-16,-4l-17,-4l-16,-4l-17,-4l-16,-3l-17,-4l-16,-4l-17,-3l-16,-5l-17,-4l-16,-5l-17,-6l-16,-5l-17,-5l-16,-4l-17,-5l-16,-5l-17,-5l-16,-4l-17,-4l-17,-3l-16,-4l-17,-4l-16,-2l-17,-4l-16,-2l-17,-2l-16,0l-17,-2l-16,0l-17,0l-16,0l-17,2l-16,0l-17,0l-16,-2l-17,-1l-16,0l-17,0l-16,-2l-17,0l-16,-2l-17,0l-16,0l-17,-2l-17,-1l-16,-2l-17,-2l-16,-2l-17,-5l-12,-3l-4,-1l-17,-5l-16,-2l-17,0l-16,-2l-17,0l-16,-3l-17,-4l-16,-5l-17,-7l-16,-5l-17,-9l-16,-8l-17,-7l-16,-5l-17,-6l-16,-9l-17,-9l-17,-11l-16,-10l-17,-9l-16,-10l-17,-10l-16,-10l-2,-1l-15,-15l-16,-21l-17,-20l-16,-22l-17,-21l-16,-14l-17,-16l-16,-17l-2,-2l-15,-42l-16,-37l-17,-55l-4,-14l-8,-148l12,-35l17,-47l16,-31l15,-35l2,-3l16,-27l17,-24l16,-20l17,-27l16,-31l9,-16l8,-10l16,-18l17,-17l16,-13l17,-16l16,-16l17,-16l16,-15l17,-16l10,-11l7,-4l16,-7l17,-9l16,-9l17,-13l16,-7l17,-9l16,-6l17,-8l16,-8l17,-6l16,-6l17,-6l16,-1l17,-2l16,-6l17,-7l16,-6l17,-7l16,-9l17,-3l16,-7l9,-1l8,-2l17,-4l16,-4l17,-4l16,-4l17,-4l16,-5l17,-4l16,-4l17,-4l16,-6l17,-4l16,-4l17,-5l16,-4l17,-4l16,-6l17,-7l16,-8l17,-4l16,-5l17,-8l16,-12l17,-9l16,-12l17,-9l4,-2l13,-8l16,-10l17,-14l16,-15l17,-10l16,-10l17,-15l16,-13l17,-10l16,-15l17,-10l16,-11l13,-7l4,-3l16,-13l17,-12l16,-6l17,-13l16,-12l17,-18l16,-13l17,-10l16,-6l17,-7l16,-6l17,-8l17,-12l16,-6l17,0l16,0l8,-3Z" fill="#b05b5a" stroke-opacity="1.0"></path><path fill-opacity="1.000" stroke-width="10" stroke="#984b44" d="M4203,470l-8,3l-17,12l-17,7l-16,7l-17,6l-16,7l-17,10l-16,13l-17,18l-16,12l-17,13l-16,6l-17,12l-16,12l-13,10l-4,2l-16,10l-17,11l-16,15l-17,10l-16,13l-17,15l-16,10l-17,10l-16,15l-17,14l-16,11l-17,9l-4,3l-13,6l-16,13l-17,9l-16,12l-17,8l-16,4l-17,5l-16,8l-17,6l-16,7l-17,4l-16,4l-17,4l-16,5l-17,4l-16,5l-17,5l-16,4l-17,4l-16,5l-17,4l-16,4l-17,4l-16,4l-17,4l-17,4l-4,2l-12,4l-17,4l-16,9l-17,7l-16,6l-17,7l-16,6l-17,2l-16,1l-17,5l-16,7l-17,6l-16,8l-17,8l-16,6l-17,8l-16,8l-17,12l-16,10l-17,9l-16,7l-11,7l-6,7l-17,16l-16,15l-17,15l-16,17l-17,15l-16,13l-17,18l-16,18l-12,14l-5,10l-16,30l-17,28l-16,19l-17,24l-16,27l-5,10l-12,28l-16,31l-17,46l-15,43l8,148l7,23l17,56l16,37l12,32l5,6l16,17l17,16l16,14l17,21l16,23l17,19l16,21l11,11l6,4l16,10l17,9l16,10l17,9l16,10l17,11l17,10l16,8l17,6l16,6l17,7l16,7l17,9l16,5l17,7l16,5l17,4l16,3l17,0l16,2l17,0l16,2l13,4l4,1l16,4l17,5l16,2l17,2l16,2l17,1l17,2l16,0l17,0l16,2l17,0l16,2l17,0l16,0l17,1l16,2l17,0l16,0l17,-2l16,0l17,0l16,0l17,2l16,0l17,2l16,2l17,4l16,2l17,4l16,4l17,3l17,4l16,4l17,5l16,5l17,5l16,4l17,5l16,5l17,6l16,5l17,5l16,4l17,3l16,4l17,5l16,2l17,4l16,5l17,3l16,4l17,2l16,4l17,2l16,2l17,3l17,0l16,0l8,1l9,1l16,0l17,2l16,0l17,0l16,0l17,-2l8,-1l8,-1l17,-5l16,-2l17,-2l16,-4l17,-2l16,-3l17,-6l16,-4l17,-2l16,-4l17,-4l16,-4l17,-4l17,-5l16,-4l17,-6l16,-3l17,-5l16,-5l17,-6l16,-5l17,-4l16,-3l17,-6l16,-6l17,-8l16,-7l17,-7l16,-7l17,-6l16,-7l2,-1l15,-8l16,-9l17,-8l16,-9l17,-9l16,-6l17,-7l17,-8l16,-9l17,-8l16,-8l17,-8l16,-9l17,-9l16,-9l17,-7l16,-11l8,-6l9,-7l16,-10l17,-9l16,-12l17,-11l16,-10l17,-12l16,-11l17,-9l16,-10l17,-12l16,-12l17,-15l10,-8l6,-8l17,-26l17,-20l16,-20l17,-17l16,-20l17,-20l14,-17l2,-18l15,-130l-15,-57l-16,-54l-11,-37l-6,-8l-16,-22l-17,-20l-16,-18l-17,-22l-17,-23l-16,-21l-10,-14l-7,-7l-16,-14l-17,-16l-16,-13l-17,-14l-16,-14l-17,-12l-16,-12l-17,-11l-16,-13l-17,-10l-14,-12l-2,-2l-17,-9l-16,-14l-17,-14l-16,-14l-17,-14l-16,-13l-17,-14l-16,-14l-17,-14l-16,-14l-14,-11l-3,-3l-17,-14l-16,-11l-17,-13l-16,-16l-17,-15l-16,-15l-17,-10l-16,-9l-17,-10l-16,-15l-17,-15l-2,-2l-14,-20l-17,-17l-16,-14l-17,-17l-16,-12l-17,-18l-16,-12l-17,-18l-16,-11l-13,-9l-4,-4l-16,-7l-17,-15l-16,-22l-17,-15l-17,-11l-16,-7l-17,-4l-16,-8l-17,-7l-16,-9l-17,-8l-16,-13l-17,-1l-16,-7l-17,-7l-8,-3l-8,-4l-17,0l-16,-7l-17,-8l-16,1l-17,7l-16,0l-17,7l-16,0l-17,0Z" fill="#984b44" stroke-opacity="1.0"></path><path fill-opacity="0.125" stroke="none" d="" fill="#000"></path><path fill-opacity="0.251" stroke="none" d="M6772,3650l0,-984l-17,1l-16,1l-17,1l-16,1l-17,1l-16,1l-17,1l-16,1l-17,1l-16,2l-17,1l-17,1l-16,2l-17,1l-16,1l-17,2l-16,1l-17,2l-16,1l-17,2l-16,1l-17,2l-16,1l-17,2l-16,2l-17,1l-16,2l-17,2l-16,1l-17,2l-16,2l-17,1l-16,2l-17,2l-16,1l-17,2l-17,2l-16,1l-17,2l-16,2l-17,1l-16,2l-17,2l-16,1l-17,2l-16,2l-17,1l-16,2l-17,1l-16,2l-17,2l-16,1l-17,2l-16,1l-17,2l-16,1l-17,2l-16,1l-17,2l-16,1l-17,1l-17,2l-16,1l-17,1l-16,2l-17,1l-16,1l-17,2l-16,1l-17,1l-16,1l-17,2l-16,1l-17,1l-16,1l-17,1l-16,1l-17,1l-16,2l-17,1l-16,1l-17,1l-16,1l-17,1l-17,1l-16,1l-17,1l-16,1l-17,1l-16,1l-17,1l-16,1l-17,1l-16,1l-17,1l-16,1l-17,1l-16,1l-17,1l-16,1l-17,0l-16,1l-17,1l-16,1l-17,1l-16,1l-17,1l-16,1l-17,1l-17,1l-16,1l-17,1l-16,1l-17,1l-16,1l-17,1l-16,1l-17,1l-16,1l-17,1l-16,1l-17,1l-16,1l-17,1l-16,1l-17,1l-16,1l-17,1l-16,1l-17,1l-16,1l-17,2l-16,1l-17,1l-17,1l-16,1l-17,1l-16,1l-17,2l-16,1l-17,1l-16,1l-17,2l-16,1l-17,1l-16,1l-17,2l-16,1l-17,1l-16,1l-17,2l-16,1l-17,1l-16,1l-17,2l-16,1l-17,1l-17,2l-16,1l-17,1l-16,2l-17,1l-16,1l-17,1l-16,2l-17,1l-16,1l-17,1l-16,2l-17,1l-16,1l-17,1l-16,1l-17,1l-16,2l-17,1l-16,1l-17,1l-16,1l-17,1l-16,1l-17,1l-17,1l-16,0l-17,1l-16,1l-17,1l-16,1l-17,0l-16,1l-17,1l-16,0l-17,1l-16,0l-17,1l-16,0l-17,1l-16,0l-17,0l-16,0l-17,1l-16,0l-17,0l-16,0l-17,0l-16,0l-17,0l-17,-1l-16,0l-17,0l-16,0l-17,-1l-16,0l-17,-1l-16,0l-17,-1l-16,-1l-17,0l-16,-1l-17,-1l-16,-1l-17,-1l-16,-1l-17,-1l-16,-1l-17,-1l-16,-1l-17,-1l-16,-2l-17,-1l-17,-1l-16,-2l-17,-1l-16,-2l-17,-1l-16,-2l-17,-2l-16,-1l-17,-2l-16,-2l-17,-2l-16,-1l-17,-2l-16,-2l-17,-2l-16,-2l-17,-2l-16,-2l-17,-2l-16,-3l-17,-2l-16,-2l-17,-2l-16,-2l-17,-3l-17,-2l-16,-2l-17,-3l-16,-2l-17,-2l-16,-3l-17,-2l-16,-3l-17,-2l-16,-3l-17,-2l-16,-3l-17,-2l-16,-3l-17,-2l-16,-3l-17,-2l-16,-3l-17,-3l-16,-2l-17,-3l-16,-2l-17,-3l-16,-2l-17,-3l-17,-3l-16,-2l-17,-3l-16,-2l-17,-3l-16,-3l-17,-2l-16,-3l-17,-2l-16,-3l-17,-2l-16,-3l-17,-2l-16,-3l-17,-2l-16,-2l-17,-3l-16,-2l-17,-3l-16,-2l-17,-2l-16,-3l-17,-2l-17,-2l-16,-2l-17,-3l-16,-2l-17,-2l-16,-2l-17,-2l-16,-2l-17,-2l-16,-2l-17,-2l-16,-2l-17,-1l-16,-2l-17,-2l-16,-2l-17,-1l-16,-2l-17,-2l-16,-1l-17,-2l-16,-1l-17,-1l-16,-2l-17,-1l-17,-1l-16,-1l-17,-2l-16,-1l-17,-1l-16,-1l-17,-1l-16,0l-17,-1l-16,-1l-17,-1l-16,0l-17,-1l-16,0l-17,-1l-16,0l-17,0l-16,-1l-17,0l-16,0l-17,0l-16,0l-17,0l-16,0l-17,0l-17,0l-16,0l-17,1l-16,0l-17,1l-16,0l-17,0l-16,1l-17,1l-16,0l-17,1l0,985Z" fill="#000"></path><path fill-opacity="0.125" stroke="none" d="M758,2665l17,-1l16,0l17,-1l16,-1l17,0l16,0l17,-1l16,0l17,-1l16,0l17,0l17,0l16,0l17,0l16,0l17,0l16,0l17,0l16,1l17,0l16,0l17,1l16,0l17,1l16,0l17,1l16,1l17,1l16,0l17,1l16,1l17,1l16,1l17,2l16,1l17,1l17,1l16,2l17,1l16,1l17,2l16,1l17,2l16,2l17,1l16,2l17,2l16,2l17,1l16,2l17,2l16,2l17,2l16,2l17,2l16,2l17,2l16,2l17,3l16,2l17,2l17,2l16,3l17,2l16,2l17,3l16,2l17,3l16,2l17,2l16,3l17,2l16,3l17,2l16,3l17,2l16,3l17,2l16,3l17,3l16,2l17,3l16,2l17,3l17,3l16,2l17,3l16,2l17,3l16,2l17,3l16,3l17,2l16,3l17,2l16,3l17,2l16,3l17,2l16,3l17,2l16,3l17,2l16,3l17,2l16,2l17,3l16,2l17,2l17,3l16,2l17,2l16,2l17,2l16,3l17,2l16,2l17,2l16,2l17,2l16,2l17,2l16,1l17,2l16,2l17,2l16,1l17,2l16,2l17,1l16,2l17,1l16,2l17,1l17,1l16,2l17,1l16,1l17,1l16,1l17,1l16,1l17,1l16,1l17,1l16,1l17,0l16,1l17,1l16,0l17,1l16,0l17,1l16,0l17,0l16,0l17,1l17,0l16,0l17,0l16,0l17,0l16,0l17,-1l16,0l17,0l16,0l17,-1l16,0l17,-1l16,0l17,-1l16,0l17,-1l16,-1l17,0l16,-1l17,-1l16,-1l17,-1l16,0l17,-1l17,-1l16,-1l17,-1l16,-1l17,-1l16,-1l17,-1l16,-2l17,-1l16,-1l17,-1l16,-1l17,-1l16,-2l17,-1l16,-1l17,-1l16,-2l17,-1l16,-1l17,-1l16,-2l17,-1l16,-1l17,-2l17,-1l16,-1l17,-2l16,-1l17,-1l16,-1l17,-2l16,-1l17,-1l16,-1l17,-2l16,-1l17,-1l16,-1l17,-2l16,-1l17,-1l16,-1l17,-2l16,-1l17,-1l16,-1l17,-1l17,-1l16,-1l17,-2l16,-1l17,-1l16,-1l17,-1l16,-1l17,-1l16,-1l17,-1l16,-1l17,-1l16,-1l17,-1l16,-1l17,-1l16,-1l17,-1l16,-1l17,-1l16,-1l17,-1l16,-1l17,-1l17,-1l16,-1l17,-1l16,-1l17,-1l16,-1l17,-1l16,-1l17,0l16,-1l17,-1l16,-1l17,-1l16,-1l17,-1l16,-1l17,-1l16,-1l17,-1l16,-1l17,-1l16,-1l17,-1l16,-1l17,-1l17,-1l16,-1l17,-1l16,-1l17,-1l16,-2l17,-1l16,-1l17,-1l16,-1l17,-1l16,-1l17,-2l16,-1l17,-1l16,-1l17,-2l16,-1l17,-1l16,-2l17,-1l16,-1l17,-2l17,-1l16,-1l17,-2l16,-1l17,-2l16,-1l17,-2l16,-1l17,-2l16,-1l17,-2l16,-2l17,-1l16,-2l17,-1l16,-2l17,-2l16,-1l17,-2l16,-2l17,-1l16,-2l17,-2l16,-1l17,-2l17,-2l16,-1l17,-2l16,-2l17,-1l16,-2l17,-2l16,-1l17,-2l16,-2l17,-1l16,-2l17,-2l16,-1l17,-2l16,-1l17,-2l16,-1l17,-2l16,-1l17,-2l16,-1l17,-1l16,-2l17,-1l17,-1l16,-2l17,-1l16,-1l17,-1l16,-1l17,-1l16,-1l17,-1l16,-1l17,-1l0,-61l-17,0l-16,1l-17,1l-16,1l-17,1l-16,1l-17,1l-16,1l-17,2l-16,1l-17,1l-17,1l-16,2l-17,1l-16,2l-17,1l-16,2l-17,1l-16,2l-17,1l-16,2l-17,1l-16,2l-17,2l-16,1l-17,2l-16,2l-17,2l-16,1l-17,2l-16,2l-17,2l-16,1l-17,2l-16,2l-17,2l-17,1l-16,2l-17,2l-16,2l-17,2l-16,1l-17,2l-16,2l-17,2l-16,1l-17,2l-16,2l-17,1l-16,2l-17,2l-16,1l-17,2l-16,2l-17,1l-16,2l-17,1l-16,2l-17,1l-16,2l-17,1l-17,2l-16,1l-17,2l-16,1l-17,1l-16,2l-17,1l-16,2l-17,1l-16,1l-17,1l-16,2l-17,1l-16,1l-17,1l-16,2l-17,1l-16,1l-17,1l-16,1l-17,1l-16,1l-17,1l-17,2l-16,1l-17,1l-16,1l-17,1l-16,1l-17,1l-16,1l-17,1l-16,1l-17,1l-16,1l-17,0l-16,1l-17,1l-16,1l-17,1l-16,1l-17,1l-16,1l-17,1l-16,1l-17,1l-16,1l-17,0l-17,1l-16,1l-17,1l-16,1l-17,1l-16,1l-17,1l-16,1l-17,1l-16,1l-17,1l-16,0l-17,1l-16,1l-17,1l-16,1l-17,1l-16,1l-17,1l-16,1l-17,1l-16,1l-17,1l-16,1l-17,1l-17,1l-16,1l-17,1l-16,2l-17,1l-16,1l-17,1l-16,1l-17,1l-16,1l-17,1l-16,1l-17,2l-16,1l-17,1l-16,1l-17,1l-16,1l-17,1l-16,2l-17,1l-16,1l-17,1l-17,1l-16,2l-17,1l-16,1l-17,1l-16,1l-17,1l-16,2l-17,1l-16,1l-17,1l-16,1l-17,1l-16,1l-17,1l-16,1l-17,2l-16,1l-17,1l-16,1l-17,1l-16,1l-17,0l-16,1l-17,1l-17,1l-16,1l-17,1l-16,1l-17,0l-16,1l-17,1l-16,0l-17,1l-16,1l-17,0l-16,1l-17,0l-16,1l-17,0l-16,0l-17,1l-16,0l-17,0l-16,0l-17,0l-16,0l-17,0l-16,0l-17,0l-17,0l-16,0l-17,0l-16,0l-17,-1l-16,0l-17,0l-16,-1l-17,0l-16,-1l-17,-1l-16,0l-17,-1l-16,-1l-17,-1l-16,0l-17,-1l-16,-1l-17,-1l-16,-1l-17,-2l-16,-1l-17,-1l-17,-1l-16,-1l-17,-2l-16,-1l-17,-2l-16,-1l-17,-2l-16,-1l-17,-2l-16,-1l-17,-2l-16,-2l-17,-2l-16,-1l-17,-2l-16,-2l-17,-2l-16,-2l-17,-2l-16,-2l-17,-2l-16,-2l-17,-2l-16,-3l-17,-2l-17,-2l-16,-2l-17,-2l-16,-3l-17,-2l-16,-2l-17,-3l-16,-2l-17,-2l-16,-3l-17,-2l-16,-3l-17,-2l-16,-3l-17,-2l-16,-3l-17,-2l-16,-3l-17,-2l-16,-3l-17,-2l-16,-3l-17,-2l-16,-3l-17,-2l-17,-3l-16,-3l-17,-2l-16,-3l-17,-2l-16,-3l-17,-2l-16,-3l-17,-2l-16,-3l-17,-2l-16,-3l-17,-2l-16,-3l-17,-2l-16,-3l-17,-2l-16,-3l-17,-2l-16,-2l-17,-3l-16,-2l-17,-2l-17,-3l-16,-2l-17,-2l-16,-2l-17,-3l-16,-2l-17,-2l-16,-2l-17,-2l-16,-2l-17,-2l-16,-2l-17,-2l-16,-2l-17,-2l-16,-1l-17,-2l-16,-2l-17,-1l-16,-2l-17,-2l-16,-1l-17,-2l-16,-1l-17,-1l-17,-2l-16,-1l-17,-1l-16,-1l-17,-2l-16,-1l-17,-1l-16,-1l-17,-1l-16,0l-17,-1l-16,-1l-17,-1l-16,0l-17,-1l-16,0l-17,-1l-16,0l-17,0l-16,-1l-17,0l-16,0l-17,0l-16,0l-17,0l-17,0l-16,0l-17,1l-16,0l-17,0l-16,1l-17,0l-16,1l-17,0l-16,1l-17,1Z" fill="#000"></path><path fill-opacity="0.125" stroke="none" d="M758,1034l17,-2l16,-2l17,-1l16,-2l17,-2l16,-1l17,-2l16,-2l17,-2l16,-2l17,-1l17,-2l16,-2l17,-2l16,-2l17,-2l16,-1l17,-2l16,-2l17,-2l16,-2l17,-2l16,-2l17,-1l16,-2l17,-2l16,-2l17,-2l16,-1l17,-2l16,-2l17,-2l16,-2l17,-1l16,-2l17,-2l17,-1l16,-2l17,-2l16,-1l17,-2l16,-2l17,-1l16,-2l17,-1l16,-2l17,-1l16,-2l17,-1l16,-2l17,-1l16,-2l17,-1l16,-1l17,-2l16,-1l17,-1l16,-2l17,-1l16,-1l17,-2l17,-1l16,-1l17,-1l16,-2l17,-1l16,-1l17,-1l16,-1l17,-1l16,-2l17,-1l16,-1l17,-1l16,-1l17,-1l16,-1l17,-1l16,-2l17,-1l16,-1l17,-1l16,-1l17,-1l17,-1l16,-1l17,-1l16,-1l17,-1l16,-1l17,-1l16,-1l17,-2l16,-1l17,-1l16,-1l17,-1l16,-1l17,-1l16,-1l17,-1l16,-1l17,-1l16,-2l17,-1l16,-1l17,-1l16,-1l17,-1l17,-1l16,-2l17,-1l16,-1l17,-1l16,-1l17,-1l16,-2l17,-1l16,-1l17,-1l16,-2l17,-1l16,-1l17,-1l16,-2l17,-1l16,-1l17,-1l16,-2l17,-1l16,-1l17,-1l16,-2l17,-1l17,-1l16,-2l17,-1l16,-1l17,-1l16,-2l17,-1l16,-1l17,-1l16,-2l17,-1l16,-1l17,-1l16,-1l17,-2l16,-1l17,-1l16,-1l17,-1l16,-1l17,-1l16,-1l17,-1l17,-1l16,-1l17,-1l16,-1l17,-1l16,-1l17,-1l16,0l17,-1l16,-1l17,0l16,-1l17,-1l16,0l17,-1l16,0l17,0l16,-1l17,0l16,-1l17,0l16,0l17,0l16,0l17,0l17,0l16,0l17,0l16,0l17,0l16,0l17,1l16,0l17,1l16,0l17,1l16,0l17,1l16,0l17,1l16,1l17,1l16,1l17,0l16,1l17,1l16,2l17,1l16,1l17,1l17,1l16,2l17,1l16,1l17,2l16,1l17,2l16,1l17,2l16,2l17,2l16,1l17,2l16,2l17,2l16,2l17,2l16,2l17,2l16,2l17,2l16,2l17,2l17,2l16,3l17,2l16,2l17,3l16,2l17,2l16,3l17,2l16,3l17,2l16,2l17,3l16,2l17,3l16,3l17,2l16,3l17,2l16,3l17,3l16,2l17,3l16,2l17,3l17,3l16,2l17,3l16,3l17,2l16,3l17,3l16,2l17,3l16,3l17,2l16,3l17,3l16,2l17,3l16,3l17,2l16,3l17,2l16,3l17,2l16,3l17,2l16,3l17,2l17,3l16,2l17,3l16,2l17,2l16,3l17,2l16,2l17,2l16,3l17,2l16,2l17,2l16,2l17,2l16,2l17,2l16,2l17,2l16,2l17,2l16,1l17,2l17,2l16,1l17,2l16,1l17,2l16,1l17,1l16,2l17,1l16,1l17,1l16,1l17,1l16,1l17,1l16,1l17,1l16,1l17,0l16,1l17,1l16,0l17,0l16,1l17,0l17,0l16,0l17,1l16,0l17,0l16,0l17,-1l16,0l17,0l16,0l17,-1l16,0l17,-1l16,0l17,-1l16,0l17,-1l16,-1l17,-1l16,-1l17,-1l16,-1l17,-1l16,-1l17,-1l17,-1l16,-1l17,-2l16,-1l17,-1l16,-2l17,-1l16,-2l17,-1l16,-2l17,-1l0,-62l-17,2l-16,1l-17,2l-16,1l-17,2l-16,1l-17,1l-16,2l-17,1l-16,1l-17,1l-17,1l-16,2l-17,1l-16,1l-17,1l-16,1l-17,0l-16,1l-17,1l-16,1l-17,0l-16,1l-17,1l-16,0l-17,0l-16,1l-17,0l-16,0l-17,1l-16,0l-17,0l-16,0l-17,0l-16,0l-17,0l-17,-1l-16,0l-17,0l-16,-1l-17,0l-16,-1l-17,0l-16,-1l-17,0l-16,-1l-17,-1l-16,-1l-17,-1l-16,-1l-17,-1l-16,-1l-17,-1l-16,-1l-17,-1l-16,-2l-17,-1l-16,-1l-17,-2l-16,-1l-17,-2l-17,-2l-16,-1l-17,-2l-16,-2l-17,-1l-16,-2l-17,-2l-16,-2l-17,-2l-16,-2l-17,-2l-16,-2l-17,-2l-16,-2l-17,-3l-16,-2l-17,-2l-16,-2l-17,-3l-16,-2l-17,-2l-16,-3l-17,-2l-17,-2l-16,-3l-17,-2l-16,-3l-17,-2l-16,-3l-17,-3l-16,-2l-17,-3l-16,-2l-17,-3l-16,-3l-17,-2l-16,-3l-17,-3l-16,-2l-17,-3l-16,-3l-17,-2l-16,-3l-17,-3l-16,-2l-17,-3l-16,-3l-17,-2l-17,-3l-16,-3l-17,-2l-16,-3l-17,-3l-16,-3l-17,-2l-16,-3l-17,-2l-16,-3l-17,-3l-16,-2l-17,-3l-16,-2l-17,-3l-16,-2l-17,-3l-16,-2l-17,-3l-16,-2l-17,-3l-16,-2l-17,-2l-16,-3l-17,-2l-17,-2l-16,-3l-17,-2l-16,-2l-17,-2l-16,-2l-17,-2l-16,-2l-17,-2l-16,-2l-17,-2l-16,-2l-17,-2l-16,-2l-17,-2l-16,-1l-17,-2l-16,-2l-17,-1l-16,-2l-17,-1l-16,-2l-17,-1l-17,-1l-16,-2l-17,-1l-16,-1l-17,-1l-16,-1l-17,-1l-16,-1l-17,-1l-16,-1l-17,-1l-16,-1l-17,0l-16,-1l-17,-1l-16,0l-17,-1l-16,0l-17,0l-16,-1l-17,0l-16,0l-17,0l-16,-1l-17,0l-17,0l-16,0l-17,1l-16,0l-17,0l-16,0l-17,1l-16,0l-17,0l-16,1l-17,0l-16,1l-17,0l-16,1l-17,1l-16,0l-17,1l-16,1l-17,1l-16,1l-17,1l-16,1l-17,1l-16,0l-17,2l-17,1l-16,1l-17,1l-16,1l-17,1l-16,1l-17,2l-16,1l-17,1l-16,1l-17,2l-16,1l-17,1l-16,2l-17,1l-16,1l-17,2l-16,1l-17,1l-16,2l-17,1l-16,2l-17,1l-17,1l-16,2l-17,1l-16,1l-17,2l-16,1l-17,2l-16,1l-17,1l-16,2l-17,1l-16,2l-17,1l-16,1l-17,2l-16,1l-17,1l-16,2l-17,1l-16,1l-17,2l-16,1l-17,1l-16,1l-17,2l-17,1l-16,1l-17,1l-16,2l-17,1l-16,1l-17,1l-16,1l-17,2l-16,1l-17,1l-16,1l-17,1l-16,1l-17,2l-16,1l-17,1l-16,1l-17,1l-16,1l-17,1l-16,1l-17,1l-16,2l-17,1l-17,1l-16,1l-17,1l-16,1l-17,1l-16,1l-17,1l-16,1l-17,2l-16,1l-17,1l-16,1l-17,1l-16,1l-17,1l-16,2l-17,1l-16,1l-17,1l-16,1l-17,1l-16,2l-17,1l-17,1l-16,1l-17,2l-16,1l-17,1l-16,1l-17,2l-16,1l-17,1l-16,2l-17,1l-16,2l-17,1l-16,1l-17,2l-16,1l-17,2l-16,1l-17,2l-16,1l-17,2l-16,1l-17,2l-16,1l-17,2l-17,1l-16,2l-17,2l-16,1l-17,2l-16,2l-17,1l-16,2l-17,2l-16,1l-17,2l-16,2l-17,2l-16,1l-17,2l-16,2l-17,2l-16,1l-17,2l-16,2l-17,2l-16,2l-17,1l-16,2l-17,2l-17,2l-16,1l-17,2l-16,2l-17,1l-16,2l-17,2l-16,1l-17,2l-16,2l-17,1Z" fill="#000"></path><path fill-opacity="0.251" stroke="none" d="M758,972l17,-1l16,-2l17,-2l16,-1l17,-2l16,-2l17,-1l16,-2l17,-2l16,-1l17,-2l17,-2l16,-2l17,-1l16,-2l17,-2l16,-2l17,-2l16,-1l17,-2l16,-2l17,-2l16,-1l17,-2l16,-2l17,-2l16,-1l17,-2l16,-2l17,-1l16,-2l17,-2l16,-1l17,-2l16,-2l17,-1l17,-2l16,-1l17,-2l16,-1l17,-2l16,-1l17,-2l16,-1l17,-2l16,-1l17,-2l16,-1l17,-1l16,-2l17,-1l16,-2l17,-1l16,-1l17,-2l16,-1l17,-1l16,-1l17,-2l16,-1l17,-1l17,-1l16,-2l17,-1l16,-1l17,-1l16,-1l17,-1l16,-2l17,-1l16,-1l17,-1l16,-1l17,-1l16,-1l17,-2l16,-1l17,-1l16,-1l17,-1l16,-1l17,-1l16,-1l17,-1l17,-1l16,-2l17,-1l16,-1l17,-1l16,-1l17,-1l16,-1l17,-1l16,-1l17,-2l16,-1l17,-1l16,-1l17,-1l16,-1l17,-2l16,-1l17,-1l16,-1l17,-1l16,-2l17,-1l16,-1l17,-1l17,-2l16,-1l17,-1l16,-1l17,-2l16,-1l17,-1l16,-2l17,-1l16,-1l17,-2l16,-1l17,-1l16,-2l17,-1l16,-2l17,-1l16,-1l17,-2l16,-1l17,-2l16,-1l17,-1l16,-2l17,-1l17,-1l16,-2l17,-1l16,-2l17,-1l16,-1l17,-2l16,-1l17,-1l16,-2l17,-1l16,-1l17,-2l16,-1l17,-1l16,-1l17,-2l16,-1l17,-1l16,-1l17,-1l16,-1l17,-1l17,-2l16,0l17,-1l16,-1l17,-1l16,-1l17,-1l16,-1l17,-1l16,0l17,-1l16,-1l17,0l16,-1l17,0l16,-1l17,0l16,0l17,-1l16,0l17,0l16,0l17,-1l16,0l17,0l17,0l16,1l17,0l16,0l17,0l16,1l17,0l16,0l17,1l16,0l17,1l16,1l17,0l16,1l17,1l16,1l17,1l16,1l17,1l16,1l17,1l16,1l17,1l16,2l17,1l17,1l16,2l17,1l16,2l17,1l16,2l17,2l16,1l17,2l16,2l17,2l16,2l17,2l16,2l17,2l16,2l17,2l16,2l17,2l16,2l17,2l16,3l17,2l17,2l16,3l17,2l16,2l17,3l16,2l17,3l16,2l17,3l16,2l17,3l16,2l17,3l16,2l17,3l16,3l17,2l16,3l17,2l16,3l17,3l16,3l17,2l16,3l17,3l17,2l16,3l17,3l16,2l17,3l16,3l17,2l16,3l17,3l16,2l17,3l16,3l17,2l16,3l17,3l16,2l17,3l16,2l17,3l16,3l17,2l16,3l17,2l16,3l17,2l17,2l16,3l17,2l16,2l17,3l16,2l17,2l16,2l17,3l16,2l17,2l16,2l17,2l16,2l17,2l16,2l17,2l16,2l17,1l16,2l17,2l16,1l17,2l17,2l16,1l17,2l16,1l17,1l16,2l17,1l16,1l17,1l16,1l17,1l16,1l17,1l16,1l17,1l16,1l17,0l16,1l17,0l16,1l17,0l16,1l17,0l16,0l17,1l17,0l16,0l17,0l16,0l17,0l16,0l17,-1l16,0l17,0l16,-1l17,0l16,0l17,-1l16,-1l17,0l16,-1l17,-1l16,-1l17,0l16,-1l17,-1l16,-1l17,-1l16,-2l17,-1l17,-1l16,-1l17,-1l16,-2l17,-1l16,-1l17,-2l16,-1l17,-2l16,-1l17,-2l0,-874l-6014,0Z" fill="#000"></path><path fill-opacity="0.125" stroke="none" d="" fill="#000"></path></g><g transform="scale(0.1)"></g><g stroke-width="1" stroke="#000" fill="none" stroke-opacity="0.2"><line x2="126.2" y1="10" x1="126.2" y2="370" stroke-opacity="0.2"></line><line x2="172.5" y1="10" x1="172.5" y2="370" stroke-opacity="0.2"></line><line x2="223.7" y1="10" x1="223.7" y2="370" stroke-opacity="0.2"></line><line x2="273.2" y1="10" x1="273.2" y2="370" stroke-opacity="0.2"></line><line x2="324.5" y1="10" x1="324.5" y2="370" stroke-opacity="0.2"></line><line x2="374" y1="10" x1="374" y2="370" stroke-opacity="0.2"></line><line x2="425.2" y1="10" x1="425.2" y2="370" stroke-opacity="0.2"></line><line x2="476.4" y1="10" x1="476.4" y2="370" stroke-opacity="0.2"></line><line x2="526" y1="10" x1="526" y2="370" stroke-opacity="0.2"></line><line x2="577.2" y1="10" x1="577.2" y2="370" stroke-opacity="0.2"></line><line x2="626.8" y1="10" x1="626.8" y2="370" stroke-opacity="0.2"></line><line x2="681" y1="365" x1="72" y2="365"></line><line x2="681" y1="335.4" x1="72" y2="335.4"></line><line x2="681" y1="305.8" x1="72" y2="305.8"></line><line x2="681" y1="276.3" x1="72" y2="276.3"></line><line x2="681" y1="246.7" x1="72" y2="246.7"></line><line x2="681" y1="217.1" x1="72" y2="217.1"></line><line x2="681" y1="187.5" x1="72" y2="187.5"></line><line x2="681" y1="157.9" x1="72" y2="157.9"></line><line x2="681" y1="128.3" x1="72" y2="128.3"></line><line x2="681" y1="98.8" x1="72" y2="98.8"></line><line x2="681" y1="69.2" x1="72" y2="69.2"></line><line x2="681" y1="39.6" x1="72" y2="39.6"></line><line x2="681" y1="10" x1="72" y2="10"></line></g><g><rect fill-opacity="0.004" y="10" x="75" height="355" width="51.2" fill="#fff"></rect><text stroke="none" y="381.5" text-anchor="middle" x="100.6">Jan</text></g><g><rect fill-opacity="0.004" y="10" x="126.2" height="355" width="46.3" fill="#fff"></rect><text stroke="none" y="381.5" text-anchor="middle" x="149.3">Feb</text></g><g><rect fill-opacity="0.004" y="10" x="172.5" height="355" width="51.2" fill="#fff"></rect><text stroke="none" y="381.5" text-anchor="middle" x="198.1">Mar</text></g><g><rect fill-opacity="0.004" y="10" x="223.7" height="355" width="49.6" fill="#fff"></rect><text stroke="none" y="381.5" text-anchor="middle" x="248.5">Apr</text></g><g><rect fill-opacity="0.004" y="10" x="273.2" height="355" width="51.2" fill="#fff"></rect><text stroke="none" y="381.5" text-anchor="middle" x="298.9">May</text></g><g><rect fill-opacity="0.004" y="10" x="324.5" height="355" width="49.6" fill="#fff"></rect><text stroke="none" y="381.5" text-anchor="middle" x="349.2">Jun</text></g><g><rect fill-opacity="0.004" y="10" x="374" height="355" width="51.2" fill="#fff"></rect><text stroke="none" y="381.5" text-anchor="middle" x="399.6">Jul</text></g><g><rect fill-opacity="0.004" y="10" x="425.2" height="355" width="51.2" fill="#fff"></rect><text stroke="none" y="381.5" text-anchor="middle" x="450.8">Aug</text></g><g><rect fill-opacity="0.004" y="10" x="476.4" height="355" width="49.6" fill="#fff"></rect><text stroke="none" y="381.5" text-anchor="middle" x="501.2">Sep</text></g><g><rect fill-opacity="0.004" y="10" x="526" height="355" width="51.2" fill="#fff"></rect><text stroke="none" y="381.5" text-anchor="middle" x="551.6">Oct</text></g><g><rect fill-opacity="0.004" y="10" x="577.2" height="355" width="49.6" fill="#fff"></rect><text stroke="none" y="381.5" text-anchor="middle" x="602">Nov</text></g><g><rect fill-opacity="0.004" y="10" x="626.8" height="355" width="51.2" fill="#fff"></rect><text stroke="none" y="381.5" text-anchor="middle" x="652.4">Dec</text></g><g stroke="none" fill="#666"><text y="370.2" text-anchor="end" x="71">0</text><text y="370.2" x="682">0</text><text y="340.6" text-anchor="end" x="71">2</text><text y="340.6" x="682">2</text><text y="311" text-anchor="end" x="71">4</text><text y="311" x="682">4</text><text y="281.4" text-anchor="end" x="71">6</text><text y="281.4" x="682">6</text><text y="251.9" text-anchor="end" x="71">8</text><text y="251.9" x="682">8</text><text y="222.3" text-anchor="end" x="71">10</text><text y="222.3" x="682">10</text><text y="192.7" text-anchor="end" x="71">12</text><text y="192.7" x="682">12</text><text y="163.1" text-anchor="end" x="71">14</text><text y="163.1" x="682">14</text><text y="133.5" text-anchor="end" x="71">16</text><text y="133.5" x="682">16</text><text y="103.9" text-anchor="end" x="71">18</text><text y="103.9" x="682">18</text><text y="74.4" text-anchor="end" x="71">20</text><text y="74.4" x="682">20</text><text y="44.8" text-anchor="end" x="71">22</text><text y="44.8" x="682">22</text><text y="15.2" text-anchor="end" x="71">0</text><text y="15.2" x="682">0</text></g><g font-family="sans-serif" text-decoration="none" font-style="normal" font-size="15" font-weight="normal"><text font-family="sans-serif" stroke="none" opacity="0.8" y="25" text-decoration="none" text-anchor="middle" x="106.2" font-style="normal" font-size="15" fill="#fff" font-weight="normal">13°-17°</text></g><g font-family="sans-serif" text-decoration="none" font-style="normal" font-size="15" font-weight="normal"><text font-family="sans-serif" stroke="none" opacity="0.8" y="282.8" text-decoration="none" text-anchor="middle" x="133.4" font-style="normal" font-size="15" fill="#fff" font-weight="normal">13°-17°</text></g><g font-family="sans-serif" text-decoration="none" font-style="normal" font-size="15" font-weight="normal"><text font-family="sans-serif" stroke="none" opacity="0.8" y="265" text-decoration="none" text-anchor="middle" x="653.6" font-style="normal" font-size="15" fill="#fff" font-weight="normal">13°-17°</text></g><g font-family="sans-serif" text-decoration="none" font-style="normal" font-size="15" font-weight="normal"><text font-family="sans-serif" stroke="none" opacity="0.8" y="66.7" text-decoration="none" text-anchor="middle" x="136.9" font-style="normal" font-size="15" fill="#fff" font-weight="normal">18°-23°</text></g><g font-family="sans-serif" text-decoration="none" font-style="normal" font-size="15" font-weight="normal"><text font-family="sans-serif" stroke="none" opacity="0.8" y="297.4" text-decoration="none" text-anchor="middle" x="331.2" font-style="normal" font-size="15" fill="#fff" font-weight="normal">24°-28°</text></g><g font-family="sans-serif" text-decoration="none" font-style="normal" font-size="15" font-weight="normal"><text font-family="sans-serif" stroke="none" opacity="0.8" y="293.9" text-decoration="none" text-anchor="middle" x="522.4" font-style="normal" font-size="15" fill="#fff" font-weight="normal">24°-28°</text></g><g font-family="sans-serif" text-decoration="none" font-style="normal" font-size="15" font-weight="normal"><text font-family="sans-serif" stroke="none" opacity="0.8" y="318.7" text-decoration="none" text-anchor="middle" x="435.3" font-style="normal" font-size="15" fill="#fff" font-weight="normal">29°-34°</text></g><g font-family="sans-serif" text-decoration="none" font-style="normal" font-size="15" font-weight="normal"><text font-family="sans-serif" stroke="none" opacity="0.8" y="148.3" text-decoration="none" text-anchor="middle" x="427" font-style="normal" font-size="15" fill="#fff" font-weight="normal">35°+</text></g><g font-family="sans-serif" text-decoration="none" font-style="normal" font-size="15" font-weight="normal"><text font-family="sans-serif" stroke="none" opacity="0.8" y="25.9" text-decoration="none" text-anchor="middle" x="631.2" font-style="normal" font-size="15" fill="#fff" font-weight="normal">18°-23°</text></g><g font-family="sans-serif" text-decoration="none" font-style="normal" font-size="15" font-weight="normal"><text font-family="sans-serif" stroke="none" opacity="0.8" y="266.8" text-decoration="none" text-anchor="middle" x="590.9" font-style="normal" font-size="15" fill="#fff" font-weight="normal">18°-23°</text></g></svg>