<svg font-family="sans-serif" viewBox="0 0 753 387" xmlns:xlink="http://www.w3.org/1999/xlink" text-decoration="none" font-style="normal" width="753px" xmlns="http://www.w3.org/2000/svg" font-size="15" version="1.1" font-weight="normal" height="387px"><title>Average Hourly Temperature in Colombo</title><defs><clipPath id="plot-sample-bounds-15"><rect y="0" x="75.8" height="365" width="601.3"></rect></clipPath><clipPath id="plot-sample-bounds-scaled-15"><rect y="0" x="758.3" height="3650" width="6013.5"></rect></clipPath></defs><g transform="scale(0.1)"><path fill-opacity="1.000" stroke-width="10" stroke="#5ca0b4" d="" fill="#5ca0b4" stroke-opacity="1.0"></path><path fill-opacity="1.000" stroke-width="10" stroke="#83c2d5" d="" fill="#83c2d5" stroke-opacity="1.0"></path><path fill-opacity="1.000" stroke-width="10" stroke="#679568" d="" fill="#679568" stroke-opacity="1.0"></path><path fill-opacity="1.000" stroke-width="10" stroke="#74a877" d="" fill="#74a877" stroke-opacity="1.0"></path><path fill-opacity="1.000" stroke-width="10" stroke="#8dbf71" d="" fill="#8dbf71" stroke-opacity="1.0"></path><path fill-opacity="1.000" stroke-width="10" stroke="#e9cc77" d="M824,2689l-16,98l-17,49l17,11l16,11l17,8l16,10l17,7l16,3l17,0l16,-10l17,0l17,-3l16,0l17,0l16,0l17,-9l16,-9l17,-1l16,-8l17,-1l16,-9l17,0l16,0l17,9l16,0l17,0l16,0l17,0l16,-9l17,-98l8,-49l-8,-5l-17,-8l-16,-5l-17,-4l-16,4l-17,-1l-16,1l-17,8l-16,0l-17,0l-16,-5l-17,0l-16,-5l-17,0l-16,-4l-17,0l-16,4l-17,5l-16,0l-17,-1l-17,0l-16,0l-17,0l-16,1l-17,5l-16,5Z" fill="#e9cc77" stroke-opacity="1.0"></path><path fill-opacity="1.000" stroke-width="10" stroke="#c77560" d="M758,1111l17,-7l16,-6l17,-4l16,-4l17,-3l16,-8l17,-7l16,-7l17,0l16,-4l17,-3l17,-3l16,-1l17,0l16,0l17,0l16,0l17,-4l16,-3l17,-4l16,0l17,0l16,-1l17,-7l16,-6l17,-5l16,-7l17,-6l16,-4l17,-1l16,-5l17,-4l16,-4l17,-4l16,-3l17,-4l17,-4l16,-2l17,-4l16,-4l17,-4l16,-4l17,-4l16,-4l17,-3l16,-8l17,-4l16,-4l17,-1l16,-7l17,-4l16,-7l17,-8l16,-4l17,-4l16,-8l17,-8l16,0l17,-7l16,-8l17,-5l17,-12l16,-8l17,-8l16,-8l17,-8l16,-8l17,-12l16,-8l17,-4l16,-12l17,-8l16,-4l17,-12l16,-3l17,-8l16,-4l17,-1l16,-5l17,-1l16,-3l17,-1l16,1l17,-4l17,0l16,-3l17,-3l16,3l17,-3l16,0l17,-3l16,0l17,1l16,0l17,7l16,3l17,1l16,0l17,4l16,3l17,0l16,6l17,1l16,3l17,0l16,-1l17,0l16,0l17,0l17,0l16,0l17,-3l16,-1l17,-4l16,-4l17,-3l16,2l17,0l16,-4l17,-1l16,-2l17,-1l16,-1l17,0l16,3l17,-6l16,-5l17,-2l16,3l17,0l16,-1l17,8l16,0l17,5l17,4l16,11l17,11l16,5l17,12l16,5l17,6l16,11l17,10l16,7l17,12l16,14l17,14l16,12l17,11l16,16l17,12l16,12l9,6l8,7l16,15l17,15l16,9l17,13l17,15l16,19l17,8l16,15l17,8l16,8l17,8l16,7l17,6l16,1l17,11l16,0l17,1l16,6l17,6l16,5l17,1l16,13l17,0l16,0l17,6l16,0l17,6l16,6l17,6l17,4l16,9l17,6l16,6l17,4l16,7l17,6l16,2l17,5l16,6l17,7l16,6l17,6l16,0l17,0l16,0l17,0l16,8l17,0l16,8l17,1l16,7l17,0l16,-7l17,7l17,0l16,1l17,0l16,0l17,-1l16,0l17,0l16,0l17,0l16,0l17,1l16,-1l17,0l16,-1l17,0l16,0l17,0l16,0l17,0l16,7l17,6l16,1l17,6l17,-7l16,7l17,0l16,0l17,4l16,0l17,0l16,0l17,0l16,0l17,0l16,-6l17,0l16,-2l17,-6l16,-7l17,-6l16,0l17,-7l16,0l17,-6l16,6l17,0l16,-6l17,6l17,-6l16,0l17,0l16,0l17,0l16,-7l17,0l16,-5l17,0l16,0l17,-5l16,0l17,-4l16,-1l17,0l16,1l17,0l16,5l17,4l16,0l17,1l8,4l8,6l17,0l16,5l17,0l17,6l16,5l17,0l16,5l17,0l16,0l17,4l16,0l17,0l16,-1l17,5l16,0l17,5l16,5l17,5l16,0l17,0l16,0l17,5l16,-2l17,2l16,-2l17,0l17,-5l16,0l17,-1l16,0l17,0l16,9l17,0l16,-2l17,0l16,-4l17,-5l16,-4l17,-1l16,-5l17,0l16,0l17,-1l16,-3l17,-5l16,0l17,-8l16,-5l17,0l16,0l17,0l17,0l16,-4l17,0l16,-1l17,0l16,0l17,4l16,4l17,-3l16,-4l17,-9l16,-3l17,-4l16,0l17,-3l16,-3l17,-1l16,-3l17,0l16,-7l17,-7l16,-7l17,-7l16,-4l17,-3l17,-4l16,0l17,-3l16,-8l17,-3l16,-4l17,0l16,-3l17,-4l16,0l17,-3l0,-1025l-6014,0ZM758,3650l6014,0l0,-1799l-17,1l-16,0l-17,0l-16,3l-17,1l-16,0l-17,1l-16,-2l-17,2l-16,1l-17,2l-17,0l-16,-1l-17,1l-16,0l-17,-2l-16,0l-17,4l-16,3l-17,1l-16,3l-17,0l-16,4l-17,4l-16,0l-17,0l-16,1l-17,5l-16,6l-17,5l-16,0l-17,4l-16,2l-17,3l-16,2l-17,3l-17,0l-16,2l-17,0l-16,-1l-17,0l-16,-1l-17,0l-16,0l-17,-1l-16,3l-17,0l-16,0l-17,-4l-16,-5l-17,0l-16,-1l-17,4l-16,-2l-17,-1l-16,4l-17,0l-16,0l-17,-1l-16,-1l-17,-5l-17,5l-16,-2l-17,0l-16,0l-17,4l-16,0l-17,1l-16,4l-17,8l-16,6l-17,5l-16,5l-17,10l-16,0l-17,5l-16,0l-17,0l-16,0l-17,3l-16,4l-17,3l-16,0l-17,0l-17,0l-16,1l-17,3l-16,4l-17,3l-16,-3l-17,0l-16,4l-17,0l-16,0l-17,0l-16,-4l-17,0l-16,-3l-17,0l-16,-4l-17,-3l-16,-4l-17,-4l-16,-7l-17,0l-16,0l-17,-6l-16,-6l-17,6l-17,0l-16,-7l-17,0l-16,0l-17,-6l-16,0l-17,-6l-16,-7l-17,-6l-16,-6l-17,-7l-16,4l-17,-7l-16,-2l-17,-4l-16,-7l-17,0l-16,0l-17,0l-16,0l-17,0l-16,0l-17,-7l-16,0l-17,0l-17,0l-16,-6l-17,3l-16,3l-17,-6l-16,0l-17,-3l-16,3l-17,-3l-16,-4l-17,0l-16,-7l-17,0l-16,2l-17,-2l-16,-2l-17,-5l-16,-1l-17,0l-16,-5l-17,0l-16,0l-17,0l-17,0l-16,0l-17,0l-16,0l-17,8l-16,5l-17,2l-16,5l-17,7l-16,6l-17,0l-16,3l-17,8l-16,3l-17,11l-16,2l-17,7l-16,12l-17,7l-16,8l-17,7l-16,6l-9,7l-8,4l-16,4l-17,5l-17,9l-16,4l-17,4l-16,0l-17,4l-16,4l-17,5l-16,5l-17,4l-16,0l-17,5l-16,4l-17,0l-16,4l-17,2l-16,5l-17,9l-16,4l-17,5l-16,4l-17,8l-16,9l-17,5l-16,9l-17,9l-17,9l-8,5l-8,4l-17,8l-16,8l-17,8l-16,8l-17,9l-16,8l-17,9l-16,6l-17,12l-16,6l-17,3l-16,8l-17,5l-16,5l-17,4l-16,4l-17,0l-16,4l-17,4l-16,4l-17,0l-17,4l-16,0l-17,0l-16,0l-17,1l-16,0l-17,-3l-16,-3l-17,-2l-16,-1l-17,-2l-16,-3l-17,1l-16,-2l-17,-3l-16,-2l-17,-5l-16,0l-17,-4l-16,-5l-17,-2l-16,-4l-17,0l-16,-2l-17,-1l-17,-2l-16,1l-17,0l-16,-2l-17,-2l-16,0l-17,-1l-16,0l-17,1l-16,1l-17,-1l-16,-2l-17,0l-16,-1l-17,-4l-16,-1l-17,-1l-16,-2l-17,-4l-16,-4l-17,-3l-16,-3l-17,0l-16,-3l-17,-3l-17,-4l-16,-2l-17,-3l-16,-4l-17,-2l-16,-4l-17,-5l-16,-5l-17,-5l-16,-6l-17,-4l-16,-5l-17,-4l-16,-6l-17,-6l-16,-7l-17,-5l-16,-6l-17,-5l-16,-3l-17,-4l-16,-4l-17,-5l-17,-5l-16,-5l-17,-4l-16,-6l-17,-4l-16,-5l-17,-4l-16,-4l-17,-4l-16,-3l-17,-3l-16,-4l-17,-2l-16,-5l-17,-4l-16,-3l-17,-2l-16,-1l-17,-3l-16,-3l-17,-3l-16,-2l-17,-3l-16,-3l-17,-1l-17,-3l-16,-3l-17,-4l-8,-1l-8,-3l-17,-5l-16,-5l-17,-5l-16,-5l-17,-3l-16,-4l-17,-5l-16,-5l-17,-3l-16,-4l-17,-2l-16,-5l-17,-4l-16,-3l-17,-5l-16,0l-17,-1l-16,-1l-17,-1l-16,-3l-17,-2l-17,-2l-16,-3l-17,-2l-16,-3l-17,-3l-16,-3l-17,0l-16,-1l-17,-3l-16,-1l-17,-3l0,0ZM841,2689l16,-5l17,-5l16,-1l17,0l16,0l17,0l17,1l16,0l17,-5l16,-5l17,0l16,5l17,0l16,5l17,0l16,5l17,0l16,0l17,-9l16,0l17,0l16,-4l17,4l16,5l17,9l-17,98l-16,49l-17,0l-16,0l-17,0l-16,0l-17,-73l-16,0l-17,0l-16,73l-17,0l-16,9l-17,1l-16,9l-17,9l-16,0l-17,0l-16,0l-17,2l-17,0l-16,10l-17,0l-16,-3l-17,-7l-16,-10l-17,-9l-16,-11l16,-73l17,-74Z" fill="#c77560" stroke-opacity="1.0"></path><path fill-opacity="1.000" stroke-width="10" stroke="#b05b5a" d="M1939,766l-8,4l-16,12l-17,4l-16,8l-17,12l-16,8l-17,8l-16,8l-17,8l-16,8l-17,12l-17,5l-16,8l-17,7l-16,1l-17,7l-16,8l-17,4l-16,4l-17,8l-8,4l-8,3l-17,4l-16,7l-17,1l-16,4l-17,4l-16,8l-17,4l-16,3l-17,4l-16,4l-17,4l-16,4l-17,4l-16,2l-17,4l-17,4l-16,4l-17,3l-16,4l-17,4l-16,5l-17,2l-16,3l-17,6l-16,8l-17,4l-16,6l-17,8l-16,0l-17,0l-16,0l-17,4l-16,4l-17,3l-16,1l-17,0l-16,0l-17,0l-16,0l-17,4l-17,3l-16,3l-17,0l-16,8l-17,7l-16,7l-17,3l-16,4l-17,4l-16,6l-17,7l0,747l17,3l16,1l17,2l16,2l17,0l16,2l17,4l16,2l17,3l16,2l17,2l17,3l16,2l17,1l16,2l17,1l16,0l17,5l16,2l17,4l16,5l17,3l16,4l17,2l16,5l17,5l16,5l17,3l16,5l17,5l16,5l17,5l16,3l17,3l16,3l17,3l17,2l16,3l17,3l16,2l17,3l16,3l17,2l16,2l17,2l16,3l17,4l16,4l17,3l16,3l17,3l16,4l17,3l16,5l17,4l16,5l17,3l16,6l17,5l16,5l17,5l17,5l16,4l17,3l16,4l17,5l16,5l17,6l16,7l17,6l11,4l5,2l17,4l16,5l17,4l16,6l17,5l16,5l17,5l16,4l17,2l16,4l17,3l16,2l17,4l17,3l16,3l17,0l16,3l17,3l16,5l17,3l16,2l17,1l16,2l17,3l16,1l17,0l16,2l17,2l16,-1l17,-2l16,0l17,2l16,0l17,1l16,3l17,0l16,-1l17,1l17,2l16,1l17,0l16,4l17,3l16,5l17,4l16,0l17,5l16,2l17,2l16,3l17,-1l16,3l17,2l16,1l17,2l16,3l17,3l16,0l17,0l16,0l17,0l16,-1l17,-3l17,-1l16,-3l17,-4l16,-4l17,-1l16,-3l17,-4l16,-5l17,-5l16,-8l17,-4l16,-5l17,-12l16,-6l17,-9l16,-8l17,-9l16,-8l17,-8l16,-8l17,-8l16,-8l17,-9l17,-10l16,-9l17,-4l16,-10l17,-7l16,-5l17,-4l16,-5l17,-9l16,-4l17,-2l16,-5l17,0l16,-4l17,-4l16,0l17,-5l16,-4l17,-6l16,-4l17,-3l16,-1l17,-4l16,-4l17,-9l17,-4l16,-5l17,-8l16,-7l17,-6l16,-8l17,-7l16,-12l17,-7l16,-2l17,-12l16,-2l17,-7l16,-4l17,0l16,-7l17,-6l16,-5l17,-2l16,-5l17,-9l16,0l17,0l16,0l17,0l17,0l16,0l17,0l16,5l17,0l16,2l17,4l16,3l17,2l16,-2l17,0l16,7l17,0l16,3l17,3l16,-3l17,3l16,0l17,7l16,-3l17,-4l16,7l17,0l17,0l16,0l17,7l16,0l17,0l16,0l17,0l16,0l17,0l16,6l17,5l16,2l17,7l16,-4l17,6l16,6l17,7l16,6l17,7l16,0l17,6l16,0l17,0l16,6l17,0l17,-6l16,6l17,7l16,0l17,0l16,4l17,4l16,3l17,4l16,4l17,0l16,3l17,0l16,3l17,0l16,0l17,0l16,-3l17,0l16,3l17,-4l16,-3l17,-4l16,0l17,-1l17,0l16,0l17,-3l16,-3l17,-4l16,0l17,0l16,0l17,-3l16,0l17,-10l16,-5l17,-5l16,-6l17,-9l16,-3l17,-1l16,0l17,-4l16,0l17,0l16,1l17,-4l17,4l16,2l17,1l16,0l17,0l16,-5l17,2l16,1l17,-4l16,1l17,0l16,5l17,4l16,0l17,0l16,-3l17,1l16,0l17,0l16,1l17,0l16,1l17,0l16,-3l17,0l17,-2l16,-3l17,-3l16,-2l17,-3l16,0l17,-6l16,-6l17,-5l16,-1l17,0l16,0l17,-3l16,-5l17,0l16,-3l17,-1l16,-3l17,-4l16,0l17,1l16,0l17,-1l16,2l17,0l17,-3l16,-1l17,-1l16,1l17,-1l16,0l17,-1l16,-2l17,0l16,0l17,-1l0,-733l-17,4l-16,0l-17,3l-16,4l-17,0l-16,3l-17,4l-16,7l-17,4l-16,0l-17,3l-17,4l-16,3l-17,7l-16,7l-17,7l-16,7l-17,0l-16,4l-17,0l-16,3l-17,4l-16,0l-17,3l-16,4l-9,3l-8,4l-16,5l-17,3l-16,-4l-17,-4l-16,0l-17,0l-16,0l-17,0l-16,5l-17,0l-17,0l-16,0l-17,0l-16,4l-17,9l-16,0l-17,4l-16,4l-17,1l-16,0l-17,0l-16,4l-17,1l-16,5l-17,4l-16,5l-17,0l-16,1l-17,0l-16,-9l-17,0l-16,0l-17,1l-16,0l-17,5l-17,0l-16,2l-17,-2l-16,2l-17,-5l-16,0l-17,0l-16,0l-17,-5l-16,-5l-17,-5l-16,0l-17,-5l-16,1l-17,0l-16,0l-17,-4l-16,0l-17,0l-16,-6l-17,0l-16,-5l-17,-5l-17,0l-16,-6l-17,0l-16,-9l-17,0l-16,0l-17,-5l-16,-5l-17,0l-16,-1l-17,0l-16,1l-17,4l-16,0l-17,5l-16,0l-17,1l-16,4l-17,0l-16,5l-17,0l-16,0l-17,0l-16,0l-17,7l-17,-7l-16,7l-17,0l-16,-7l-17,7l-16,0l-17,6l-16,0l-17,7l-16,6l-17,7l-16,1l-17,0l-16,7l-17,0l-16,0l-17,0l-16,0l-17,0l-16,0l-17,-5l-16,0l-17,0l-16,-7l-17,7l-17,-6l-16,-1l-17,-6l-16,-8l-17,0l-16,0l-17,0l-16,0l-17,0l-16,1l-17,0l-16,1l-17,-1l-16,0l-17,0l-16,0l-17,0l-16,0l-17,1l-16,0l-17,0l-16,-1l-17,0l-17,-7l-16,7l-17,0l-16,-7l-17,-1l-16,-8l-17,0l-16,-6l-17,0l-16,0l-17,0l-16,0l-17,-6l-16,-7l-17,-6l-16,-7l-17,-5l-16,-1l-17,-7l-16,-6l-17,-4l-16,-6l-17,-6l-16,-10l-17,-3l-17,-6l-16,-6l-17,-6l-16,0l-17,-6l-16,0l-17,0l-16,-13l-17,-1l-16,-5l-17,-6l-16,-6l-17,-1l-16,0l-17,-12l-16,0l-17,-7l-16,-8l-17,-8l-16,-8l-17,-7l-16,-16l-17,-8l-16,-19l-17,-15l-17,-13l-16,-9l-17,-15l-16,-14l-17,-12l-16,-12l-17,-12l-16,-16l-17,-11l-16,-11l-17,-14l-16,-15l-17,-11l-16,-7l-17,-11l-16,-11l-17,-5l-16,-6l-17,-11l-16,-6l-17,-10l-16,-11l-17,-4l-17,-5l-16,0l-17,-9l-16,2l-17,0l-16,-2l-17,2l-16,4l-17,6l-16,-3l-17,0l-16,2l-17,1l-16,2l-17,1l-16,4l-17,0l-16,-2l-17,3l-16,5l-17,3l-16,1l-17,4l-16,0l-17,0l-17,0l-16,0l-17,0l-16,0l-17,0l-16,-2l-17,-1l-16,-6l-17,0l-16,-4l-17,-3l-16,0l-17,-1l-16,-4l-17,-7l-16,0l-17,-1l-16,0l-17,4l-16,0l-17,2l-16,-2l-17,2l-16,4l-17,0l-17,3l-16,-1l-17,1l-16,3l-17,1l-16,6l-17,0l-16,4l-17,8l-16,4l-17,11l-16,4Z" fill="#b05b5a" stroke-opacity="1.0"></path><path fill-opacity="1.000" stroke-width="10" stroke="#984b44" d="" fill="#984b44" stroke-opacity="1.0"></path><path fill-opacity="0.125" stroke="none" d="" fill="#000"></path><path fill-opacity="0.251" stroke="none" d="M6772,3650l0,-885l-17,1l-16,1l-17,1l-16,2l-17,1l-16,1l-17,1l-16,1l-17,2l-16,1l-17,1l-17,1l-16,2l-17,1l-16,1l-17,1l-16,1l-17,2l-16,1l-17,1l-16,1l-17,2l-16,1l-17,1l-16,1l-17,1l-16,1l-17,1l-16,1l-17,2l-16,1l-17,1l-16,1l-17,1l-16,1l-17,1l-17,0l-16,1l-17,1l-16,1l-17,1l-16,1l-17,0l-16,1l-17,1l-16,0l-17,1l-16,1l-17,0l-16,1l-17,0l-16,1l-17,0l-16,1l-17,0l-16,0l-17,1l-16,0l-17,0l-16,1l-17,0l-17,0l-16,0l-17,0l-16,1l-17,0l-16,0l-17,0l-16,0l-17,0l-16,0l-17,0l-16,0l-17,0l-16,-1l-17,0l-16,0l-17,0l-16,0l-17,0l-16,-1l-17,0l-16,0l-17,0l-17,-1l-16,0l-17,0l-16,-1l-17,0l-16,0l-17,-1l-16,0l-17,0l-16,-1l-17,0l-16,0l-17,-1l-16,0l-17,-1l-16,0l-17,0l-16,-1l-17,0l-16,-1l-17,0l-16,0l-17,-1l-16,0l-17,-1l-17,0l-16,0l-17,-1l-16,0l-17,0l-16,-1l-17,0l-16,0l-17,-1l-16,0l-17,0l-16,-1l-17,0l-16,0l-17,0l-16,-1l-17,0l-16,0l-17,0l-16,0l-17,-1l-16,0l-17,0l-16,0l-17,0l-17,0l-16,0l-17,0l-16,0l-17,0l-16,0l-17,0l-16,0l-17,0l-16,0l-17,0l-16,1l-17,0l-16,0l-17,0l-16,0l-17,1l-16,0l-17,0l-16,1l-17,0l-16,0l-17,1l-17,0l-16,0l-17,1l-16,0l-17,1l-16,0l-17,1l-16,0l-17,1l-16,0l-17,1l-16,0l-17,1l-16,0l-17,1l-16,0l-17,1l-16,1l-17,0l-16,1l-17,0l-16,1l-17,1l-16,0l-17,1l-17,0l-16,1l-17,1l-16,0l-17,1l-16,0l-17,1l-16,1l-17,0l-16,1l-17,0l-16,1l-17,0l-16,1l-17,0l-16,1l-17,0l-16,1l-17,0l-16,0l-17,1l-16,0l-17,0l-16,1l-17,0l-17,0l-16,1l-17,0l-16,0l-17,0l-16,0l-17,0l-16,0l-17,0l-16,0l-17,0l-16,0l-17,0l-16,0l-17,0l-16,0l-17,0l-16,-1l-17,0l-16,0l-17,0l-16,-1l-17,0l-17,0l-16,-1l-17,0l-16,-1l-17,0l-16,-1l-17,-1l-16,0l-17,-1l-16,0l-17,-1l-16,-1l-17,-1l-16,0l-17,-1l-16,-1l-17,-1l-16,-1l-17,-1l-16,0l-17,-1l-16,-1l-17,-1l-16,-1l-17,-1l-17,-1l-16,-1l-17,-2l-16,-1l-17,-1l-16,-1l-17,-1l-16,-1l-17,-1l-16,-1l-17,-2l-16,-1l-17,-1l-16,-1l-17,-1l-16,-2l-17,-1l-16,-1l-17,-1l-16,-2l-17,-1l-16,-1l-17,-1l-16,-2l-17,-1l-17,-1l-16,-1l-17,-1l-16,-2l-17,-1l-16,-1l-17,-1l-16,-2l-17,-1l-16,-1l-17,-1l-16,-1l-17,-1l-16,-1l-17,-1l-16,-2l-17,-1l-16,-1l-17,-1l-16,-1l-17,-1l-16,-1l-17,-1l-17,0l-16,-1l-17,-1l-16,-1l-17,-1l-16,-1l-17,0l-16,-1l-17,-1l-16,-1l-17,0l-16,-1l-17,0l-16,-1l-17,0l-16,-1l-17,0l-16,-1l-17,0l-16,-1l-17,0l-16,0l-17,0l-16,0l-17,-1l-17,0l-16,0l-17,0l-16,0l-17,0l-16,0l-17,0l-16,1l-17,0l-16,0l-17,0l-16,1l-17,0l-16,0l-17,1l-16,0l-17,1l-16,0l-17,1l-16,0l-17,1l-16,1l-17,1l-16,0l-17,1l-17,1l-16,1l-17,1l-16,1l-17,0l-16,1l-17,1l-16,1l-17,1l-16,2l-17,1l0,886Z" fill="#000"></path><path fill-opacity="0.125" stroke="none" d="M758,2764l17,-1l16,-2l17,-1l16,-1l17,-1l16,-1l17,0l16,-1l17,-1l16,-1l17,-1l17,-1l16,0l17,-1l16,-1l17,-1l16,0l17,-1l16,0l17,-1l16,0l17,-1l16,0l17,0l16,-1l17,0l16,0l17,0l16,-1l17,0l16,0l17,0l16,0l17,0l16,0l17,0l17,1l16,0l17,0l16,0l17,0l16,1l17,0l16,1l17,0l16,1l17,0l16,1l17,0l16,1l17,0l16,1l17,1l16,1l17,0l16,1l17,1l16,1l17,1l16,1l17,0l17,1l16,1l17,1l16,1l17,1l16,1l17,1l16,2l17,1l16,1l17,1l16,1l17,1l16,1l17,1l16,2l17,1l16,1l17,1l16,2l17,1l16,1l17,1l17,1l16,2l17,1l16,1l17,1l16,2l17,1l16,1l17,1l16,2l17,1l16,1l17,1l16,1l17,2l16,1l17,1l16,1l17,1l16,1l17,1l16,1l17,2l16,1l17,1l17,1l16,1l17,1l16,1l17,1l16,0l17,1l16,1l17,1l16,1l17,1l16,0l17,1l16,1l17,1l16,0l17,1l16,0l17,1l16,1l17,0l16,1l17,0l16,1l17,0l17,0l16,1l17,0l16,0l17,0l16,1l17,0l16,0l17,0l16,0l17,0l16,0l17,0l16,0l17,0l16,0l17,0l16,0l17,0l16,0l17,0l16,-1l17,0l17,0l16,-1l17,0l16,0l17,-1l16,0l17,0l16,-1l17,0l16,-1l17,0l16,-1l17,0l16,-1l17,0l16,-1l17,0l16,-1l17,-1l16,0l17,-1l16,0l17,-1l16,-1l17,0l17,-1l16,0l17,-1l16,-1l17,0l16,-1l17,0l16,-1l17,-1l16,0l17,-1l16,0l17,-1l16,0l17,-1l16,0l17,-1l16,0l17,-1l16,0l17,-1l16,0l17,-1l16,0l17,0l17,-1l16,0l17,0l16,-1l17,0l16,0l17,-1l16,0l17,0l16,0l17,0l16,-1l17,0l16,0l17,0l16,0l17,0l16,0l17,0l16,0l17,0l16,0l17,0l17,0l16,0l17,0l16,0l17,1l16,0l17,0l16,0l17,0l16,1l17,0l16,0l17,0l16,1l17,0l16,0l17,1l16,0l17,0l16,1l17,0l16,0l17,1l16,0l17,0l17,1l16,0l17,1l16,0l17,0l16,1l17,0l16,1l17,0l16,0l17,1l16,0l17,1l16,0l17,0l16,1l17,0l16,0l17,1l16,0l17,0l16,1l17,0l16,0l17,1l17,0l16,0l17,0l16,1l17,0l16,0l17,0l16,0l17,0l16,1l17,0l16,0l17,0l16,0l17,0l16,0l17,0l16,0l17,0l16,-1l17,0l16,0l17,0l17,0l16,-1l17,0l16,0l17,-1l16,0l17,0l16,-1l17,0l16,-1l17,0l16,-1l17,0l16,-1l17,-1l16,0l17,-1l16,-1l17,0l16,-1l17,-1l16,-1l17,-1l16,-1l17,0l17,-1l16,-1l17,-1l16,-1l17,-1l16,-1l17,-2l16,-1l17,-1l16,-1l17,-1l16,-1l17,-1l16,-1l17,-2l16,-1l17,-1l16,-1l17,-2l16,-1l17,-1l16,-1l17,-1l16,-2l17,-1l17,-1l16,-1l17,-2l16,-1l17,-1l16,-1l17,-1l16,-2l17,-1l16,-1l17,-1l0,-56l-17,1l-16,1l-17,2l-16,1l-17,1l-16,1l-17,1l-16,2l-17,1l-16,1l-17,1l-17,1l-16,2l-17,1l-16,1l-17,1l-16,2l-17,1l-16,1l-17,1l-16,2l-17,1l-16,1l-17,1l-16,2l-17,1l-16,1l-17,1l-16,1l-17,1l-16,1l-17,2l-16,1l-17,1l-16,1l-17,1l-17,1l-16,1l-17,1l-16,0l-17,1l-16,1l-17,1l-16,1l-17,1l-16,0l-17,1l-16,1l-17,0l-16,1l-17,1l-16,0l-17,1l-16,0l-17,1l-16,0l-17,1l-16,0l-17,0l-16,1l-17,0l-17,0l-16,1l-17,0l-16,0l-17,0l-16,0l-17,0l-16,1l-17,0l-16,0l-17,0l-16,0l-17,0l-16,0l-17,-1l-16,0l-17,0l-16,0l-17,0l-16,0l-17,0l-16,-1l-17,0l-17,0l-16,0l-17,-1l-16,0l-17,0l-16,-1l-17,0l-16,0l-17,-1l-16,0l-17,0l-16,-1l-17,0l-16,-1l-17,0l-16,0l-17,-1l-16,0l-17,-1l-16,0l-17,0l-16,-1l-17,0l-16,-1l-17,0l-17,0l-16,-1l-17,0l-16,-1l-17,0l-16,0l-17,-1l-16,0l-17,-1l-16,0l-17,0l-16,-1l-17,0l-16,0l-17,-1l-16,0l-17,0l-16,0l-17,-1l-16,0l-17,0l-16,0l-17,0l-16,-1l-17,0l-17,0l-16,0l-17,0l-16,0l-17,0l-16,0l-17,0l-16,0l-17,0l-16,0l-17,0l-16,0l-17,0l-16,0l-17,0l-16,0l-17,1l-16,0l-17,0l-16,0l-17,0l-16,1l-17,0l-17,0l-16,1l-17,0l-16,0l-17,1l-16,0l-17,0l-16,1l-17,0l-16,1l-17,0l-16,1l-17,0l-16,1l-17,0l-16,1l-17,0l-16,1l-17,0l-16,1l-17,0l-16,1l-17,1l-16,0l-17,1l-17,0l-16,1l-17,0l-16,1l-17,1l-16,0l-17,1l-16,0l-17,1l-16,0l-17,1l-16,1l-17,0l-16,1l-17,0l-16,1l-17,0l-16,0l-17,1l-16,0l-17,1l-16,0l-17,0l-16,1l-17,0l-17,0l-16,1l-17,0l-16,0l-17,0l-16,1l-17,0l-16,0l-17,0l-16,0l-17,0l-16,0l-17,0l-16,0l-17,0l-16,0l-17,0l-16,0l-17,0l-16,-1l-17,0l-16,0l-17,0l-17,-1l-16,0l-17,-1l-16,0l-17,0l-16,-1l-17,0l-16,-1l-17,0l-16,-1l-17,-1l-16,0l-17,-1l-16,-1l-17,0l-16,-1l-17,-1l-16,-1l-17,0l-16,-1l-17,-1l-16,-1l-17,-1l-16,-1l-17,-1l-17,-1l-16,-1l-17,-1l-16,-1l-17,-1l-16,-1l-17,-1l-16,-1l-17,-1l-16,-1l-17,-1l-16,-2l-17,-1l-16,-1l-17,-1l-16,-1l-17,-1l-16,-2l-17,-1l-16,-1l-17,-1l-16,-1l-17,-2l-16,-1l-17,-1l-17,-1l-16,-2l-17,-1l-16,-1l-17,-1l-16,-1l-17,-2l-16,-1l-17,-1l-16,-1l-17,-1l-16,-1l-17,-2l-16,-1l-17,-1l-16,-1l-17,-1l-16,-1l-17,-1l-16,-1l-17,-1l-16,-1l-17,-1l-17,-1l-16,-1l-17,-1l-16,-1l-17,-1l-16,-1l-17,0l-16,-1l-17,-1l-16,-1l-17,0l-16,-1l-17,-1l-16,0l-17,-1l-16,0l-17,-1l-16,0l-17,-1l-16,0l-17,-1l-16,0l-17,0l-16,-1l-17,0l-17,0l-16,0l-17,0l-16,0l-17,0l-16,0l-17,0l-16,0l-17,0l-16,0l-17,0l-16,0l-17,1l-16,0l-17,0l-16,1l-17,0l-16,1l-17,0l-16,1l-17,0l-16,1l-17,1l-16,0l-17,1l-17,1l-16,0l-17,1l-16,1l-17,1l-16,1l-17,1l-16,1l-17,1l-16,1l-17,1Z" fill="#000"></path><path fill-opacity="0.125" stroke="none" d="M758,973l17,-2l16,-1l17,-1l16,-1l17,-2l16,-1l17,-1l16,-1l17,-1l16,-2l17,-1l17,-1l16,-1l17,-1l16,-1l17,-1l16,-1l17,-2l16,-1l17,-1l16,0l17,-1l16,-1l17,-1l16,-1l17,-1l16,-1l17,-1l16,0l17,-1l16,-1l17,0l16,-1l17,-1l16,0l17,-1l17,0l16,-1l17,0l16,-1l17,0l16,-1l17,0l16,0l17,-1l16,0l17,0l16,0l17,-1l16,0l17,0l16,0l17,0l16,0l17,0l16,0l17,0l16,0l17,0l16,0l17,0l17,0l16,0l17,0l16,0l17,0l16,0l17,1l16,0l17,0l16,0l17,0l16,1l17,0l16,0l17,0l16,0l17,1l16,0l17,0l16,1l17,0l16,0l17,0l17,1l16,0l17,0l16,0l17,1l16,0l17,0l16,0l17,1l16,0l17,0l16,0l17,1l16,0l17,0l16,0l17,0l16,1l17,0l16,0l17,0l16,0l17,0l16,0l17,0l17,1l16,0l17,0l16,0l17,0l16,0l17,0l16,0l17,-1l16,0l17,0l16,0l17,0l16,0l17,0l16,0l17,-1l16,0l17,0l16,0l17,-1l16,0l17,0l16,-1l17,0l17,0l16,-1l17,0l16,-1l17,0l16,0l17,-1l16,0l17,-1l16,0l17,-1l16,0l17,-1l16,-1l17,0l16,-1l17,0l16,-1l17,0l16,-1l17,-1l16,0l17,-1l17,0l16,-1l17,-1l16,0l17,-1l16,0l17,-1l16,-1l17,0l16,-1l17,0l16,-1l17,0l16,-1l17,0l16,-1l17,-1l16,0l17,0l16,-1l17,0l16,-1l17,0l16,-1l17,0l17,0l16,-1l17,0l16,0l17,0l16,-1l17,0l16,0l17,0l16,0l17,0l16,0l17,0l16,0l17,0l16,0l17,0l16,0l17,0l16,0l17,0l16,1l17,0l16,0l17,1l17,0l16,0l17,1l16,0l17,1l16,0l17,1l16,0l17,1l16,1l17,0l16,1l17,1l16,0l17,1l16,1l17,1l16,1l17,1l16,1l17,1l16,1l17,0l17,1l16,2l17,1l16,1l17,1l16,1l17,1l16,1l17,1l16,1l17,2l16,1l17,1l16,1l17,2l16,1l17,1l16,1l17,2l16,1l17,1l16,2l17,1l16,1l17,2l17,1l16,1l17,2l16,1l17,1l16,2l17,1l16,1l17,2l16,1l17,1l16,2l17,1l16,1l17,2l16,1l17,1l16,2l17,1l16,1l17,1l16,1l17,2l16,1l17,1l17,1l16,1l17,1l16,1l17,1l16,1l17,1l16,1l17,1l16,1l17,1l16,1l17,1l16,1l17,1l16,0l17,1l16,1l17,0l16,1l17,1l16,0l17,1l17,0l16,0l17,1l16,0l17,1l16,0l17,0l16,0l17,1l16,0l17,0l16,0l17,0l16,0l17,0l16,0l17,-1l16,0l17,0l16,0l17,-1l16,0l17,0l16,-1l17,0l17,-1l16,0l17,-1l16,-1l17,0l16,-1l17,-1l16,0l17,-1l16,-1l17,-1l16,-1l17,-1l16,-1l17,-1l16,-1l17,-1l16,-1l17,-1l16,-1l17,-1l16,-1l17,-1l16,-2l17,-1l17,-1l16,-1l17,-2l16,-1l17,-1l16,-1l17,-2l16,-1l17,-1l16,-1l17,-2l0,-55l-17,1l-16,1l-17,1l-16,2l-17,1l-16,1l-17,1l-16,2l-17,1l-16,1l-17,1l-17,1l-16,2l-17,1l-16,1l-17,1l-16,1l-17,1l-16,1l-17,2l-16,1l-17,1l-16,1l-17,1l-16,1l-17,0l-16,1l-17,1l-16,1l-17,1l-16,1l-17,0l-16,1l-17,1l-16,0l-17,1l-17,0l-16,1l-17,0l-16,1l-17,0l-16,1l-17,0l-16,0l-17,0l-16,1l-17,0l-16,0l-17,0l-16,0l-17,0l-16,0l-17,0l-16,0l-17,0l-16,-1l-17,0l-16,0l-17,-1l-16,0l-17,0l-17,-1l-16,0l-17,-1l-16,0l-17,-1l-16,0l-17,-1l-16,-1l-17,-1l-16,0l-17,-1l-16,-1l-17,-1l-16,-1l-17,0l-16,-1l-17,-1l-16,-1l-17,-1l-16,-1l-17,-1l-16,-2l-17,-1l-17,-1l-16,-1l-17,-1l-16,-1l-17,-1l-16,-2l-17,-1l-16,-1l-17,-1l-16,-2l-17,-1l-16,-1l-17,-2l-16,-1l-17,-1l-16,-2l-17,-1l-16,-1l-17,-2l-16,-1l-17,-1l-16,-2l-17,-1l-16,-1l-17,-2l-17,-1l-16,-1l-17,-2l-16,-1l-17,-2l-16,-1l-17,-1l-16,-2l-17,-1l-16,-1l-17,-1l-16,-2l-17,-1l-16,-1l-17,-2l-16,-1l-17,-1l-16,-1l-17,-1l-16,-2l-17,-1l-16,-1l-17,-1l-16,-1l-17,-1l-17,-1l-16,-1l-17,-1l-16,-1l-17,-1l-16,-1l-17,-1l-16,-1l-17,-1l-16,-1l-17,-1l-16,0l-17,-1l-16,-1l-17,0l-16,-1l-17,-1l-16,0l-17,-1l-16,-1l-17,0l-16,0l-17,-1l-17,0l-16,-1l-17,0l-16,0l-17,-1l-16,0l-17,0l-16,0l-17,-1l-16,0l-17,0l-16,0l-17,0l-16,0l-17,0l-16,0l-17,0l-16,0l-17,1l-16,0l-17,0l-16,0l-17,0l-16,1l-17,0l-17,0l-16,1l-17,0l-16,0l-17,1l-16,0l-17,1l-16,0l-17,1l-16,0l-17,1l-16,0l-17,1l-16,0l-17,1l-16,1l-17,0l-16,1l-17,0l-16,1l-17,1l-16,0l-17,1l-16,1l-17,0l-17,1l-16,1l-17,0l-16,1l-17,0l-16,1l-17,1l-16,0l-17,1l-16,1l-17,0l-16,1l-17,0l-16,1l-17,1l-16,0l-17,1l-16,0l-17,1l-16,0l-17,1l-16,0l-17,1l-17,0l-16,0l-17,1l-16,0l-17,1l-16,0l-17,0l-16,1l-17,0l-16,0l-17,0l-16,1l-17,0l-16,0l-17,0l-16,0l-17,0l-16,1l-17,0l-16,0l-17,0l-16,0l-17,0l-16,0l-17,0l-17,0l-16,0l-17,0l-16,0l-17,0l-16,0l-17,0l-16,-1l-17,0l-16,0l-17,0l-16,0l-17,0l-16,-1l-17,0l-16,0l-17,0l-16,0l-17,-1l-16,0l-17,0l-16,0l-17,-1l-16,0l-17,0l-17,0l-16,-1l-17,0l-16,0l-17,0l-16,-1l-17,0l-16,0l-17,0l-16,-1l-17,0l-16,0l-17,0l-16,0l-17,-1l-16,0l-17,0l-16,0l-17,0l-16,-1l-17,0l-16,0l-17,0l-17,0l-16,0l-17,0l-16,0l-17,0l-16,0l-17,0l-16,0l-17,0l-16,0l-17,0l-16,0l-17,0l-16,1l-17,0l-16,0l-17,0l-16,0l-17,1l-16,0l-17,0l-16,1l-17,0l-16,1l-17,0l-17,0l-16,1l-17,1l-16,0l-17,1l-16,0l-17,1l-16,1l-17,0l-16,1l-17,1l-16,1l-17,0l-16,1l-17,1l-16,1l-17,1l-16,1l-17,1l-16,1l-17,1l-16,1l-17,1l-16,1l-17,1l-17,1l-16,1l-17,1l-16,2l-17,1l-16,1l-17,1l-16,1l-17,2l-16,1l-17,1Z" fill="#000"></path><path fill-opacity="0.251" stroke="none" d="M758,917l17,-1l16,-1l17,-2l16,-1l17,-1l16,-1l17,-1l16,-2l17,-1l16,-1l17,-1l17,-1l16,-1l17,-1l16,-1l17,-1l16,-1l17,-1l16,-1l17,-1l16,-1l17,-1l16,-1l17,0l16,-1l17,-1l16,-1l17,0l16,-1l17,-1l16,0l17,-1l16,0l17,-1l16,-1l17,0l17,0l16,-1l17,0l16,-1l17,0l16,0l17,-1l16,0l17,0l16,0l17,0l16,-1l17,0l16,0l17,0l16,0l17,0l16,0l17,0l16,0l17,0l16,0l17,0l16,0l17,0l17,0l16,0l17,0l16,1l17,0l16,0l17,0l16,0l17,1l16,0l17,0l16,0l17,0l16,1l17,0l16,0l17,0l16,1l17,0l16,0l17,0l16,1l17,0l17,0l16,0l17,1l16,0l17,0l16,0l17,1l16,0l17,0l16,0l17,0l16,1l17,0l16,0l17,0l16,0l17,0l16,1l17,0l16,0l17,0l16,0l17,0l16,0l17,0l17,0l16,0l17,0l16,0l17,0l16,0l17,0l16,-1l17,0l16,0l17,0l16,0l17,0l16,-1l17,0l16,0l17,0l16,-1l17,0l16,0l17,-1l16,0l17,-1l16,0l17,0l17,-1l16,0l17,-1l16,0l17,-1l16,0l17,-1l16,0l17,-1l16,-1l17,0l16,-1l17,0l16,-1l17,-1l16,0l17,-1l16,-1l17,0l16,-1l17,0l16,-1l17,-1l17,0l16,-1l17,-1l16,0l17,-1l16,-1l17,0l16,-1l17,0l16,-1l17,-1l16,0l17,-1l16,0l17,-1l16,0l17,-1l16,0l17,-1l16,0l17,-1l16,0l17,0l16,-1l17,0l17,0l16,-1l17,0l16,0l17,0l16,0l17,-1l16,0l17,0l16,0l17,0l16,0l17,0l16,0l17,0l16,0l17,1l16,0l17,0l16,0l17,1l16,0l17,0l16,1l17,0l17,1l16,0l17,0l16,1l17,1l16,0l17,1l16,1l17,0l16,1l17,1l16,0l17,1l16,1l17,1l16,1l17,1l16,1l17,1l16,1l17,1l16,1l17,1l17,1l16,1l17,1l16,1l17,1l16,2l17,1l16,1l17,1l16,1l17,2l16,1l17,1l16,2l17,1l16,1l17,1l16,2l17,1l16,1l17,2l16,1l17,2l16,1l17,1l17,2l16,1l17,1l16,2l17,1l16,1l17,2l16,1l17,1l16,2l17,1l16,1l17,2l16,1l17,1l16,2l17,1l16,1l17,1l16,2l17,1l16,1l17,1l16,1l17,1l17,1l16,2l17,1l16,1l17,1l16,1l17,1l16,1l17,0l16,1l17,1l16,1l17,1l16,0l17,1l16,1l17,1l16,0l17,1l16,0l17,1l16,0l17,1l17,0l16,0l17,1l16,0l17,0l16,1l17,0l16,0l17,0l16,0l17,0l16,0l17,0l16,0l17,0l16,-1l17,0l16,0l17,0l16,-1l17,0l16,-1l17,0l16,-1l17,0l17,-1l16,0l17,-1l16,-1l17,0l16,-1l17,-1l16,-1l17,-1l16,-1l17,0l16,-1l17,-1l16,-1l17,-1l16,-1l17,-2l16,-1l17,-1l16,-1l17,-1l16,-1l17,-1l16,-2l17,-1l17,-1l16,-1l17,-1l16,-2l17,-1l16,-1l17,-1l16,-2l17,-1l16,-1l17,-1l0,-819l-6014,0Z" fill="#000"></path><path fill-opacity="0.125" stroke="none" d="" fill="#000"></path></g><g transform="scale(0.1)"></g><g stroke-width="1" stroke="#000" fill="none" stroke-opacity="0.2"><line x2="126.2" y1="10" x1="126.2" y2="370" stroke-opacity="0.2"></line><line x2="172.5" y1="10" x1="172.5" y2="370" stroke-opacity="0.2"></line><line x2="223.7" y1="10" x1="223.7" y2="370" stroke-opacity="0.2"></line><line x2="273.2" y1="10" x1="273.2" y2="370" stroke-opacity="0.2"></line><line x2="324.5" y1="10" x1="324.5" y2="370" stroke-opacity="0.2"></line><line x2="374" y1="10" x1="374" y2="370" stroke-opacity="0.2"></line><line x2="425.2" y1="10" x1="425.2" y2="370" stroke-opacity="0.2"></line><line x2="476.4" y1="10" x1="476.4" y2="370" stroke-opacity="0.2"></line><line x2="526" y1="10" x1="526" y2="370" stroke-opacity="0.2"></line><line x2="577.2" y1="10" x1="577.2" y2="370" stroke-opacity="0.2"></line><line x2="626.8" y1="10" x1="626.8" y2="370" stroke-opacity="0.2"></line><line x2="681" y1="365" x1="72" y2="365"></line><line x2="681" y1="335.4" x1="72" y2="335.4"></line><line x2="681" y1="305.8" x1="72" y2="305.8"></line><line x2="681" y1="276.3" x1="72" y2="276.3"></line><line x2="681" y1="246.7" x1="72" y2="246.7"></line><line x2="681" y1="217.1" x1="72" y2="217.1"></line><line x2="681" y1="187.5" x1="72" y2="187.5"></line><line x2="681" y1="157.9" x1="72" y2="157.9"></line><line x2="681" y1="128.3" x1="72" y2="128.3"></line><line x2="681" y1="98.8" x1="72" y2="98.8"></line><line x2="681" y1="69.2" x1="72" y2="69.2"></line><line x2="681" y1="39.6" x1="72" y2="39.6"></line><line x2="681" y1="10" x1="72" y2="10"></line></g><g><rect fill-opacity="0.004" y="10" x="75" height="355" width="51.2" fill="#fff"></rect><text stroke="none" y="381.5" text-anchor="middle" x="100.6">Jan</text></g><g><rect fill-opacity="0.004" y="10" x="126.2" height="355" width="46.3" fill="#fff"></rect><text stroke="none" y="381.5" text-anchor="middle" x="149.3">Feb</text></g><g><rect fill-opacity="0.004" y="10" x="172.5" height="355" width="51.2" fill="#fff"></rect><text stroke="none" y="381.5" text-anchor="middle" x="198.1">Mar</text></g><g><rect fill-opacity="0.004" y="10" x="223.7" height="355" width="49.6" fill="#fff"></rect><text stroke="none" y="381.5" text-anchor="middle" x="248.5">Apr</text></g><g><rect fill-opacity="0.004" y="10" x="273.2" height="355" width="51.2" fill="#fff"></rect><text stroke="none" y="381.5" text-anchor="middle" x="298.9">May</text></g><g><rect fill-opacity="0.004" y="10" x="324.5" height="355" width="49.6" fill="#fff"></rect><text stroke="none" y="381.5" text-anchor="middle" x="349.2">Jun</text></g><g><rect fill-opacity="0.004" y="10" x="374" height="355" width="51.2" fill="#fff"></rect><text stroke="none" y="381.5" text-anchor="middle" x="399.6">Jul</text></g><g><rect fill-opacity="0.004" y="10" x="425.2" height="355" width="51.2" fill="#fff"></rect><text stroke="none" y="381.5" text-anchor="middle" x="450.8">Aug</text></g><g><rect fill-opacity="0.004" y="10" x="476.4" height="355" width="49.6" fill="#fff"></rect><text stroke="none" y="381.5" text-anchor="middle" x="501.2">Sep</text></g><g><rect fill-opacity="0.004" y="10" x="526" height="355" width="51.2" fill="#fff"></rect><text stroke="none" y="381.5" text-anchor="middle" x="551.6">Oct</text></g><g><rect fill-opacity="0.004" y="10" x="577.2" height="355" width="49.6" fill="#fff"></rect><text stroke="none" y="381.5" text-anchor="middle" x="602">Nov</text></g><g><rect fill-opacity="0.004" y="10" x="626.8" height="355" width="51.2" fill="#fff"></rect><text stroke="none" y="381.5" text-anchor="middle" x="652.4">Dec</text></g><g stroke="none" fill="#666"><text y="370.2" text-anchor="end" x="71">0</text><text y="370.2" x="682">0</text><text y="340.6" text-anchor="end" x="71">2</text><text y="340.6" x="682">2</text><text y="311" text-anchor="end" x="71">4</text><text y="311" x="682">4</text><text y="281.4" text-anchor="end" x="71">6</text><text y="281.4" x="682">6</text><text y="251.9" text-anchor="end" x="71">8</text><text y="251.9" x="682">8</text><text y="222.3" text-anchor="end" x="71">10</text><text y="222.3" x="682">10</text><text y="192.7" text-anchor="end" x="71">12</text><text y="192.7" x="682">12</text><text y="163.1" text-anchor="end" x="71">14</text><text y="163.1" x="682">14</text><text y="133.5" text-anchor="end" x="71">16</text><text y="133.5" x="682">16</text><text y="103.9" text-anchor="end" x="71">18</text><text y="103.9" x="682">18</text><text y="74.4" text-anchor="end" x="71">20</text><text y="74.4" x="682">20</text><text y="44.8" text-anchor="end" x="71">22</text><text y="44.8" x="682">22</text><text y="15.2" text-anchor="end" x="71">0</text><text y="15.2" x="682">0</text></g><g font-family="sans-serif" text-decoration="none" font-style="normal" font-size="15" font-weight="normal"><text font-family="sans-serif" stroke="none" opacity="0.8" y="72.9" text-decoration="none" text-anchor="middle" x="584" font-style="normal" font-size="15" fill="#fff" font-weight="normal">24°-28°</text></g><g font-family="sans-serif" text-decoration="none" font-style="normal" font-size="15" font-weight="normal"><text font-family="sans-serif" stroke="none" opacity="0.8" y="282.1" text-decoration="none" text-anchor="middle" x="421.6" font-style="normal" font-size="15" fill="#fff" font-weight="normal">24°-28°</text></g><g font-family="sans-serif" text-decoration="none" font-style="normal" font-size="15" font-weight="normal"><text font-family="sans-serif" stroke="none" opacity="0.8" y="154.3" text-decoration="none" text-anchor="middle" x="289.3" font-style="normal" font-size="15" fill="#fff" font-weight="normal">29°-34°</text></g><g font-family="sans-serif" text-decoration="none" font-style="normal" font-size="15" font-weight="normal"><text font-family="sans-serif" stroke="none" opacity="0.8" y="281.3" text-decoration="none" text-anchor="middle" x="121.8" font-style="normal" font-size="15" fill="#fff" font-weight="normal">18°-23°</text></g></svg>