<svg font-family="sans-serif" viewBox="0 0 753 387" xmlns:xlink="http://www.w3.org/1999/xlink" text-decoration="none" font-style="normal" width="753px" xmlns="http://www.w3.org/2000/svg" font-size="15" version="1.1" font-weight="normal" height="387px"><title>Average Hourly Temperature in Kathmandu</title><defs><clipPath id="plot-sample-bounds-0"><rect y="0" x="75.8" height="365" width="601.3"></rect></clipPath><clipPath id="plot-sample-bounds-scaled-0"><rect y="0" x="758.3" height="3650" width="6013.5"></rect></clipPath></defs><g transform="scale(0.1)"><path fill-opacity="1.000" stroke-width="10" stroke="#5ca0b4" d="" fill="#5ca0b4" stroke-opacity="1.0"></path><path fill-opacity="1.000" stroke-width="10" stroke="#83c2d5" d="" fill="#83c2d5" stroke-opacity="1.0"></path><path fill-opacity="1.000" stroke-width="10" stroke="#679568" d="M758,243l0,0l17,3l16,3l17,4l16,1l17,3l16,0l17,0l16,-1l17,-2l16,-6l17,-8l17,-9l16,-10l17,-9l16,-1l17,-9l16,-10l17,-12l11,-6l5,-4l17,-20l16,-16l17,-18l13,-16l-377,0ZM6632,100l8,12l16,19l17,24l13,19l3,3l17,10l16,15l17,13l16,9l17,10l0,-134ZM758,3650l377,0l3,-4l17,-17l16,-20l17,-22l10,-11l6,-8l17,-20l16,-23l17,-23l16,-17l17,-18l16,-12l17,-16l8,-11l8,-13l17,-21l17,-28l16,-20l17,-29l16,-24l8,-13l9,-15l16,-28l17,-28l16,-30l17,-33l10,-14l6,-10l17,-29l16,-40l17,-34l16,-35l17,-37l16,-43l17,-43l11,-25l5,-12l17,-45l16,-50l15,-40l-15,-22l-16,-32l-17,-28l-16,-29l-17,-37l-16,-14l-17,-12l-16,-11l-17,-14l-16,-11l-17,-12l-16,-12l-17,-12l-16,-12l-17,-11l-16,-11l-17,-12l-5,-4l-11,-7l-17,-8l-16,-6l-17,-7l-17,-5l-16,-5l-17,-4l-16,-5l-17,-5l-16,-6l-17,-6l-16,-5l-17,-6l-16,-4l-17,-6l-16,-4l-17,-4l-16,-5l-17,-5l-16,-2l-17,-4l-16,-3l-17,-2l-16,-2l-17,-3l-16,0l-17,-3l-16,-4l-17,-2l-17,-3l-16,-1l-17,0l-16,0l-17,2l-16,2l-17,1l-16,4l-17,1l-16,1l-17,2ZM6469,2393l-11,11l-17,16l-16,13l-17,16l-16,14l-17,13l-16,12l-17,14l-16,14l-17,16l-9,9l-7,19l-17,39l-16,34l-17,38l-8,18l8,61l13,86l4,12l16,45l17,48l16,43l17,41l16,41l17,36l14,30l2,6l17,44l16,51l17,41l2,6l14,34l17,28l16,35l17,32l11,19l5,12l17,37l16,22l17,26l16,34l10,17l7,10l17,25l16,24l9,15l140,0l0,-1370l-17,5l-16,3l-17,6l-16,4l-17,5l-16,6l-17,7l-16,7l-17,6l-16,7l-17,6l-17,7l-16,7l-17,5l-16,3l-17,7l-16,9l-17,9Z" fill="#679568" stroke-opacity="1.0"></path><path fill-opacity="1.000" stroke-width="10" stroke="#74a877" d="M1132,100l-10,12l-17,18l-16,16l-17,20l-11,8l-5,3l-17,12l-16,10l-17,9l-16,1l-17,9l-16,9l-17,10l-17,8l-16,6l-17,2l-16,1l-17,0l-16,0l-17,-3l-16,-2l-17,-3l-16,-3l-17,-3l0,0l0,716l0,0l17,1l16,1l17,0l16,1l17,1l16,-1l17,0l16,0l17,-1l16,-4l17,-5l17,-5l16,-5l17,-5l16,-2l17,-5l16,-7l17,-5l3,-1l13,-6l17,-7l16,-6l17,-7l16,-8l17,-8l16,-8l17,-9l16,-8l17,-10l16,-9l17,-8l16,-10l17,-8l16,-8l17,-10l16,-10l15,-8l2,-2l17,-12l16,-13l17,-15l16,-12l17,-11l16,-12l17,-13l16,-12l17,-11l16,-15l17,-14l8,-6l8,-8l17,-18l16,-15l17,-16l16,-15l17,-16l16,-15l17,-15l16,-17l13,-13l4,-5l16,-24l17,-23l16,-23l17,-25l17,-28l14,-20l2,-3l17,-27l16,-22l17,-26l16,-22l17,-21l16,-22l4,-5l13,-20l16,-26l17,-22l4,-6ZM5850,100l13,50l8,24l9,16l16,37l17,33l16,35l13,27l4,7l16,30l17,30l16,30l17,34l9,17l7,9l17,20l16,22l17,19l16,20l17,17l16,18l17,16l6,7l10,9l17,13l17,15l16,15l17,14l16,15l17,15l16,15l17,13l16,14l14,10l3,1l16,11l17,10l16,10l17,11l16,10l17,10l16,10l17,10l16,10l17,9l16,8l17,7l16,5l17,7l16,9l17,6l8,4l9,2l16,5l17,4l16,4l17,5l16,5l17,3l16,4l17,3l16,2l17,3l0,0l0,-723l-17,-10l-16,-9l-17,-13l-16,-15l-17,-10l-16,-24l-17,-24l-16,-19l-5,-7ZM758,2275l17,-2l16,-1l17,-1l16,-4l17,-1l16,-2l17,-2l16,0l17,0l16,1l17,3l17,2l16,4l17,3l16,0l17,2l16,3l17,2l16,3l17,4l16,2l17,5l16,5l17,4l16,4l17,5l16,5l17,6l16,5l17,6l16,5l17,6l16,5l17,4l16,5l17,5l17,7l16,6l17,8l9,6l7,6l17,11l16,11l17,11l16,12l17,12l16,12l17,12l16,12l17,13l16,11l17,12l15,13l1,4l17,37l16,29l17,28l16,32l12,18l-12,33l-16,50l-17,45l-8,19l-8,19l-17,43l-16,43l-17,37l-2,6l-14,30l-17,34l-16,40l-17,30l-10,14l-6,10l-17,32l-16,30l-17,28l-16,28l-11,20l-6,8l-16,25l-17,29l-16,20l-17,28l-17,21l-11,17l-5,8l-17,15l-16,12l-17,18l-16,17l-17,24l-16,22l-17,20l-10,12l-6,7l-17,23l-16,19l-17,17l-6,8l820,0l12,-16l17,-23l16,-20l14,-15l3,-3l16,-24l17,-18l16,-18l17,-21l16,-22l17,-21l16,-21l17,-26l17,-24l16,-27l17,-24l16,-24l15,-23l2,-3l16,-27l17,-30l16,-27l17,-27l16,-30l3,-4l14,-22l16,-31l17,-28l16,-29l17,-30l4,-8l12,-28l17,-34l16,-36l17,-35l5,-15l-5,-13l-17,-31l-16,-39l-17,-40l-11,-24l-5,-3l-17,-10l-16,-11l-17,-12l-16,-10l-17,-13l-16,-11l-17,-11l-16,-13l-17,-13l-16,-14l-17,-14l-15,-13l-1,-2l-17,-10l-16,-9l-17,-9l-17,-10l-16,-10l-17,-12l-16,-10l-17,-10l-16,-9l-17,-11l-16,-10l-17,-10l-16,-11l-17,-12l-4,-3l-12,-10l-17,-11l-16,-9l-17,-8l-16,-7l-17,-8l-16,-9l-17,-9l-16,-10l-17,-10l-16,-10l-17,-7l-17,-8l-16,-9l-17,-11l-15,-12l-1,-1l-17,-12l-16,-11l-17,-7l-16,-7l-17,-7l-16,-7l-17,-4l-16,-7l-17,-7l-16,-7l-17,-7l-16,-6l-17,-3l-16,-4l-17,-5l-16,-4l-17,-6l-16,-6l-17,-5l-16,-8l-17,-7l-17,-9l-2,-1l-14,-7l-17,-6l-16,-6l-17,-6l-16,-6l-17,-5l-16,-4l-17,-4l-16,-3l-17,-3l-16,-4l-17,-4l-16,-4l-17,-4l-16,-3l-17,-4l-16,-3l-17,-2l-16,-3l-17,-3l-16,-1l-17,-2l-16,-3l-17,-2l-17,-3l-16,-1l-17,0l-16,1l-17,1l-16,2l-17,1l-16,2l-17,2l-16,2l-17,2ZM6518,2097l-11,5l-16,10l-17,7l-16,9l-17,6l-16,6l-17,5l-16,4l-17,4l-16,7l-17,6l-16,7l-17,8l-16,7l-17,6l-16,6l-17,7l-16,9l-17,9l-16,11l-14,9l-3,2l-17,12l-16,8l-17,8l-16,8l-17,9l-16,10l-17,11l-16,11l-17,11l-16,11l-17,12l-16,9l-17,10l-16,12l-5,4l-12,9l-16,14l-17,13l-16,14l-17,14l-16,14l-17,16l-16,15l-17,15l-16,14l-11,10l-6,10l-17,26l-16,24l-17,24l-16,24l-17,26l-9,14l-7,126l-1,21l1,8l16,94l9,46l8,33l16,64l14,51l3,13l16,77l14,58l3,12l17,71l16,65l17,71l16,77l17,62l3,12l785,0l-12,-20l-16,-24l-17,-25l-3,-5l-14,-23l-16,-34l-17,-27l-16,-20l-17,-38l-2,-6l-14,-24l-17,-31l-16,-36l-17,-28l-12,-29l-4,-12l-17,-41l-16,-52l-17,-43l-16,-35l-17,-36l-16,-41l-15,-36l-2,-5l-16,-44l-17,-47l-16,-46l-2,-6l-15,-98l-7,-49l7,-15l17,-37l16,-34l17,-39l9,-23l7,-7l17,-16l16,-15l17,-13l16,-13l17,-13l16,-14l17,-15l16,-13l17,-17l13,-12l3,-3l17,-9l16,-9l17,-7l16,-3l17,-5l16,-7l17,-7l17,-6l16,-7l17,-6l16,-7l17,-7l16,-6l17,-5l16,-4l17,-6l16,-3l17,-5l0,-260l-17,3l-16,3l-17,5l-16,3l-17,4l-16,4l-17,5l-16,5l-17,4l-16,5l-17,5l-17,6l-16,7l-17,8l-16,5Z" fill="#74a877" stroke-opacity="1.0"></path><path fill-opacity="1.000" stroke-width="10" stroke="#8dbf71" d="M1950,100l-2,3l-17,23l-16,25l-15,23l-2,3l-16,21l-17,22l-16,21l-17,26l-16,23l-17,26l-4,6l-12,18l-17,28l-17,24l-16,23l-17,23l-16,24l-6,8l-11,11l-16,17l-17,15l-16,16l-17,15l-16,15l-17,16l-16,15l-17,18l-10,10l-6,5l-17,13l-16,15l-17,12l-16,11l-17,14l-16,11l-17,12l-16,11l-17,15l-16,13l-17,12l-5,4l-12,7l-16,9l-17,10l-16,9l-17,8l-16,10l-17,7l-16,9l-17,11l-16,8l-17,9l-16,7l-17,9l-16,8l-17,7l-16,6l-17,6l-16,8l-17,5l-16,6l-17,6l-16,1l-17,6l-16,5l-17,4l-17,5l-16,4l-17,2l-16,0l-17,0l-16,0l-17,0l-16,-1l-17,-1l-16,0l-17,-2l0,1061l0,0l17,-3l16,-1l17,-2l16,-2l17,-1l16,-2l17,-1l16,-1l17,0l16,1l17,3l17,2l16,2l17,3l16,0l17,4l16,2l17,3l16,3l17,3l16,4l17,4l16,4l17,4l16,3l17,4l16,3l17,4l16,4l17,5l16,6l17,6l16,6l17,6l12,6l4,2l17,9l17,7l16,8l17,5l16,6l17,6l16,4l17,4l16,4l17,4l16,6l17,7l16,7l17,7l16,6l17,5l16,6l17,8l16,6l17,8l16,11l17,12l16,14l17,10l16,8l17,9l17,7l16,10l17,9l16,10l17,9l16,10l17,8l16,7l17,8l16,9l17,11l11,9l5,4l17,12l16,11l17,10l16,10l17,11l16,9l17,10l16,10l17,12l16,10l17,10l17,9l16,9l17,11l16,14l17,14l16,14l17,13l16,13l17,12l16,11l17,12l16,10l17,12l16,11l17,10l2,2l14,29l17,40l16,38l17,31l4,9l-4,10l-17,35l-16,37l-17,33l-14,33l-2,4l-17,31l-16,28l-17,28l-16,31l-17,26l-16,31l-17,26l-16,27l-17,30l-16,27l-5,7l-12,20l-16,24l-17,23l-16,27l-17,25l-17,26l-2,3l-14,18l-17,21l-16,21l-17,22l-16,18l-17,18l-16,24l-6,6l-11,12l-16,20l-17,23l-14,19l804,0l3,-2l17,-15l16,-14l17,-15l16,-18l14,-10l3,-3l16,-21l17,-17l16,-22l17,-18l16,-22l17,-23l14,-22l2,-4l17,-22l17,-26l16,-26l17,-29l16,-27l8,-14l9,-16l16,-37l17,-40l16,-38l8,-17l9,-27l16,-65l17,-56l16,-74l17,-74l-17,-49l-16,-49l-17,-38l-5,-11l-11,-7l-17,-7l-16,-8l-17,-9l-16,-8l-17,-9l-16,-8l-17,-7l-16,-9l-17,-9l-17,-9l-16,-8l-17,-8l-16,-9l-17,-8l-16,-7l-17,-8l-16,-8l-5,-2l-12,-6l-16,-8l-17,-7l-16,-8l-17,-7l-16,-8l-17,-7l-16,-8l-17,-8l-16,-7l-17,-7l-16,-6l-17,-8l-16,-7l-17,-7l-16,-8l-17,-7l-17,-9l-16,-9l-10,-6l-7,-5l-16,-9l-17,-8l-16,-7l-17,-6l-16,-6l-17,-7l-16,-7l-17,-9l-16,-9l-17,-9l-16,-8l-17,-8l-16,-7l-17,-6l-16,-6l-17,-9l-16,-10l-17,-11l-2,-1l-14,-10l-17,-9l-16,-9l-17,-9l-17,-7l-16,-6l-17,-8l-16,-8l-17,-8l-16,-8l-17,-7l-16,-7l-17,-6l-16,-6l-17,-8l-16,-9l-17,-10l-16,-11l-3,-2l-14,-10l-16,-10l-17,-9l-16,-8l-17,-10l-16,-11l-17,-10l-16,-10l-17,-10l-17,-10l-16,-9l-17,-7l-16,-8l-17,-9l-16,-10l-10,-7l-7,-6l-16,-14l-17,-14l-16,-13l-17,-14l-16,-12l-17,-13l-16,-12l-17,-12l-16,-12l-17,-9l-16,-10l-10,-7l-7,-8l-16,-15l-17,-14l-16,-14l-17,-15l-16,-15l-17,-13l-17,-12l-16,-12l-17,-10l-16,-12l-11,-8l-6,-8l-16,-25l-17,-23l-16,-18l-17,-26l-16,-17l-17,-19l-12,-12l12,-20l17,-34l16,-30l17,-44l12,-20l4,-2l17,-9l16,-11l17,-11l16,-10l17,-9l16,-12l17,-12l17,-12l16,-15l17,-14l16,-13l17,-12l8,-6l8,-5l17,-13l16,-10l17,-10l16,-15l17,-12l16,-14l17,-14l16,-15l17,-14l16,-15l11,-11l6,-3l16,-11l17,-11l16,-10l17,-11l16,-11l17,-10l16,-11l17,-11l17,-13l16,-11l17,-12l16,-10l17,-12l16,-14l17,-14l16,-12l17,-13l16,-15l17,-15l16,-13l17,-12l16,-13l17,-14l16,-9l7,-4l10,-9l16,-13l17,-13l16,-15l17,-14l16,-15l17,-16l17,-15l16,-13l17,-14l12,-11l4,-4l17,-17l16,-15l17,-15l16,-15l17,-13l16,-14l17,-16l16,-17l17,-15l8,-7l8,-9l17,-16l16,-15l17,-15l16,-15l17,-17l16,-18l17,-15l16,-17l11,-11l6,-7l16,-19l17,-17l17,-17l16,-18l17,-16l16,-16l17,-13l16,-12l14,-13l3,-2l16,-17l17,-16l16,-14l17,-13l13,-12ZM5312,100l6,44l4,30l12,36l17,53l16,49l4,10l13,38l17,53l16,43l5,14l12,24l16,28l17,32l16,31l17,27l3,6l13,15l17,20l16,20l17,20l16,20l17,21l16,21l9,11l8,6l16,17l17,16l16,15l17,16l16,16l17,17l16,14l17,14l17,15l1,2l15,10l17,11l16,12l17,12l16,12l17,11l16,11l17,11l16,11l17,11l16,12l17,13l14,10l2,2l17,10l16,10l17,10l16,10l17,10l16,9l17,8l16,9l17,9l16,8l17,7l17,8l16,8l17,8l16,8l17,8l12,6l4,3l17,9l16,8l17,8l16,7l17,8l16,8l17,9l16,8l17,6l16,8l17,9l16,8l17,7l16,8l17,8l16,8l17,9l16,7l6,2l11,18l17,21l16,25l17,21l16,18l17,27l16,18l-16,15l-17,23l-16,17l-17,23l-16,22l-17,23l-17,25l-16,12l-17,15l-16,11l-17,12l-16,12l-17,14l-16,18l-17,16l-16,15l-17,13l-12,10l-4,3l-17,12l-16,11l-17,11l-16,11l-17,11l-16,12l-17,12l-16,13l-17,14l-16,12l-17,12l-16,14l-17,10l-17,9l-16,8l-17,6l-16,9l-17,8l-16,9l-17,9l-16,10l-17,11l-16,11l-17,10l-16,10l-17,9l-16,9l-15,10l-2,1l-16,13l-17,8l-16,8l-17,8l-16,7l-17,8l-16,11l-17,9l-16,10l-17,10l-17,9l-16,8l-17,7l-16,10l-17,12l-12,9l-4,3l-17,11l-16,10l-17,12l-16,12l-17,13l-16,12l-17,12l-16,12l-17,11l-16,12l-17,12l-16,12l-5,4l-12,11l-16,15l-17,18l-16,15l-17,18l-17,17l-16,16l-17,18l-16,15l-6,5l-11,12l-16,19l-17,20l-16,19l-17,20l-16,18l-17,18l-16,17l-4,5l-13,98l-6,49l6,45l13,103l4,23l16,83l9,42l8,37l16,70l11,41l6,25l16,66l13,57l4,25l16,111l2,12l9,74l539,0l-4,-18l-15,-56l-2,-7l-16,-77l-15,-64l-2,-6l-16,-65l-17,-71l-2,-6l-15,-64l-16,-77l-2,-7l-15,-57l-16,-63l-7,-28l-10,-54l-16,-94l9,-147l7,-12l17,-26l16,-24l17,-24l16,-24l17,-26l8,-12l9,-9l16,-14l17,-15l16,-15l17,-15l16,-15l17,-14l16,-13l17,-13l16,-15l14,-10l3,-3l16,-12l17,-10l16,-9l17,-12l16,-11l17,-11l16,-12l17,-10l16,-10l17,-9l16,-8l17,-8l16,-8l17,-12l5,-3l12,-8l16,-11l17,-9l16,-9l17,-7l16,-6l17,-6l16,-7l17,-8l16,-7l17,-6l16,-7l17,-5l16,-4l17,-5l16,-5l17,-6l16,-9l17,-7l16,-9l13,-7l4,-2l16,-6l17,-8l16,-7l17,-6l17,-5l16,-5l17,-4l16,-5l17,-5l16,-4l17,-4l16,-4l17,-4l16,-4l17,-3l0,-1069l-17,-2l-16,-3l-17,-2l-16,-4l-17,-3l-16,-5l-17,-5l-16,-4l-17,-4l-16,-5l-5,-1l-12,-5l-17,-7l-16,-8l-17,-7l-16,-5l-17,-8l-16,-8l-17,-9l-16,-10l-17,-10l-16,-10l-17,-10l-16,-10l-17,-10l-16,-11l-17,-10l-16,-10l-17,-11l-16,-15l-17,-13l-16,-15l-17,-15l-16,-15l-17,-14l-16,-15l-17,-15l-17,-13l-8,-7l-8,-9l-17,-16l-16,-19l-17,-16l-16,-20l-17,-20l-16,-21l-17,-20l-5,-7l-11,-20l-17,-34l-16,-30l-17,-31l-16,-30l-2,-3l-15,-30l-16,-36l-17,-33l-16,-37l-7,-12l-10,-30l-12,-44Z" fill="#8dbf71" stroke-opacity="1.0"></path><path fill-opacity="1.000" stroke-width="10" stroke="#e9cc77" d="M2752,100l-11,10l-17,13l-16,13l-17,17l-16,16l-6,5l-11,10l-16,13l-17,12l-16,17l-17,16l-16,18l-17,17l-17,17l-16,18l-8,10l-9,8l-16,18l-17,15l-16,18l-17,17l-16,15l-17,15l-16,15l-17,16l-10,11l-6,5l-17,15l-16,18l-17,15l-16,14l-17,13l-16,15l-17,15l-16,16l-17,16l-5,6l-11,10l-17,13l-16,14l-17,15l-17,15l-16,15l-17,15l-16,14l-17,14l-16,13l-13,10l-4,3l-16,9l-17,13l-16,13l-17,13l-16,13l-17,14l-16,15l-17,14l-16,12l-17,13l-16,14l-2,2l-15,11l-16,10l-17,12l-16,11l-17,13l-17,11l-16,11l-17,10l-16,11l-17,11l-16,10l-17,11l-16,11l-7,4l-10,9l-16,16l-17,14l-16,15l-17,14l-16,13l-17,12l-16,15l-17,10l-16,11l-17,13l-11,6l-5,4l-17,12l-16,13l-17,14l-16,15l-17,12l-17,12l-16,12l-17,9l-16,10l-17,11l-16,11l-17,10l-8,3l-8,14l-17,43l-16,31l-17,33l-16,27l16,16l17,19l16,17l17,26l16,18l17,23l16,25l3,4l14,10l16,12l17,10l16,12l17,12l17,13l16,15l17,15l16,14l17,14l16,15l6,6l11,8l16,11l17,8l16,12l17,13l16,11l17,14l16,11l17,14l16,13l17,14l16,15l5,4l12,8l16,10l17,9l16,8l17,7l16,9l17,10l17,10l16,10l17,10l16,10l17,11l16,8l17,9l16,10l12,9l5,3l16,11l17,10l16,9l17,7l16,7l17,6l16,7l17,7l16,8l17,7l16,9l17,8l16,6l17,7l17,8l16,10l17,9l13,9l3,2l17,12l16,9l17,9l16,6l17,6l16,7l17,8l16,8l17,9l16,9l17,8l16,8l17,6l16,7l17,6l16,7l17,8l16,9l5,4l12,7l16,9l17,9l17,7l16,8l17,7l16,7l17,8l16,6l17,7l16,7l17,8l16,8l17,7l16,8l17,7l16,8l17,7l16,8l10,5l7,3l16,8l17,8l16,7l17,8l16,9l17,8l16,8l17,9l17,9l16,9l17,8l16,7l17,10l16,8l17,8l16,8l17,8l9,5l7,17l17,38l16,49l15,43l-15,65l-16,74l-3,9l-14,47l-16,64l-11,37l-6,11l-16,39l-17,40l-16,37l-11,21l-6,9l-16,27l-17,29l-16,27l-17,26l-17,22l-4,8l-12,19l-17,22l-16,22l-17,18l-16,22l-17,18l-16,20l-7,7l-10,8l-16,17l-17,15l-16,14l-17,15l-5,5l2562,0l-9,-74l-4,-25l-16,-111l-2,-12l-15,-66l-16,-65l-4,-17l-13,-49l-16,-71l-6,-28l-11,-53l-16,-83l-2,-12l-15,-118l-4,-30l4,-32l15,-115l2,-3l16,-17l17,-17l16,-19l17,-19l16,-20l17,-20l16,-19l13,-14l4,-3l16,-16l17,-18l16,-16l17,-16l17,-18l16,-16l17,-17l16,-16l14,-12l3,-3l16,-12l17,-12l16,-12l17,-11l16,-12l17,-12l16,-12l17,-13l16,-12l17,-12l16,-10l17,-11l6,-4l10,-8l17,-12l16,-10l17,-7l16,-8l17,-9l17,-10l16,-10l17,-10l16,-10l17,-9l16,-6l17,-8l16,-8l17,-8l16,-13l3,-2l14,-9l16,-9l17,-9l16,-10l17,-10l16,-11l17,-11l16,-10l17,-9l16,-9l17,-8l16,-9l17,-7l16,-7l17,-9l17,-10l1,-1l15,-12l17,-13l16,-12l17,-14l16,-13l17,-11l16,-12l17,-12l16,-10l17,-12l16,-11l17,-12l7,-4l9,-8l17,-13l16,-15l17,-16l16,-18l17,-14l16,-12l17,-13l16,-11l17,-14l16,-12l3,-2l14,-20l17,-24l16,-22l17,-23l16,-17l17,-23l16,-15l4,-4l-4,-4l-16,-19l-17,-26l-16,-18l-17,-22l-16,-24l-17,-22l-8,-13l-9,-4l-16,-7l-17,-9l-16,-8l-17,-8l-16,-7l-17,-7l-16,-8l-17,-9l-16,-8l-17,-6l-16,-9l-17,-8l-16,-8l-17,-8l-16,-7l-17,-9l-16,-7l-17,-9l-2,-2l-14,-7l-17,-8l-16,-8l-17,-8l-16,-8l-17,-8l-17,-8l-16,-7l-17,-9l-16,-9l-17,-9l-16,-8l-17,-10l-16,-10l-17,-10l-16,-10l-17,-11l-16,-11l-17,-13l-16,-12l-17,-11l-16,-12l-17,-10l-16,-12l-17,-10l-16,-12l-17,-12l-16,-12l-17,-12l-13,-8l-3,-4l-17,-15l-17,-14l-16,-14l-17,-16l-16,-17l-17,-16l-16,-15l-17,-15l-16,-17l-6,-5l-11,-13l-16,-21l-17,-21l-16,-20l-17,-20l-16,-20l-17,-20l-11,-13l-5,-9l-17,-28l-16,-30l-17,-32l-16,-28l-11,-21l-6,-18l-16,-44l-17,-53l-12,-33l-5,-15l-16,-49l-17,-53l-11,-31l-5,-44l-4,-30ZM3088,766l16,-7l17,-8l16,-4l17,-10l16,-8l17,-8l16,-5l17,-5l16,-7l17,-7l16,-5l17,-4l16,-3l17,-4l16,-3l17,-3l17,-1l16,0l17,-3l16,-2l17,-2l16,1l17,-2l16,3l17,3l16,3l17,3l16,7l17,1l16,6l17,0l16,4l17,6l16,6l17,7l16,7l17,7l16,5l17,6l16,10l17,9l11,7l6,2l16,7l17,5l16,6l17,5l16,5l17,3l16,7l17,6l16,6l17,3l16,5l17,6l16,4l17,4l16,4l17,4l16,4l17,4l16,5l17,2l16,2l17,3l16,0l17,0l17,3l16,3l17,3l16,2l17,0l16,0l17,0l16,0l17,3l16,3l17,1l16,2l17,3l16,0l17,0l16,3l17,0l16,0l17,0l16,3l17,0l16,3l17,0l17,5l16,3l17,6l16,2l17,2l16,4l17,4l16,4l17,3l16,2l17,2l16,4l17,3l16,4l17,5l16,3l17,2l16,4l17,3l16,2l17,4l16,7l17,4l16,2l17,4l17,7l16,4l17,5l16,4l17,2l16,5l17,3l16,4l17,4l16,5l17,7l16,4l17,6l16,2l17,8l11,3l5,2l17,8l16,8l17,9l16,5l17,7l16,10l17,8l16,9l17,9l17,10l16,9l17,8l16,11l17,10l16,10l17,8l13,7l3,2l17,11l16,12l17,10l16,13l17,12l16,12l17,10l16,12l17,11l16,13l17,11l16,12l12,7l5,7l16,24l17,21l17,24l16,24l17,24l16,24l-10,148l-6,11l-17,25l-16,31l-17,28l-17,26l-14,27l-2,2l-17,12l-16,16l-17,13l-16,15l-17,13l-16,15l-17,16l-16,12l-17,15l-16,15l-5,4l-12,6l-16,7l-17,10l-16,8l-17,8l-16,9l-17,10l-16,9l-17,8l-16,8l-17,10l-17,8l-16,10l-17,9l-16,9l-17,7l-16,7l-10,5l-7,2l-16,7l-17,7l-16,7l-17,6l-16,6l-17,4l-16,7l-17,7l-16,6l-17,5l-16,4l-17,5l-16,5l-17,5l-16,4l-17,5l-16,5l-17,6l-17,3l-16,5l-17,4l-16,4l-17,5l-16,3l-17,4l-16,3l-17,1l-16,3l-17,3l-16,5l-9,2l-8,1l-16,4l-17,3l-16,2l-17,3l-16,5l-17,3l-16,0l-17,4l-16,2l-17,5l-16,3l-17,3l-17,3l-16,1l-17,-1l-16,0l-17,1l-16,1l-17,2l-16,0l-17,1l-16,2l-17,1l-16,1l-17,2l-16,3l-17,0l-16,2l-17,1l-16,0l-17,-1l-16,0l-17,0l-16,1l-17,0l-17,-2l-16,1l-17,-1l-16,0l-17,-1l-16,-1l-17,0l-16,0l-17,0l-16,1l-17,2l-16,2l-17,1l-16,3l-17,2l-16,5l-17,3l-16,0l-17,1l-16,4l-17,1l-16,1l-17,3l-16,3l-17,4l-17,5l-16,3l-17,3l-16,2l-17,0l-16,3l-17,3l-16,0l-17,3l-16,0l-17,1l-16,-1l-17,-2l-16,-2l-17,1l-16,-1l-17,-1l-16,0l-17,-3l-16,-3l-17,-5l-16,-6l-17,-4l-16,-2l-17,-2l-17,-4l-16,-3l-17,-4l-16,-4l-17,-5l-16,-5l-17,-5l-16,-4l-17,-5l-16,-4l-17,-5l-16,-6l-17,-5l-16,-3l-17,-5l-16,-5l-17,-5l-16,-5l-17,-5l-16,-5l-17,-7l-16,-5l-17,-8l-17,-6l-16,-5l-17,-3l-16,-3l-17,-4l-16,-3l-17,-3l-16,-4l-17,-5l-16,-4l-17,-5l-16,-7l-17,-3l-16,-5l-17,-4l-16,-6l-17,-6l-16,-4l-17,-4l-16,-3l-17,-4l-16,-4l-17,-4l-16,-5l-17,-6l-17,-8l-16,-8l-17,-8l-16,-6l-17,-8l-16,-6l-17,-7l-16,-9l-17,-9l-16,-9l-17,-9l-16,-11l-17,-9l-16,-10l-17,-8l-16,-8l-17,-6l-16,-6l-17,-10l-2,-1l-14,-13l-17,-19l-16,-15l-17,-15l-16,-17l-17,-18l-17,-16l-16,-17l-17,-16l-1,-2l-15,-30l-17,-29l-16,-33l-17,-30l-16,-26l-17,-78l-16,-70l16,-60l17,-67l8,-21l8,-6l17,-15l16,-16l17,-13l16,-16l17,-15l16,-18l17,-15l17,-15l16,-19l17,-13l16,-12l17,-15l16,-14l17,-14l16,-12l17,-11l16,-13l17,-12l16,-14l17,-12l6,-6l10,-8l17,-9l16,-14l17,-9l16,-9l17,-7l16,-12l17,-11l16,-15l17,-11l16,-14l17,-11l17,-13l8,-4l8,-3l17,-8l16,-6l17,-4l16,-3l17,-5l16,-5l17,-8l16,-6l17,-4l16,-5l17,-4l16,-6l17,-3l16,-4l17,-5l16,-3l17,-3l16,-5l17,-3l16,-4l17,-6l16,-4l17,-4l17,-7l16,-3l17,-5l16,-6l17,-5l16,-6l17,-5Z" fill="#e9cc77" stroke-opacity="1.0"></path><path fill-opacity="1.000" stroke-width="10" stroke="#c77560" d="M3082,766l-11,3l-16,6l-17,5l-16,7l-17,4l-16,4l-17,6l-17,5l-16,4l-17,5l-16,5l-17,3l-16,4l-17,3l-16,3l-17,6l-16,4l-17,3l-16,6l-17,4l-16,4l-17,5l-16,6l-17,7l-16,5l-17,5l-16,3l-17,5l-16,6l-17,7l-12,5l-4,2l-17,13l-17,11l-16,14l-17,11l-16,15l-17,11l-16,12l-17,7l-16,9l-17,9l-16,14l-17,9l-12,10l-4,4l-17,12l-16,14l-17,12l-16,13l-17,11l-16,12l-17,14l-16,14l-17,15l-16,12l-17,13l-2,2l-14,17l-17,15l-17,15l-16,18l-17,15l-16,16l-17,13l-16,16l-17,15l-11,8l-5,14l-17,67l-16,60l-2,7l2,8l16,70l15,70l2,4l16,26l17,29l16,34l17,28l13,27l3,4l17,16l16,17l17,15l17,19l16,17l17,14l16,16l17,19l12,11l4,2l17,10l16,6l17,6l16,8l17,8l16,10l17,10l16,11l17,9l16,8l17,9l16,9l17,8l16,5l17,8l16,6l17,9l14,6l2,1l17,8l17,6l16,5l17,4l16,4l17,4l16,3l17,4l16,4l17,6l16,6l17,4l16,5l17,3l16,7l17,5l16,4l17,5l16,4l17,3l16,3l17,4l16,3l17,4l16,4l17,6l17,9l16,4l17,7l16,5l12,4l5,1l16,6l17,4l16,5l17,5l16,4l17,4l16,7l17,4l16,4l17,6l16,4l17,4l16,5l17,6l16,3l17,4l16,3l17,4l17,3l16,2l17,4l16,5l17,5l16,4l17,2l16,0l17,1l16,1l17,0l16,1l17,2l16,1l17,0l16,-1l17,-2l16,-1l17,-2l16,-3l17,0l16,-2l17,-3l16,-3l17,-5l17,-4l16,-3l17,-3l16,-2l17,0l16,-4l17,-1l16,0l17,-3l16,-5l17,-2l16,-3l17,-2l16,-1l17,-2l16,-1l17,0l16,0l17,0l16,0l17,2l16,0l17,1l16,-1l17,2l17,0l16,-1l17,0l16,0l17,1l16,0l17,-2l16,-1l17,0l16,-3l17,-3l16,0l17,-1l16,-2l17,-2l16,0l17,-1l16,-1l17,-1l16,-1l17,2l16,-2l17,-2l17,-3l16,-4l17,-5l16,-2l17,-3l16,0l17,-3l16,-5l17,-4l16,-1l17,-4l16,-3l17,-3l16,-5l17,-3l16,-3l17,-2l16,-2l17,-5l16,-3l17,-4l16,-4l17,-5l16,-4l17,-3l17,-7l16,-5l17,-4l16,-5l17,-5l16,-4l17,-5l16,-5l17,-5l16,-5l17,-8l16,-7l17,-4l16,-6l17,-6l16,-7l17,-7l16,-6l10,-4l7,-3l16,-8l17,-7l16,-8l17,-10l16,-9l17,-9l17,-10l16,-8l17,-8l16,-9l17,-9l16,-10l17,-8l16,-8l17,-9l16,-8l14,-7l3,-2l16,-15l17,-15l16,-12l17,-16l16,-15l17,-13l16,-15l17,-14l16,-15l17,-13l4,-3l12,-23l17,-26l17,-29l16,-30l17,-26l8,-14l8,-118l3,-30l-3,-3l-16,-24l-17,-24l-16,-24l-17,-25l-17,-20l-16,-24l-2,-4l-15,-9l-16,-11l-17,-12l-16,-13l-17,-11l-16,-12l-17,-10l-16,-12l-17,-12l-16,-13l-17,-10l-16,-12l-17,-11l-16,-9l-17,-8l-16,-10l-17,-10l-16,-10l-17,-9l-16,-8l-17,-10l-17,-10l-16,-8l-17,-9l-16,-10l-17,-7l-16,-5l-17,-9l-16,-8l-17,-8l-16,-5l-17,-8l-16,-2l-17,-5l-16,-5l-17,-7l-16,-5l-17,-4l-16,-4l-17,-3l-16,-5l-17,-2l-16,-4l-17,-5l-16,-4l-17,-6l-17,-5l-16,-2l-17,-4l-16,-7l-17,-4l-16,-2l-17,-3l-16,-4l-17,-2l-16,-3l-17,-5l-16,-4l-17,-3l-16,-4l-17,-2l-16,-3l-17,-2l-16,-4l-17,-4l-16,-4l-17,-2l-16,-3l-17,-6l-16,-3l-17,-5l-17,0l-16,-3l-17,0l-16,-2l-17,-1l-16,0l-17,0l-16,-3l-17,0l-16,0l-17,-2l-16,-3l-17,-1l-16,-3l-17,-2l-16,0l-17,0l-16,0l-17,-1l-16,-2l-17,-3l-16,-3l-17,-3l-17,0l-16,0l-17,-3l-16,-1l-17,-3l-16,-5l-17,-4l-16,-4l-17,-4l-16,-4l-17,-4l-16,-4l-17,-5l-16,-6l-17,-3l-16,-5l-17,-6l-16,-7l-17,-3l-16,-5l-17,-6l-16,-5l-17,-5l-16,-7l-17,-10l-17,-9l-16,-10l-17,-6l-16,-5l-17,-7l-16,-7l-17,-7l-16,-6l-17,-6l-16,-4l-17,0l-16,-6l-17,-1l-16,-7l-17,-3l-16,-2l-17,-4l-16,-3l-17,2l-16,-1l-17,2l-16,3l-17,2l-16,0l-17,2l-17,2l-16,4l-17,4l-16,2l-17,4l-16,5l-17,8l-16,7l-17,5l-16,5l-17,8l-16,8l-17,9l-16,5l-17,7l-16,7Z" fill="#c77560" stroke-opacity="1.0"></path><path fill-opacity="1.000" stroke-width="10" stroke="#b05b5a" d="" fill="#b05b5a" stroke-opacity="1.0"></path><path fill-opacity="1.000" stroke-width="10" stroke="#984b44" d="" fill="#984b44" stroke-opacity="1.0"></path><path fill-opacity="0.125" stroke="none" d="" fill="#000"></path><path fill-opacity="0.251" stroke="none" d="M6772,3650l0,-958l-17,1l-16,1l-17,1l-16,1l-17,1l-16,1l-17,1l-16,1l-17,1l-16,2l-17,1l-17,1l-16,2l-17,1l-16,2l-17,1l-16,1l-17,2l-16,2l-17,1l-16,2l-17,1l-16,2l-17,2l-16,1l-17,2l-16,2l-17,2l-16,1l-17,2l-16,2l-17,2l-16,2l-17,1l-16,2l-17,2l-17,2l-16,2l-17,1l-16,2l-17,2l-16,2l-17,2l-16,1l-17,2l-16,2l-17,2l-16,2l-17,1l-16,2l-17,2l-16,2l-17,1l-16,2l-17,2l-16,1l-17,2l-16,2l-17,1l-16,2l-17,1l-17,2l-16,1l-17,2l-16,1l-17,2l-16,1l-17,2l-16,1l-17,2l-16,1l-17,2l-16,1l-17,2l-16,1l-17,1l-16,2l-17,1l-16,1l-17,2l-16,1l-17,1l-16,1l-17,2l-17,1l-16,1l-17,1l-16,2l-17,1l-16,1l-17,1l-16,1l-17,2l-16,1l-17,1l-16,1l-17,1l-16,2l-17,1l-16,1l-17,1l-16,1l-17,1l-16,1l-17,2l-16,1l-17,1l-16,1l-17,1l-17,1l-16,2l-17,1l-16,1l-17,1l-16,1l-17,2l-16,1l-17,1l-16,1l-17,1l-16,2l-17,1l-16,1l-17,1l-16,2l-17,1l-16,1l-17,2l-16,1l-17,1l-16,2l-17,1l-16,1l-17,2l-17,1l-16,1l-17,2l-16,1l-17,1l-16,2l-17,1l-16,2l-17,1l-16,2l-17,1l-16,1l-17,2l-16,1l-17,2l-16,1l-17,2l-16,1l-17,2l-16,1l-17,2l-16,1l-17,1l-17,2l-16,1l-17,2l-16,1l-17,2l-16,1l-17,2l-16,1l-17,1l-16,2l-17,1l-16,1l-17,2l-16,1l-17,1l-16,2l-17,1l-16,1l-17,1l-16,1l-17,1l-16,2l-17,1l-16,1l-17,1l-17,1l-16,1l-17,0l-16,1l-17,1l-16,1l-17,1l-16,0l-17,1l-16,0l-17,1l-16,0l-17,1l-16,0l-17,1l-16,0l-17,0l-16,0l-17,1l-16,0l-17,0l-16,0l-17,-1l-16,0l-17,0l-17,0l-16,0l-17,-1l-16,0l-17,-1l-16,0l-17,-1l-16,-1l-17,0l-16,-1l-17,-1l-16,-1l-17,-1l-16,-1l-17,-1l-16,-1l-17,-1l-16,-1l-17,-2l-16,-1l-17,-1l-16,-2l-17,-1l-17,-2l-16,-2l-17,-1l-16,-2l-17,-2l-16,-1l-17,-2l-16,-2l-17,-2l-16,-2l-17,-2l-16,-2l-17,-2l-16,-2l-17,-3l-16,-2l-17,-2l-16,-2l-17,-3l-16,-2l-17,-2l-16,-3l-17,-2l-16,-3l-17,-2l-17,-3l-16,-2l-17,-3l-16,-2l-17,-3l-16,-3l-17,-2l-16,-3l-17,-3l-16,-2l-17,-3l-16,-3l-17,-2l-16,-3l-17,-3l-16,-3l-17,-3l-16,-2l-17,-3l-16,-3l-17,-3l-16,-3l-17,-2l-16,-3l-17,-3l-17,-3l-16,-3l-17,-3l-16,-2l-17,-3l-16,-3l-17,-3l-16,-2l-17,-3l-16,-3l-17,-3l-16,-2l-17,-3l-16,-3l-17,-2l-16,-3l-17,-3l-16,-2l-17,-3l-16,-3l-17,-2l-16,-3l-17,-2l-17,-2l-16,-3l-17,-2l-16,-3l-17,-2l-16,-2l-17,-3l-16,-2l-17,-2l-16,-2l-17,-2l-16,-2l-17,-2l-16,-2l-17,-2l-16,-2l-17,-2l-16,-2l-17,-2l-16,-1l-17,-2l-16,-2l-17,-1l-16,-2l-17,-1l-17,-2l-16,-1l-17,-1l-16,-2l-17,-1l-16,-1l-17,-1l-16,-1l-17,-1l-16,-1l-17,-1l-16,0l-17,-1l-16,-1l-17,0l-16,-1l-17,0l-16,-1l-17,0l-16,0l-17,-1l-16,0l-17,0l-16,0l-17,0l-17,0l-16,0l-17,1l-16,0l-17,0l-16,1l-17,0l-16,1l-17,0l-16,1l-17,1l0,958Z" fill="#000"></path><path fill-opacity="0.125" stroke="none" d="M758,2692l17,-1l16,-1l17,0l16,-1l17,0l16,-1l17,0l16,0l17,-1l16,0l17,0l17,0l16,0l17,0l16,0l17,1l16,0l17,0l16,1l17,0l16,1l17,0l16,1l17,1l16,0l17,1l16,1l17,1l16,1l17,1l16,1l17,1l16,2l17,1l16,1l17,2l17,1l16,2l17,1l16,2l17,2l16,1l17,2l16,2l17,2l16,2l17,2l16,2l17,2l16,2l17,2l16,2l17,2l16,2l17,3l16,2l17,2l16,3l17,2l16,3l17,2l17,2l16,3l17,2l16,3l17,3l16,2l17,3l16,3l17,2l16,3l17,3l16,2l17,3l16,3l17,3l16,2l17,3l16,3l17,3l16,2l17,3l16,3l17,3l17,3l16,3l17,2l16,3l17,3l16,3l17,3l16,2l17,3l16,3l17,3l16,3l17,2l16,3l17,3l16,2l17,3l16,3l17,2l16,3l17,3l16,2l17,3l16,2l17,3l17,2l16,3l17,2l16,3l17,2l16,2l17,3l16,2l17,2l16,2l17,3l16,2l17,2l16,2l17,2l16,2l17,2l16,2l17,2l16,1l17,2l16,2l17,1l16,2l17,2l17,1l16,2l17,1l16,1l17,2l16,1l17,1l16,1l17,1l16,1l17,1l16,1l17,1l16,1l17,0l16,1l17,1l16,0l17,1l16,0l17,1l16,0l17,0l17,0l16,0l17,1l16,0l17,0l16,0l17,-1l16,0l17,0l16,0l17,-1l16,0l17,-1l16,0l17,-1l16,0l17,-1l16,0l17,-1l16,-1l17,-1l16,-1l17,0l16,-1l17,-1l17,-1l16,-1l17,-1l16,-2l17,-1l16,-1l17,-1l16,-1l17,-1l16,-2l17,-1l16,-1l17,-2l16,-1l17,-1l16,-2l17,-1l16,-1l17,-2l16,-1l17,-2l16,-1l17,-2l16,-1l17,-2l17,-1l16,-1l17,-2l16,-1l17,-2l16,-1l17,-2l16,-1l17,-2l16,-1l17,-2l16,-1l17,-1l16,-2l17,-1l16,-2l17,-1l16,-2l17,-1l16,-1l17,-2l16,-1l17,-1l17,-2l16,-1l17,-1l16,-2l17,-1l16,-1l17,-2l16,-1l17,-1l16,-2l17,-1l16,-1l17,-1l16,-2l17,-1l16,-1l17,-1l16,-1l17,-2l16,-1l17,-1l16,-1l17,-1l16,-2l17,-1l17,-1l16,-1l17,-1l16,-1l17,-2l16,-1l17,-1l16,-1l17,-1l16,-1l17,-1l16,-2l17,-1l16,-1l17,-1l16,-1l17,-2l16,-1l17,-1l16,-1l17,-1l16,-2l17,-1l16,-1l17,-1l17,-2l16,-1l17,-1l16,-1l17,-2l16,-1l17,-1l16,-2l17,-1l16,-1l17,-2l16,-1l17,-2l16,-1l17,-2l16,-1l17,-2l16,-1l17,-2l16,-1l17,-2l16,-1l17,-2l17,-1l16,-2l17,-1l16,-2l17,-2l16,-1l17,-2l16,-2l17,-1l16,-2l17,-2l16,-2l17,-1l16,-2l17,-2l16,-2l17,-2l16,-1l17,-2l16,-2l17,-2l16,-2l17,-1l16,-2l17,-2l17,-2l16,-2l17,-1l16,-2l17,-2l16,-2l17,-2l16,-1l17,-2l16,-2l17,-2l16,-1l17,-2l16,-2l17,-1l16,-2l17,-1l16,-2l17,-2l16,-1l17,-1l16,-2l17,-1l16,-2l17,-1l17,-1l16,-2l17,-1l16,-1l17,-1l16,-1l17,-1l16,-1l17,-1l16,-1l17,-1l0,-63l-17,1l-16,1l-17,1l-16,1l-17,1l-16,1l-17,1l-16,1l-17,1l-16,1l-17,2l-17,1l-16,1l-17,2l-16,1l-17,2l-16,1l-17,2l-16,1l-17,2l-16,2l-17,1l-16,2l-17,2l-16,2l-17,1l-16,2l-17,2l-16,2l-17,2l-16,2l-17,1l-16,2l-17,2l-16,2l-17,2l-17,2l-16,2l-17,2l-16,2l-17,2l-16,2l-17,1l-16,2l-17,2l-16,2l-17,2l-16,2l-17,2l-16,2l-17,1l-16,2l-17,2l-16,2l-17,2l-16,1l-17,2l-16,2l-17,2l-16,1l-17,2l-17,2l-16,1l-17,2l-16,2l-17,1l-16,2l-17,1l-16,2l-17,1l-16,2l-17,1l-16,2l-17,1l-16,2l-17,1l-16,2l-17,1l-16,1l-17,2l-16,1l-17,1l-16,2l-17,1l-17,1l-16,1l-17,2l-16,1l-17,1l-16,1l-17,2l-16,1l-17,1l-16,1l-17,1l-16,2l-17,1l-16,1l-17,1l-16,1l-17,1l-16,2l-17,1l-16,1l-17,1l-16,1l-17,1l-16,1l-17,1l-17,2l-16,1l-17,1l-16,1l-17,1l-16,1l-17,1l-16,1l-17,2l-16,1l-17,1l-16,1l-17,1l-16,1l-17,1l-16,2l-17,1l-16,1l-17,1l-16,1l-17,2l-16,1l-17,1l-16,1l-17,2l-17,1l-16,1l-17,1l-16,2l-17,1l-16,1l-17,1l-16,2l-17,1l-16,1l-17,2l-16,1l-17,1l-16,2l-17,1l-16,1l-17,1l-16,2l-17,1l-16,1l-17,2l-16,1l-17,1l-17,2l-16,1l-17,1l-16,2l-17,1l-16,1l-17,2l-16,1l-17,1l-16,1l-17,2l-16,1l-17,1l-16,1l-17,2l-16,1l-17,1l-16,1l-17,1l-16,1l-17,1l-16,1l-17,1l-16,1l-17,1l-17,1l-16,1l-17,1l-16,1l-17,0l-16,1l-17,1l-16,1l-17,0l-16,1l-17,0l-16,1l-17,0l-16,1l-17,0l-16,0l-17,1l-16,0l-17,0l-16,0l-17,0l-16,0l-17,0l-16,0l-17,0l-17,0l-16,0l-17,-1l-16,0l-17,-1l-16,0l-17,-1l-16,0l-17,-1l-16,0l-17,-1l-16,-1l-17,-1l-16,-1l-17,-1l-16,-1l-17,-1l-16,-1l-17,-1l-16,-1l-17,-1l-16,-2l-17,-1l-17,-2l-16,-1l-17,-1l-16,-2l-17,-2l-16,-1l-17,-2l-16,-2l-17,-2l-16,-1l-17,-2l-16,-2l-17,-2l-16,-2l-17,-2l-16,-2l-17,-2l-16,-3l-17,-2l-16,-2l-17,-2l-16,-3l-17,-2l-16,-2l-17,-3l-17,-2l-16,-2l-17,-3l-16,-2l-17,-3l-16,-2l-17,-3l-16,-3l-17,-2l-16,-3l-17,-2l-16,-3l-17,-3l-16,-3l-17,-2l-16,-3l-17,-3l-16,-2l-17,-3l-16,-3l-17,-3l-16,-2l-17,-3l-16,-3l-17,-3l-17,-3l-16,-2l-17,-3l-16,-3l-17,-3l-16,-2l-17,-3l-16,-3l-17,-3l-16,-2l-17,-3l-16,-3l-17,-3l-16,-2l-17,-3l-16,-3l-17,-2l-16,-3l-17,-3l-16,-2l-17,-3l-16,-2l-17,-3l-17,-2l-16,-3l-17,-2l-16,-3l-17,-2l-16,-2l-17,-3l-16,-2l-17,-2l-16,-3l-17,-2l-16,-2l-17,-2l-16,-2l-17,-2l-16,-2l-17,-2l-16,-2l-17,-2l-16,-2l-17,-1l-16,-2l-17,-2l-16,-1l-17,-2l-17,-2l-16,-1l-17,-1l-16,-2l-17,-1l-16,-1l-17,-1l-16,-2l-17,-1l-16,-1l-17,-1l-16,0l-17,-1l-16,-1l-17,-1l-16,0l-17,-1l-16,-1l-17,0l-16,0l-17,-1l-16,0l-17,0l-16,0l-17,0l-17,0l-16,0l-17,0l-16,0l-17,0l-16,1l-17,0l-16,1l-17,0l-16,1l-17,0Z" fill="#000"></path><path fill-opacity="0.125" stroke="none" d="M758,1086l17,-2l16,-1l17,-2l16,-2l17,-2l16,-1l17,-2l16,-2l17,-2l16,-2l17,-2l17,-2l16,-2l17,-2l16,-2l17,-2l16,-2l17,-2l16,-2l17,-2l16,-2l17,-2l16,-2l17,-2l16,-2l17,-2l16,-2l17,-2l16,-2l17,-2l16,-2l17,-2l16,-2l17,-1l16,-2l17,-2l17,-2l16,-2l17,-2l16,-2l17,-1l16,-2l17,-2l16,-2l17,-2l16,-1l17,-2l16,-2l17,-1l16,-2l17,-2l16,-1l17,-2l16,-2l17,-1l16,-2l17,-1l16,-2l17,-1l16,-2l17,-1l17,-2l16,-1l17,-2l16,-1l17,-2l16,-1l17,-2l16,-1l17,-1l16,-2l17,-1l16,-1l17,-2l16,-1l17,-1l16,-2l17,-1l16,-1l17,-2l16,-1l17,-1l16,-2l17,-1l17,-1l16,-1l17,-2l16,-1l17,-1l16,-2l17,-1l16,-1l17,-1l16,-2l17,-1l16,-1l17,-2l16,-1l17,-1l16,-2l17,-1l16,-1l17,-2l16,-1l17,-1l16,-2l17,-1l16,-1l17,-2l17,-1l16,-1l17,-2l16,-1l17,-1l16,-2l17,-1l16,-2l17,-1l16,-2l17,-1l16,-1l17,-2l16,-1l17,-2l16,-1l17,-1l16,-2l17,-1l16,-2l17,-1l16,-2l17,-1l16,-2l17,-1l17,-1l16,-2l17,-1l16,-2l17,-1l16,-2l17,-1l16,-1l17,-2l16,-1l17,-1l16,-2l17,-1l16,-1l17,-2l16,-1l17,-1l16,-1l17,-1l16,-2l17,-1l16,-1l17,-1l17,-1l16,-1l17,-1l16,-1l17,-1l16,-1l17,-1l16,0l17,-1l16,-1l17,0l16,-1l17,-1l16,0l17,-1l16,0l17,-1l16,0l17,0l16,-1l17,0l16,0l17,0l16,0l17,0l17,0l16,0l17,0l16,0l17,1l16,0l17,0l16,1l17,0l16,1l17,0l16,1l17,1l16,1l17,0l16,1l17,1l16,1l17,1l16,1l17,2l16,1l17,1l16,1l17,2l17,1l16,2l17,1l16,2l17,1l16,2l17,2l16,1l17,2l16,2l17,2l16,2l17,2l16,2l17,2l16,2l17,2l16,2l17,3l16,2l17,2l16,3l17,2l17,2l16,3l17,2l16,3l17,2l16,3l17,2l16,3l17,3l16,2l17,3l16,3l17,2l16,3l17,3l16,3l17,2l16,3l17,3l16,3l17,3l16,2l17,3l16,3l17,3l17,3l16,3l17,3l16,3l17,2l16,3l17,3l16,3l17,3l16,3l17,3l16,3l17,2l16,3l17,3l16,3l17,3l16,3l17,2l16,3l17,3l16,3l17,2l16,3l17,3l17,2l16,3l17,3l16,2l17,3l16,2l17,3l16,2l17,3l16,2l17,3l16,2l17,2l16,3l17,2l16,2l17,2l16,2l17,2l16,2l17,2l16,2l17,2l17,2l16,2l17,2l16,1l17,2l16,2l17,1l16,2l17,1l16,1l17,2l16,1l17,1l16,1l17,1l16,1l17,1l16,1l17,1l16,1l17,1l16,0l17,1l16,0l17,1l17,0l16,0l17,1l16,0l17,0l16,0l17,0l16,0l17,0l16,0l17,-1l16,0l17,-1l16,0l17,-1l16,0l17,-1l16,-1l17,0l16,-1l17,-1l16,-1l17,-1l16,-1l17,-1l17,-1l16,-2l17,-1l16,-1l17,-2l16,-1l17,-2l16,-1l17,-2l16,-1l17,-2l0,-63l-17,2l-16,1l-17,2l-16,1l-17,2l-16,1l-17,1l-16,2l-17,1l-16,1l-17,1l-17,1l-16,2l-17,1l-16,1l-17,1l-16,0l-17,1l-16,1l-17,1l-16,0l-17,1l-16,0l-17,1l-16,0l-17,1l-16,0l-17,0l-16,0l-17,0l-16,1l-17,0l-16,-1l-17,0l-16,0l-17,0l-17,-1l-16,0l-17,0l-16,-1l-17,-1l-16,0l-17,-1l-16,-1l-17,-1l-16,0l-17,-1l-16,-1l-17,-2l-16,-1l-17,-1l-16,-1l-17,-2l-16,-1l-17,-1l-16,-2l-17,-1l-16,-2l-17,-2l-16,-1l-17,-2l-17,-2l-16,-2l-17,-2l-16,-2l-17,-2l-16,-2l-17,-2l-16,-2l-17,-2l-16,-2l-17,-2l-16,-3l-17,-2l-16,-2l-17,-3l-16,-2l-17,-3l-16,-2l-17,-3l-16,-2l-17,-3l-16,-2l-17,-3l-17,-3l-16,-2l-17,-3l-16,-3l-17,-2l-16,-3l-17,-3l-16,-3l-17,-3l-16,-2l-17,-3l-16,-3l-17,-3l-16,-3l-17,-3l-16,-3l-17,-2l-16,-3l-17,-3l-16,-3l-17,-3l-16,-3l-17,-3l-16,-3l-17,-3l-17,-3l-16,-3l-17,-3l-16,-2l-17,-3l-16,-3l-17,-3l-16,-3l-17,-3l-16,-3l-17,-2l-16,-3l-17,-3l-16,-3l-17,-3l-16,-2l-17,-3l-16,-3l-17,-2l-16,-3l-17,-3l-16,-2l-17,-3l-16,-2l-17,-3l-17,-2l-16,-3l-17,-2l-16,-3l-17,-2l-16,-2l-17,-3l-16,-2l-17,-2l-16,-2l-17,-2l-16,-2l-17,-2l-16,-2l-17,-2l-16,-2l-17,-2l-16,-2l-17,-2l-16,-1l-17,-2l-16,-2l-17,-1l-17,-2l-16,-1l-17,-1l-16,-2l-17,-1l-16,-1l-17,-1l-16,-2l-17,-1l-16,-1l-17,-1l-16,-1l-17,0l-16,-1l-17,-1l-16,0l-17,-1l-16,-1l-17,0l-16,0l-17,-1l-16,0l-17,0l-16,0l-17,-1l-17,0l-16,0l-17,1l-16,0l-17,0l-16,0l-17,0l-16,1l-17,0l-16,1l-17,0l-16,1l-17,0l-16,1l-17,1l-16,0l-17,1l-16,1l-17,1l-16,1l-17,1l-16,1l-17,1l-16,1l-17,1l-17,1l-16,1l-17,1l-16,2l-17,1l-16,1l-17,2l-16,1l-17,1l-16,2l-17,1l-16,2l-17,1l-16,1l-17,2l-16,1l-17,2l-16,1l-17,2l-16,2l-17,1l-16,2l-17,1l-17,2l-16,1l-17,2l-16,1l-17,2l-16,2l-17,1l-16,2l-17,1l-16,2l-17,1l-16,2l-17,2l-16,1l-17,2l-16,1l-17,2l-16,1l-17,2l-16,1l-17,2l-16,1l-17,2l-16,1l-17,2l-17,1l-16,2l-17,1l-16,2l-17,1l-16,1l-17,2l-16,1l-17,2l-16,1l-17,1l-16,2l-17,1l-16,2l-17,1l-16,1l-17,2l-16,1l-17,1l-16,2l-17,1l-16,1l-17,2l-16,1l-17,1l-17,2l-16,1l-17,1l-16,2l-17,1l-16,1l-17,2l-16,1l-17,1l-16,2l-17,1l-16,1l-17,2l-16,1l-17,1l-16,2l-17,1l-16,2l-17,1l-16,1l-17,2l-16,1l-17,2l-17,1l-16,2l-17,1l-16,2l-17,1l-16,2l-17,1l-16,2l-17,1l-16,2l-17,1l-16,2l-17,2l-16,1l-17,2l-16,1l-17,2l-16,2l-17,1l-16,2l-17,2l-16,2l-17,1l-16,2l-17,2l-17,2l-16,2l-17,1l-16,2l-17,2l-16,2l-17,2l-16,2l-17,1l-16,2l-17,2l-16,2l-17,2l-16,2l-17,2l-16,2l-17,2l-16,1l-17,2l-16,2l-17,2l-16,2l-17,2l-16,2l-17,2l-17,1l-16,2l-17,2l-16,2l-17,2l-16,1l-17,2l-16,2l-17,2l-16,1l-17,2Z" fill="#000"></path><path fill-opacity="0.251" stroke="none" d="M758,1023l17,-2l16,-1l17,-2l16,-2l17,-2l16,-1l17,-2l16,-2l17,-2l16,-2l17,-1l17,-2l16,-2l17,-2l16,-2l17,-2l16,-2l17,-2l16,-1l17,-2l16,-2l17,-2l16,-2l17,-2l16,-2l17,-2l16,-2l17,-1l16,-2l17,-2l16,-2l17,-2l16,-2l17,-1l16,-2l17,-2l17,-2l16,-2l17,-1l16,-2l17,-2l16,-2l17,-1l16,-2l17,-2l16,-1l17,-2l16,-1l17,-2l16,-2l17,-1l16,-2l17,-1l16,-2l17,-1l16,-2l17,-1l16,-2l17,-1l16,-2l17,-1l17,-2l16,-1l17,-2l16,-1l17,-1l16,-2l17,-1l16,-2l17,-1l16,-1l17,-2l16,-1l17,-1l16,-2l17,-1l16,-1l17,-2l16,-1l17,-1l16,-2l17,-1l16,-1l17,-2l17,-1l16,-1l17,-2l16,-1l17,-1l16,-2l17,-1l16,-1l17,-2l16,-1l17,-1l16,-2l17,-1l16,-2l17,-1l16,-1l17,-2l16,-1l17,-2l16,-1l17,-1l16,-2l17,-1l16,-2l17,-1l17,-2l16,-1l17,-2l16,-1l17,-2l16,-1l17,-2l16,-1l17,-2l16,-1l17,-2l16,-1l17,-2l16,-2l17,-1l16,-2l17,-1l16,-2l17,-1l16,-2l17,-2l16,-1l17,-2l16,-1l17,-2l17,-1l16,-2l17,-1l16,-2l17,-2l16,-1l17,-2l16,-1l17,-2l16,-1l17,-1l16,-2l17,-1l16,-2l17,-1l16,-1l17,-2l16,-1l17,-1l16,-2l17,-1l16,-1l17,-1l17,-1l16,-1l17,-1l16,-1l17,-1l16,-1l17,-1l16,-1l17,-1l16,0l17,-1l16,-1l17,0l16,-1l17,0l16,-1l17,0l16,-1l17,0l16,0l17,0l16,0l17,-1l16,0l17,0l17,1l16,0l17,0l16,0l17,1l16,0l17,0l16,1l17,1l16,0l17,1l16,1l17,0l16,1l17,1l16,1l17,1l16,2l17,1l16,1l17,1l16,2l17,1l16,1l17,2l17,1l16,2l17,2l16,1l17,2l16,2l17,2l16,2l17,2l16,2l17,2l16,2l17,2l16,2l17,2l16,2l17,3l16,2l17,2l16,3l17,2l16,3l17,2l17,3l16,2l17,3l16,2l17,3l16,3l17,2l16,3l17,3l16,2l17,3l16,3l17,3l16,3l17,2l16,3l17,3l16,3l17,3l16,3l17,3l16,2l17,3l16,3l17,3l17,3l16,3l17,3l16,3l17,3l16,3l17,3l16,3l17,2l16,3l17,3l16,3l17,3l16,3l17,3l16,2l17,3l16,3l17,3l16,3l17,2l16,3l17,3l16,2l17,3l17,3l16,2l17,3l16,2l17,3l16,2l17,3l16,2l17,3l16,2l17,2l16,3l17,2l16,2l17,2l16,2l17,2l16,2l17,2l16,2l17,2l16,2l17,2l17,2l16,1l17,2l16,2l17,1l16,2l17,1l16,1l17,2l16,1l17,1l16,1l17,2l16,1l17,1l16,0l17,1l16,1l17,1l16,0l17,1l16,1l17,0l16,0l17,1l17,0l16,0l17,0l16,1l17,0l16,-1l17,0l16,0l17,0l16,0l17,-1l16,0l17,-1l16,0l17,-1l16,0l17,-1l16,-1l17,-1l16,0l17,-1l16,-1l17,-1l16,-2l17,-1l17,-1l16,-1l17,-1l16,-2l17,-1l16,-1l17,-2l16,-1l17,-2l16,-1l17,-2l0,-925l-6014,0Z" fill="#000"></path><path fill-opacity="0.125" stroke="none" d="" fill="#000"></path></g><g transform="scale(0.1)"></g><g stroke-width="1" stroke="#000" fill="none" stroke-opacity="0.2"><line x2="126.2" y1="10" x1="126.2" y2="370" stroke-opacity="0.2"></line><line x2="172.5" y1="10" x1="172.5" y2="370" stroke-opacity="0.2"></line><line x2="223.7" y1="10" x1="223.7" y2="370" stroke-opacity="0.2"></line><line x2="273.2" y1="10" x1="273.2" y2="370" stroke-opacity="0.2"></line><line x2="324.5" y1="10" x1="324.5" y2="370" stroke-opacity="0.2"></line><line x2="374" y1="10" x1="374" y2="370" stroke-opacity="0.2"></line><line x2="425.2" y1="10" x1="425.2" y2="370" stroke-opacity="0.2"></line><line x2="476.4" y1="10" x1="476.4" y2="370" stroke-opacity="0.2"></line><line x2="526" y1="10" x1="526" y2="370" stroke-opacity="0.2"></line><line x2="577.2" y1="10" x1="577.2" y2="370" stroke-opacity="0.2"></line><line x2="626.8" y1="10" x1="626.8" y2="370" stroke-opacity="0.2"></line><line x2="681" y1="365" x1="72" y2="365"></line><line x2="681" y1="335.4" x1="72" y2="335.4"></line><line x2="681" y1="305.8" x1="72" y2="305.8"></line><line x2="681" y1="276.3" x1="72" y2="276.3"></line><line x2="681" y1="246.7" x1="72" y2="246.7"></line><line x2="681" y1="217.1" x1="72" y2="217.1"></line><line x2="681" y1="187.5" x1="72" y2="187.5"></line><line x2="681" y1="157.9" x1="72" y2="157.9"></line><line x2="681" y1="128.3" x1="72" y2="128.3"></line><line x2="681" y1="98.8" x1="72" y2="98.8"></line><line x2="681" y1="69.2" x1="72" y2="69.2"></line><line x2="681" y1="39.6" x1="72" y2="39.6"></line><line x2="681" y1="10" x1="72" y2="10"></line></g><g><rect fill-opacity="0.004" y="10" x="75" height="355" width="51.2" fill="#fff"></rect><text stroke="none" y="381.5" text-anchor="middle" x="100.6">Jan</text></g><g><rect fill-opacity="0.004" y="10" x="126.2" height="355" width="46.3" fill="#fff"></rect><text stroke="none" y="381.5" text-anchor="middle" x="149.3">Feb</text></g><g><rect fill-opacity="0.004" y="10" x="172.5" height="355" width="51.2" fill="#fff"></rect><text stroke="none" y="381.5" text-anchor="middle" x="198.1">Mar</text></g><g><rect fill-opacity="0.004" y="10" x="223.7" height="355" width="49.6" fill="#fff"></rect><text stroke="none" y="381.5" text-anchor="middle" x="248.5">Apr</text></g><g><rect fill-opacity="0.004" y="10" x="273.2" height="355" width="51.2" fill="#fff"></rect><text stroke="none" y="381.5" text-anchor="middle" x="298.9">May</text></g><g><rect fill-opacity="0.004" y="10" x="324.5" height="355" width="49.6" fill="#fff"></rect><text stroke="none" y="381.5" text-anchor="middle" x="349.2">Jun</text></g><g><rect fill-opacity="0.004" y="10" x="374" height="355" width="51.2" fill="#fff"></rect><text stroke="none" y="381.5" text-anchor="middle" x="399.6">Jul</text></g><g><rect fill-opacity="0.004" y="10" x="425.2" height="355" width="51.2" fill="#fff"></rect><text stroke="none" y="381.5" text-anchor="middle" x="450.8">Aug</text></g><g><rect fill-opacity="0.004" y="10" x="476.4" height="355" width="49.6" fill="#fff"></rect><text stroke="none" y="381.5" text-anchor="middle" x="501.2">Sep</text></g><g><rect fill-opacity="0.004" y="10" x="526" height="355" width="51.2" fill="#fff"></rect><text stroke="none" y="381.5" text-anchor="middle" x="551.6">Oct</text></g><g><rect fill-opacity="0.004" y="10" x="577.2" height="355" width="49.6" fill="#fff"></rect><text stroke="none" y="381.5" text-anchor="middle" x="602">Nov</text></g><g><rect fill-opacity="0.004" y="10" x="626.8" height="355" width="51.2" fill="#fff"></rect><text stroke="none" y="381.5" text-anchor="middle" x="652.4">Dec</text></g><g stroke="none" fill="#666"><text y="370.2" text-anchor="end" x="71">0</text><text y="370.2" x="682">0</text><text y="340.6" text-anchor="end" x="71">2</text><text y="340.6" x="682">2</text><text y="311" text-anchor="end" x="71">4</text><text y="311" x="682">4</text><text y="281.4" text-anchor="end" x="71">6</text><text y="281.4" x="682">6</text><text y="251.9" text-anchor="end" x="71">8</text><text y="251.9" x="682">8</text><text y="222.3" text-anchor="end" x="71">10</text><text y="222.3" x="682">10</text><text y="192.7" text-anchor="end" x="71">12</text><text y="192.7" x="682">12</text><text y="163.1" text-anchor="end" x="71">14</text><text y="163.1" x="682">14</text><text y="133.5" text-anchor="end" x="71">16</text><text y="133.5" x="682">16</text><text y="103.9" text-anchor="end" x="71">18</text><text y="103.9" x="682">18</text><text y="74.4" text-anchor="end" x="71">20</text><text y="74.4" x="682">20</text><text y="44.8" text-anchor="end" x="71">22</text><text y="44.8" x="682">22</text><text y="15.2" text-anchor="end" x="71">0</text><text y="15.2" x="682">0</text></g><g font-family="sans-serif" text-decoration="none" font-style="normal" font-size="15" font-weight="normal"><text font-family="sans-serif" stroke="none" opacity="0.8" y="280.6" text-decoration="none" text-anchor="middle" x="120.4" font-style="normal" font-size="15" fill="#fff" font-weight="normal">0°-6°</text></g><g font-family="sans-serif" text-decoration="none" font-style="normal" font-size="15" font-weight="normal"><text font-family="sans-serif" stroke="none" opacity="0.8" y="58.6" text-decoration="none" text-anchor="middle" x="111" font-style="normal" font-size="15" fill="#fff" font-weight="normal">7°-12°</text></g><g font-family="sans-serif" text-decoration="none" font-style="normal" font-size="15" font-weight="normal"><text font-family="sans-serif" stroke="none" opacity="0.8" y="44.6" text-decoration="none" text-anchor="middle" x="640.8" font-style="normal" font-size="15" fill="#fff" font-weight="normal">7°-12°</text></g><g font-family="sans-serif" text-decoration="none" font-style="normal" font-size="15" font-weight="normal"><text font-family="sans-serif" stroke="none" opacity="0.8" y="300.1" text-decoration="none" text-anchor="middle" x="201.3" font-style="normal" font-size="15" fill="#fff" font-weight="normal">7°-12°</text></g><g font-family="sans-serif" text-decoration="none" font-style="normal" font-size="15" font-weight="normal"><text font-family="sans-serif" stroke="none" opacity="0.8" y="328.6" text-decoration="none" text-anchor="middle" x="607.9" font-style="normal" font-size="15" fill="#fff" font-weight="normal">7°-12°</text></g><g font-family="sans-serif" text-decoration="none" font-style="normal" font-size="15" font-weight="normal"><text font-family="sans-serif" stroke="none" opacity="0.8" y="308.1" text-decoration="none" text-anchor="middle" x="278.6" font-style="normal" font-size="15" fill="#fff" font-weight="normal">13°-17°</text></g><g font-family="sans-serif" text-decoration="none" font-style="normal" font-size="15" font-weight="normal"><text font-family="sans-serif" stroke="none" opacity="0.8" y="41.8" text-decoration="none" text-anchor="middle" x="567" font-style="normal" font-size="15" fill="#fff" font-weight="normal">13°-17°</text></g><g font-family="sans-serif" text-decoration="none" font-style="normal" font-size="15" font-weight="normal"><text font-family="sans-serif" stroke="none" opacity="0.8" y="304.5" text-decoration="none" text-anchor="middle" x="417.3" font-style="normal" font-size="15" fill="#fff" font-weight="normal">18°-23°</text></g><g font-family="sans-serif" text-decoration="none" font-style="normal" font-size="15" font-weight="normal"><text font-family="sans-serif" stroke="none" opacity="0.8" y="157.2" text-decoration="none" text-anchor="middle" x="350.1" font-style="normal" font-size="15" fill="#fff" font-weight="normal">24°-28°</text></g><g font-family="sans-serif" text-decoration="none" font-style="normal" font-size="15" font-weight="normal"><text font-family="sans-serif" stroke="none" opacity="0.8" y="277.7" text-decoration="none" text-anchor="middle" x="642.7" font-style="normal" font-size="15" fill="#fff" font-weight="normal">0°-6°</text></g><g font-family="sans-serif" text-decoration="none" font-style="normal" font-size="15" font-weight="normal"><text font-family="sans-serif" stroke="none" opacity="0.8" y="25.9" text-decoration="none" text-anchor="middle" x="110.3" font-style="normal" font-size="15" fill="#fff" font-weight="normal">0°-6°</text></g></svg>