<svg font-family="sans-serif" viewBox="0 0 753 387" xmlns:xlink="http://www.w3.org/1999/xlink" text-decoration="none" font-style="normal" width="753px" xmlns="http://www.w3.org/2000/svg" font-size="15" version="1.1" font-weight="normal" height="387px"><title>Average Hourly Temperature in Las Vegas</title><defs><clipPath id="plot-sample-bounds-0"><rect y="0" x="75.8" height="365" width="601.3"></rect></clipPath><clipPath id="plot-sample-bounds-scaled-0"><rect y="0" x="758.3" height="3650" width="6013.5"></rect></clipPath></defs><g transform="scale(0.1)"><path fill-opacity="1.000" stroke-width="10" stroke="#5ca0b4" d="" fill="#5ca0b4" stroke-opacity="1.0"></path><path fill-opacity="1.000" stroke-width="10" stroke="#83c2d5" d="" fill="#83c2d5" stroke-opacity="1.0"></path><path fill-opacity="1.000" stroke-width="10" stroke="#679568" d="M758,422l0,0l17,-8l16,-10l17,-18l16,-14l17,-7l16,-9l17,-15l12,-19l4,-9l17,-26l16,-30l17,-26l17,-22l16,-22l8,-13l9,-13l16,-12l17,-14l16,-12l17,-18l3,-5l-301,0ZM6380,100l12,37l10,37l6,14l17,43l16,43l17,29l13,19l3,4l17,12l16,20l17,18l16,14l17,14l16,10l17,11l17,1l16,8l17,12l16,4l17,4l16,0l17,-4l16,-8l17,0l16,-4l17,-4l0,-334ZM758,3650l301,0l13,-16l17,-21l16,-15l17,-18l2,-4l14,-27l17,-28l16,-22l17,-13l16,-20l17,-27l5,-11l11,-27l17,-31l16,-32l17,-37l8,-21l8,-22l17,-44l16,-38l17,-23l11,-21l6,-11l16,-34l17,-23l16,-23l17,-35l13,-22l3,-6l17,-27l16,-34l17,-40l16,-41l17,-56l16,-56l9,-35l8,-74l6,-74l-6,-9l-17,-23l-16,-21l-17,-19l-16,-17l-17,-17l-16,-17l-17,-13l-12,-12l-4,-3l-17,-9l-16,-8l-17,-7l-16,-9l-17,-8l-17,-6l-16,-11l-17,-10l-16,-10l-17,-9l-16,-10l-17,-8l-16,-8l-17,-8l-16,-6l-17,-4l-16,-4l-17,-8l-6,-2l-10,-4l-17,-5l-16,-3l-17,-5l-16,-6l-17,-3l-16,-2l-17,-4l-16,-4l-17,-5l-16,-5l-17,-5l-17,-7l-16,-5l-17,-6l-16,-5l-17,-3l-16,-1l-17,-3l-16,-5l-17,-3l-16,0l-17,-1ZM6425,2245l-17,12l-16,10l-17,9l-16,11l-17,14l-16,12l-17,11l-16,12l-17,10l-16,12l-17,13l-16,12l-13,10l-4,7l-16,26l-17,29l-17,28l-16,31l-17,19l-6,8l6,98l4,50l13,47l16,88l3,12l14,68l17,80l16,68l17,68l3,12l13,50l17,61l9,37l7,29l17,42l16,49l8,28l9,30l16,53l17,65l16,59l5,15l392,0l0,-1494l-17,0l-16,1l-17,0l-16,0l-17,0l-16,2l-17,1l-16,5l-17,5l-16,3l-17,4l-17,3l-16,5l-17,7l-16,6l-17,6l-16,6l-17,5l-16,9l-17,11Z" fill="#679568" stroke-opacity="1.0"></path><path fill-opacity="1.000" stroke-width="10" stroke="#74a877" d="M1056,100l-17,18l-16,12l-17,14l-16,12l-11,18l-6,9l-16,21l-17,22l-17,26l-16,31l-17,26l-7,13l-9,15l-17,15l-16,9l-17,8l-16,13l-17,18l-16,10l-17,8l0,0l0,760l17,-7l16,-10l17,-14l16,-13l17,-8l16,-12l17,-9l16,-15l17,-21l8,-8l8,-4l17,-13l17,-10l16,-10l17,-9l16,-7l17,-9l16,-6l17,-11l16,-11l17,-12l16,-8l17,-9l16,-8l17,-10l16,-10l17,-10l16,-11l17,-13l16,-11l17,-12l16,-14l17,-15l16,-13l17,-12l16,-10l17,-11l17,-15l2,-1l14,-11l17,-12l16,-14l17,-13l16,-12l17,-12l16,-15l17,-14l16,-18l17,-16l10,-11l6,-9l17,-23l16,-16l17,-19l16,-24l17,-27l16,-22l6,-8l11,-20l16,-28l17,-30l16,-29l17,-28l8,-13l8,-16l17,-25l17,-24l16,-23l17,-22l16,-26l7,-12l10,-16l16,-29l17,-26l1,-3ZM5908,100l5,35l5,39l11,36l17,64l12,48l4,15l17,57l16,51l8,25l9,22l16,36l17,39l16,35l7,16l10,19l16,30l17,29l16,26l17,33l5,11l11,16l17,24l17,21l16,19l17,18l16,22l17,23l4,5l12,12l17,17l16,18l17,18l16,19l17,19l16,16l17,14l16,11l4,3l13,17l16,17l17,13l16,15l17,6l16,10l17,8l16,9l17,10l16,9l17,8l17,7l16,6l17,7l16,2l17,-2l16,-3l17,-2l16,-2l17,0l16,-3l17,-9l0,0l0,-754l0,0l-17,4l-16,4l-17,0l-16,8l-17,4l-16,0l-17,-4l-16,-3l-17,-13l-16,-8l-17,-2l-17,-10l-16,-10l-17,-14l-16,-14l-17,-18l-16,-20l-17,-12l-16,-23l-17,-30l-16,-43l-17,-42l-4,-10l-12,-44l-10,-30ZM758,2156l17,1l16,0l17,4l16,4l17,3l16,1l17,3l16,5l17,7l16,4l17,7l17,5l16,5l17,5l16,4l17,4l16,2l17,4l16,5l17,5l16,3l17,6l6,2l10,3l17,8l16,5l17,3l16,6l17,8l16,9l17,7l16,10l17,9l16,10l17,11l16,10l17,6l17,9l16,8l17,7l16,8l17,10l2,1l14,15l17,13l16,16l17,18l16,16l17,20l16,20l17,23l5,7l-5,55l-9,93l-8,28l-16,56l-17,56l-3,7l-13,34l-17,40l-16,34l-17,27l-6,13l-10,17l-17,35l-16,22l-17,23l-16,34l-9,17l-8,16l-17,23l-16,38l-17,44l-10,27l-6,16l-17,37l-16,32l-17,30l-14,33l-2,5l-17,28l-16,20l-17,13l-16,22l-17,27l-16,33l-17,17l-16,15l-17,22l-16,20l827,0l15,-24l17,-28l16,-22l17,-32l16,-34l17,-33l16,-37l6,-12l11,-20l16,-28l17,-26l16,-35l17,-31l4,-8l12,-28l17,-40l16,-33l17,-31l8,-16l9,-17l16,-35l17,-26l16,-36l17,-25l5,-9l11,-18l17,-22l16,-40l17,-27l16,-41l17,-42l16,-48l17,-34l12,-23l-12,-50l-17,-69l-5,-29l-11,-10l-17,-15l-16,-12l-17,-9l-16,-13l-17,-8l-16,-10l-17,-9l-16,-12l-17,-8l-16,-12l-17,-10l-17,-11l-14,-9l-2,-1l-17,-9l-16,-7l-17,-9l-16,-8l-17,-8l-16,-8l-17,-10l-16,-11l-17,-12l-16,-9l-17,-9l-16,-9l-17,-10l-16,-10l-17,-12l-9,-6l-7,-6l-17,-12l-16,-9l-17,-9l-16,-10l-17,-9l-17,-11l-16,-12l-17,-11l-16,-12l-17,-11l-16,-14l-17,-12l-13,-10l-3,-3l-17,-18l-16,-15l-17,-10l-16,-12l-17,-13l-16,-15l-17,-12l-16,-11l-17,-11l-16,-8l-17,-6l-16,-10l-9,-4l-8,-5l-16,-11l-17,-9l-16,-13l-17,-13l-17,-9l-16,-10l-17,-11l-16,-12l-17,-14l-16,-15l-17,-12l-16,-7l-10,-7l-7,-7l-16,-11l-17,-7l-16,-9l-17,-9l-16,-9l-17,-8l-16,-8l-17,-10l-16,-13l-17,-9l-16,-4l-17,-7l-16,-7l-17,-9l-16,-12l-14,-9l-3,-3l-17,-19l-16,-17l-17,-22l-16,-16l-17,-10l-16,-11l-17,-10l-16,-13l-17,-17l-16,-10l-17,-6ZM6623,1505l-16,11l-17,14l-17,15l-16,14l-17,22l-16,14l-17,15l-16,17l-17,19l-4,7l-12,12l-17,21l-16,22l-17,25l-16,23l-17,22l-13,23l-3,4l-17,23l-16,24l-17,18l-16,23l-17,18l-16,22l-11,16l-6,7l-16,17l-17,16l-16,17l-17,20l-17,22l-16,22l-17,21l-5,6l-11,10l-17,16l-16,15l-17,16l-16,15l-17,15l-16,15l-17,15l-16,17l-15,14l-2,2l-16,14l-17,12l-16,13l-17,12l-16,11l-17,14l-16,12l-17,13l-16,12l-17,13l-16,11l-11,9l-6,11l-17,30l-16,26l-17,31l-16,32l-8,18l8,115l2,33l14,71l15,76l2,11l16,72l14,65l3,15l17,74l12,59l4,19l17,70l14,59l2,9l17,72l16,67l17,76l16,67l1,5l11,74l474,0l-7,-22l-14,-52l-2,-6l-17,-65l-16,-53l-7,-24l-10,-34l-16,-49l-17,-42l-6,-23l-10,-43l-17,-62l-11,-43l-5,-18l-17,-68l-15,-62l-1,-6l-17,-81l-12,-61l-5,-19l-16,-88l-11,-40l-6,-74l-5,-74l5,-6l17,-19l16,-31l17,-28l17,-28l16,-27l6,-9l11,-9l16,-12l17,-13l16,-12l17,-9l16,-13l17,-11l16,-12l17,-14l16,-11l17,-9l16,-10l17,-12l2,-1l14,-9l17,-11l16,-9l17,-5l16,-6l17,-6l16,-6l17,-7l16,-5l17,-2l17,-5l16,-3l17,-5l16,-5l17,-1l16,-2l17,0l16,0l17,0l16,-1l17,0l0,-665l-17,-19l-16,-1l-17,6l-16,-6l-17,-7l-16,-2l-17,0l-16,13Z" fill="#74a877" stroke-opacity="1.0"></path><path fill-opacity="1.000" stroke-width="10" stroke="#8dbf71" d="M1882,100l0,0l-17,26l-16,29l-12,19l-5,9l-16,26l-17,22l-16,23l-17,24l-17,25l-9,19l-7,11l-17,27l-16,29l-17,31l-16,27l-12,23l-5,6l-16,22l-17,27l-16,24l-17,19l-16,16l-17,23l-8,11l-8,9l-17,16l-16,18l-17,14l-16,15l-17,12l-16,12l-17,13l-16,15l-17,11l-16,13l-17,14l-17,12l-16,9l-17,13l-16,12l-17,15l-16,14l-17,12l-16,12l-17,13l-16,11l-17,9l-2,2l-14,8l-17,10l-16,9l-17,8l-16,9l-17,11l-16,12l-17,11l-16,6l-17,9l-16,7l-17,8l-16,10l-17,10l-17,13l-11,6l-5,6l-17,20l-16,15l-17,10l-16,11l-17,9l-16,13l-17,13l-16,11l-17,7l0,0l0,329l0,0l17,4l16,9l17,17l16,13l17,10l16,12l17,9l16,16l17,22l16,17l17,19l17,12l16,11l17,9l16,7l17,7l16,4l17,9l16,13l17,10l16,8l17,9l16,8l17,9l16,9l17,7l16,12l5,4l12,9l16,7l17,12l16,14l17,14l16,13l17,11l16,10l17,9l17,13l16,13l17,9l16,10l6,4l11,6l16,9l17,6l16,9l17,10l16,12l17,12l16,14l17,14l16,12l17,10l16,15l17,17l2,2l14,11l17,12l16,14l17,11l16,12l17,11l16,12l17,11l17,10l16,10l17,9l16,8l17,12l6,5l10,8l17,11l16,10l17,10l16,9l17,9l16,9l17,12l16,11l17,10l16,8l17,8l16,8l17,9l16,7l17,9l16,10l17,11l17,11l16,12l17,8l16,12l17,9l16,9l17,9l16,13l17,9l16,12l17,15l9,8l7,39l17,69l9,40l-9,19l-17,33l-16,48l-17,43l-2,4l-14,36l-17,27l-16,41l-17,22l-14,22l-2,5l-17,25l-16,36l-17,26l-16,35l-11,21l-6,12l-17,31l-16,33l-17,40l-14,32l-2,4l-17,31l-16,35l-17,26l-16,28l-13,24l-4,8l-16,38l-17,32l-16,34l-17,32l-2,4l-14,19l-17,29l-16,26l615,0l12,-18l17,-26l16,-28l2,-2l15,-37l17,-30l16,-29l17,-26l16,-26l17,-29l16,-26l17,-29l16,-30l17,-34l16,-39l17,-44l16,-39l11,-26l6,-13l16,-34l17,-40l16,-40l9,-21l8,-19l16,-29l17,-42l16,-36l10,-22l7,-19l16,-47l17,-47l12,-34l-12,-52l-17,-74l-4,-22l-12,-11l-17,-14l-16,-16l-17,-17l-16,-12l-17,-16l-16,-15l-17,-20l-16,-16l-11,-11l-6,-5l-16,-12l-17,-16l-16,-12l-17,-16l-16,-13l-17,-12l-16,-11l-17,-11l-16,-13l-17,-12l-16,-11l-6,-4l-11,-9l-17,-17l-16,-16l-17,-13l-16,-10l-17,-10l-16,-11l-17,-11l-16,-14l-17,-12l-16,-10l-17,-8l-14,-7l-2,-2l-17,-9l-16,-12l-17,-11l-16,-12l-17,-9l-16,-12l-17,-12l-16,-8l-17,-9l-16,-13l-17,-10l-16,-8l-17,-11l-17,-9l-2,-1l-14,-11l-17,-17l-16,-17l-17,-18l-16,-15l-17,-13l-16,-15l-17,-12l-16,-19l-8,-11l-9,-14l-16,-18l-17,-19l-16,-15l-17,-16l-16,-21l-17,-19l-16,-26l-17,-31l-16,-30l-17,-29l-16,-26l-17,-19l-8,-13l-9,-20l-16,-49l-17,-48l-11,-31l-5,-55l-8,-93l8,-32l16,-64l14,-52l3,-4l16,-23l17,-20l17,-19l16,-20l17,-24l16,-28l5,-9l12,-16l16,-20l17,-17l16,-19l17,-16l16,-13l17,-19l16,-19l7,-9l10,-13l16,-17l17,-17l16,-17l17,-20l16,-20l17,-22l15,-22l1,-2l17,-26l16,-20l17,-18l17,-20l16,-16l17,-22l16,-19l6,-5l11,-10l16,-16l17,-23l16,-18l17,-22l16,-18l17,-22l16,-17l2,-2l15,-18l16,-19l17,-23l16,-23l17,-27l16,-28l7,-10l10,-17l16,-26l17,-25l4,-6ZM5546,100l3,18l10,56l7,21l16,48l17,39l15,40l1,2l17,35l16,35l17,39l12,37l4,9l17,35l16,34l17,33l16,35l1,2l16,31l17,33l16,31l17,31l10,22l6,10l17,31l16,33l17,31l16,33l5,10l12,21l16,31l17,31l16,32l17,29l2,3l14,35l17,37l16,34l17,32l6,10l10,95l6,53l-6,39l-16,109l-17,51l-16,55l-13,42l-4,8l-16,36l-17,39l-16,39l-13,26l-4,5l-16,25l-17,22l-16,24l-17,25l-16,23l-17,22l-1,2l-15,15l-17,16l-16,15l-17,17l-17,17l-16,14l-17,14l-16,15l-17,17l-8,8l-8,6l-17,10l-16,10l-17,10l-16,10l-17,11l-16,12l-17,15l-16,14l-17,14l-16,12l-17,14l-9,10l-7,7l-17,18l-16,17l-17,18l-16,16l-17,16l-17,17l-16,16l-17,15l-7,8l-9,24l-17,47l-16,42l-13,35l13,80l12,68l4,18l17,69l15,60l1,5l17,55l16,59l8,29l9,34l17,64l15,50l1,4l17,66l16,70l2,8l15,56l16,63l8,29l9,30l16,58l17,60l13,74l363,0l-11,-74l-2,-9l-16,-67l-16,-72l-1,-4l-16,-68l-17,-71l-1,-5l-15,-64l-17,-69l-3,-15l-13,-64l-17,-74l-2,-10l-15,-71l-16,-71l-1,-6l-16,-82l-13,-65l-3,-50l-7,-98l7,-15l16,-32l17,-32l16,-25l17,-31l8,-13l9,-8l16,-11l17,-13l16,-12l17,-13l16,-12l17,-14l16,-11l17,-12l16,-13l17,-12l16,-14l4,-3l13,-13l16,-17l17,-14l16,-16l17,-15l16,-15l17,-16l16,-15l17,-16l13,-11l3,-4l17,-21l16,-23l17,-22l17,-19l16,-17l17,-17l16,-17l7,-8l10,-15l16,-21l17,-18l16,-23l17,-19l16,-23l17,-24l4,-5l12,-20l17,-23l16,-22l17,-25l16,-23l17,-20l14,-15l2,-4l17,-18l16,-18l17,-14l16,-14l17,-22l16,-14l17,-15l17,-14l16,-11l4,-4l13,-22l16,-13l17,0l16,2l17,6l16,7l17,-7l16,1l17,20l0,-317l0,0l-17,9l-16,2l-17,0l-16,3l-17,2l-16,2l-17,3l-16,-2l-17,-7l-16,-7l-17,-6l-17,-9l-16,-8l-17,-10l-16,-9l-17,-9l-16,-9l-17,-6l-16,-15l-17,-13l-16,-17l-12,-15l-5,-4l-16,-11l-17,-15l-16,-15l-17,-20l-16,-19l-17,-17l-16,-19l-17,-17l-10,-10l-6,-7l-17,-23l-16,-21l-17,-18l-16,-19l-17,-21l-17,-25l-9,-14l-7,-13l-17,-33l-16,-26l-17,-29l-16,-30l-9,-17l-8,-18l-16,-36l-17,-38l-16,-36l-8,-20l-9,-29l-16,-50l-17,-57l-3,-12l-13,-52l-17,-64l-10,-32l-6,-47l-4,-27Z" fill="#8dbf71" stroke-opacity="1.0"></path><path fill-opacity="1.000" stroke-width="10" stroke="#e9cc77" d="M2496,100l-3,4l-17,25l-16,26l-12,19l-5,8l-16,28l-17,27l-16,23l-17,23l-16,19l-17,20l-16,17l-17,22l-16,18l-17,22l-16,18l-17,23l-16,16l-13,12l-4,3l-16,19l-17,22l-16,16l-17,20l-17,18l-16,20l-17,26l-2,4l-14,21l-17,22l-16,19l-17,20l-16,17l-17,17l-16,18l-11,14l-6,7l-16,20l-17,18l-16,13l-17,16l-16,19l-17,18l-16,19l-13,18l-4,7l-16,28l-17,23l-16,21l-17,18l-17,21l-16,23l-5,6l-12,45l-16,65l-10,38l10,111l4,37l12,36l17,48l16,49l7,15l10,17l17,19l16,25l17,29l16,30l15,28l2,2l16,26l17,19l16,21l17,17l16,15l17,18l16,18l7,12l10,13l16,19l17,12l16,15l17,13l16,15l17,18l16,17l17,17l12,9l4,3l17,9l17,10l16,8l17,10l16,14l17,9l16,8l17,11l16,12l17,9l16,12l17,12l16,12l17,9l16,9l17,7l16,10l17,12l16,14l17,11l16,11l17,10l16,10l17,13l16,16l17,17l9,8l8,5l16,12l17,11l16,13l17,11l16,12l17,11l16,14l17,15l16,12l17,16l16,12l4,4l13,13l16,15l17,20l16,16l17,15l16,13l17,17l16,15l17,14l10,10l6,29l17,74l10,45l-10,29l-17,47l-16,47l-8,24l-9,18l-16,37l-17,42l-16,29l-9,22l-8,17l-16,41l-17,40l-16,33l-7,17l-10,23l-16,38l-17,44l-16,40l-2,3l-15,31l-16,30l-17,29l-16,26l-17,29l-2,3l-14,23l-17,26l-16,29l-17,30l-17,40l-16,28l-17,25l-13,21l495,0l14,-20l17,-22l16,-23l8,-9l9,-15l16,-31l17,-28l16,-27l17,-25l11,-22l5,-9l17,-27l16,-29l17,-27l16,-26l17,-23l5,-7l11,-15l17,-26l16,-24l17,-27l16,-30l14,-26l3,-5l16,-27l17,-25l17,-33l16,-28l17,-30l16,-32l17,-36l16,-32l17,-33l7,-15l9,-28l17,-44l16,-43l17,-32l-17,-30l-16,-39l-17,-37l-16,-42l-17,-13l-16,-13l-17,-15l-16,-13l-17,-13l-16,-14l-17,-15l-17,-13l-16,-13l-17,-14l-15,-12l-1,-1l-17,-14l-16,-11l-17,-10l-16,-11l-17,-10l-16,-12l-17,-11l-16,-14l-17,-12l-16,-15l-17,-11l-16,-13l-5,-3l-12,-9l-16,-16l-17,-14l-16,-15l-17,-17l-16,-17l-17,-17l-17,-16l-16,-13l-17,-13l-1,-1l-15,-15l-17,-19l-16,-16l-17,-18l-16,-16l-17,-16l-16,-18l-17,-21l-8,-9l-8,-10l-17,-18l-16,-19l-17,-21l-16,-19l-17,-20l-16,-22l-17,-19l-16,-19l-17,-19l-16,-20l-17,-19l-16,-19l-17,-23l-17,-27l-1,-2l-15,-34l-17,-35l-16,-23l-17,-24l-16,-26l-4,-6l-13,-26l-16,-51l-17,-44l-14,-27l-2,-7l-17,-67l-16,-56l-4,-18l4,-74l4,-74l12,-23l17,-48l16,-47l7,-29l10,-19l16,-38l17,-29l16,-33l17,-29l16,-25l17,-29l16,-29l17,-24l17,-20l16,-18l3,-3l14,-14l16,-16l17,-18l16,-18l17,-21l16,-22l17,-21l13,-18l3,-6l17,-23l16,-25l17,-20l16,-26l17,-23l16,-23l2,-2l15,-19l16,-25l17,-22l16,-23l17,-21l16,-25l11,-13l6,-8l16,-19l17,-23l17,-21l2,-3ZM5187,100l15,44l10,30l7,15l16,32l17,31l16,33l16,37l1,2l16,31l17,30l16,28l17,30l15,27l1,3l17,23l17,25l16,27l17,30l16,29l6,11l11,18l16,30l17,28l16,31l17,30l6,11l10,21l17,34l16,30l17,26l16,28l6,9l11,25l16,39l17,42l16,41l0,6l17,107l7,35l-7,148l-17,78l-16,70l-17,37l-16,35l-17,28l-16,31l-11,17l-6,8l-16,25l-17,30l-16,31l-17,30l-13,24l-3,4l-17,25l-16,24l-17,25l-16,23l-17,26l-16,21l-17,18l-17,18l-16,17l-17,16l-16,18l-17,17l-16,19l-17,19l-5,6l-11,11l-17,12l-16,15l-17,14l-16,14l-17,13l-16,14l-17,15l-16,16l-17,14l-9,10l-7,8l-17,17l-16,15l-17,16l-16,13l-17,15l-16,16l-17,14l-17,13l-16,12l-11,9l-6,8l-16,25l-17,25l-16,24l-17,22l-16,24l-15,20l15,134l1,14l15,44l17,45l16,45l5,13l12,31l16,40l17,40l15,37l1,4l17,40l17,43l16,50l4,11l13,39l16,44l17,48l5,17l11,32l17,50l16,59l2,7l15,39l16,44l17,45l7,20l9,26l17,45l1,3l360,0l-13,-74l-1,-3l-17,-61l-16,-57l-8,-27l-9,-33l-16,-63l-14,-52l-3,-12l-16,-70l-17,-66l-16,-55l-17,-63l-8,-30l-9,-33l-16,-60l-17,-55l-16,-64l-17,-70l-3,-13l-13,-74l-12,-74l12,-32l16,-42l17,-47l10,-27l6,-7l17,-15l16,-16l17,-17l17,-16l16,-16l17,-18l16,-17l17,-17l8,-9l8,-9l17,-14l16,-12l17,-15l16,-13l17,-15l16,-12l17,-11l16,-10l17,-10l16,-10l17,-9l10,-8l6,-6l17,-18l16,-15l17,-13l16,-15l17,-17l17,-17l16,-15l17,-15l16,-17l17,-22l16,-23l17,-26l16,-23l17,-23l16,-24l5,-7l12,-24l16,-39l17,-39l16,-36l5,-10l12,-39l16,-55l17,-50l1,-4l15,-101l7,-47l-7,-63l-9,-85l-7,-12l-17,-32l-16,-34l-17,-37l-13,-33l-3,-4l-17,-29l-16,-33l-17,-31l-16,-30l-11,-20l-6,-11l-16,-34l-17,-31l-16,-32l-17,-32l-5,-8l-11,-23l-17,-32l-16,-30l-17,-34l-15,-29l-2,-4l-16,-35l-17,-33l-16,-33l-17,-36l-3,-7l-13,-39l-17,-40l-16,-34l-17,-35l-16,-43l-17,-39l-16,-48l-6,-18l-11,-61l-2,-13Z" fill="#e9cc77" stroke-opacity="1.0"></path><path fill-opacity="1.000" stroke-width="10" stroke="#c77560" d="M2989,100l0,1l-17,21l-17,23l-16,19l-8,10l-9,11l-16,25l-17,21l-16,23l-17,22l-16,25l-17,21l-16,23l-17,23l-16,26l-17,20l-16,25l-17,24l-5,7l-11,16l-17,21l-16,22l-17,21l-16,18l-17,18l-16,17l-15,15l-2,1l-16,18l-17,21l-17,23l-16,29l-17,30l-16,24l-1,2l-16,27l-16,32l-17,30l-16,38l-11,21l-6,24l-16,47l-17,49l-14,27l-2,37l-6,111l6,26l16,57l17,65l16,31l17,43l16,51l11,23l6,8l16,27l17,23l16,24l17,35l14,31l2,4l17,27l17,23l16,19l17,19l16,20l17,19l14,17l2,2l17,19l16,22l17,20l16,19l17,21l16,19l17,17l7,9l9,11l17,21l16,18l17,16l16,15l17,19l16,16l17,18l13,14l3,2l17,14l16,13l17,15l17,17l16,17l17,17l16,15l17,14l16,16l10,8l7,4l16,13l17,11l16,15l17,12l16,14l17,11l16,12l17,10l16,11l17,10l16,11l17,14l16,13l17,15l16,13l17,12l17,15l16,14l17,14l16,13l17,14l16,13l15,12l2,3l16,42l17,38l16,39l15,26l-15,28l-16,44l-17,43l-11,32l-5,12l-17,33l-16,32l-17,36l-16,32l-2,3l-15,27l-16,29l-17,32l-17,25l-16,28l-4,7l-13,23l-16,31l-17,27l-16,24l-17,25l-13,18l-3,5l-17,22l-16,27l-17,26l-16,30l-17,26l-6,12l-10,20l-17,25l-16,27l-17,28l-16,30l-11,18l-6,7l-16,23l-17,22l-16,22l497,0l15,-17l16,-19l17,-16l16,-19l4,-3l13,-16l16,-17l17,-20l16,-23l17,-20l16,-18l17,-23l9,-11l7,-10l17,-19l16,-22l17,-22l16,-19l17,-15l17,-19l16,-15l12,-7l5,-3l16,-12l17,-9l16,-15l17,-13l16,-11l17,-17l16,-9l17,-12l16,-7l17,-6l16,-6l17,-3l16,3l17,-3l16,0l17,0l16,2l17,1l16,2l17,7l16,3l17,6l17,1l16,8l17,3l16,9l17,7l16,6l17,10l16,6l17,8l16,9l17,9l16,9l17,9l12,8l4,3l17,12l16,13l17,12l16,10l17,9l16,11l17,13l16,12l17,13l17,13l16,17l8,10l9,10l16,20l17,18l16,17l17,22l16,23l17,28l6,10l10,17l17,31l13,26l435,0l-2,-6l-17,-45l-7,-23l-9,-23l-17,-45l-16,-44l-14,-36l-3,-10l-16,-59l-17,-50l-10,-29l-6,-21l-17,-47l-16,-44l-12,-36l-5,-14l-16,-51l-17,-43l-17,-40l-16,-40l-17,-41l-16,-40l-11,-27l-6,-17l-16,-45l-17,-45l-13,-40l-3,-27l-14,-121l14,-18l16,-24l17,-22l16,-24l17,-25l16,-25l7,-10l10,-8l16,-12l17,-13l17,-14l16,-16l17,-15l16,-13l17,-16l16,-15l17,-16l8,-10l8,-9l17,-14l16,-16l17,-15l16,-14l17,-14l16,-13l17,-14l16,-15l17,-12l12,-12l4,-5l17,-19l16,-18l17,-18l16,-18l17,-16l16,-17l17,-17l17,-19l1,-1l15,-20l17,-26l16,-23l17,-24l16,-25l17,-24l4,-6l12,-22l17,-30l16,-31l17,-30l16,-25l8,-10l9,-15l16,-30l17,-29l16,-35l17,-36l1,-3l15,-66l17,-77l1,-5l7,-148l-8,-40l-17,-108l-16,-43l-17,-42l-16,-39l-10,-23l-7,-11l-16,-27l-17,-27l-16,-30l-17,-33l-10,-20l-6,-13l-17,-30l-16,-31l-17,-27l-16,-30l-11,-17l-6,-12l-16,-29l-17,-30l-16,-28l-17,-25l-17,-23l0,-1l-16,-29l-17,-29l-16,-29l-17,-30l-16,-31l-17,-39l-16,-33l-17,-31l-16,-32l-6,-13l-11,-34l-14,-40l-435,0l3,5l17,30l16,28l6,11l11,16l16,23l17,22l16,25l17,28l16,24l8,10l9,10l16,20l17,20l16,21l17,23l17,28l16,26l17,20l16,21l17,25l16,27l17,29l16,24l1,2l16,21l16,23l17,20l16,20l17,20l16,21l17,23l16,26l17,26l16,27l17,28l16,29l8,12l9,28l16,53l17,49l5,17l2,148l-7,43l-17,98l-1,7l-15,45l-17,47l-16,53l-1,3l-16,34l-16,33l-17,30l-16,29l-11,22l-6,9l-16,23l-17,23l-16,22l-17,25l-16,23l-16,23l-1,2l-16,22l-17,25l-16,24l-17,20l-16,19l-17,18l-14,18l-2,2l-17,18l-17,15l-16,13l-17,13l-16,13l-17,13l-16,14l-17,15l-16,14l-17,13l-6,5l-10,6l-17,11l-16,11l-17,10l-16,10l-17,12l-16,11l-17,12l-16,10l-17,10l-16,8l-17,8l-16,9l-17,10l-16,7l-6,3l-11,4l-17,7l-16,5l-17,4l-16,6l-17,4l-16,5l-17,5l-16,6l-17,5l-16,5l-17,5l-16,4l-17,3l-16,4l-17,4l-16,4l-17,4l-16,3l-17,4l-16,4l-17,2l-16,3l-17,2l-17,3l-16,1l-17,3l-16,3l-17,1l-16,1l-17,1l-16,1l-17,0l-16,0l-17,0l-16,0l-17,-1l-16,-2l-17,-2l-16,-3l-17,-3l-16,-3l-17,-3l-16,-3l-17,-3l-16,-3l-17,-3l-16,-5l-17,-7l-17,-7l-16,-7l-17,-8l-16,-8l-17,-8l-16,-9l-17,-10l-16,-8l-15,-10l-2,-1l-16,-12l-17,-12l-16,-9l-17,-11l-16,-13l-17,-11l-16,-12l-17,-14l-16,-14l-17,-16l-16,-16l-7,-7l-10,-11l-16,-17l-17,-19l-16,-17l-17,-19l-17,-18l-16,-17l-17,-17l-11,-13l-5,-7l-17,-22l-16,-20l-17,-20l-16,-18l-17,-15l-16,-17l-17,-19l-7,-10l-9,-14l-17,-24l-16,-27l-17,-24l-16,-22l-17,-23l-9,-14l-7,-12l-17,-30l-16,-29l-17,-34l-16,-33l-6,-10l-11,-27l-17,-43l-16,-31l-17,-37l-3,-10l-13,-57l-17,-62l-6,-29l-6,-148l12,-78l12,-69l5,-11l16,-41l17,-38l16,-34l10,-24l7,-10l17,-25l16,-27l17,-25l16,-24l17,-24l9,-13l7,-8l17,-21l16,-18l17,-23l16,-21l17,-20l16,-20l17,-16l1,-1l15,-17l17,-16l16,-18l17,-18l16,-20l17,-21l16,-21l16,-17l1,-2l16,-21l17,-23l17,-24l16,-23l17,-22l16,-23l8,-10l9,-10l16,-21l17,-22l16,-19l2,-2Z" fill="#c77560" stroke-opacity="1.0"></path><path fill-opacity="1.000" stroke-width="10" stroke="#b05b5a" d="M3484,100l-16,20l-17,21l-16,21l-10,12l-7,8l-16,23l-17,22l-16,24l-17,23l-17,23l-16,21l-3,4l-14,16l-16,20l-17,22l-16,19l-17,19l-16,17l-17,17l-16,18l-17,15l-16,21l-17,20l-16,20l-17,23l-16,19l-17,20l-8,10l-8,11l-17,24l-16,24l-17,25l-16,28l-17,24l-8,12l-9,21l-16,34l-17,38l-16,41l-6,14l-11,60l-13,87l5,148l8,35l17,62l11,51l5,14l17,37l16,30l17,43l10,24l7,13l16,32l17,34l16,30l17,29l5,10l11,16l17,23l16,22l17,24l16,27l17,24l7,12l9,12l17,19l16,17l17,15l16,18l17,20l16,20l17,22l4,5l12,14l17,17l16,17l17,19l17,19l16,17l17,18l16,17l8,10l9,9l16,16l17,15l16,14l17,14l16,12l17,11l16,13l17,11l16,9l17,12l16,12l17,11l16,8l17,10l16,9l17,8l16,8l17,8l16,7l17,7l17,7l16,5l17,3l16,3l17,3l16,3l17,3l16,3l17,3l16,3l17,2l16,2l17,1l16,0l17,0l16,0l17,0l16,-1l17,-1l16,-1l17,-1l16,-3l17,-3l16,-1l17,-3l17,-2l16,-3l17,-2l16,-4l17,-4l16,-3l17,-4l16,-4l17,-4l16,-4l17,-3l16,-4l17,-5l16,-5l17,-5l16,-6l17,-5l16,-5l17,-4l16,-6l17,-4l16,-5l17,-7l14,-5l3,-1l16,-8l17,-9l16,-10l17,-7l16,-9l17,-10l16,-10l17,-12l16,-11l17,-11l16,-11l17,-10l16,-11l17,-10l11,-8l5,-4l17,-13l16,-14l17,-15l16,-13l17,-14l16,-13l17,-13l16,-13l17,-15l17,-17l3,-4l13,-16l17,-18l16,-20l17,-19l16,-24l17,-26l16,-22l3,-3l14,-21l16,-24l17,-24l16,-22l17,-23l16,-23l7,-11l10,-20l16,-29l17,-29l16,-33l17,-37l16,-52l17,-47l16,-49l17,-98l8,-50l-1,-148l-7,-20l-17,-50l-16,-52l-8,-25l-9,-14l-16,-29l-17,-28l-16,-27l-17,-26l-15,-24l-1,-2l-17,-22l-16,-21l-17,-21l-16,-19l-17,-20l-16,-23l-15,-20l-2,-3l-16,-25l-17,-29l-16,-26l-17,-25l-16,-22l-16,-18l-1,-2l-16,-25l-17,-28l-17,-23l-16,-22l-17,-19l-16,-21l-8,-8l-9,-12l-16,-24l-17,-28l-16,-25l-17,-22l-16,-23l-10,-14l-7,-14l-16,-28l-17,-29l-1,-3ZM3699,468l16,-14l17,-9l16,-7l17,-11l17,-6l16,-4l17,-3l16,-3l17,-3l16,-3l17,-1l16,-7l17,-4l16,-3l17,0l16,-2l17,0l16,3l17,3l16,2l17,0l16,0l17,0l16,3l17,3l16,0l17,0l16,7l17,3l17,6l16,3l17,7l16,6l17,0l16,7l17,4l16,6l17,7l16,3l17,4l12,5l4,1l17,10l16,9l17,10l16,8l17,6l16,5l17,9l16,8l17,9l16,6l17,10l17,14l16,13l17,13l16,12l5,5l12,12l16,14l17,16l16,18l17,15l16,17l17,20l16,14l17,20l2,2l14,17l17,31l16,23l17,25l16,29l13,23l4,14l16,50l17,42l15,41l-4,148l-11,58l-17,81l-1,9l-15,34l-17,44l-16,37l-17,30l-2,3l-14,16l-17,26l-16,19l-17,20l-16,17l-17,25l-16,19l-5,6l-12,13l-16,14l-17,15l-16,14l-17,13l-16,12l-17,15l-16,14l-17,7l-17,11l-16,7l-17,4l-16,7l-8,2l-9,2l-16,3l-17,6l-16,6l-17,10l-16,6l-17,6l-16,4l-17,4l-16,5l-17,4l-16,7l-17,5l-16,3l-17,1l-16,7l-17,0l-16,6l-17,3l-17,4l-16,3l-17,0l-16,2l-17,1l-16,0l-17,3l-16,0l-17,-1l-16,1l-17,4l-16,0l-17,3l-16,-3l-17,0l-16,-4l-17,-3l-16,-5l-17,-1l-16,-5l-17,0l-16,-4l-17,-4l-16,-8l-17,-8l-17,-11l-16,-6l-17,-13l-16,-13l-17,-15l-6,-5l-10,-9l-17,-14l-16,-18l-17,-15l-16,-18l-17,-20l-16,-15l-17,-19l-16,-18l-2,-2l-15,-21l-16,-27l-17,-31l-16,-33l-17,-33l-1,-3l-15,-42l-17,-45l-16,-45l-6,-16l-11,-58l-16,-74l-4,-16l-6,-148l10,-83l8,-64l8,-28l17,-58l16,-51l4,-11l13,-22l16,-31l17,-27l16,-26l17,-25l12,-17l4,-5l17,-14l16,-14l17,-12l16,-14l17,-15l16,-13l17,-11l16,-14l17,-12l16,-11l15,-13ZM3806,3280l-8,5l-16,15l-17,19l-17,15l-16,19l-17,22l-16,22l-17,19l-9,12l-7,9l-17,23l-16,18l-17,20l-16,23l-17,20l-16,17l-15,18l-2,2l-16,18l-17,17l-16,18l-17,19l1271,0l-15,-28l-17,-32l-8,-14l-8,-13l-17,-28l-16,-23l-17,-21l-16,-18l-17,-17l-16,-20l-7,-8l-10,-13l-16,-17l-17,-12l-17,-14l-16,-12l-17,-12l-16,-11l-17,-9l-16,-11l-17,-12l-16,-12l-17,-13l-16,-11l-17,-9l-16,-9l-17,-8l-16,-10l-17,-8l-16,-6l-17,-10l-16,-6l-17,-7l-16,-9l-17,-3l-16,-9l-17,0l-17,-6l-16,-4l-17,-6l-16,-2l-17,-1l-16,-2l-17,0l-16,0l-17,3l-16,-3l-17,3l-16,6l-17,6l-16,6l-17,13l-16,9l-17,17l-16,11l-17,13l-16,15l-17,9l-16,12Z" fill="#b05b5a" stroke-opacity="1.0"></path><path fill-opacity="1.000" stroke-width="10" stroke="#984b44" d="M3694,470l-12,10l-16,11l-17,12l-16,14l-17,11l-16,13l-17,16l-16,13l-17,12l-16,14l-17,15l-7,7l-9,13l-17,25l-16,26l-17,27l-16,31l-16,26l-1,3l-16,52l-17,58l-11,35l-5,46l-12,101l6,148l6,27l16,74l9,47l8,23l16,45l17,45l13,35l3,7l17,34l16,33l17,30l16,27l12,17l5,6l16,18l17,19l16,14l17,21l16,18l17,14l16,18l17,15l6,5l10,8l17,16l16,12l17,13l16,6l17,11l17,8l16,8l17,5l16,3l17,0l16,5l17,1l16,5l17,4l16,3l17,1l16,2l17,-3l16,0l17,-3l16,-1l17,1l16,0l17,-4l16,0l17,-1l16,-2l17,0l16,-3l17,-3l17,-4l16,-6l17,0l16,-6l17,-2l16,-3l17,-5l16,-6l17,-5l16,-5l17,-3l16,-4l17,-7l16,-6l17,-10l16,-6l17,-6l16,-3l17,-3l4,-2l12,-6l17,-3l16,-7l17,-11l17,-7l16,-15l17,-14l16,-13l17,-12l16,-15l17,-14l16,-15l15,-16l2,-2l16,-18l17,-26l16,-17l17,-20l16,-19l17,-26l16,-18l2,-2l15,-26l16,-37l17,-44l16,-37l2,-4l15,-74l15,-74l1,-74l3,-74l-3,-4l-16,-46l-17,-43l-16,-50l-1,-4l-16,-28l-16,-29l-17,-25l-16,-23l-17,-31l-10,-12l-6,-5l-17,-20l-16,-14l-17,-20l-16,-17l-17,-16l-16,-18l-17,-16l-16,-14l-9,-8l-8,-8l-16,-12l-17,-13l-16,-13l-17,-14l-17,-10l-16,-6l-17,-9l-16,-8l-17,-10l-16,-4l-17,-6l-16,-8l-17,-10l-16,-10l-14,-7l-3,-2l-16,-7l-17,-3l-16,-4l-17,-7l-16,-6l-17,-3l-16,-7l-17,-1l-16,-6l-17,-6l-16,-4l-17,-5l-17,-3l-16,-7l-17,0l-16,0l-17,-3l-16,-3l-17,0l-16,0l-17,0l-16,-2l-17,-3l-16,-3l-17,0l-16,1l-17,0l-16,4l-17,4l-16,6l-17,2l-16,3l-17,3l-16,3l-17,3l-16,4l-17,6l-17,11l-16,7l-17,9l-16,14Z" fill="#984b44" stroke-opacity="1.0"></path><path fill-opacity="0.125" stroke="none" d="" fill="#000"></path><path fill-opacity="0.251" stroke="none" d="M6772,3650l0,-944l-17,1l-16,0l-17,1l-16,1l-17,1l-16,1l-17,1l-16,1l-17,1l-16,1l-17,2l-17,1l-16,1l-17,2l-16,1l-17,2l-16,1l-17,2l-16,2l-17,2l-16,1l-17,2l-16,2l-17,2l-16,2l-17,2l-16,2l-17,2l-16,2l-17,2l-16,2l-17,3l-16,2l-17,2l-16,2l-17,3l-17,2l-16,2l-17,2l-16,3l-17,2l-16,2l-17,3l-16,2l-17,2l-16,3l-17,2l-16,2l-17,3l-16,2l-17,2l-16,3l-17,2l-16,3l-17,2l-16,-146l-17,3l-16,2l-17,2l-16,3l-17,2l-17,2l-16,2l-17,3l-16,2l-17,2l-16,2l-17,2l-16,3l-17,2l-16,2l-17,2l-16,2l-17,3l-16,2l-17,2l-16,2l-17,2l-16,2l-17,2l-16,2l-17,2l-16,2l-17,2l-17,2l-16,3l-17,2l-16,2l-17,2l-16,2l-17,2l-16,2l-17,2l-16,1l-17,2l-16,2l-17,2l-16,2l-17,2l-16,2l-17,2l-16,2l-17,2l-16,2l-17,2l-16,2l-17,2l-16,2l-17,2l-17,2l-16,2l-17,2l-16,2l-17,2l-16,2l-17,2l-16,2l-17,2l-16,2l-17,2l-16,2l-17,2l-16,2l-17,2l-16,2l-17,2l-16,2l-17,2l-16,3l-17,2l-16,2l-17,2l-16,2l-17,2l-17,2l-16,2l-17,2l-16,3l-17,2l-16,2l-17,2l-16,2l-17,2l-16,3l-17,2l-16,2l-17,2l-16,2l-17,2l-16,2l-17,3l-16,2l-17,2l-16,2l-17,2l-16,2l-17,2l-17,2l-16,2l-17,3l-16,2l-17,2l-16,2l-17,1l-16,2l-17,2l-16,2l-17,2l-16,2l-17,2l-16,1l-17,2l-16,2l-17,2l-16,1l-17,2l-16,1l-17,2l-16,1l-17,1l-16,2l-17,1l-17,1l-16,1l-17,1l-16,2l-17,0l-16,1l-17,1l-16,1l-17,1l-16,0l-17,1l-16,0l-17,1l-16,0l-17,1l-16,0l-17,0l-16,0l-17,0l-16,0l-17,0l-16,0l-17,-1l-16,0l-17,-1l-17,0l-16,-1l-17,0l-16,-1l-17,-1l-16,-1l-17,-1l-16,-1l-17,-1l-16,-1l-17,-2l-16,-1l-17,-1l-16,-2l-17,-2l-16,-1l-17,-2l-16,-2l-17,-2l-16,-1l-17,-2l-16,-2l-17,-3l-17,-2l-16,-2l-17,-2l-16,-3l-17,-2l-16,-2l-17,-3l-16,-3l-17,-2l-16,-3l-17,-2l-16,-3l-17,-3l-16,-3l-17,-3l-16,-3l-17,-3l-16,-3l-17,-3l-16,-3l-17,-3l-16,-3l-17,-3l-16,-4l-17,-3l-17,-3l-16,-4l-17,-3l-16,-3l-17,-4l-16,-3l-17,-4l-16,-3l-17,-4l-16,-3l-17,-4l-16,-3l-17,-4l-16,-3l-17,-4l-16,-3l-17,-4l-16,-4l-17,-3l-16,-4l-17,-3l-16,-4l-17,-4l-16,-3l-17,-4l-17,-4l-16,-3l-17,-4l-16,-4l-17,-3l-16,-4l-17,-3l-16,-4l-17,-3l-16,-4l-17,-4l-16,-3l-17,-4l-16,145l-17,-4l-16,-3l-17,-4l-16,-3l-17,-3l-16,-4l-17,-3l-16,-3l-17,-4l-17,-3l-16,-3l-17,-3l-16,-4l-17,-3l-16,-3l-17,-3l-16,-3l-17,-3l-16,-3l-17,-3l-16,-2l-17,-3l-16,-3l-17,-3l-16,-2l-17,-3l-16,-3l-17,-2l-16,-2l-17,-3l-16,-2l-17,-3l-16,-2l-17,-2l-17,-2l-16,-2l-17,-2l-16,-2l-17,-2l-16,-2l-17,-1l-16,-2l-17,-2l-16,-1l-17,-2l-16,-1l-17,-1l-16,-2l-17,-1l-16,-1l-17,-1l-16,-1l-17,-1l-16,0l-17,-1l-16,-1l-17,0l-16,-1l-17,0l-17,-1l-16,0l-17,0l-16,0l-17,0l-16,0l-17,0l-16,0l-17,1l-16,0l-17,1l0,944Z" fill="#000"></path><path fill-opacity="0.125" stroke="none" d="M758,2706l17,-1l16,0l17,-1l16,0l17,0l16,0l17,0l16,0l17,0l16,0l17,1l17,0l16,1l17,0l16,1l17,1l16,0l17,1l16,1l17,1l16,1l17,1l16,2l17,1l16,1l17,2l16,1l17,2l16,2l17,1l16,2l17,2l16,2l17,2l16,2l17,2l17,2l16,2l17,3l16,2l17,3l16,2l17,2l16,3l17,3l16,2l17,3l16,3l17,3l16,2l17,3l16,3l17,3l16,3l17,3l16,3l17,3l16,4l17,3l16,3l17,3l17,4l16,3l17,3l16,4l17,3l16,3l17,4l16,3l17,4l16,-145l17,4l16,3l17,4l16,4l17,3l16,4l17,3l16,4l17,3l16,4l17,4l16,3l17,4l17,4l16,3l17,4l16,4l17,3l16,4l17,3l16,4l17,4l16,3l17,4l16,3l17,4l16,3l17,4l16,3l17,4l16,3l17,4l16,3l17,4l16,3l17,3l16,4l17,3l17,3l16,4l17,3l16,3l17,3l16,3l17,3l16,3l17,3l16,3l17,3l16,3l17,3l16,3l17,2l16,3l17,2l16,3l17,3l16,2l17,2l16,3l17,2l16,2l17,2l17,3l16,2l17,2l16,1l17,2l16,2l17,2l16,1l17,2l16,2l17,1l16,1l17,2l16,1l17,1l16,1l17,1l16,1l17,1l16,1l17,0l16,1l17,0l17,1l16,0l17,1l16,0l17,0l16,0l17,0l16,0l17,0l16,0l17,-1l16,0l17,-1l16,0l17,-1l16,0l17,-1l16,-1l17,-1l16,-1l17,0l16,-2l17,-1l16,-1l17,-1l17,-1l16,-2l17,-1l16,-1l17,-2l16,-1l17,-2l16,-1l17,-2l16,-2l17,-2l16,-1l17,-2l16,-2l17,-2l16,-2l17,-2l16,-2l17,-1l16,-2l17,-2l16,-2l17,-3l16,-2l17,-2l17,-2l16,-2l17,-2l16,-2l17,-2l16,-2l17,-3l16,-2l17,-2l16,-2l17,-2l16,-2l17,-2l16,-3l17,-2l16,-2l17,-2l16,-2l17,-2l16,-3l17,-2l16,-2l17,-2l17,-2l16,-2l17,-2l16,-2l17,-2l16,-3l17,-2l16,-2l17,-2l16,-2l17,-2l16,-2l17,-2l16,-2l17,-2l16,-2l17,-2l16,-2l17,-2l16,-2l17,-2l16,-2l17,-2l16,-2l17,-2l17,-2l16,-2l17,-2l16,-2l17,-2l16,-2l17,-2l16,-2l17,-2l16,-2l17,-2l16,-2l17,-2l16,-2l17,-2l16,-1l17,-2l16,-2l17,-2l16,-2l17,-2l16,-2l17,-2l16,-3l17,-2l17,-2l16,-2l17,-2l16,-2l17,-2l16,-2l17,-2l16,-2l17,-2l16,-2l17,-3l16,-2l17,-2l16,-2l17,-2l16,-3l17,-2l16,-2l17,-2l16,-2l17,-3l16,-2l17,-2l17,-2l16,-3l17,-2l16,-2l17,-3l16,146l17,-2l16,-3l17,-2l16,-3l17,-2l16,-2l17,-3l16,-2l17,-2l16,-3l17,-2l16,-2l17,-3l16,-2l17,-2l16,-3l17,-2l16,-2l17,-2l17,-3l16,-2l17,-2l16,-2l17,-3l16,-2l17,-2l16,-2l17,-2l16,-2l17,-2l16,-2l17,-2l16,-2l17,-2l16,-1l17,-2l16,-2l17,-2l16,-1l17,-2l16,-1l17,-2l16,-1l17,-1l17,-2l16,-1l17,-1l16,-1l17,-1l16,-1l17,-1l16,-1l17,-1l16,0l17,-1l0,-70l-17,0l-16,1l-17,1l-16,0l-17,1l-16,1l-17,1l-16,1l-17,1l-16,2l-17,1l-17,1l-16,2l-17,1l-16,2l-17,1l-16,2l-17,2l-16,1l-17,2l-16,2l-17,2l-16,2l-17,2l-16,2l-17,2l-16,2l-17,2l-16,2l-17,3l-16,2l-17,2l-16,3l-17,2l-16,2l-17,3l-17,2l-16,2l-17,3l-16,2l-17,3l-16,2l-17,3l-16,2l-17,3l-16,2l-17,3l-16,2l-17,3l-16,2l-17,3l-16,2l-17,3l-16,2l-17,3l-16,-146l-17,3l-16,2l-17,3l-16,2l-17,2l-17,3l-16,2l-17,3l-16,2l-17,2l-16,3l-17,2l-16,2l-17,2l-16,3l-17,2l-16,2l-17,2l-16,3l-17,2l-16,2l-17,2l-16,2l-17,3l-16,2l-17,2l-16,2l-17,2l-17,2l-16,2l-17,2l-16,2l-17,2l-16,2l-17,2l-16,2l-17,2l-16,2l-17,2l-16,2l-17,2l-16,2l-17,2l-16,2l-17,2l-16,2l-17,2l-16,2l-17,2l-16,2l-17,2l-16,1l-17,2l-17,2l-16,2l-17,2l-16,2l-17,2l-16,2l-17,2l-16,2l-17,2l-16,1l-17,2l-16,2l-17,2l-16,2l-17,2l-16,2l-17,2l-16,2l-17,2l-16,2l-17,2l-16,2l-17,2l-16,2l-17,1l-17,2l-16,2l-17,2l-16,2l-17,2l-16,2l-17,2l-16,2l-17,2l-16,2l-17,2l-16,2l-17,2l-16,2l-17,2l-16,2l-17,2l-16,2l-17,2l-16,2l-17,2l-16,2l-17,2l-17,1l-16,2l-17,2l-16,2l-17,2l-16,2l-17,1l-16,2l-17,2l-16,2l-17,1l-16,2l-17,2l-16,1l-17,2l-16,1l-17,2l-16,1l-17,2l-16,1l-17,2l-16,1l-17,1l-16,1l-17,2l-17,1l-16,1l-17,1l-16,1l-17,1l-16,1l-17,0l-16,1l-17,1l-16,0l-17,1l-16,1l-17,0l-16,0l-17,1l-16,0l-17,0l-16,0l-17,0l-16,0l-17,0l-16,0l-17,0l-16,0l-17,-1l-17,0l-16,-1l-17,0l-16,-1l-17,-1l-16,0l-17,-1l-16,-1l-17,-1l-16,-1l-17,-1l-16,-2l-17,-1l-16,-1l-17,-1l-16,-2l-17,-2l-16,-1l-17,-2l-16,-2l-17,-1l-16,-2l-17,-2l-17,-2l-16,-2l-17,-2l-16,-2l-17,-3l-16,-2l-17,-2l-16,-2l-17,-3l-16,-2l-17,-3l-16,-2l-17,-3l-16,-3l-17,-2l-16,-3l-17,-3l-16,-3l-17,-3l-16,-3l-17,-3l-16,-3l-17,-3l-16,-3l-17,-3l-17,-3l-16,-3l-17,-3l-16,-4l-17,-3l-16,-3l-17,-4l-16,-3l-17,-3l-16,-4l-17,-3l-16,-3l-17,-4l-16,-3l-17,-4l-16,-3l-17,-4l-16,-3l-17,-4l-16,-4l-17,-3l-16,-4l-17,-3l-16,-4l-17,-3l-17,-4l-16,-4l-17,-3l-16,-4l-17,-3l-16,-4l-17,-3l-16,-4l-17,-4l-16,-3l-17,-4l-16,-3l-17,-4l-16,145l-17,-4l-16,-3l-17,-4l-16,-3l-17,-4l-16,-3l-17,-3l-16,-4l-17,-3l-17,-3l-16,-4l-17,-3l-16,-3l-17,-3l-16,-4l-17,-3l-16,-3l-17,-3l-16,-3l-17,-3l-16,-3l-17,-3l-16,-3l-17,-2l-16,-3l-17,-3l-16,-3l-17,-2l-16,-3l-17,-2l-16,-3l-17,-2l-16,-2l-17,-3l-17,-2l-16,-2l-17,-2l-16,-2l-17,-2l-16,-2l-17,-2l-16,-2l-17,-2l-16,-1l-17,-2l-16,-2l-17,-1l-16,-1l-17,-2l-16,-1l-17,-1l-16,-1l-17,-1l-16,-1l-17,-1l-16,-1l-17,0l-16,-1l-17,-1l-17,0l-16,0l-17,-1l-16,0l-17,0l-16,0l-17,0l-16,0l-17,0l-16,1l-17,0Z" fill="#000"></path><path fill-opacity="0.125" stroke="none" d="M758,1192l17,-2l16,-2l17,-2l16,-2l17,-2l16,-2l17,-3l16,-2l17,-2l16,-2l17,-3l17,-2l16,-3l17,-2l16,-2l17,-3l16,-2l17,-3l16,-3l17,-2l16,-3l17,-2l16,-3l17,-2l16,-3l17,-3l16,-2l17,-3l16,-2l17,-3l16,-3l17,-2l16,-3l17,-3l16,-2l17,-3l17,-2l16,-3l17,-2l16,-3l17,-2l16,-3l17,-3l16,-2l17,-3l16,-2l17,-3l16,-2l17,-2l16,-3l17,-2l16,-3l17,-2l16,-2l17,-3l16,-2l17,-2l16,-3l17,-2l16,-2l17,-3l17,-2l16,-2l17,-2l16,-3l17,-2l16,-2l17,-2l16,-3l17,-2l16,-150l17,-2l16,-2l17,-2l16,-2l17,-3l16,-2l17,-2l16,-2l17,-2l16,-2l17,-2l16,-2l17,-2l17,-3l16,-2l17,-2l16,-2l17,-2l16,-2l17,-2l16,-2l17,-2l16,-2l17,-2l16,-2l17,-3l16,-2l17,-2l16,-2l17,-2l16,-2l17,-2l16,-2l17,-2l16,-2l17,-3l16,-2l17,-2l17,-2l16,-2l17,-2l16,-2l17,-2l16,-2l17,-3l16,-2l17,-2l16,-2l17,-2l16,-2l17,-2l16,-2l17,-2l16,-3l17,-2l16,-2l17,-2l16,-2l17,-2l16,-2l17,-2l16,-2l17,-2l17,-2l16,-2l17,-2l16,-2l17,-2l16,-2l17,-2l16,-1l17,-2l16,-2l17,-2l16,-2l17,-1l16,-2l17,-2l16,-1l17,-2l16,-1l17,-2l16,-1l17,-2l16,-1l17,-1l17,-2l16,-1l17,-1l16,-1l17,-1l16,-1l17,-1l16,-1l17,-1l16,-1l17,0l16,-1l17,-1l16,0l17,-1l16,0l17,0l16,-1l17,0l16,0l17,0l16,0l17,0l16,0l17,1l17,0l16,0l17,1l16,0l17,1l16,0l17,1l16,1l17,1l16,1l17,1l16,1l17,1l16,1l17,2l16,1l17,2l16,1l17,2l16,1l17,2l16,2l17,2l16,1l17,2l17,2l16,3l17,2l16,2l17,2l16,2l17,3l16,2l17,3l16,2l17,3l16,3l17,2l16,3l17,3l16,3l17,2l16,3l17,3l16,3l17,3l16,3l17,3l17,4l16,3l17,3l16,3l17,4l16,3l17,3l16,4l17,3l16,3l17,4l16,3l17,4l16,3l17,4l16,3l17,4l16,3l17,4l16,4l17,3l16,4l17,4l16,3l17,4l17,3l16,4l17,4l16,4l17,3l16,4l17,4l16,3l17,4l16,4l17,3l16,4l17,4l16,3l17,4l16,3l17,4l16,4l17,3l16,4l17,3l16,4l17,3l16,4l17,3l17,4l16,3l17,3l16,4l17,3l16,3l17,4l16,3l17,3l16,3l17,3l16,4l17,3l16,3l17,3l16,3l17,2l16,3l17,3l16,3l17,2l16,3l17,3l17,2l16,3l17,2l16,3l17,2l16,150l17,2l16,2l17,2l16,2l17,2l16,2l17,2l16,2l17,1l16,2l17,1l16,2l17,1l16,1l17,2l16,1l17,1l16,1l17,1l17,1l16,0l17,1l16,0l17,1l16,0l17,1l16,0l17,0l16,0l17,0l16,0l17,0l16,0l17,-1l16,0l17,-1l16,0l17,-1l16,-1l17,-1l16,0l17,-1l16,-1l17,-2l17,-1l16,-1l17,-1l16,-2l17,-1l16,-2l17,-1l16,-2l17,-2l16,-2l17,-1l0,-71l-17,2l-16,2l-17,1l-16,2l-17,1l-16,2l-17,1l-16,2l-17,1l-16,1l-17,2l-17,1l-16,1l-17,1l-16,1l-17,1l-16,0l-17,1l-16,1l-17,0l-16,1l-17,0l-16,1l-17,0l-16,0l-17,0l-16,0l-17,0l-16,0l-17,0l-16,0l-17,-1l-16,0l-17,-1l-16,0l-17,-1l-17,-1l-16,-1l-17,-1l-16,-1l-17,-1l-16,-1l-17,-1l-16,-1l-17,-2l-16,-1l-17,-2l-16,-1l-17,-2l-16,-2l-17,-1l-16,-2l-17,-2l-16,-2l-17,-2l-16,-150l-17,-2l-16,-3l-17,-2l-16,-2l-17,-3l-17,-2l-16,-3l-17,-2l-16,-3l-17,-3l-16,-2l-17,-3l-16,-3l-17,-3l-16,-3l-17,-3l-16,-3l-17,-3l-16,-3l-17,-3l-16,-3l-17,-3l-16,-3l-17,-4l-16,-3l-17,-3l-16,-4l-17,-3l-17,-3l-16,-4l-17,-3l-16,-4l-17,-3l-16,-4l-17,-4l-16,-3l-17,-4l-16,-3l-17,-4l-16,-4l-17,-3l-16,-4l-17,-4l-16,-3l-17,-4l-16,-4l-17,-3l-16,-4l-17,-4l-16,-4l-17,-3l-16,-4l-17,-4l-17,-3l-16,-4l-17,-4l-16,-4l-17,-3l-16,-4l-17,-4l-16,-3l-17,-4l-16,-4l-17,-3l-16,-4l-17,-3l-16,-4l-17,-4l-16,-3l-17,-4l-16,-3l-17,-4l-16,-3l-17,-4l-16,-3l-17,-3l-16,-4l-17,-3l-17,-3l-16,-3l-17,-4l-16,-3l-17,-3l-16,-3l-17,-3l-16,-3l-17,-3l-16,-3l-17,-3l-16,-3l-17,-2l-16,-3l-17,-3l-16,-2l-17,-3l-16,-2l-17,-3l-16,-2l-17,-3l-16,-2l-17,-2l-17,-2l-16,-2l-17,-2l-16,-2l-17,-2l-16,-2l-17,-2l-16,-2l-17,-1l-16,-2l-17,-1l-16,-2l-17,-1l-16,-1l-17,-1l-16,-1l-17,-1l-16,-1l-17,-1l-16,-1l-17,-1l-16,0l-17,-1l-16,0l-17,-1l-17,0l-16,0l-17,-1l-16,0l-17,0l-16,0l-17,1l-16,0l-17,0l-16,0l-17,1l-16,0l-17,1l-16,1l-17,0l-16,1l-17,1l-16,1l-17,1l-16,1l-17,1l-16,1l-17,2l-16,1l-17,1l-17,2l-16,1l-17,2l-16,1l-17,2l-16,2l-17,1l-16,2l-17,2l-16,2l-17,1l-16,2l-17,2l-16,2l-17,2l-16,2l-17,2l-16,2l-17,3l-16,2l-17,2l-16,2l-17,2l-17,2l-16,3l-17,2l-16,2l-17,2l-16,3l-17,2l-16,2l-17,2l-16,3l-17,2l-16,2l-17,3l-16,2l-17,2l-16,3l-17,2l-16,2l-17,2l-16,3l-17,2l-16,2l-17,3l-16,2l-17,2l-17,2l-16,3l-17,2l-16,2l-17,2l-16,3l-17,2l-16,2l-17,2l-16,2l-17,3l-16,2l-17,2l-16,2l-17,2l-16,3l-17,2l-16,2l-17,2l-16,2l-17,2l-16,3l-17,2l-16,2l-17,2l-17,2l-16,2l-17,2l-16,3l-17,2l-16,2l-17,2l-16,2l-17,2l-16,2l-17,3l-16,2l-17,2l-16,150l-17,2l-16,2l-17,3l-16,2l-17,2l-16,2l-17,2l-16,3l-17,2l-17,2l-16,2l-17,3l-16,2l-17,2l-16,2l-17,3l-16,2l-17,2l-16,3l-17,2l-16,2l-17,3l-16,2l-17,2l-16,3l-17,2l-16,2l-17,3l-16,2l-17,3l-16,2l-17,2l-16,3l-17,2l-17,3l-16,2l-17,3l-16,2l-17,3l-16,2l-17,3l-16,2l-17,3l-16,2l-17,3l-16,2l-17,2l-16,3l-17,2l-16,3l-17,2l-16,3l-17,2l-16,2l-17,3l-16,2l-17,2l-16,3l-17,2l-17,2l-16,2l-17,3l-16,2l-17,2l-16,2l-17,2l-16,2l-17,2l-16,2l-17,2Z" fill="#000"></path><path fill-opacity="0.251" stroke="none" d="M758,1122l17,-2l16,-2l17,-2l16,-2l17,-2l16,-2l17,-2l16,-2l17,-3l16,-2l17,-2l17,-2l16,-3l17,-2l16,-2l17,-3l16,-2l17,-2l16,-3l17,-2l16,-3l17,-2l16,-3l17,-2l16,-2l17,-3l16,-2l17,-3l16,-2l17,-3l16,-2l17,-3l16,-2l17,-3l16,-2l17,-3l17,-2l16,-3l17,-2l16,-2l17,-3l16,-2l17,-3l16,-2l17,-2l16,-3l17,-2l16,-2l17,-3l16,-2l17,-2l16,-3l17,-2l16,-2l17,-3l16,-2l17,-2l16,-2l17,-3l16,-2l17,-2l17,-2l16,-3l17,-2l16,-2l17,-2l16,-2l17,-3l16,-2l17,-2l16,-150l17,-2l16,-2l17,-3l16,-2l17,-2l16,-2l17,-2l16,-2l17,-2l16,-3l17,-2l16,-2l17,-2l17,-2l16,-2l17,-2l16,-3l17,-2l16,-2l17,-2l16,-2l17,-2l16,-3l17,-2l16,-2l17,-2l16,-2l17,-3l16,-2l17,-2l16,-2l17,-2l16,-3l17,-2l16,-2l17,-2l16,-3l17,-2l17,-2l16,-2l17,-3l16,-2l17,-2l16,-3l17,-2l16,-2l17,-2l16,-3l17,-2l16,-2l17,-3l16,-2l17,-2l16,-3l17,-2l16,-2l17,-2l16,-3l17,-2l16,-2l17,-2l16,-3l17,-2l17,-2l16,-2l17,-2l16,-2l17,-3l16,-2l17,-2l16,-2l17,-2l16,-2l17,-2l16,-2l17,-1l16,-2l17,-2l16,-2l17,-1l16,-2l17,-2l16,-1l17,-2l16,-1l17,-2l17,-1l16,-1l17,-2l16,-1l17,-1l16,-1l17,-1l16,-1l17,-1l16,-1l17,0l16,-1l17,-1l16,0l17,-1l16,0l17,0l16,0l17,-1l16,0l17,0l16,0l17,1l16,0l17,0l17,1l16,0l17,1l16,0l17,1l16,1l17,1l16,1l17,1l16,1l17,1l16,1l17,1l16,2l17,1l16,2l17,1l16,2l17,2l16,2l17,2l16,2l17,2l16,2l17,2l17,2l16,2l17,3l16,2l17,3l16,2l17,3l16,2l17,3l16,3l17,2l16,3l17,3l16,3l17,3l16,3l17,3l16,3l17,3l16,3l17,4l16,3l17,3l17,3l16,4l17,3l16,3l17,4l16,3l17,4l16,3l17,4l16,3l17,4l16,4l17,3l16,4l17,3l16,4l17,4l16,3l17,4l16,4l17,3l16,4l17,4l16,4l17,3l17,4l16,4l17,3l16,4l17,4l16,4l17,3l16,4l17,4l16,3l17,4l16,4l17,3l16,4l17,4l16,3l17,4l16,3l17,4l16,4l17,3l16,4l17,3l16,4l17,3l17,3l16,4l17,3l16,3l17,4l16,3l17,3l16,3l17,3l16,3l17,3l16,3l17,3l16,3l17,3l16,3l17,3l16,2l17,3l16,3l17,2l16,3l17,2l17,3l16,2l17,2l16,3l17,2l16,150l17,2l16,2l17,2l16,2l17,1l16,2l17,2l16,1l17,2l16,1l17,2l16,1l17,1l16,1l17,1l16,1l17,1l16,1l17,1l17,1l16,0l17,1l16,0l17,1l16,0l17,0l16,0l17,0l16,0l17,0l16,0l17,0l16,-1l17,0l16,-1l17,0l16,-1l17,-1l16,0l17,-1l16,-1l17,-1l16,-1l17,-1l17,-2l16,-1l17,-1l16,-2l17,-1l16,-2l17,-1l16,-2l17,-1l16,-2l17,-2l0,-1024l-6014,0Z" fill="#000"></path><path fill-opacity="0.125" stroke="none" d="" fill="#000"></path></g><g transform="scale(0.1)"></g><g stroke-width="1" stroke="#000" fill="none" stroke-opacity="0.2"><line x2="126.2" y1="10" x1="126.2" y2="370" stroke-opacity="0.2"></line><line x2="172.5" y1="10" x1="172.5" y2="370" stroke-opacity="0.2"></line><line x2="223.7" y1="10" x1="223.7" y2="370" stroke-opacity="0.2"></line><line x2="273.2" y1="10" x1="273.2" y2="370" stroke-opacity="0.2"></line><line x2="324.5" y1="10" x1="324.5" y2="370" stroke-opacity="0.2"></line><line x2="374" y1="10" x1="374" y2="370" stroke-opacity="0.2"></line><line x2="425.2" y1="10" x1="425.2" y2="370" stroke-opacity="0.2"></line><line x2="476.4" y1="10" x1="476.4" y2="370" stroke-opacity="0.2"></line><line x2="526" y1="10" x1="526" y2="370" stroke-opacity="0.2"></line><line x2="577.2" y1="10" x1="577.2" y2="370" stroke-opacity="0.2"></line><line x2="626.8" y1="10" x1="626.8" y2="370" stroke-opacity="0.2"></line><line x2="681" y1="365" x1="72" y2="365"></line><line x2="681" y1="335.4" x1="72" y2="335.4"></line><line x2="681" y1="305.8" x1="72" y2="305.8"></line><line x2="681" y1="276.3" x1="72" y2="276.3"></line><line x2="681" y1="246.7" x1="72" y2="246.7"></line><line x2="681" y1="217.1" x1="72" y2="217.1"></line><line x2="681" y1="187.5" x1="72" y2="187.5"></line><line x2="681" y1="157.9" x1="72" y2="157.9"></line><line x2="681" y1="128.3" x1="72" y2="128.3"></line><line x2="681" y1="98.8" x1="72" y2="98.8"></line><line x2="681" y1="69.2" x1="72" y2="69.2"></line><line x2="681" y1="39.6" x1="72" y2="39.6"></line><line x2="681" y1="10" x1="72" y2="10"></line></g><g><rect fill-opacity="0.004" y="10" x="75" height="355" width="51.2" fill="#fff"></rect><text stroke="none" y="381.5" text-anchor="middle" x="100.6">Jan</text></g><g><rect fill-opacity="0.004" y="10" x="126.2" height="355" width="46.3" fill="#fff"></rect><text stroke="none" y="381.5" text-anchor="middle" x="149.3">Feb</text></g><g><rect fill-opacity="0.004" y="10" x="172.5" height="355" width="51.2" fill="#fff"></rect><text stroke="none" y="381.5" text-anchor="middle" x="198.1">Mar</text></g><g><rect fill-opacity="0.004" y="10" x="223.7" height="355" width="49.6" fill="#fff"></rect><text stroke="none" y="381.5" text-anchor="middle" x="248.5">Apr</text></g><g><rect fill-opacity="0.004" y="10" x="273.2" height="355" width="51.2" fill="#fff"></rect><text stroke="none" y="381.5" text-anchor="middle" x="298.9">May</text></g><g><rect fill-opacity="0.004" y="10" x="324.5" height="355" width="49.6" fill="#fff"></rect><text stroke="none" y="381.5" text-anchor="middle" x="349.2">Jun</text></g><g><rect fill-opacity="0.004" y="10" x="374" height="355" width="51.2" fill="#fff"></rect><text stroke="none" y="381.5" text-anchor="middle" x="399.6">Jul</text></g><g><rect fill-opacity="0.004" y="10" x="425.2" height="355" width="51.2" fill="#fff"></rect><text stroke="none" y="381.5" text-anchor="middle" x="450.8">Aug</text></g><g><rect fill-opacity="0.004" y="10" x="476.4" height="355" width="49.6" fill="#fff"></rect><text stroke="none" y="381.5" text-anchor="middle" x="501.2">Sep</text></g><g><rect fill-opacity="0.004" y="10" x="526" height="355" width="51.2" fill="#fff"></rect><text stroke="none" y="381.5" text-anchor="middle" x="551.6">Oct</text></g><g><rect fill-opacity="0.004" y="10" x="577.2" height="355" width="49.6" fill="#fff"></rect><text stroke="none" y="381.5" text-anchor="middle" x="602">Nov</text></g><g><rect fill-opacity="0.004" y="10" x="626.8" height="355" width="51.2" fill="#fff"></rect><text stroke="none" y="381.5" text-anchor="middle" x="652.4">Dec</text></g><g stroke="none" fill="#666"><text y="370.2" text-anchor="end" x="71">0</text><text y="370.2" x="682">0</text><text y="340.6" text-anchor="end" x="71">2</text><text y="340.6" x="682">2</text><text y="311" text-anchor="end" x="71">4</text><text y="311" x="682">4</text><text y="281.4" text-anchor="end" x="71">6</text><text y="281.4" x="682">6</text><text y="251.9" text-anchor="end" x="71">8</text><text y="251.9" x="682">8</text><text y="222.3" text-anchor="end" x="71">10</text><text y="222.3" x="682">10</text><text y="192.7" text-anchor="end" x="71">12</text><text y="192.7" x="682">12</text><text y="163.1" text-anchor="end" x="71">14</text><text y="163.1" x="682">14</text><text y="133.5" text-anchor="end" x="71">16</text><text y="133.5" x="682">16</text><text y="103.9" text-anchor="end" x="71">18</text><text y="103.9" x="682">18</text><text y="74.4" text-anchor="end" x="71">20</text><text y="74.4" x="682">20</text><text y="44.8" text-anchor="end" x="71">22</text><text y="44.8" x="682">22</text><text y="15.2" text-anchor="end" x="71">0</text><text y="15.2" x="682">0</text></g><g font-family="sans-serif" text-decoration="none" font-style="normal" font-size="15" font-weight="normal"><text font-family="sans-serif" stroke="none" opacity="0.8" y="270.8" text-decoration="none" text-anchor="middle" x="115.4" font-style="normal" font-size="15" fill="#fff" font-weight="normal">0°-6°</text></g><g font-family="sans-serif" text-decoration="none" font-style="normal" font-size="15" font-weight="normal"><text font-family="sans-serif" stroke="none" opacity="0.8" y="61" text-decoration="none" text-anchor="middle" x="111.3" font-style="normal" font-size="15" fill="#fff" font-weight="normal">7°-12°</text></g><g font-family="sans-serif" text-decoration="none" font-style="normal" font-size="15" font-weight="normal"><text font-family="sans-serif" stroke="none" opacity="0.8" y="73.2" text-decoration="none" text-anchor="middle" x="646.5" font-style="normal" font-size="15" fill="#fff" font-weight="normal">7°-12°</text></g><g font-family="sans-serif" text-decoration="none" font-style="normal" font-size="15" font-weight="normal"><text font-family="sans-serif" stroke="none" opacity="0.8" y="289.5" text-decoration="none" text-anchor="middle" x="191.2" font-style="normal" font-size="15" fill="#fff" font-weight="normal">7°-12°</text></g><g font-family="sans-serif" text-decoration="none" font-style="normal" font-size="15" font-weight="normal"><text font-family="sans-serif" stroke="none" opacity="0.8" y="202.9" text-decoration="none" text-anchor="middle" x="655" font-style="normal" font-size="15" fill="#fff" font-weight="normal">7°-12°</text></g><g font-family="sans-serif" text-decoration="none" font-style="normal" font-size="15" font-weight="normal"><text font-family="sans-serif" stroke="none" opacity="0.8" y="141.2" text-decoration="none" text-anchor="middle" x="125.2" font-style="normal" font-size="15" fill="#fff" font-weight="normal">13°-17°</text></g><g font-family="sans-serif" text-decoration="none" font-style="normal" font-size="15" font-weight="normal"><text font-family="sans-serif" stroke="none" opacity="0.8" y="144.8" text-decoration="none" text-anchor="middle" x="635.9" font-style="normal" font-size="15" fill="#fff" font-weight="normal">13°-17°</text></g><g font-family="sans-serif" text-decoration="none" font-style="normal" font-size="15" font-weight="normal"><text font-family="sans-serif" stroke="none" opacity="0.8" y="283.2" text-decoration="none" text-anchor="middle" x="411.4" font-style="normal" font-size="15" fill="#fff" font-weight="normal">24°-28°</text></g><g font-family="sans-serif" text-decoration="none" font-style="normal" font-size="15" font-weight="normal"><text font-family="sans-serif" stroke="none" opacity="0.8" y="217.7" text-decoration="none" text-anchor="middle" x="410.5" font-style="normal" font-size="15" fill="#fff" font-weight="normal">29°-34°</text></g><g font-family="sans-serif" text-decoration="none" font-style="normal" font-size="15" font-weight="normal"><text font-family="sans-serif" stroke="none" opacity="0.8" y="347.1" text-decoration="none" text-anchor="middle" x="408.8" font-style="normal" font-size="15" fill="#fff" font-weight="normal">29°-34°</text></g><g font-family="sans-serif" text-decoration="none" font-style="normal" font-size="15" font-weight="normal"><text font-family="sans-serif" stroke="none" opacity="0.8" y="119.3" text-decoration="none" text-anchor="middle" x="414.8" font-style="normal" font-size="15" fill="#fff" font-weight="normal">35°+</text></g><g font-family="sans-serif" text-decoration="none" font-style="normal" font-size="15" font-weight="normal"><text font-family="sans-serif" stroke="none" opacity="0.8" y="266.3" text-decoration="none" text-anchor="middle" x="642.7" font-style="normal" font-size="15" fill="#fff" font-weight="normal">0°-6°</text></g><g font-family="sans-serif" text-decoration="none" font-style="normal" font-size="15" font-weight="normal"><text font-family="sans-serif" stroke="none" opacity="0.8" y="137.7" text-decoration="none" text-anchor="middle" x="205" font-style="normal" font-size="15" fill="#fff" font-weight="normal">18°-23°</text></g><g font-family="sans-serif" text-decoration="none" font-style="normal" font-size="15" font-weight="normal"><text font-family="sans-serif" stroke="none" opacity="0.8" y="25.9" text-decoration="none" text-anchor="middle" x="642.7" font-style="normal" font-size="15" fill="#fff" font-weight="normal">0°-6°</text></g><g font-family="sans-serif" text-decoration="none" font-style="normal" font-size="15" font-weight="normal"><text font-family="sans-serif" stroke="none" opacity="0.8" y="269" text-decoration="none" text-anchor="middle" x="506.6" font-style="normal" font-size="15" fill="#fff" font-weight="normal">18°-23°</text></g><g font-family="sans-serif" text-decoration="none" font-style="normal" font-size="15" font-weight="normal"><text font-family="sans-serif" stroke="none" opacity="0.8" y="25.9" text-decoration="none" text-anchor="middle" x="110.3" font-style="normal" font-size="15" fill="#fff" font-weight="normal">0°-6°</text></g></svg>