<svg font-family="sans-serif" viewBox="0 0 753 387" xmlns:xlink="http://www.w3.org/1999/xlink" text-decoration="none" font-style="normal" width="753px" xmlns="http://www.w3.org/2000/svg" font-size="15" version="1.1" font-weight="normal" height="387px"><title>Average Hourly Temperature in Dhaka</title><defs><clipPath id="plot-sample-bounds-0"><rect y="0" x="75.8" height="365" width="601.3"></rect></clipPath><clipPath id="plot-sample-bounds-scaled-0"><rect y="0" x="758.3" height="3650" width="6013.5"></rect></clipPath></defs><g transform="scale(0.1)"><path fill-opacity="1.000" stroke-width="10" stroke="#5ca0b4" d="" fill="#5ca0b4" stroke-opacity="1.0"></path><path fill-opacity="1.000" stroke-width="10" stroke="#83c2d5" d="" fill="#83c2d5" stroke-opacity="1.0"></path><path fill-opacity="1.000" stroke-width="10" stroke="#679568" d="" fill="#679568" stroke-opacity="1.0"></path><path fill-opacity="1.000" stroke-width="10" stroke="#74a877" d="" fill="#74a877" stroke-opacity="1.0"></path><path fill-opacity="1.000" stroke-width="10" stroke="#8dbf71" d="M758,484l0,0l17,5l16,0l17,2l16,0l17,2l16,2l17,0l16,-2l17,2l16,-4l17,-5l17,-7l16,-9l17,-4l16,-5l17,-5l16,-6l17,-5l16,-6l17,-11l16,-9l17,-8l16,-9l17,-8l16,-10l17,-10l16,-10l17,-13l16,-10l17,-12l9,-7l7,-12l17,-30l16,-34l17,-30l16,-34l4,-8l13,-19l17,-26l16,-22l5,-7l-633,0ZM6368,100l7,23l17,51l16,30l17,29l16,32l17,27l16,26l2,4l15,14l16,14l17,11l16,10l17,9l16,12l17,8l17,10l16,9l17,8l16,7l17,8l16,6l17,5l16,7l17,6l11,4l5,2l17,5l0,-377ZM868,2097l-11,3l-16,2l-17,4l-16,3l-17,6l-16,4l-17,5l0,1526l633,0l12,-17l16,-26l17,-26l3,-5l13,-62l17,-78l1,-8l15,-60l17,-68l6,-20l10,-31l17,-55l16,-62l17,-82l13,-66l3,-29l14,-119l3,-29l12,-118l-12,-33l-17,-37l-16,-48l-12,-30l-5,-6l-16,-17l-17,-17l-16,-19l-17,-19l-16,-18l-17,-18l-16,-20l-11,-14l-6,-7l-16,-19l-17,-17l-16,-17l-17,-19l-17,-15l-16,-17l-17,-18l-16,-17l-2,-2l-15,-10l-16,-12l-17,-11l-16,-11l-17,-10l-16,-9l-17,-11l-16,-9l-17,-9l-16,-8l-17,-8l-16,-7l-17,-8l-16,-7l-17,-5l-16,-3l-17,-5l-16,-1l-13,-4l-4,-1l-16,-3l-17,-3l-17,0l-16,1l-17,2l-16,2ZM6605,2245l-15,16l-17,17l-16,17l-17,17l-16,16l-17,17l-16,18l-17,17l-13,13l-3,3l-17,15l-16,15l-17,15l-16,13l-17,13l-16,17l-17,15l-16,15l-17,15l-13,12l-3,6l-17,31l-16,29l-17,29l-16,28l-17,25l17,131l1,16l15,148l17,148l16,87l12,61l5,21l16,64l15,63l2,12l16,102l6,34l11,42l9,32l404,0l0,-1512l0,0l-17,8l-16,8l-17,10l-16,9l-17,12l-16,10l-17,12l-16,12l-17,11l-16,13Z" fill="#8dbf71" stroke-opacity="1.0"></path><path fill-opacity="1.000" stroke-width="10" stroke="#e9cc77" d="M1389,100l-3,4l-16,22l-17,26l-15,22l-2,4l-16,34l-17,30l-16,34l-17,31l-9,15l-7,5l-17,12l-16,11l-17,12l-16,10l-17,10l-16,10l-17,8l-16,9l-17,8l-16,9l-17,11l-16,6l-17,5l-16,6l-17,5l-16,5l-17,4l-4,2l-12,7l-17,7l-17,4l-16,5l-17,-2l-16,2l-17,0l-16,-2l-17,-2l-16,0l-17,-3l-16,0l-17,-4l0,1643l17,-5l16,-4l17,-5l16,-3l17,-4l16,-3l17,-4l16,-3l17,-1l16,-2l17,0l17,3l16,3l17,5l16,2l17,4l16,3l17,6l16,6l17,9l16,7l17,7l16,9l17,9l16,9l17,10l16,10l17,9l16,11l17,12l16,11l13,9l4,3l16,18l17,18l16,16l17,16l17,18l16,17l17,18l16,19l4,5l13,15l16,21l17,18l16,18l17,19l16,19l17,17l16,17l4,4l13,34l16,48l17,37l10,29l-10,103l-5,44l-12,104l-5,44l-11,58l-17,82l-1,8l-15,56l-17,55l-12,37l-4,14l-17,67l-16,67l-17,78l-15,70l-1,3l-17,25l-16,27l-14,19l554,0l5,-9l16,-31l17,-34l16,-125l4,-23l13,-45l16,-66l10,-37l7,-23l16,-54l17,-59l3,-12l13,-59l17,-81l2,-8l13,-148l1,-16l14,-131l3,-60l7,-88l-7,-5l-17,-16l-16,-16l-17,-16l-16,-13l-17,-16l-16,-14l-17,-15l-16,-13l-17,-13l-13,-11l-3,-3l-17,-13l-16,-14l-17,-14l-16,-14l-17,-15l-16,-16l-17,-15l-16,-15l-17,-17l-12,-12l-4,-5l-17,-15l-16,-17l-17,-16l-17,-15l-16,-17l-17,-17l-16,-17l-17,-16l-14,-13l-2,-2l-17,-12l-16,-15l-17,-15l-16,-16l-17,-14l-16,-16l-17,-13l-16,-14l-17,-15l-16,-15l-2,-1l-15,-12l-16,-14l-17,-14l-16,-13l-17,-14l-16,-14l-17,-15l-16,-13l-17,-13l-17,-13l-16,-12l-2,-1l-15,-15l-16,-18l-17,-18l-16,-15l-17,-17l-16,-19l-17,-18l-16,-19l-8,-9l-9,-22l-16,-39l-17,-30l-16,-35l-11,-22l-6,-13l-16,-30l-17,-26l-16,-27l-17,-26l-16,-17l-7,-9l7,-16l16,-36l17,-52l13,-44l3,-2l17,-12l16,-15l17,-16l16,-15l17,-16l16,-17l17,-18l16,-20l15,-17l2,-2l16,-23l17,-18l16,-20l17,-19l16,-23l17,-21l16,-21l17,-19l17,-19l16,-19l17,-18l16,-22l17,-18l16,-20l13,-13l4,-4l16,-20l17,-19l16,-18l17,-21l16,-18l17,-22l16,-21l5,-5l12,-14l16,-20l17,-19l16,-19l17,-19l16,-19l17,-21l16,-17l17,-20l16,-19l17,-22l17,-20l16,-21l17,-21l16,-23l2,-2l15,-32l16,-34l17,-35l16,-32l8,-15l9,-17l16,-33l12,-24ZM5752,100l12,74l17,48l16,47l17,48l1,5l15,30l17,32l16,35l17,39l5,12l11,18l17,30l16,32l17,31l16,28l6,9l11,16l16,29l17,30l16,25l17,23l16,22l2,3l15,10l16,12l17,12l16,13l17,12l16,12l17,10l17,12l16,10l17,10l16,12l17,11l16,12l17,15l16,15l17,15l16,13l17,16l16,14l17,14l16,13l17,14l16,13l7,5l10,9l16,16l17,14l16,15l17,14l16,11l17,14l16,14l17,13l17,14l16,13l2,1l15,32l16,37l17,32l16,36l7,11l-7,11l-16,39l-17,32l-16,43l-9,23l-8,27l-16,65l-15,56l-2,5l-17,46l-16,36l-17,40l-13,21l-3,2l-17,14l-16,16l-17,15l-16,15l-17,14l-16,15l-17,15l-16,16l-17,18l-7,8l-9,9l-17,17l-16,15l-17,16l-16,18l-17,17l-16,18l-17,19l-16,17l-2,2l-15,14l-16,15l-17,15l-17,15l-16,16l-17,16l-16,19l-17,16l-16,17l-5,5l-12,11l-16,14l-17,15l-16,13l-17,13l-16,12l-17,12l-16,14l-17,14l-16,13l-17,14l-4,3l-12,10l-17,13l-16,13l-17,15l-16,16l-17,14l-16,15l-17,17l-17,17l-16,16l-2,2l-15,38l-16,42l-17,41l-11,27l11,74l11,73l6,37l15,111l-11,148l12,74l12,74l5,34l15,114l-7,148l8,46l5,28l618,0l-11,-39l-9,-35l-8,-45l-16,-103l-17,-70l-16,-64l-4,-14l-13,-69l-15,-79l-1,-16l-15,-132l-2,-16l-13,-132l-3,-32l-15,-115l15,-22l16,-28l17,-29l16,-28l17,-32l5,-9l11,-10l17,-16l16,-15l17,-14l16,-17l17,-14l16,-12l17,-15l16,-15l17,-16l5,-4l11,-12l17,-16l16,-19l17,-16l16,-16l17,-17l16,-17l17,-17l17,-18l16,-13l17,-12l16,-12l17,-12l16,-10l17,-11l16,-10l17,-10l16,-8l17,-8l0,-1664l-17,-5l-16,-6l-17,-5l-16,-8l-17,-5l-16,-6l-17,-8l-16,-7l-17,-8l-16,-9l-17,-10l-17,-8l-16,-12l-17,-9l-16,-10l-17,-11l-16,-14l-12,-12l-5,-8l-16,-26l-17,-27l-16,-32l-17,-29l-14,-26l-2,-6l-17,-52l-5,-16Z" fill="#e9cc77" stroke-opacity="1.0"></path><path fill-opacity="1.000" stroke-width="10" stroke="#c77560" d="M1942,100l-11,21l-16,33l-11,20l-6,12l-16,32l-17,35l-16,34l-17,35l-16,23l-17,21l-16,21l-17,21l-17,21l-16,19l-17,20l-1,2l-15,15l-17,21l-16,19l-17,20l-16,18l-17,19l-16,20l-14,16l-3,3l-16,21l-17,22l-16,18l-17,21l-16,18l-17,19l-16,20l-6,6l-11,11l-16,20l-17,19l-16,21l-17,18l-16,19l-17,19l-17,19l-1,2l-15,19l-17,21l-16,23l-17,19l-16,19l-17,19l-16,23l-4,4l-13,15l-16,20l-17,18l-16,17l-17,16l-16,15l-17,16l-16,15l-17,12l-5,4l-11,35l-17,52l-16,37l-10,24l10,13l16,18l17,26l16,26l17,26l16,31l4,8l13,26l16,35l17,31l16,39l8,17l9,11l16,19l17,18l16,19l17,17l16,15l17,18l16,19l13,12l4,3l16,12l17,12l17,13l16,14l17,14l16,15l17,13l16,14l17,13l16,14l13,11l4,3l16,14l17,16l16,14l17,13l16,15l17,15l16,15l17,16l16,14l17,13l16,15l17,15l16,17l17,18l16,17l17,14l17,16l16,17l17,16l3,3l13,14l17,16l16,16l17,15l16,16l17,15l16,14l17,14l16,14l17,12l2,2l14,13l17,13l16,13l17,14l16,15l17,16l16,13l17,16l16,16l17,15l5,4l-5,59l-5,89l-12,115l-3,32l-13,148l-17,82l-14,66l-2,6l-17,59l-16,54l-8,29l-9,31l-16,66l-15,51l-2,12l-16,124l-2,12l-15,31l-16,32l-6,11l3812,0l-7,-37l-6,-37l6,-148l-16,-125l-3,-23l-14,-83l-10,-65l10,-148l-16,-123l-4,-25l-13,-86l-9,-61l9,-22l17,-42l16,-42l17,-42l16,-16l17,-18l17,-16l16,-15l17,-14l16,-17l17,-15l16,-13l17,-13l14,-11l2,-2l17,-14l16,-13l17,-14l16,-13l17,-13l16,-11l17,-13l16,-14l17,-15l16,-14l14,-12l3,-4l16,-16l17,-17l16,-18l17,-17l16,-15l17,-15l17,-15l16,-16l17,-15l16,-18l17,-18l16,-18l17,-18l16,-17l17,-17l16,-15l17,-16l10,-11l6,-7l17,-17l16,-16l17,-16l16,-15l17,-13l16,-15l17,-16l16,-15l17,-15l5,-3l11,-17l17,-40l16,-35l17,-46l4,-10l13,-49l16,-65l10,-34l7,-17l16,-43l17,-33l16,-38l10,-17l-10,-16l-16,-37l-17,-31l-16,-37l-12,-27l-5,-3l-16,-13l-17,-14l-17,-13l-16,-14l-17,-14l-16,-11l-17,-13l-16,-16l-17,-14l-16,-16l-8,-7l-9,-6l-16,-14l-17,-14l-16,-13l-17,-14l-16,-14l-17,-15l-16,-14l-17,-15l-16,-15l-15,-13l-2,-2l-16,-12l-17,-11l-16,-11l-17,-10l-16,-10l-17,-12l-17,-11l-16,-12l-17,-11l-16,-13l-17,-13l-16,-12l-13,-8l-4,-6l-16,-22l-17,-23l-16,-25l-17,-30l-16,-28l-9,-14l-8,-12l-16,-28l-17,-31l-16,-32l-17,-30l-9,-15l-7,-16l-17,-39l-16,-35l-17,-32l-13,-26l-3,-11l-17,-47l-16,-48l-15,-42l-2,-10l-10,-64ZM2245,616l17,-12l16,-7l17,-5l16,-7l17,-3l16,-10l17,-10l16,-7l17,-9l16,-5l17,-2l16,-3l17,-1l16,-5l17,-5l16,0l17,0l16,-2l17,3l17,1l16,7l17,5l16,1l17,2l16,4l17,-1l16,3l17,0l16,7l17,6l16,0l17,-1l16,0l17,1l16,1l17,0l16,-1l17,5l16,1l17,5l16,-1l17,0l16,1l17,-4l17,1l16,2l17,-5l16,-5l17,-5l16,-5l17,-7l16,-11l17,-5l16,2l17,1l16,-1l17,1l16,2l17,5l16,-3l17,-1l16,6l17,7l16,6l17,4l16,0l17,4l17,6l16,4l17,5l16,0l17,3l16,4l17,3l16,8l17,8l16,4l17,8l8,4l8,5l17,16l16,10l17,18l16,11l17,8l16,17l17,9l16,12l17,6l16,5l17,6l16,6l17,-5l17,11l16,7l8,6l9,6l16,6l17,18l16,3l17,7l16,0l17,-5l16,7l17,0l16,0l17,0l16,-7l17,-7l16,0l17,0l16,-7l17,-7l16,-7l17,-7l16,-5l17,-5l16,-9l17,4l17,-4l16,0l17,9l16,5l17,5l16,9l17,-9l16,9l17,-9l16,-5l17,0l16,0l17,5l16,0l17,-5l16,0l17,5l16,0l17,-5l16,0l17,-5l16,0l17,-1l17,0l16,6l8,5l9,9l16,10l17,2l16,18l17,30l16,0l17,5l16,-5l17,-7l16,-11l17,0l16,8l17,4l16,4l17,10l16,0l17,3l16,7l17,11l16,8l17,7l16,6l17,1l17,6l16,11l17,0l16,5l17,1l16,5l17,0l16,0l17,4l16,4l17,12l16,0l17,0l16,3l17,4l16,10l17,5l16,11l17,2l16,6l17,0l16,9l17,4l16,8l17,5l17,3l16,1l17,9l16,10l17,10l16,12l17,7l16,6l4,2l13,8l16,10l17,8l16,7l17,9l16,7l17,7l16,5l17,7l16,11l17,13l16,12l17,12l16,12l17,9l17,11l16,40l17,21l16,34l17,27l16,21l4,5l-4,25l-16,123l-17,50l-16,73l-9,25l-8,8l-16,21l-17,17l-17,18l-16,15l-17,16l-16,15l-17,16l-16,13l-17,9l-16,3l-17,3l-16,4l-17,10l-16,8l-17,4l-16,7l-17,8l-16,6l-17,8l-16,19l-17,17l-16,12l-17,15l-16,8l-17,8l-11,8l-6,6l-16,22l-17,19l-16,18l-17,18l-16,12l-17,16l-16,7l-17,11l-16,1l-17,6l-16,6l-17,0l-16,6l-17,7l-16,7l-17,3l-16,4l-17,3l-16,3l-17,3l-16,3l-17,0l-16,2l-17,3l-17,0l-16,0l-17,1l-16,-2l-17,2l-16,-2l-17,0l-16,-3l-17,0l-16,0l-17,-1l-16,0l-17,-3l-16,-3l-17,-4l-16,0l-17,-3l-16,-3l-17,0l-16,0l-17,0l-16,0l-17,-4l-16,0l-17,-3l-17,-3l-16,-7l-17,-5l-16,-4l-17,0l-16,-5l-17,-5l-16,-4l-17,-6l-16,0l-17,-5l-16,-1l-17,-5l-16,-9l-17,-7l-16,-10l-17,-3l-16,-8l-17,0l-16,0l-17,8l-16,3l-17,-6l-17,-2l-16,-3l-17,-2l-16,0l-17,-8l-16,8l-17,-3l-16,-3l-17,6l-16,2l-17,-2l-16,0l-17,0l-16,0l-17,2l-16,3l-17,0l-16,5l-17,5l-16,3l-17,10l-16,15l-17,5l-16,10l-17,0l-17,5l-16,5l-17,6l-16,5l-17,4l-16,3l-17,8l-16,7l-17,5l-16,5l-17,6l-16,-1l-17,3l-16,8l-17,0l-16,3l-17,7l-16,3l-17,-1l-16,1l-17,0l-16,3l-17,3l-16,2l-17,2l-17,0l-16,0l-17,-2l-16,2l-17,3l-16,0l-17,-5l-16,-5l-17,-2l-16,2l-17,-3l-16,-3l-17,-2l-16,-6l-17,-5l-16,-10l-17,-3l-16,-6l-17,-3l-16,-3l-17,-3l-16,-2l-17,-5l-17,-1l-16,-4l-17,0l-16,0l-17,-3l-16,2l-17,-2l-16,-2l-17,-2l-16,2l-17,-2l-16,-2l-17,-4l-16,0l-17,2l-16,4l-17,-2l-16,-2l-17,-4l-16,-2l-17,-1l-16,0l-17,1l-16,0l-17,-1l-17,-2l-16,-2l-17,-6l-16,-4l-17,-5l-16,-5l-17,-2l-16,-3l-17,-6l-16,-7l-17,-8l-16,-11l-17,-6l-16,-4l-17,-5l-16,-7l-17,-5l-16,-7l-17,-6l-16,-9l-17,-9l-16,-9l-14,-7l-3,-2l-16,-9l-17,-7l-17,-9l-16,-9l-17,-9l-16,-11l-17,-10l-16,-10l-17,-9l-16,-10l-17,-10l-16,-9l-17,-8l-16,-10l-17,-10l-11,-6l-5,-8l-17,-32l-16,-30l-17,-27l-16,-35l-7,-16l-10,-30l-16,-46l-17,-51l-7,-21l-9,-26l-17,-50l-17,-51l-7,-21l-9,-148l16,-23l17,-25l17,-24l16,-27l17,-23l16,-21l4,-5l13,-18l16,-25l17,-16l16,-18l17,-21l16,-20l17,-16l12,-13l4,-7l17,-21l16,-22l17,-26l16,-31l17,-25l8,-16l8,-8l17,-13l16,-16l17,-15l16,-15l17,-10l17,-13l16,-12l17,-12l16,-13l17,-11l13,-10Z" fill="#c77560" stroke-opacity="1.0"></path><path fill-opacity="1.000" stroke-width="10" stroke="#b05b5a" d="M2240,618l-11,8l-17,11l-16,13l-17,12l-16,12l-17,12l-17,11l-16,15l-17,15l-16,16l-17,12l-10,11l-6,12l-17,26l-16,30l-17,27l-16,22l-17,21l-7,10l-9,10l-17,16l-16,20l-17,21l-16,18l-17,17l-16,25l-15,20l-2,3l-16,21l-17,23l-16,26l-17,25l-17,25l-16,23l-2,2l2,30l7,118l9,26l17,51l17,50l7,21l9,27l17,50l16,46l8,25l9,20l16,35l17,27l16,30l17,32l2,4l14,7l17,10l16,11l17,8l16,9l17,9l16,11l17,8l16,11l17,10l16,10l17,9l16,10l17,9l17,6l16,10l17,9l16,9l17,9l16,9l17,6l16,7l17,5l16,7l17,4l16,5l17,6l16,11l17,8l16,7l17,6l16,3l17,2l16,5l17,5l16,4l17,6l16,2l17,1l17,2l16,0l17,-2l16,1l17,1l16,2l17,4l16,2l17,2l16,-4l17,-2l16,0l17,4l16,2l17,2l16,-2l17,2l16,2l17,3l16,-3l17,3l16,0l17,0l16,5l17,0l17,5l16,3l17,3l16,3l17,3l16,5l17,4l16,9l17,6l16,5l17,3l16,3l17,3l16,-2l17,2l16,5l17,5l16,0l17,-3l16,-2l17,2l16,0l17,0l17,-2l16,-1l17,-4l16,-3l17,0l16,-1l17,1l16,-3l17,-6l16,-4l17,0l16,-7l17,-4l16,1l17,-6l16,-4l17,-6l16,-7l17,-7l16,-4l17,-3l16,-4l17,-5l16,-6l17,-5l17,0l16,-10l17,-5l16,-15l17,-10l16,-2l17,-6l16,-5l17,0l16,-3l17,-2l16,0l17,0l16,0l17,2l16,-2l17,-5l16,2l17,3l16,-8l17,8l16,0l17,2l16,3l17,3l17,5l16,-3l17,-8l16,0l17,0l16,8l17,3l16,10l17,7l16,9l17,5l16,1l17,5l16,0l17,5l16,5l17,5l16,4l17,0l16,5l17,3l16,7l17,3l17,3l16,1l17,3l16,0l17,1l16,0l17,0l16,2l17,4l16,0l17,3l16,3l17,4l16,0l17,1l16,0l17,0l16,2l17,0l16,3l17,-3l16,3l17,-1l16,0l17,-1l17,-3l16,-2l17,0l16,-3l17,-3l16,-3l17,-2l16,-4l17,-4l16,-7l17,-7l16,-3l17,0l16,-6l17,-6l16,0l17,-12l16,-7l17,-16l16,-12l17,-18l16,-18l17,-19l16,-22l12,-12l5,-4l17,-8l16,-8l17,-15l16,-12l17,-18l16,-18l17,-8l16,-6l17,-9l16,-7l17,-4l16,-7l17,-11l16,-3l17,-4l16,-3l6,-3l11,-6l16,-12l17,-17l16,-14l17,-17l16,-15l17,-18l17,-16l16,-22l12,-11l5,-12l16,-74l17,-49l3,-13l13,-98l8,-50l-8,-10l-16,-21l-17,-27l-16,-35l-17,-20l-14,-35l-2,-2l-17,-11l-17,-10l-16,-11l-17,-12l-16,-12l-17,-13l-16,-11l-17,-7l-16,-5l-17,-7l-16,-7l-17,-9l-16,-8l-17,-7l-16,-10l-9,-6l-8,-5l-16,-6l-17,-7l-16,-12l-17,-10l-16,-10l-17,-9l-16,-2l-17,-2l-17,-5l-16,-9l-17,-4l-16,-9l-17,0l-16,-6l-17,-2l-16,-11l-17,-4l-16,-11l-17,-4l-16,-3l-17,0l-16,0l-17,-12l-16,-4l-17,-5l-16,0l-17,0l-16,-5l-17,-1l-16,-5l-17,0l-16,-12l-17,-5l-17,-2l-16,-5l-17,-8l-16,-8l-17,-12l-16,-6l-17,-4l-16,0l-17,-10l-16,-4l-17,-5l-16,-7l-17,0l-16,10l-17,7l-16,3l-17,-5l-16,0l-17,-30l-16,-19l-17,-1l-16,-9l-17,-11l-16,-5l-17,0l-17,1l-16,0l-17,5l-16,0l-17,5l-16,0l-17,-5l-16,0l-17,5l-16,0l-17,-5l-16,0l-17,0l-16,5l-17,5l-16,-5l-17,5l-16,-5l-17,-5l-16,-5l-17,-8l-16,0l-17,4l-17,-5l-16,9l-17,5l-16,5l-17,5l-16,7l-17,7l-16,7l-17,0l-16,0l-17,7l-16,7l-17,0l-16,0l-17,0l-16,-7l-17,5l-16,0l-17,-6l-16,-3l-17,-18l-16,-6l-17,-12l-16,-7l-17,-11l-17,5l-16,-6l-17,-6l-16,-5l-17,-6l-16,-12l-17,-9l-16,-17l-17,-8l-16,-10l-17,-18l-16,-10l-17,-16l-16,-8l-17,-7l-16,-5l-17,-8l-16,-8l-17,-3l-16,-4l-17,-3l-16,0l-17,-5l-16,-4l-17,-6l-17,-4l-16,0l-17,-4l-16,-5l-17,-8l-16,-6l-17,1l-16,4l-17,-6l-16,-1l-17,-2l-16,2l-17,-2l-16,-2l-17,6l-16,10l-17,7l-16,5l-17,6l-16,5l-17,4l-16,-1l-17,-1l-17,4l-16,-1l-17,0l-16,1l-17,-4l-16,-2l-17,-4l-16,1l-17,0l-16,-2l-17,-1l-16,0l-17,1l-16,0l-17,-5l-16,-8l-17,0l-16,-3l-17,2l-16,-4l-17,-3l-16,-1l-17,-5l-16,-7l-17,-1l-17,-2l-16,1l-17,0l-16,0l-17,5l-16,5l-17,2l-16,2l-17,3l-16,5l-17,8l-16,8l-17,10l-16,10l-17,2l-16,8l-17,5l-16,7l-17,11Z" fill="#b05b5a" stroke-opacity="1.0"></path><path fill-opacity="1.000" stroke-width="10" stroke="#984b44" d="" fill="#984b44" stroke-opacity="1.0"></path><path fill-opacity="0.125" stroke="none" d="" fill="#000"></path><path fill-opacity="0.251" stroke="none" d="M6772,3650l0,-926l-17,1l-16,1l-17,1l-16,1l-17,1l-16,1l-17,1l-16,1l-17,1l-16,2l-17,1l-17,1l-16,2l-17,1l-16,1l-17,2l-16,1l-17,2l-16,1l-17,2l-16,1l-17,2l-16,1l-17,2l-16,1l-17,2l-16,2l-17,1l-16,2l-17,1l-16,2l-17,2l-16,1l-17,2l-16,2l-17,1l-17,2l-16,1l-17,2l-16,2l-17,1l-16,2l-17,1l-16,2l-17,2l-16,1l-17,2l-16,1l-17,2l-16,1l-17,2l-16,1l-17,2l-16,1l-17,1l-16,2l-17,1l-16,1l-17,2l-16,1l-17,1l-17,2l-16,1l-17,1l-16,1l-17,2l-16,1l-17,1l-16,1l-17,1l-16,1l-17,1l-16,2l-17,1l-16,1l-17,1l-16,1l-17,1l-16,1l-17,1l-16,1l-17,1l-16,1l-17,1l-17,1l-16,0l-17,1l-16,1l-17,1l-16,1l-17,1l-16,1l-17,1l-16,0l-17,1l-16,1l-17,1l-16,1l-17,1l-16,0l-17,1l-16,1l-17,1l-16,1l-17,1l-16,0l-17,1l-16,1l-17,1l-17,1l-16,1l-17,0l-16,1l-17,1l-16,1l-17,1l-16,1l-17,1l-16,1l-17,0l-16,1l-17,1l-16,1l-17,1l-16,1l-17,1l-16,1l-17,1l-16,1l-17,1l-16,1l-17,1l-16,1l-17,1l-17,1l-16,1l-17,1l-16,1l-17,1l-16,1l-17,2l-16,1l-17,1l-16,1l-17,1l-16,1l-17,2l-16,1l-17,1l-16,1l-17,1l-16,1l-17,2l-16,1l-17,1l-16,1l-17,1l-17,2l-16,1l-17,1l-16,1l-17,2l-16,1l-17,1l-16,1l-17,1l-16,1l-17,2l-16,1l-17,1l-16,1l-17,1l-16,1l-17,1l-16,1l-17,2l-16,1l-17,1l-16,1l-17,1l-16,0l-17,1l-17,1l-16,1l-17,1l-16,1l-17,1l-16,0l-17,1l-16,1l-17,0l-16,1l-17,0l-16,1l-17,0l-16,1l-17,0l-16,0l-17,1l-16,0l-17,0l-16,0l-17,0l-16,0l-17,0l-16,0l-17,0l-17,0l-16,0l-17,0l-16,-1l-17,0l-16,0l-17,-1l-16,0l-17,-1l-16,0l-17,-1l-16,-1l-17,-1l-16,0l-17,-1l-16,-1l-17,-1l-16,-1l-17,-1l-16,-1l-17,-1l-16,-2l-17,-1l-17,-1l-16,-2l-17,-1l-16,-1l-17,-2l-16,-1l-17,-2l-16,-2l-17,-1l-16,-2l-17,-2l-16,-1l-17,-2l-16,-2l-17,-2l-16,-2l-17,-2l-16,-2l-17,-2l-16,-2l-17,-2l-16,-2l-17,-2l-16,-2l-17,-2l-17,-2l-16,-3l-17,-2l-16,-2l-17,-2l-16,-3l-17,-2l-16,-2l-17,-3l-16,-2l-17,-3l-16,-2l-17,-2l-16,-3l-17,-2l-16,-3l-17,-2l-16,-3l-17,-2l-16,-3l-17,-2l-16,-3l-17,-2l-16,-2l-17,-3l-17,-2l-16,-3l-17,-2l-16,-3l-17,-2l-16,-3l-17,-2l-16,-3l-17,-2l-16,-2l-17,-3l-16,-2l-17,-3l-16,-2l-17,-2l-16,-3l-17,-2l-16,-2l-17,-2l-16,-3l-17,-2l-16,-2l-17,-2l-17,-2l-16,-2l-17,-2l-16,-3l-17,-2l-16,-2l-17,-1l-16,-2l-17,-2l-16,-2l-17,-2l-16,-2l-17,-1l-16,-2l-17,-2l-16,-1l-17,-2l-16,-1l-17,-2l-16,-1l-17,-2l-16,-1l-17,-1l-16,-2l-17,-1l-17,-1l-16,-1l-17,-1l-16,-1l-17,-1l-16,-1l-17,-1l-16,0l-17,-1l-16,-1l-17,0l-16,-1l-17,0l-16,-1l-17,0l-16,0l-17,-1l-16,0l-17,0l-16,0l-17,0l-16,0l-17,0l-16,0l-17,0l-17,1l-16,0l-17,0l-16,1l-17,0l-16,1l-17,0l-16,1l-17,0l-16,1l-17,1l0,927Z" fill="#000"></path><path fill-opacity="0.125" stroke="none" d="M758,2723l17,-1l16,-1l17,0l16,-1l17,0l16,-1l17,0l16,-1l17,0l16,0l17,-1l17,0l16,0l17,0l16,0l17,0l16,0l17,0l16,0l17,1l16,0l17,0l16,1l17,0l16,1l17,0l16,1l17,1l16,0l17,1l16,1l17,1l16,1l17,1l16,1l17,1l17,1l16,2l17,1l16,1l17,2l16,1l17,2l16,1l17,2l16,1l17,2l16,2l17,1l16,2l17,2l16,2l17,2l16,2l17,1l16,2l17,2l16,3l17,2l16,2l17,2l17,2l16,2l17,2l16,3l17,2l16,2l17,2l16,3l17,2l16,2l17,3l16,2l17,3l16,2l17,2l16,3l17,2l16,3l17,2l16,3l17,2l16,3l17,2l17,3l16,2l17,2l16,3l17,2l16,3l17,2l16,3l17,2l16,3l17,2l16,3l17,2l16,2l17,3l16,2l17,3l16,2l17,2l16,3l17,2l16,2l17,2l16,3l17,2l17,2l16,2l17,2l16,2l17,2l16,2l17,2l16,2l17,2l16,2l17,2l16,2l17,2l16,1l17,2l16,2l17,1l16,2l17,2l16,1l17,2l16,1l17,1l16,2l17,1l17,1l16,2l17,1l16,1l17,1l16,1l17,1l16,1l17,1l16,0l17,1l16,1l17,1l16,0l17,1l16,0l17,1l16,0l17,0l16,1l17,0l16,0l17,0l17,0l16,0l17,0l16,0l17,0l16,0l17,0l16,0l17,-1l16,0l17,0l16,-1l17,0l16,-1l17,0l16,-1l17,0l16,-1l17,-1l16,0l17,-1l16,-1l17,-1l16,-1l17,-1l17,-1l16,0l17,-1l16,-1l17,-1l16,-1l17,-2l16,-1l17,-1l16,-1l17,-1l16,-1l17,-1l16,-1l17,-2l16,-1l17,-1l16,-1l17,-1l16,-1l17,-2l16,-1l17,-1l16,-1l17,-2l17,-1l16,-1l17,-1l16,-1l17,-2l16,-1l17,-1l16,-1l17,-1l16,-1l17,-2l16,-1l17,-1l16,-1l17,-1l16,-1l17,-2l16,-1l17,-1l16,-1l17,-1l16,-1l17,-1l17,-1l16,-1l17,-1l16,-1l17,-1l16,-1l17,-1l16,-1l17,-1l16,-1l17,-1l16,-1l17,-1l16,-1l17,0l16,-1l17,-1l16,-1l17,-1l16,-1l17,-1l16,-1l17,0l16,-1l17,-1l17,-1l16,-1l17,-1l16,0l17,-1l16,-1l17,-1l16,-1l17,-1l16,0l17,-1l16,-1l17,-1l16,-1l17,-1l16,0l17,-1l16,-1l17,-1l16,-1l17,-1l16,-1l17,-1l16,0l17,-1l17,-1l16,-1l17,-1l16,-1l17,-1l16,-1l17,-1l16,-1l17,-1l16,-1l17,-1l16,-2l17,-1l16,-1l17,-1l16,-1l17,-1l16,-1l17,-2l16,-1l17,-1l16,-1l17,-2l17,-1l16,-1l17,-2l16,-1l17,-1l16,-2l17,-1l16,-1l17,-2l16,-1l17,-2l16,-1l17,-2l16,-1l17,-2l16,-1l17,-2l16,-2l17,-1l16,-2l17,-1l16,-2l17,-2l16,-1l17,-2l17,-1l16,-2l17,-2l16,-1l17,-2l16,-2l17,-1l16,-2l17,-1l16,-2l17,-2l16,-1l17,-2l16,-1l17,-2l16,-1l17,-2l16,-1l17,-2l16,-1l17,-2l16,-1l17,-1l16,-2l17,-1l17,-1l16,-2l17,-1l16,-1l17,-1l16,-1l17,-1l16,-1l17,-1l16,-1l17,-1l0,-61l-17,1l-16,1l-17,1l-16,1l-17,1l-16,1l-17,1l-16,1l-17,1l-16,2l-17,1l-17,1l-16,2l-17,1l-16,1l-17,2l-16,1l-17,2l-16,1l-17,2l-16,1l-17,2l-16,2l-17,1l-16,2l-17,2l-16,1l-17,2l-16,2l-17,1l-16,2l-17,2l-16,1l-17,2l-16,2l-17,2l-17,1l-16,2l-17,2l-16,1l-17,2l-16,2l-17,1l-16,2l-17,2l-16,1l-17,2l-16,2l-17,1l-16,2l-17,1l-16,2l-17,1l-16,2l-17,1l-16,2l-17,1l-16,2l-17,1l-16,2l-17,1l-17,1l-16,2l-17,1l-16,1l-17,2l-16,1l-17,1l-16,1l-17,2l-16,1l-17,1l-16,1l-17,1l-16,1l-17,2l-16,1l-17,1l-16,1l-17,1l-16,1l-17,1l-16,1l-17,1l-17,1l-16,1l-17,1l-16,0l-17,1l-16,1l-17,1l-16,1l-17,1l-16,1l-17,1l-16,0l-17,1l-16,1l-17,1l-16,1l-17,1l-16,0l-17,1l-16,1l-17,1l-16,1l-17,0l-16,1l-17,1l-17,1l-16,1l-17,0l-16,1l-17,1l-16,1l-17,1l-16,0l-17,1l-16,1l-17,1l-16,1l-17,1l-16,0l-17,1l-16,1l-17,1l-16,1l-17,1l-16,1l-17,1l-16,0l-17,1l-16,1l-17,1l-17,1l-16,1l-17,1l-16,1l-17,1l-16,1l-17,1l-16,1l-17,1l-16,1l-17,1l-16,1l-17,1l-16,1l-17,1l-16,1l-17,2l-16,1l-17,1l-16,1l-17,1l-16,1l-17,1l-17,1l-16,1l-17,1l-16,1l-17,2l-16,1l-17,1l-16,1l-17,1l-16,1l-17,1l-16,1l-17,1l-16,1l-17,1l-16,1l-17,1l-16,1l-17,1l-16,1l-17,1l-16,1l-17,1l-16,1l-17,1l-17,1l-16,1l-17,0l-16,1l-17,1l-16,1l-17,0l-16,1l-17,0l-16,1l-17,1l-16,0l-17,1l-16,0l-17,0l-16,1l-17,0l-16,0l-17,1l-16,0l-17,0l-16,0l-17,0l-16,0l-17,0l-17,0l-16,0l-17,0l-16,-1l-17,0l-16,0l-17,-1l-16,0l-17,-1l-16,0l-17,-1l-16,0l-17,-1l-16,-1l-17,0l-16,-1l-17,-1l-16,-1l-17,-1l-16,-1l-17,-1l-16,-1l-17,-1l-17,-1l-16,-1l-17,-2l-16,-1l-17,-1l-16,-2l-17,-1l-16,-2l-17,-1l-16,-2l-17,-1l-16,-2l-17,-2l-16,-1l-17,-2l-16,-2l-17,-2l-16,-2l-17,-2l-16,-2l-17,-2l-16,-1l-17,-3l-16,-2l-17,-2l-17,-2l-16,-2l-17,-2l-16,-2l-17,-2l-16,-3l-17,-2l-16,-2l-17,-2l-16,-3l-17,-2l-16,-2l-17,-3l-16,-2l-17,-2l-16,-3l-17,-2l-16,-3l-17,-2l-16,-2l-17,-3l-16,-2l-17,-3l-16,-2l-17,-3l-17,-2l-16,-3l-17,-2l-16,-2l-17,-3l-16,-2l-17,-3l-16,-2l-17,-3l-16,-2l-17,-2l-16,-3l-17,-2l-16,-3l-17,-2l-16,-2l-17,-3l-16,-2l-17,-2l-16,-2l-17,-3l-16,-2l-17,-2l-17,-2l-16,-2l-17,-3l-16,-2l-17,-2l-16,-2l-17,-2l-16,-2l-17,-2l-16,-2l-17,-1l-16,-2l-17,-2l-16,-2l-17,-2l-16,-1l-17,-2l-16,-2l-17,-1l-16,-2l-17,-1l-16,-1l-17,-2l-16,-1l-17,-1l-17,-2l-16,-1l-17,-1l-16,-1l-17,-1l-16,-1l-17,-1l-16,-1l-17,-1l-16,0l-17,-1l-16,-1l-17,0l-16,-1l-17,0l-16,-1l-17,0l-16,0l-17,-1l-16,0l-17,0l-16,0l-17,0l-16,0l-17,0l-17,0l-16,1l-17,0l-16,0l-17,1l-16,0l-17,1l-16,0l-17,1l-16,0l-17,1Z" fill="#000"></path><path fill-opacity="0.125" stroke="none" d="M758,1079l17,-2l16,-1l17,-2l16,-2l17,-1l16,-2l17,-2l16,-2l17,-1l16,-2l17,-2l17,-2l16,-2l17,-1l16,-2l17,-2l16,-2l17,-1l16,-2l17,-2l16,-2l17,-2l16,-1l17,-2l16,-2l17,-2l16,-1l17,-2l16,-2l17,-1l16,-2l17,-2l16,-1l17,-2l16,-2l17,-1l17,-2l16,-1l17,-2l16,-2l17,-1l16,-2l17,-1l16,-1l17,-2l16,-1l17,-2l16,-1l17,-2l16,-1l17,-1l16,-2l17,-1l16,-1l17,-1l16,-2l17,-1l16,-1l17,-1l16,-1l17,-2l17,-1l16,-1l17,-1l16,-1l17,-1l16,-1l17,-1l16,-1l17,-1l16,-2l17,-1l16,-1l17,-1l16,-1l17,-1l16,-1l17,-1l16,-1l17,-1l16,-1l17,0l16,-1l17,-1l17,-1l16,-1l17,-1l16,-1l17,-1l16,-1l17,-1l16,-1l17,-1l16,-1l17,-1l16,-1l17,-1l16,-1l17,-1l16,-1l17,-1l16,-1l17,-1l16,-1l17,-1l16,-1l17,-1l16,-1l17,-1l17,-1l16,-1l17,-1l16,-1l17,-1l16,-2l17,-1l16,-1l17,-1l16,-1l17,-1l16,-1l17,-1l16,-2l17,-1l16,-1l17,-1l16,-1l17,-1l16,-2l17,-1l16,-1l17,-1l16,-1l17,-2l17,-1l16,-1l17,-1l16,-1l17,-2l16,-1l17,-1l16,-1l17,-1l16,-1l17,-2l16,-1l17,-1l16,-1l17,-1l16,-1l17,-1l16,-1l17,-1l16,-1l17,-1l16,-1l17,-1l17,-1l16,-1l17,-1l16,-1l17,-1l16,-1l17,-1l16,0l17,-1l16,-1l17,0l16,-1l17,-1l16,0l17,-1l16,0l17,-1l16,0l17,0l16,-1l17,0l16,0l17,0l16,0l17,0l17,-1l16,0l17,1l16,0l17,0l16,0l17,0l16,1l17,0l16,0l17,1l16,0l17,1l16,0l17,1l16,1l17,1l16,0l17,1l16,1l17,1l16,1l17,1l16,1l17,1l17,2l16,1l17,1l16,1l17,2l16,1l17,2l16,1l17,2l16,1l17,2l16,2l17,1l16,2l17,2l16,2l17,1l16,2l17,2l16,2l17,2l16,2l17,2l17,2l16,3l17,2l16,2l17,2l16,2l17,3l16,2l17,2l16,3l17,2l16,2l17,3l16,2l17,3l16,2l17,2l16,3l17,2l16,3l17,2l16,3l17,2l16,3l17,3l17,2l16,3l17,2l16,3l17,2l16,3l17,2l16,3l17,3l16,2l17,3l16,2l17,3l16,2l17,3l16,2l17,3l16,2l17,3l16,2l17,3l16,2l17,2l16,3l17,2l17,3l16,2l17,2l16,2l17,3l16,2l17,2l16,2l17,2l16,2l17,3l16,2l17,2l16,2l17,1l16,2l17,2l16,2l17,2l16,2l17,1l16,2l17,1l17,2l16,2l17,1l16,1l17,2l16,1l17,1l16,2l17,1l16,1l17,1l16,1l17,1l16,1l17,0l16,1l17,1l16,1l17,0l16,1l17,0l16,1l17,0l16,0l17,1l17,0l16,0l17,0l16,0l17,0l16,0l17,0l16,-1l17,0l16,0l17,-1l16,0l17,-1l16,0l17,-1l16,-1l17,0l16,-1l17,-1l16,-1l17,-1l16,-1l17,-1l16,-1l17,-1l17,-1l16,-2l17,-1l16,-1l17,-2l16,-1l17,-1l16,-2l17,-1l16,-2l17,-1l0,-61l-17,1l-16,2l-17,1l-16,2l-17,1l-16,1l-17,2l-16,1l-17,1l-16,2l-17,1l-17,1l-16,1l-17,1l-16,1l-17,1l-16,1l-17,1l-16,1l-17,1l-16,0l-17,1l-16,1l-17,0l-16,1l-17,0l-16,1l-17,0l-16,0l-17,1l-16,0l-17,0l-16,0l-17,0l-16,0l-17,0l-17,0l-16,0l-17,-1l-16,0l-17,0l-16,-1l-17,0l-16,-1l-17,-1l-16,0l-17,-1l-16,-1l-17,-1l-16,-1l-17,0l-16,-1l-17,-2l-16,-1l-17,-1l-16,-1l-17,-1l-16,-2l-17,-1l-16,-1l-17,-2l-17,-1l-16,-2l-17,-2l-16,-1l-17,-2l-16,-2l-17,-1l-16,-2l-17,-2l-16,-2l-17,-2l-16,-2l-17,-2l-16,-2l-17,-2l-16,-2l-17,-2l-16,-2l-17,-3l-16,-2l-17,-2l-16,-2l-17,-3l-17,-2l-16,-2l-17,-3l-16,-2l-17,-3l-16,-2l-17,-2l-16,-3l-17,-2l-16,-3l-17,-2l-16,-3l-17,-2l-16,-3l-17,-3l-16,-2l-17,-3l-16,-2l-17,-3l-16,-2l-17,-3l-16,-3l-17,-2l-16,-3l-17,-2l-17,-3l-16,-2l-17,-3l-16,-3l-17,-2l-16,-3l-17,-2l-16,-3l-17,-2l-16,-3l-17,-2l-16,-3l-17,-2l-16,-3l-17,-2l-16,-3l-17,-2l-16,-2l-17,-3l-16,-2l-17,-2l-16,-3l-17,-2l-16,-2l-17,-2l-17,-2l-16,-3l-17,-2l-16,-2l-17,-2l-16,-2l-17,-2l-16,-2l-17,-2l-16,-1l-17,-2l-16,-2l-17,-2l-16,-2l-17,-1l-16,-2l-17,-1l-16,-2l-17,-1l-16,-2l-17,-1l-16,-2l-17,-1l-17,-1l-16,-1l-17,-2l-16,-1l-17,-1l-16,-1l-17,-1l-16,-1l-17,0l-16,-1l-17,-1l-16,-1l-17,0l-16,-1l-17,0l-16,-1l-17,0l-16,-1l-17,0l-16,0l-17,-1l-16,0l-17,0l-16,0l-17,0l-17,0l-16,0l-17,0l-16,0l-17,1l-16,0l-17,0l-16,1l-17,0l-16,1l-17,0l-16,1l-17,0l-16,1l-17,1l-16,0l-17,1l-16,1l-17,1l-16,0l-17,1l-16,1l-17,1l-16,1l-17,1l-17,1l-16,1l-17,1l-16,2l-17,1l-16,1l-17,1l-16,1l-17,1l-16,1l-17,2l-16,1l-17,1l-16,2l-17,1l-16,1l-17,1l-16,2l-17,1l-16,1l-17,2l-16,1l-17,1l-17,2l-16,1l-17,1l-16,1l-17,2l-16,1l-17,1l-16,2l-17,1l-16,1l-17,2l-16,1l-17,1l-16,1l-17,2l-16,1l-17,1l-16,1l-17,1l-16,2l-17,1l-16,1l-17,1l-16,1l-17,1l-17,2l-16,1l-17,1l-16,1l-17,1l-16,1l-17,1l-16,1l-17,1l-16,2l-17,1l-16,1l-17,1l-16,1l-17,1l-16,1l-17,1l-16,1l-17,1l-16,1l-17,1l-16,1l-17,1l-16,1l-17,1l-17,1l-16,1l-17,1l-16,1l-17,1l-16,1l-17,1l-16,1l-17,1l-16,1l-17,1l-16,1l-17,1l-16,1l-17,1l-16,1l-17,1l-16,1l-17,1l-16,1l-17,1l-16,1l-17,1l-17,2l-16,1l-17,1l-16,1l-17,1l-16,1l-17,2l-16,1l-17,1l-16,1l-17,2l-16,1l-17,1l-16,1l-17,2l-16,1l-17,1l-16,2l-17,1l-16,2l-17,1l-16,2l-17,1l-16,1l-17,2l-17,1l-16,2l-17,2l-16,1l-17,2l-16,1l-17,2l-16,1l-17,2l-16,2l-17,1l-16,2l-17,2l-16,1l-17,2l-16,2l-17,1l-16,2l-17,2l-16,1l-17,2l-16,2l-17,2l-16,1l-17,2l-17,2l-16,1l-17,2l-16,2l-17,1l-16,2l-17,2l-16,1l-17,2l-16,1l-17,2Z" fill="#000"></path><path fill-opacity="0.251" stroke="none" d="M758,1018l17,-2l16,-1l17,-2l16,-1l17,-2l16,-2l17,-1l16,-2l17,-2l16,-1l17,-2l17,-2l16,-1l17,-2l16,-2l17,-2l16,-1l17,-2l16,-2l17,-1l16,-2l17,-2l16,-1l17,-2l16,-2l17,-1l16,-2l17,-2l16,-1l17,-2l16,-1l17,-2l16,-1l17,-2l16,-2l17,-1l17,-2l16,-1l17,-1l16,-2l17,-1l16,-2l17,-1l16,-2l17,-1l16,-1l17,-2l16,-1l17,-1l16,-1l17,-2l16,-1l17,-1l16,-1l17,-2l16,-1l17,-1l16,-1l17,-1l16,-1l17,-2l17,-1l16,-1l17,-1l16,-1l17,-1l16,-1l17,-1l16,-1l17,-1l16,-1l17,-1l16,-1l17,-1l16,-1l17,-1l16,-1l17,-1l16,-1l17,-1l16,-1l17,-1l16,-1l17,-1l17,-1l16,-1l17,-1l16,-1l17,-1l16,-1l17,-1l16,-1l17,-1l16,-1l17,-1l16,-1l17,-1l16,-1l17,-1l16,-2l17,-1l16,-1l17,-1l16,-1l17,-1l16,-1l17,-1l16,-1l17,-2l17,-1l16,-1l17,-1l16,-1l17,-1l16,-2l17,-1l16,-1l17,-1l16,-1l17,-2l16,-1l17,-1l16,-1l17,-2l16,-1l17,-1l16,-2l17,-1l16,-1l17,-2l16,-1l17,-1l16,-1l17,-2l17,-1l16,-1l17,-2l16,-1l17,-1l16,-2l17,-1l16,-1l17,-1l16,-2l17,-1l16,-1l17,-2l16,-1l17,-1l16,-1l17,-1l16,-1l17,-1l16,-2l17,-1l16,-1l17,-1l17,-1l16,-1l17,-1l16,-1l17,-1l16,0l17,-1l16,-1l17,-1l16,0l17,-1l16,-1l17,0l16,-1l17,0l16,-1l17,0l16,-1l17,0l16,0l17,-1l16,0l17,0l16,0l17,0l17,0l16,0l17,0l16,0l17,1l16,0l17,0l16,1l17,0l16,1l17,0l16,1l17,0l16,1l17,1l16,1l17,0l16,1l17,1l16,1l17,1l16,1l17,2l16,1l17,1l17,1l16,2l17,1l16,2l17,1l16,2l17,1l16,2l17,1l16,2l17,2l16,2l17,2l16,1l17,2l16,2l17,2l16,2l17,2l16,2l17,2l16,3l17,2l17,2l16,2l17,2l16,3l17,2l16,2l17,3l16,2l17,2l16,3l17,2l16,3l17,2l16,3l17,2l16,3l17,2l16,3l17,2l16,3l17,2l16,3l17,3l16,2l17,3l17,2l16,3l17,2l16,3l17,3l16,2l17,3l16,2l17,3l16,2l17,3l16,3l17,2l16,3l17,2l16,3l17,2l16,3l17,2l16,2l17,3l16,2l17,3l16,2l17,2l17,3l16,2l17,2l16,2l17,3l16,2l17,2l16,2l17,2l16,2l17,2l16,2l17,2l16,2l17,2l16,2l17,1l16,2l17,2l16,1l17,2l16,2l17,1l17,2l16,1l17,1l16,2l17,1l16,1l17,1l16,1l17,2l16,1l17,0l16,1l17,1l16,1l17,1l16,0l17,1l16,1l17,0l16,1l17,0l16,0l17,1l16,0l17,0l17,0l16,0l17,0l16,0l17,0l16,0l17,-1l16,0l17,0l16,-1l17,0l16,-1l17,0l16,-1l17,-1l16,0l17,-1l16,-1l17,-1l16,-1l17,-1l16,-1l17,-1l16,-1l17,-1l17,-1l16,-2l17,-1l16,-1l17,-2l16,-1l17,-1l16,-2l17,-1l16,-2l17,-1l0,-920l-6014,0Z" fill="#000"></path><path fill-opacity="0.125" stroke="none" d="" fill="#000"></path></g><g transform="scale(0.1)"></g><g stroke-width="1" stroke="#000" fill="none" stroke-opacity="0.2"><line x2="126.2" y1="10" x1="126.2" y2="370" stroke-opacity="0.2"></line><line x2="172.5" y1="10" x1="172.5" y2="370" stroke-opacity="0.2"></line><line x2="223.7" y1="10" x1="223.7" y2="370" stroke-opacity="0.2"></line><line x2="273.2" y1="10" x1="273.2" y2="370" stroke-opacity="0.2"></line><line x2="324.5" y1="10" x1="324.5" y2="370" stroke-opacity="0.2"></line><line x2="374" y1="10" x1="374" y2="370" stroke-opacity="0.2"></line><line x2="425.2" y1="10" x1="425.2" y2="370" stroke-opacity="0.2"></line><line x2="476.4" y1="10" x1="476.4" y2="370" stroke-opacity="0.2"></line><line x2="526" y1="10" x1="526" y2="370" stroke-opacity="0.2"></line><line x2="577.2" y1="10" x1="577.2" y2="370" stroke-opacity="0.2"></line><line x2="626.8" y1="10" x1="626.8" y2="370" stroke-opacity="0.2"></line><line x2="681" y1="365" x1="72" y2="365"></line><line x2="681" y1="335.4" x1="72" y2="335.4"></line><line x2="681" y1="305.8" x1="72" y2="305.8"></line><line x2="681" y1="276.3" x1="72" y2="276.3"></line><line x2="681" y1="246.7" x1="72" y2="246.7"></line><line x2="681" y1="217.1" x1="72" y2="217.1"></line><line x2="681" y1="187.5" x1="72" y2="187.5"></line><line x2="681" y1="157.9" x1="72" y2="157.9"></line><line x2="681" y1="128.3" x1="72" y2="128.3"></line><line x2="681" y1="98.8" x1="72" y2="98.8"></line><line x2="681" y1="69.2" x1="72" y2="69.2"></line><line x2="681" y1="39.6" x1="72" y2="39.6"></line><line x2="681" y1="10" x1="72" y2="10"></line></g><g><rect fill-opacity="0.004" y="10" x="75" height="355" width="51.2" fill="#fff"></rect><text stroke="none" y="381.5" text-anchor="middle" x="100.6">Jan</text></g><g><rect fill-opacity="0.004" y="10" x="126.2" height="355" width="46.3" fill="#fff"></rect><text stroke="none" y="381.5" text-anchor="middle" x="149.3">Feb</text></g><g><rect fill-opacity="0.004" y="10" x="172.5" height="355" width="51.2" fill="#fff"></rect><text stroke="none" y="381.5" text-anchor="middle" x="198.1">Mar</text></g><g><rect fill-opacity="0.004" y="10" x="223.7" height="355" width="49.6" fill="#fff"></rect><text stroke="none" y="381.5" text-anchor="middle" x="248.5">Apr</text></g><g><rect fill-opacity="0.004" y="10" x="273.2" height="355" width="51.2" fill="#fff"></rect><text stroke="none" y="381.5" text-anchor="middle" x="298.9">May</text></g><g><rect fill-opacity="0.004" y="10" x="324.5" height="355" width="49.6" fill="#fff"></rect><text stroke="none" y="381.5" text-anchor="middle" x="349.2">Jun</text></g><g><rect fill-opacity="0.004" y="10" x="374" height="355" width="51.2" fill="#fff"></rect><text stroke="none" y="381.5" text-anchor="middle" x="399.6">Jul</text></g><g><rect fill-opacity="0.004" y="10" x="425.2" height="355" width="51.2" fill="#fff"></rect><text stroke="none" y="381.5" text-anchor="middle" x="450.8">Aug</text></g><g><rect fill-opacity="0.004" y="10" x="476.4" height="355" width="49.6" fill="#fff"></rect><text stroke="none" y="381.5" text-anchor="middle" x="501.2">Sep</text></g><g><rect fill-opacity="0.004" y="10" x="526" height="355" width="51.2" fill="#fff"></rect><text stroke="none" y="381.5" text-anchor="middle" x="551.6">Oct</text></g><g><rect fill-opacity="0.004" y="10" x="577.2" height="355" width="49.6" fill="#fff"></rect><text stroke="none" y="381.5" text-anchor="middle" x="602">Nov</text></g><g><rect fill-opacity="0.004" y="10" x="626.8" height="355" width="51.2" fill="#fff"></rect><text stroke="none" y="381.5" text-anchor="middle" x="652.4">Dec</text></g><g stroke="none" fill="#666"><text y="370.2" text-anchor="end" x="71">0</text><text y="370.2" x="682">0</text><text y="340.6" text-anchor="end" x="71">2</text><text y="340.6" x="682">2</text><text y="311" text-anchor="end" x="71">4</text><text y="311" x="682">4</text><text y="281.4" text-anchor="end" x="71">6</text><text y="281.4" x="682">6</text><text y="251.9" text-anchor="end" x="71">8</text><text y="251.9" x="682">8</text><text y="222.3" text-anchor="end" x="71">10</text><text y="222.3" x="682">10</text><text y="192.7" text-anchor="end" x="71">12</text><text y="192.7" x="682">12</text><text y="163.1" text-anchor="end" x="71">14</text><text y="163.1" x="682">14</text><text y="133.5" text-anchor="end" x="71">16</text><text y="133.5" x="682">16</text><text y="103.9" text-anchor="end" x="71">18</text><text y="103.9" x="682">18</text><text y="74.4" text-anchor="end" x="71">20</text><text y="74.4" x="682">20</text><text y="44.8" text-anchor="end" x="71">22</text><text y="44.8" x="682">22</text><text y="15.2" text-anchor="end" x="71">0</text><text y="15.2" x="682">0</text></g><g font-family="sans-serif" text-decoration="none" font-style="normal" font-size="15" font-weight="normal"><text font-family="sans-serif" stroke="none" opacity="0.8" y="30.4" text-decoration="none" text-anchor="middle" x="97.6" font-style="normal" font-size="15" fill="#fff" font-weight="normal">13°-17°</text></g><g font-family="sans-serif" text-decoration="none" font-style="normal" font-size="15" font-weight="normal"><text font-family="sans-serif" stroke="none" opacity="0.8" y="294.5" text-decoration="none" text-anchor="middle" x="117.3" font-style="normal" font-size="15" fill="#fff" font-weight="normal">13°-17°</text></g><g font-family="sans-serif" text-decoration="none" font-style="normal" font-size="15" font-weight="normal"><text font-family="sans-serif" stroke="none" opacity="0.8" y="287.8" text-decoration="none" text-anchor="middle" x="650.5" font-style="normal" font-size="15" fill="#fff" font-weight="normal">13°-17°</text></g><g font-family="sans-serif" text-decoration="none" font-style="normal" font-size="15" font-weight="normal"><text font-family="sans-serif" stroke="none" opacity="0.8" y="290.3" text-decoration="none" text-anchor="middle" x="411.2" font-style="normal" font-size="15" fill="#fff" font-weight="normal">24°-28°</text></g><g font-family="sans-serif" text-decoration="none" font-style="normal" font-size="15" font-weight="normal"><text font-family="sans-serif" stroke="none" opacity="0.8" y="142.4" text-decoration="none" text-anchor="middle" x="332.5" font-style="normal" font-size="15" fill="#fff" font-weight="normal">29°-34°</text></g><g font-family="sans-serif" text-decoration="none" font-style="normal" font-size="15" font-weight="normal"><text font-family="sans-serif" stroke="none" opacity="0.8" y="25.9" text-decoration="none" text-anchor="middle" x="659.6" font-style="normal" font-size="15" fill="#fff" font-weight="normal">13°-17°</text></g><g font-family="sans-serif" text-decoration="none" font-style="normal" font-size="15" font-weight="normal"><text font-family="sans-serif" stroke="none" opacity="0.8" y="66.7" text-decoration="none" text-anchor="middle" x="121.8" font-style="normal" font-size="15" fill="#fff" font-weight="normal">18°-23°</text></g><g font-family="sans-serif" text-decoration="none" font-style="normal" font-size="15" font-weight="normal"><text font-family="sans-serif" stroke="none" opacity="0.8" y="63.1" text-decoration="none" text-anchor="middle" x="631.2" font-style="normal" font-size="15" fill="#fff" font-weight="normal">18°-23°</text></g></svg>