<svg font-family="sans-serif" viewBox="0 0 753 387" xmlns:xlink="http://www.w3.org/1999/xlink" text-decoration="none" font-style="normal" width="753px" xmlns="http://www.w3.org/2000/svg" font-size="15" version="1.1" font-weight="normal" height="387px"><title>Average Hourly Temperature in Kuwait City</title><defs><clipPath id="plot-sample-bounds-0"><rect y="0" x="75.8" height="365" width="601.3"></rect></clipPath><clipPath id="plot-sample-bounds-scaled-0"><rect y="0" x="758.3" height="3650" width="6013.5"></rect></clipPath></defs><g transform="scale(0.1)"><path fill-opacity="1.000" stroke-width="10" stroke="#5ca0b4" d="" fill="#5ca0b4" stroke-opacity="1.0"></path><path fill-opacity="1.000" stroke-width="10" stroke="#83c2d5" d="" fill="#83c2d5" stroke-opacity="1.0"></path><path fill-opacity="1.000" stroke-width="10" stroke="#679568" d="" fill="#679568" stroke-opacity="1.0"></path><path fill-opacity="1.000" stroke-width="10" stroke="#74a877" d="M758,248l0,0l17,15l16,3l17,12l16,3l17,5l16,14l17,3l16,4l17,7l16,1l17,0l17,-1l16,-3l17,-4l16,0l17,-7l16,-7l17,-6l16,-5l17,2l16,3l17,-4l16,-10l17,-10l16,-10l17,-10l16,-12l17,-20l16,-24l17,-13l16,-24l17,-26l16,-22l2,-2l-547,0ZM6666,100l7,7l16,16l17,19l16,14l13,18l4,4l16,26l17,19l0,-123ZM758,3650l547,0l15,-19l16,-24l17,-24l6,-7l11,-17l16,-22l17,-22l16,-33l17,-31l13,-23l3,-5l17,-27l16,-39l17,-36l16,-36l3,-5l14,-27l16,-33l17,-38l16,-39l5,-11l12,-28l16,-63l13,-57l4,-21l16,-59l17,-53l3,-15l13,-55l17,-51l10,-41l6,-124l2,-24l-2,-3l-16,-26l-17,-18l-16,-25l-17,-23l-16,-22l-15,-31l-2,-1l-16,-16l-17,-11l-16,-11l-17,-12l-16,-11l-17,-9l-16,-10l-17,-11l-16,-12l-17,-10l-16,-9l-17,-11l-16,-10l-8,-4l-9,-5l-16,-8l-17,-9l-17,-9l-16,-10l-17,-9l-16,-10l-17,-9l-16,-9l-17,-10l-16,-8l-17,-8l-16,-4l-17,-6l-16,-5l-17,-5l-16,-4l-17,-1l-16,2l-17,-2l-16,-4l-17,-2l-16,-1l-17,-2l-16,-1l-17,0l-16,-1l-17,0l-17,2l-16,1l-17,3l-16,2l-17,3l-16,4l-17,1l-16,5l-17,3l-16,4l-17,6ZM6552,2245l-12,7l-16,12l-17,11l-16,14l-17,14l-16,10l-17,11l-16,14l-17,14l-16,12l-17,15l-12,14l-4,9l-17,35l-16,33l-17,29l-16,27l-10,15l10,148l16,70l17,70l2,7l14,60l17,74l3,14l13,58l17,71l7,19l9,23l17,54l16,48l10,23l7,17l16,38l17,38l16,50l3,5l14,26l16,39l17,21l16,29l17,19l10,14l7,9l16,22l17,18l16,16l10,9l106,0l0,-1500l-17,9l-16,8l-17,5l-16,6l-17,7l-16,6l-17,7l-16,6l-17,7l-16,8l-17,9l-17,8l-16,6Z" fill="#74a877" stroke-opacity="1.0"></path><path fill-opacity="1.000" stroke-width="10" stroke="#8dbf71" d="M1302,100l-15,20l-17,26l-16,24l-4,4l-13,10l-16,24l-17,20l-16,11l-17,11l-16,10l-17,9l-16,11l-17,3l-16,-2l-17,-2l-16,4l-17,6l-16,7l-17,7l-16,1l-17,3l-16,4l-17,0l-17,0l-16,0l-17,-7l-16,-4l-17,-4l-16,-14l-17,-4l-16,-4l-17,-11l-16,-4l-17,-15l0,0l0,1896l17,-6l16,-4l17,-2l16,-6l17,-1l16,-4l17,-2l16,-3l17,-2l16,-2l17,-2l17,0l16,1l17,0l16,2l17,1l16,1l17,3l16,3l17,2l16,-2l17,2l16,4l17,4l16,6l17,6l16,3l17,8l16,9l17,9l16,9l17,10l16,9l17,9l16,11l17,8l17,9l16,8l7,4l10,5l16,11l17,10l16,9l17,10l16,13l17,11l16,9l17,10l16,10l17,12l16,11l17,11l16,16l17,33l16,22l17,23l16,25l17,19l16,26l-8,148l-8,35l-17,51l-15,61l-1,8l-17,53l-16,59l-5,28l-12,52l-16,62l-14,34l-3,6l-16,38l-17,38l-16,33l-17,33l-16,36l-17,36l-16,39l-17,27l-5,10l-11,18l-17,31l-16,34l-17,22l-16,21l-14,22l-3,4l-17,24l-16,24l-17,20l-1,2l701,0l11,-19l16,-31l12,-24l5,-15l16,-43l17,-39l16,-39l4,-12l13,-45l16,-52l17,-51l17,-59l16,-54l12,-35l5,-17l16,-62l17,-58l2,-11l14,-57l17,-68l5,-23l11,-63l17,-84l-17,-71l-14,-77l-2,-3l-17,-18l-16,-16l-17,-14l-16,-16l-17,-17l-16,-18l-17,-20l-17,-17l-8,-9l-8,-8l-17,-17l-16,-14l-17,-14l-16,-15l-17,-15l-16,-15l-17,-14l-16,-13l-17,-14l-10,-9l-6,-6l-17,-14l-16,-13l-17,-13l-16,-13l-17,-16l-16,-16l-17,-13l-16,-13l-17,-11l-16,-12l-15,-8l-2,-1l-17,-12l-16,-12l-17,-14l-16,-16l-17,-15l-16,-14l-17,-14l-16,-14l-17,-16l-16,-18l-3,-2l-14,-17l-16,-19l-17,-17l-16,-18l-17,-15l-16,-16l-17,-17l-16,-15l-14,-14l-3,-5l-16,-23l-17,-19l-16,-20l-17,-20l-16,-12l-17,-16l-17,-18l-11,-15l-5,-12l-17,-28l-16,-26l-17,-34l-16,-32l-8,-16l-9,-42l-16,-76l-8,-30l8,-49l14,-99l2,-4l17,-36l16,-36l17,-37l16,-30l3,-5l14,-14l16,-20l17,-15l17,-13l16,-15l17,-17l16,-20l17,-21l8,-12l8,-10l17,-18l16,-16l17,-22l16,-16l17,-18l16,-16l17,-17l14,-15l2,-3l17,-24l16,-27l17,-27l16,-23l17,-22l16,-20l2,-2l15,-21l16,-26l17,-27l16,-21l17,-19l17,-19l12,-15l4,-6l17,-25l16,-26l17,-26l16,-34l17,-31l16,-33l17,-33l16,-26l17,-30l13,-26l3,-6l17,-28l16,-30l6,-10ZM6054,100l7,44l6,30l11,34l16,46l17,46l8,22l8,21l17,44l16,38l17,42l1,3l16,28l16,36l17,29l16,29l15,26l2,2l16,28l17,29l16,29l17,28l16,29l2,3l15,25l16,28l17,24l16,24l17,21l16,21l4,5l13,12l16,17l17,17l16,16l17,15l16,12l17,12l16,11l17,12l17,11l16,10l3,2l14,14l16,20l17,21l16,18l17,20l16,20l17,25l8,10l8,32l17,48l0,-1070l-17,-18l-16,-27l-17,-22l-16,-15l-17,-19l-16,-16l-3,-2ZM6739,1505l-17,28l-16,28l-17,24l-16,25l-17,31l-7,12l-9,10l-17,13l-16,12l-17,12l-17,17l-16,9l-17,16l-16,15l-17,21l-16,21l-2,2l-15,15l-16,15l-17,15l-16,18l-17,17l-16,21l-17,20l-16,22l-4,5l-13,14l-16,18l-17,17l-16,17l-17,17l-16,15l-17,16l-16,15l-17,18l-1,1l-15,17l-17,19l-17,18l-16,17l-17,17l-16,19l-17,18l-16,19l-3,4l-14,16l-16,20l-17,20l-16,20l-17,21l-16,18l-17,20l-11,13l-5,11l-17,27l-16,26l-17,23l-16,23l-17,22l-12,16l-4,118l-2,30l2,6l16,90l11,51l6,25l16,80l10,43l7,29l16,74l9,45l8,33l16,74l10,41l7,33l16,64l11,51l6,23l16,67l14,58l3,19l9,55l616,0l-14,-14l-16,-15l-17,-18l-16,-22l-4,-5l-13,-19l-17,-19l-16,-29l-17,-21l-16,-39l-11,-21l-6,-10l-16,-50l-17,-38l-16,-39l-5,-11l-12,-28l-16,-49l-17,-54l-7,-17l-9,-25l-17,-71l-12,-52l-4,-22l-17,-74l-13,-52l-3,-15l-17,-69l-15,-63l-1,-30l-8,-118l8,-12l16,-27l17,-29l16,-33l17,-34l5,-13l11,-12l17,-15l16,-13l17,-13l16,-14l17,-11l16,-10l17,-14l16,-15l17,-11l16,-12l15,-8l2,-1l16,-7l17,-8l17,-9l16,-8l17,-6l16,-7l17,-6l16,-6l17,-7l16,-7l17,-5l16,-8l17,-8l0,-743l-17,44Z" fill="#8dbf71" stroke-opacity="1.0"></path><path fill-opacity="1.000" stroke-width="10" stroke="#e9cc77" d="M2001,100l-4,7l-16,30l-17,29l-5,8l-11,23l-17,30l-16,26l-17,33l-16,33l-2,3l-15,28l-16,34l-17,26l-16,26l-17,25l-6,9l-10,13l-17,18l-17,20l-16,20l-17,27l-16,26l-17,24l-16,20l-17,22l-16,23l-17,27l-16,26l-17,25l-3,5l-13,13l-17,17l-16,16l-17,18l-16,16l-17,22l-16,16l-17,18l-10,12l-6,10l-17,20l-16,21l-17,16l-16,15l-17,14l-17,14l-16,20l-17,17l-16,31l-17,37l-16,36l-17,35l-4,9l-12,83l-11,65l11,40l16,77l7,31l10,20l16,32l17,34l16,26l17,28l4,8l12,18l17,18l17,15l16,13l17,19l16,21l17,19l16,22l2,3l15,15l16,16l17,17l16,16l17,15l16,17l17,18l16,18l13,16l4,4l16,17l17,17l16,13l17,14l16,14l17,15l16,16l17,14l16,12l17,12l17,9l16,12l17,11l16,13l17,13l16,16l17,16l16,14l17,12l16,13l17,14l5,5l11,10l17,14l16,13l17,14l16,15l17,15l16,15l17,14l16,14l17,17l7,7l9,11l17,16l17,20l16,19l17,16l16,16l17,15l16,15l17,18l1,2l15,82l15,66l-15,77l-13,70l-3,18l-17,68l-15,62l-1,6l-17,57l-16,63l-7,22l-10,30l-16,54l-17,59l-2,5l-15,46l-16,53l-14,49l-3,8l-16,39l-17,39l-16,43l-6,19l-11,22l-16,30l-13,22l473,0l2,-6l17,-33l16,-33l2,-2l15,-48l16,-48l17,-48l1,-4l16,-48l16,-53l14,-47l3,-9l16,-51l17,-56l10,-32l6,-21l17,-63l15,-64l1,-6l17,-73l15,-69l1,-8l17,-121l3,-18l-3,-6l-17,-35l-16,-36l-17,-33l-15,-38l-1,-2l-17,-13l-16,-14l-17,-14l-16,-14l-17,-16l-16,-15l-17,-15l-17,-15l-16,-16l-15,-14l-2,-1l-16,-18l-17,-18l-16,-18l-17,-17l-16,-17l-17,-18l-16,-17l-17,-17l-7,-7l-9,-10l-17,-17l-16,-20l-17,-19l-16,-18l-17,-19l-16,-18l-17,-19l-8,-8l-8,-12l-17,-19l-16,-17l-17,-19l-16,-18l-17,-18l-17,-20l-16,-19l-5,-6l-12,-19l-16,-25l-17,-22l-16,-20l-17,-24l-16,-25l-9,-13l-8,-16l-16,-31l-17,-35l-16,-30l-17,-30l-3,-6l-13,-43l-17,-47l-16,-44l-5,-14l-12,-148l17,-111l6,-37l10,-25l17,-46l16,-44l12,-33l5,-7l16,-24l17,-29l16,-32l17,-29l15,-26l1,-2l17,-21l16,-17l17,-23l16,-23l17,-23l16,-24l14,-15l3,-4l17,-22l16,-24l17,-23l16,-26l17,-24l16,-23l1,-2l16,-28l16,-37l17,-36l16,-37l5,-10l12,-31l16,-40l17,-35l16,-34l4,-8l13,-36l16,-43l17,-39l12,-30l4,-10l17,-36l14,-28ZM5672,100l9,35l10,39l7,16l16,39l17,41l16,41l5,11l12,32l17,42l16,47l10,27l7,16l16,38l17,37l16,36l10,21l7,13l16,35l17,36l16,37l11,27l6,12l16,36l17,35l16,36l12,29l5,9l16,34l17,33l16,32l17,30l5,9l11,34l17,45l16,41l11,28l6,41l16,100l2,7l-2,21l-6,127l-10,42l-17,64l-10,42l-6,15l-17,41l-16,46l-17,46l-16,32l-17,31l-16,32l-17,35l-9,18l-7,11l-17,21l-16,26l-17,25l-16,22l-17,21l-16,20l-2,2l-15,16l-16,17l-17,20l-16,18l-17,20l-16,20l-17,18l-17,19l-16,17l-17,14l-16,15l-17,15l-16,14l-17,13l-16,14l-17,12l-16,11l-17,12l-12,11l-4,4l-17,15l-16,14l-17,14l-16,11l-17,13l-16,12l-17,11l-16,12l-17,11l-16,13l-17,12l-7,6l-10,37l-16,67l-12,44l12,32l16,51l17,51l4,13l13,40l16,50l17,49l3,9l13,33l17,45l16,41l11,29l6,17l16,37l17,48l16,42l2,4l15,43l16,47l17,54l1,4l15,42l17,50l16,49l3,7l14,49l7,25l383,0l-10,-62l-2,-12l-15,-62l-16,-66l-5,-20l-12,-55l-16,-65l-6,-28l-11,-46l-16,-74l-7,-28l-10,-51l-16,-74l-6,-23l-11,-49l-16,-80l-4,-19l-13,-57l-16,-90l5,-148l11,-15l17,-21l16,-24l17,-22l16,-26l17,-28l6,-12l10,-12l17,-20l16,-18l17,-21l16,-20l17,-20l16,-20l15,-17l2,-2l16,-20l17,-18l16,-19l17,-17l16,-17l17,-18l17,-19l16,-18l17,-17l16,-15l17,-17l16,-15l17,-17l16,-17l17,-17l16,-18l14,-15l3,-3l16,-22l17,-20l16,-22l17,-16l16,-18l17,-15l16,-16l17,-16l16,-21l17,-21l16,-14l17,-17l16,-9l17,-17l17,-11l16,-12l17,-14l11,-12l5,-8l17,-31l16,-25l17,-24l16,-28l17,-28l2,-4l14,-43l17,-44l0,-140l-17,-47l-5,-22l-11,-14l-17,-24l-16,-20l-17,-21l-16,-17l-17,-21l-16,-21l-10,-10l-7,-4l-16,-10l-17,-11l-17,-13l-16,-10l-17,-12l-16,-12l-17,-15l-16,-16l-17,-17l-16,-17l-10,-10l-7,-8l-16,-20l-17,-21l-16,-24l-17,-25l-16,-28l-14,-22l-3,-5l-16,-30l-17,-27l-16,-29l-17,-29l-16,-28l-17,-29l-16,-28l-17,-30l-16,-35l-14,-26l-3,-6l-17,-42l-16,-38l-17,-44l-7,-18l-9,-25l-17,-46l-16,-46l-10,-31l-7,-36l-6,-38Z" fill="#e9cc77" stroke-opacity="1.0"></path><path fill-opacity="1.000" stroke-width="10" stroke="#c77560" d="M2472,100l-12,25l-17,37l-6,12l-10,27l-17,39l-16,43l-15,39l-2,5l-16,34l-17,35l-16,40l-14,34l-3,7l-16,37l-17,36l-16,38l-17,30l-16,23l-17,24l-16,26l-17,23l-16,24l-17,22l-5,6l-12,13l-16,25l-17,22l-16,23l-17,23l-16,17l-17,21l-3,4l-13,23l-17,29l-16,32l-17,29l-16,24l-6,10l-11,29l-16,43l-17,47l-11,29l-5,28l-17,110l-1,10l1,19l11,129l6,18l16,45l17,46l12,39l4,8l17,30l16,31l17,34l16,31l7,14l10,15l16,25l17,23l16,21l17,22l16,25l11,17l6,7l16,20l17,19l17,19l16,17l17,19l16,18l17,19l7,10l9,9l17,19l16,18l17,20l16,17l17,19l16,20l17,18l7,8l9,9l17,16l16,17l17,18l16,17l17,17l16,18l17,18l16,18l17,15l16,16l17,15l17,15l16,15l17,16l16,14l17,14l16,14l17,14l16,41l17,33l16,35l17,36l1,3l-1,9l-17,121l-2,17l-14,63l-17,74l-2,11l-14,58l-17,64l-7,26l-9,27l-17,56l-16,52l-4,13l-13,42l-16,54l-17,52l-17,48l-16,48l-17,52l-16,33l-17,33l-4,8l449,0l1,-2l17,-30l16,-29l9,-13l8,-19l17,-34l16,-36l17,-37l12,-22l4,-7l17,-42l16,-37l17,-42l7,-20l9,-26l17,-46l16,-42l17,-34l16,-37l17,-31l16,-26l17,-29l16,-25l17,-34l16,-37l17,-31l16,-29l17,-17l16,-68l17,-58l8,-21l-8,-4l-17,-8l-16,-10l-17,-9l-16,-9l-17,-11l-16,-14l-17,-13l-16,-13l-17,-11l-16,-12l-17,-13l-16,-18l-4,-3l-13,-8l-16,-11l-17,-8l-16,-10l-17,-11l-16,-11l-17,-10l-16,-12l-17,-11l-16,-10l-17,-10l-17,-12l-16,-14l-11,-10l-6,-6l-16,-14l-17,-13l-16,-13l-17,-15l-16,-13l-17,-15l-16,-18l-17,-18l-16,-19l-5,-4l-12,-12l-16,-18l-17,-17l-16,-19l-17,-18l-16,-18l-17,-17l-16,-16l-14,-13l-3,-3l-16,-20l-17,-20l-16,-23l-17,-21l-17,-21l-16,-19l-17,-18l-2,-3l-14,-25l-17,-28l-16,-33l-17,-29l-16,-29l-2,-4l-15,-42l-16,-56l-17,-47l-1,-3l-15,-77l-13,-71l-4,-111l-1,-37l1,-10l17,-138l16,-51l17,-52l11,-45l5,-12l17,-32l16,-34l17,-36l14,-33l2,-4l17,-25l16,-24l17,-22l16,-27l17,-22l14,-24l3,-4l16,-26l17,-26l16,-25l17,-26l16,-23l13,-18l4,-7l16,-33l17,-38l16,-33l17,-30l3,-7l13,-27l17,-40l16,-37l17,-37l3,-7l13,-32l17,-36l16,-32l17,-36l6,-12l10,-18l17,-29l15,-27ZM5213,100l6,12l16,43l7,19l10,18l16,29l17,28l16,31l17,28l8,14l8,12l17,30l16,27l17,28l17,32l10,19l6,9l17,25l16,25l17,26l16,25l17,25l8,13l8,12l17,24l16,25l17,28l16,30l16,29l1,1l16,27l17,29l16,29l17,30l16,32l17,30l16,30l17,35l16,33l10,19l7,23l17,49l16,49l10,27l7,41l16,97l2,10l-2,99l-1,49l-15,95l-9,53l-8,26l-16,54l-17,53l-5,15l-12,25l-16,30l-17,32l-16,31l-17,28l0,2l-16,20l-17,19l-16,19l-17,19l-16,17l-17,17l-16,19l-17,17l-1,1l-15,14l-17,13l-16,12l-17,12l-16,12l-17,12l-16,11l-17,11l-16,11l-17,10l-17,11l-16,14l-5,5l-12,11l-16,10l-17,10l-16,8l-17,7l-16,8l-17,10l-16,10l-17,9l-16,9l-17,9l-16,7l-17,8l-16,10l-17,12l-11,10l-5,4l-17,13l-16,9l-17,10l-16,10l-17,9l-16,11l-17,10l-17,10l-16,8l-17,8l-16,9l-17,7l-16,8l-17,9l-16,10l-3,3l-14,31l-16,37l-17,30l-16,31l-9,19l9,17l16,29l17,31l16,31l17,32l3,7l13,27l17,34l16,36l17,31l9,20l7,17l17,34l16,30l17,36l15,31l2,4l16,32l17,37l16,39l17,36l16,38l17,41l16,38l12,31l5,11l16,37l17,35l16,37l14,28l3,6l16,42l11,26l460,0l-8,-29l-13,-45l-4,-11l-16,-49l-17,-49l-14,-39l-2,-8l-17,-54l-16,-47l-14,-39l-3,-8l-16,-43l-17,-47l-16,-37l-5,-13l-12,-34l-16,-40l-17,-45l-11,-29l-5,-13l-17,-49l-16,-51l-11,-35l-6,-18l-17,-51l-16,-51l-10,-27l10,-37l16,-68l11,-43l6,-5l17,-12l16,-13l17,-11l16,-12l17,-11l16,-11l17,-14l16,-11l17,-14l16,-13l17,-15l6,-6l10,-10l17,-12l16,-11l17,-12l16,-14l17,-13l16,-14l17,-15l16,-15l17,-14l16,-17l1,-1l16,-18l17,-18l16,-20l17,-20l16,-18l17,-20l16,-17l16,-17l1,-1l16,-20l17,-21l16,-22l17,-25l16,-25l17,-22l8,-12l8,-17l17,-35l16,-31l17,-32l16,-31l1,-2l16,-43l16,-46l17,-41l7,-18l9,-38l17,-63l11,-47l5,-105l3,-43l-3,-14l-16,-100l-5,-34l-12,-30l-16,-42l-17,-45l-10,-31l-6,-11l-17,-30l-16,-32l-17,-33l-16,-34l-4,-7l-13,-31l-16,-36l-17,-35l-16,-36l-5,-10l-12,-29l-16,-38l-17,-36l-16,-35l-6,-10l-11,-24l-16,-35l-17,-38l-16,-37l-6,-14l-11,-30l-16,-47l-17,-42l-11,-29l-6,-14l-16,-41l-17,-41l-16,-39l-6,-13l-11,-44l-8,-30Z" fill="#c77560" stroke-opacity="1.0"></path><path fill-opacity="1.000" stroke-width="10" stroke="#b05b5a" d="M2920,100l-14,25l-17,29l-11,20l-5,10l-17,36l-16,32l-17,36l-14,34l-2,5l-17,37l-16,37l-17,39l-14,30l-2,4l-17,30l-16,34l-17,37l-16,33l-5,10l-12,16l-16,23l-17,26l-16,25l-17,27l-16,25l-4,6l-13,22l-17,23l-16,26l-17,22l-16,25l-17,24l-3,6l-13,31l-17,35l-16,35l-17,32l-6,14l-10,41l-17,52l-16,52l-1,3l-16,129l-2,19l2,74l2,74l15,77l14,71l2,6l17,48l16,55l14,39l3,6l16,29l17,29l16,33l17,28l13,23l3,4l17,18l16,20l17,20l17,22l16,22l17,21l16,19l1,2l16,15l16,16l17,17l16,17l17,19l16,19l17,17l16,17l11,11l6,5l16,19l17,18l16,18l17,15l16,13l17,15l16,13l17,13l16,14l5,5l12,11l16,14l17,12l17,10l16,10l17,11l16,12l17,10l16,11l17,11l16,10l17,8l16,11l11,7l6,5l16,17l17,14l16,11l17,12l16,13l17,12l16,15l17,10l16,10l17,9l16,10l17,8l4,2l-4,10l-17,58l-16,68l-4,11l-13,13l-16,29l-17,30l-16,37l-17,35l-2,4l-14,22l-17,29l-16,25l-17,32l-16,36l-2,4l-15,31l-16,41l-17,46l-10,30l-6,17l-17,42l-16,36l-17,43l-5,10l-11,19l-17,37l-16,35l-17,35l-10,22l-7,11l-16,29l-17,30l-2,4l591,0l6,-6l17,-14l16,-16l17,-8l16,-11l17,-9l16,-8l4,-2l13,-7l16,-13l17,-9l16,-9l17,-8l16,-13l17,-8l16,-11l17,-9l17,-18l16,-6l17,-9l16,-12l17,-5l16,-9l3,-2l14,-12l16,-5l17,-5l16,-11l17,-5l16,-9l17,-1l16,-5l17,0l16,5l17,-4l16,-3l17,-6l16,0l17,-5l16,-2l17,0l16,2l17,-2l17,5l16,2l17,4l16,0l17,0l16,7l17,15l16,5l17,5l16,6l17,6l16,10l4,3l13,8l16,6l17,11l16,11l17,12l16,15l17,11l16,6l17,8l16,13l17,11l17,17l16,16l4,3l13,8l16,18l17,17l16,20l9,11l549,0l-13,-29l-16,-42l-2,-3l-15,-31l-16,-37l-17,-35l-16,-37l-4,-8l-13,-34l-16,-38l-17,-41l-15,-35l-1,-3l-17,-36l-16,-40l-17,-36l-16,-33l-17,-34l-17,-36l-16,-31l-17,-33l-6,-14l-10,-24l-17,-31l-16,-35l-17,-34l-11,-24l-5,-10l-17,-33l-16,-30l-17,-31l-16,-29l-8,-14l8,-15l16,-31l17,-30l16,-37l15,-35l2,-2l16,-10l17,-9l16,-8l17,-7l16,-9l17,-9l16,-7l17,-10l17,-10l16,-11l17,-9l16,-10l17,-10l16,-9l17,-13l6,-5l10,-9l17,-12l16,-10l17,-8l16,-7l17,-9l16,-9l17,-9l16,-10l17,-10l16,-8l17,-7l16,-8l17,-10l16,-10l13,-12l4,-4l16,-14l17,-11l17,-10l16,-11l17,-11l16,-11l17,-12l16,-12l17,-12l16,-12l17,-12l16,-16l17,-17l16,-18l17,-18l16,-17l17,-19l16,-19l17,-19l16,-21l17,-28l16,-31l17,-32l16,-30l13,-27l4,-12l17,-53l16,-55l9,-28l8,-47l16,-101l3,-148l-3,-15l-16,-97l-7,-36l-10,-30l-16,-49l-17,-49l-7,-20l-10,-21l-16,-32l-17,-35l-16,-31l-16,-28l-1,-2l-16,-31l-17,-31l-16,-29l-17,-28l-16,-27l-17,-31l-16,-30l-17,-27l-16,-26l-17,-24l-7,-10l-9,-15l-17,-25l-16,-25l-17,-25l-16,-26l-17,-25l-5,-7l-11,-21l-17,-32l-17,-28l-16,-28l-17,-29l-6,-10l-10,-16l-17,-28l-16,-31l-17,-28l-16,-30l-8,-15l-9,-22l-16,-43l-4,-9l-549,0l8,9l16,21l17,23l14,21l2,2l17,18l16,17l17,22l16,17l17,19l16,21l17,21l7,11l9,14l17,24l16,20l17,18l16,21l17,18l16,19l12,14l5,5l17,20l16,20l17,20l16,23l17,20l16,21l15,19l2,1l16,20l17,20l16,17l17,19l16,20l17,20l16,18l11,13l6,6l16,20l17,18l16,19l17,21l16,18l17,21l16,21l4,4l13,20l16,25l17,24l17,29l16,25l16,24l1,3l16,38l17,43l16,38l11,26l6,23l16,69l12,56l0,148l-12,64l-16,79l-2,5l-15,29l-16,32l-17,35l-16,32l-13,20l-4,4l-16,20l-17,19l-17,23l-16,19l-17,22l-16,18l-17,16l-5,7l-11,10l-17,9l-16,10l-17,15l-16,12l-17,12l-16,11l-17,11l-16,10l-17,12l-16,13l-17,11l-15,12l-1,1l-17,13l-16,10l-17,9l-16,9l-17,10l-16,11l-17,9l-17,11l-16,9l-17,7l-16,10l-17,8l-16,8l-17,9l-16,10l-5,4l-12,7l-16,8l-17,7l-16,7l-17,5l-16,6l-17,5l-16,7l-17,7l-16,6l-17,5l-16,6l-17,5l-16,5l-17,4l-16,5l-17,5l-17,5l-16,2l-17,5l-16,2l-17,3l-16,3l-17,3l-16,5l-17,4l-16,4l-17,6l-16,5l-4,1l-13,3l-16,2l-17,4l-16,4l-17,2l-16,4l-17,2l-16,1l-17,2l-16,1l-17,2l-17,0l-16,2l-17,0l-16,1l-17,0l-16,0l-17,0l-16,-1l-17,0l-16,0l-17,0l-16,-2l-17,0l-16,-2l-17,-1l-16,-2l-17,-3l-16,-4l-17,-4l-16,-4l-17,-4l-12,-3l-4,-1l-17,-5l-16,-2l-17,-4l-17,-2l-16,-4l-17,-3l-16,-4l-17,-3l-16,-2l-17,-3l-16,-3l-17,-4l-16,-4l-17,-3l-16,-2l-17,-4l-16,-3l-17,-3l-16,-5l-17,-5l-16,-4l-17,-3l-16,-4l-17,-3l-16,-5l-17,-6l-16,-4l-17,-6l-17,-2l-16,-6l-17,-6l-16,-4l-17,-7l-16,-9l-17,-9l-1,-1l-15,-10l-17,-9l-16,-9l-17,-11l-16,-12l-17,-14l-16,-13l-17,-14l-16,-13l-17,-14l-16,-16l-16,-13l-1,-2l-16,-19l-17,-20l-16,-19l-17,-17l-17,-20l-16,-21l-17,-23l-5,-7l-11,-22l-17,-29l-16,-27l-17,-27l-16,-29l-8,-14l-9,-22l-16,-52l-17,-51l-7,-23l-9,-51l-16,-97l-1,-37l-3,-111l3,-24l14,-124l3,-10l16,-57l17,-57l7,-24l9,-22l17,-36l16,-41l17,-36l5,-12l11,-21l17,-33l16,-30l17,-33l16,-26l4,-5l13,-21l17,-23l16,-24l17,-23l16,-25l17,-22l7,-10l9,-17l17,-27l16,-28l17,-26l16,-23l17,-25l1,-2l15,-23l17,-27l16,-20l17,-20l16,-20l17,-24l11,-14l5,-6l17,-17l16,-16l17,-18l16,-15l17,-16l17,-17l16,-16l17,-13l16,-12l3,-2l14,-10l16,-12l17,-12l16,-15l17,-15l10,-10Z" fill="#b05b5a" stroke-opacity="1.0"></path><path fill-opacity="1.000" stroke-width="10" stroke="#984b44" d="M3507,100l-6,6l-17,15l-16,15l-17,12l-16,12l-17,12l-3,2l-13,10l-17,13l-16,16l-17,16l-17,17l-16,15l-17,18l-16,16l-17,17l-8,10l-8,10l-17,24l-16,20l-17,20l-16,20l-17,27l-16,25l-1,2l-16,23l-16,23l-17,26l-16,28l-17,27l-11,21l-5,7l-17,22l-16,25l-17,23l-16,24l-17,23l-15,24l-2,1l-16,26l-17,34l-16,29l-17,33l-13,25l-3,7l-17,36l-16,41l-17,35l-11,28l-5,17l-17,57l-16,57l-5,17l-12,107l-6,41l5,148l1,6l17,102l7,40l9,29l17,52l16,51l6,16l11,19l16,28l17,27l16,27l17,29l9,18l7,10l17,23l16,21l17,20l17,17l16,18l17,21l15,18l1,1l17,14l16,16l17,14l16,14l17,14l16,12l17,15l16,11l17,11l16,9l17,9l11,8l5,3l17,9l16,9l17,7l16,4l17,6l16,6l17,2l17,6l16,4l17,6l16,5l17,3l16,4l17,3l16,4l17,5l16,5l17,3l16,3l17,4l16,2l17,3l16,4l17,4l16,2l17,4l16,2l17,3l16,4l17,3l16,4l17,2l17,4l16,2l12,4l5,1l16,4l17,4l16,4l17,4l16,4l17,3l16,2l17,1l16,2l17,0l16,1l17,0l16,0l17,0l16,2l17,0l16,0l17,0l16,-2l17,0l16,-1l17,0l17,-2l16,-1l17,-2l16,-2l17,-1l16,-4l17,-2l16,-4l17,-4l16,-2l17,-4l4,-1l12,-4l17,-6l16,-4l17,-4l16,-5l17,-3l16,-3l17,-3l16,-3l17,-4l16,-2l17,-5l17,-5l16,-6l17,-3l16,-5l17,-5l16,-6l17,-6l16,-6l17,-6l16,-7l17,-6l16,-5l17,-6l16,-6l17,-7l16,-7l15,-10l2,-1l16,-11l17,-9l16,-8l17,-8l16,-10l17,-8l16,-8l17,-11l17,-9l16,-11l17,-10l16,-9l17,-9l16,-10l17,-13l4,-3l12,-10l17,-11l16,-13l17,-12l16,-10l17,-11l16,-11l17,-12l16,-12l17,-15l16,-10l17,-9l13,-12l3,-4l17,-17l16,-17l17,-22l16,-20l17,-22l17,-19l16,-20l7,-7l10,-16l16,-31l17,-36l16,-31l17,-32l1,-2l15,-74l14,-74l0,-148l-14,-65l-16,-69l-3,-14l-14,-31l-16,-38l-17,-43l-15,-36l-1,-1l-17,-26l-16,-26l-17,-29l-17,-23l-16,-25l-11,-17l-6,-7l-16,-21l-17,-20l-16,-19l-17,-20l-16,-19l-17,-18l-16,-20l-4,-4l-13,-16l-16,-18l-17,-20l-16,-20l-17,-19l-16,-17l-17,-20l-15,-18l-1,-2l-17,-21l-16,-20l-17,-21l-16,-22l-17,-20l-16,-20l-17,-20l-2,-2l-15,-18l-16,-19l-17,-18l-16,-21l-17,-18l-16,-20l-17,-24l-7,-10l-9,-15l-17,-21l-16,-21l-17,-19l-16,-18l-17,-21l-16,-18l-15,-15l-2,-3l-16,-24l-17,-23l-16,-21l-3,-3ZM3860,3428l-12,7l-17,4l-16,13l-17,9l-16,5l-17,18l-17,9l-16,11l-17,9l-16,13l-17,7l-16,9l-17,10l-16,13l-17,9l-4,2l-12,6l-17,8l-16,12l-17,8l-16,16l-17,14l-10,10l1164,0l-14,-16l-16,-21l-17,-17l-16,-17l-5,-3l-12,-8l-16,-17l-17,-16l-17,-11l-16,-13l-17,-9l-16,-5l-17,-11l-16,-15l-17,-13l-16,-11l-17,-11l-16,-5l-4,-3l-13,-8l-16,-10l-17,-7l-16,-5l-17,-5l-16,-6l-17,-14l-16,-8l-17,0l-16,0l-17,-3l-16,-2l-17,-6l-17,3l-16,-3l-17,0l-16,3l-17,5l-16,0l-17,5l-16,4l-17,4l-16,-6l-17,0l-16,6l-17,1l-16,9l-17,5l-16,11l-17,5l-16,5l-17,15Z" fill="#984b44" stroke-opacity="1.0"></path><path fill-opacity="0.125" stroke="none" d="" fill="#000"></path><path fill-opacity="0.251" stroke="none" d="M6772,3650l0,-927l-17,1l-16,0l-17,1l-16,1l-17,1l-16,1l-17,1l-16,2l-17,1l-16,1l-17,1l-17,2l-16,1l-17,1l-16,2l-17,1l-16,2l-17,1l-16,2l-17,2l-16,1l-17,2l-16,2l-17,1l-16,2l-17,2l-16,2l-17,2l-16,1l-17,2l-16,2l-17,2l-16,2l-17,2l-16,2l-17,1l-17,2l-16,2l-17,2l-16,2l-17,2l-16,2l-17,2l-16,2l-17,2l-16,1l-17,2l-16,2l-17,2l-16,2l-17,2l-16,2l-17,1l-16,2l-17,2l-16,2l-17,2l-16,1l-17,2l-16,2l-17,1l-17,2l-16,2l-17,2l-16,1l-17,2l-16,1l-17,2l-16,2l-17,1l-16,2l-17,1l-16,2l-17,1l-16,2l-17,1l-16,2l-17,1l-16,2l-17,1l-16,2l-17,1l-16,2l-17,1l-17,1l-16,2l-17,1l-16,2l-17,1l-16,1l-17,2l-16,1l-17,1l-16,2l-17,1l-16,1l-17,2l-16,1l-17,1l-16,1l-17,2l-16,1l-17,1l-16,2l-17,1l-16,1l-17,2l-16,1l-17,1l-17,2l-16,1l-17,1l-16,2l-17,1l-16,1l-17,2l-16,1l-17,1l-16,2l-17,1l-16,1l-17,2l-16,1l-17,2l-16,1l-17,1l-16,2l-17,1l-16,2l-17,1l-16,2l-17,1l-16,2l-17,1l-17,2l-16,1l-17,2l-16,1l-17,2l-16,1l-17,2l-16,1l-17,2l-16,1l-17,2l-16,2l-17,1l-16,2l-17,1l-16,2l-17,1l-16,2l-17,2l-16,1l-17,2l-16,1l-17,2l-17,1l-16,2l-17,2l-16,1l-17,2l-16,1l-17,2l-16,1l-17,2l-16,1l-17,1l-16,2l-17,1l-16,2l-17,1l-16,1l-17,2l-16,1l-17,1l-16,1l-17,2l-16,1l-17,1l-16,1l-17,1l-17,1l-16,1l-17,1l-16,1l-17,1l-16,0l-17,1l-16,1l-17,1l-16,0l-17,1l-16,0l-17,1l-16,0l-17,0l-16,1l-17,0l-16,0l-17,0l-16,0l-17,0l-16,0l-17,0l-16,0l-17,0l-17,-1l-16,0l-17,-1l-16,0l-17,-1l-16,0l-17,-1l-16,-1l-17,-1l-16,0l-17,-1l-16,-1l-17,-1l-16,-1l-17,-2l-16,-1l-17,-1l-16,-1l-17,-2l-16,-1l-17,-2l-16,-1l-17,-2l-17,-2l-16,-1l-17,-2l-16,-2l-17,-2l-16,-2l-17,-2l-16,-2l-17,-2l-16,-2l-17,-2l-16,-2l-17,-2l-16,-3l-17,-2l-16,-2l-17,-3l-16,-2l-17,-2l-16,-3l-17,-2l-16,-3l-17,-3l-16,-2l-17,-3l-17,-2l-16,-3l-17,-3l-16,-3l-17,-2l-16,-3l-17,-3l-16,-3l-17,-3l-16,-2l-17,-3l-16,-3l-17,-3l-16,-3l-17,-3l-16,-3l-17,-3l-16,-3l-17,-3l-16,-3l-17,-3l-16,-2l-17,-3l-16,-3l-17,-3l-17,-3l-16,-3l-17,-3l-16,-3l-17,-3l-16,-3l-17,-3l-16,-3l-17,-3l-16,-3l-17,-3l-16,-2l-17,-3l-16,-3l-17,-3l-16,-3l-17,-3l-16,-2l-17,-3l-16,-3l-17,-2l-16,-3l-17,-3l-17,-2l-16,-3l-17,-2l-16,-3l-17,-2l-16,-3l-17,-2l-16,-3l-17,-2l-16,-2l-17,-3l-16,-2l-17,-2l-16,-2l-17,-2l-16,-2l-17,-2l-16,-2l-17,-2l-16,-2l-17,-2l-16,-1l-17,-2l-16,-2l-17,-1l-17,-2l-16,-1l-17,-2l-16,-1l-17,-2l-16,-1l-17,-1l-16,-1l-17,-1l-16,-1l-17,-1l-16,-1l-17,-1l-16,-1l-17,0l-16,-1l-17,0l-16,-1l-17,0l-16,-1l-17,0l-16,0l-17,-1l-16,0l-17,0l-17,0l-16,0l-17,1l-16,0l-17,0l-16,0l-17,1l-16,0l-17,1l-16,0l-17,1l0,928Z" fill="#000"></path><path fill-opacity="0.125" stroke="none" d="M758,2722l17,-1l16,0l17,-1l16,0l17,-1l16,0l17,0l16,0l17,-1l16,0l17,0l17,0l16,0l17,1l16,0l17,0l16,1l17,0l16,1l17,0l16,1l17,0l16,1l17,1l16,1l17,1l16,1l17,1l16,1l17,1l16,1l17,2l16,1l17,2l16,1l17,2l17,1l16,2l17,2l16,1l17,2l16,2l17,2l16,2l17,2l16,2l17,2l16,2l17,2l16,2l17,3l16,2l17,2l16,3l17,2l16,3l17,2l16,3l17,2l16,3l17,2l17,3l16,3l17,2l16,3l17,3l16,2l17,3l16,3l17,3l16,3l17,3l16,2l17,3l16,3l17,3l16,3l17,3l16,3l17,3l16,3l17,3l16,3l17,3l17,3l16,3l17,3l16,2l17,3l16,3l17,3l16,3l17,3l16,3l17,3l16,3l17,3l16,3l17,3l16,2l17,3l16,3l17,3l16,3l17,2l16,3l17,3l16,3l17,2l17,3l16,2l17,3l16,3l17,2l16,3l17,2l16,2l17,3l16,2l17,2l16,3l17,2l16,2l17,2l16,2l17,2l16,2l17,2l16,2l17,2l16,2l17,2l16,1l17,2l17,2l16,1l17,2l16,1l17,2l16,1l17,1l16,1l17,2l16,1l17,1l16,1l17,1l16,0l17,1l16,1l17,1l16,0l17,1l16,0l17,1l16,0l17,1l17,0l16,0l17,0l16,0l17,0l16,0l17,0l16,0l17,0l16,-1l17,0l16,0l17,-1l16,0l17,-1l16,0l17,-1l16,-1l17,-1l16,0l17,-1l16,-1l17,-1l16,-1l17,-1l17,-1l16,-1l17,-1l16,-1l17,-2l16,-1l17,-1l16,-1l17,-2l16,-1l17,-1l16,-2l17,-1l16,-2l17,-1l16,-1l17,-2l16,-1l17,-2l16,-1l17,-2l16,-1l17,-2l16,-2l17,-1l17,-2l16,-1l17,-2l16,-1l17,-2l16,-2l17,-1l16,-2l17,-1l16,-2l17,-1l16,-2l17,-2l16,-1l17,-2l16,-1l17,-2l16,-1l17,-2l16,-1l17,-2l16,-1l17,-2l17,-1l16,-2l17,-1l16,-2l17,-1l16,-2l17,-1l16,-2l17,-1l16,-1l17,-2l16,-1l17,-2l16,-1l17,-1l16,-2l17,-1l16,-1l17,-2l16,-1l17,-1l16,-2l17,-1l16,-1l17,-2l17,-1l16,-1l17,-2l16,-1l17,-1l16,-2l17,-1l16,-1l17,-2l16,-1l17,-1l16,-1l17,-2l16,-1l17,-1l16,-2l17,-1l16,-1l17,-2l16,-1l17,-1l16,-2l17,-1l16,-2l17,-1l17,-1l16,-2l17,-1l16,-2l17,-1l16,-2l17,-1l16,-2l17,-1l16,-2l17,-1l16,-2l17,-1l16,-2l17,-1l16,-2l17,-2l16,-1l17,-2l16,-1l17,-2l16,-2l17,-2l17,-1l16,-2l17,-2l16,-1l17,-2l16,-2l17,-2l16,-2l17,-1l16,-2l17,-2l16,-2l17,-2l16,-2l17,-2l16,-1l17,-2l16,-2l17,-2l16,-2l17,-2l16,-2l17,-2l16,-2l17,-2l17,-1l16,-2l17,-2l16,-2l17,-2l16,-2l17,-2l16,-1l17,-2l16,-2l17,-2l16,-2l17,-1l16,-2l17,-2l16,-1l17,-2l16,-2l17,-1l16,-2l17,-1l16,-2l17,-1l16,-1l17,-2l17,-1l16,-1l17,-1l16,-2l17,-1l16,-1l17,-1l16,-1l17,-1l16,0l17,-1l0,-64l-17,0l-16,1l-17,1l-16,1l-17,1l-16,1l-17,1l-16,1l-17,1l-16,1l-17,2l-17,1l-16,1l-17,2l-16,1l-17,2l-16,1l-17,2l-16,2l-17,1l-16,2l-17,2l-16,2l-17,1l-16,2l-17,2l-16,2l-17,2l-16,2l-17,2l-16,1l-17,2l-16,2l-17,2l-16,2l-17,2l-17,2l-16,2l-17,2l-16,2l-17,2l-16,2l-17,2l-16,2l-17,2l-16,2l-17,2l-16,2l-17,2l-16,2l-17,2l-16,2l-17,2l-16,2l-17,2l-16,2l-17,2l-16,2l-17,1l-16,2l-17,2l-17,2l-16,2l-17,1l-16,2l-17,2l-16,2l-17,1l-16,2l-17,2l-16,1l-17,2l-16,2l-17,1l-16,2l-17,1l-16,2l-17,1l-16,2l-17,1l-16,2l-17,1l-16,2l-17,1l-17,2l-16,1l-17,2l-16,1l-17,1l-16,2l-17,1l-16,1l-17,2l-16,1l-17,1l-16,2l-17,1l-16,1l-17,2l-16,1l-17,1l-16,2l-17,1l-16,1l-17,1l-16,2l-17,1l-16,1l-17,1l-17,2l-16,1l-17,1l-16,1l-17,2l-16,1l-17,1l-16,2l-17,1l-16,1l-17,1l-16,2l-17,1l-16,1l-17,2l-16,1l-17,1l-16,2l-17,1l-16,1l-17,2l-16,1l-17,1l-16,2l-17,1l-17,1l-16,2l-17,1l-16,1l-17,2l-16,1l-17,2l-16,1l-17,2l-16,1l-17,1l-16,2l-17,1l-16,2l-17,1l-16,2l-17,1l-16,1l-17,2l-16,1l-17,2l-16,1l-17,2l-17,1l-16,1l-17,2l-16,1l-17,2l-16,1l-17,1l-16,2l-17,1l-16,2l-17,1l-16,1l-17,1l-16,2l-17,1l-16,1l-17,1l-16,2l-17,1l-16,1l-17,1l-16,1l-17,1l-16,1l-17,1l-17,1l-16,1l-17,1l-16,1l-17,1l-16,0l-17,1l-16,1l-17,0l-16,1l-17,1l-16,0l-17,0l-16,1l-17,0l-16,1l-17,0l-16,0l-17,0l-16,0l-17,0l-16,0l-17,0l-16,0l-17,0l-17,0l-16,-1l-17,0l-16,0l-17,-1l-16,0l-17,-1l-16,-1l-17,0l-16,-1l-17,-1l-16,-1l-17,-1l-16,-1l-17,-1l-16,-1l-17,-1l-16,-1l-17,-1l-16,-2l-17,-1l-16,-1l-17,-2l-17,-1l-16,-2l-17,-2l-16,-1l-17,-2l-16,-2l-17,-2l-16,-1l-17,-2l-16,-2l-17,-2l-16,-2l-17,-2l-16,-2l-17,-3l-16,-2l-17,-2l-16,-2l-17,-3l-16,-2l-17,-2l-16,-3l-17,-2l-16,-3l-17,-2l-17,-3l-16,-2l-17,-3l-16,-3l-17,-2l-16,-3l-17,-3l-16,-2l-17,-3l-16,-3l-17,-3l-16,-3l-17,-2l-16,-3l-17,-3l-16,-3l-17,-3l-16,-3l-17,-2l-16,-3l-17,-3l-16,-3l-17,-3l-16,-3l-17,-3l-17,-3l-16,-3l-17,-3l-16,-3l-17,-3l-16,-3l-17,-2l-16,-3l-17,-3l-16,-3l-17,-3l-16,-3l-17,-3l-16,-3l-17,-2l-16,-3l-17,-3l-16,-3l-17,-3l-16,-2l-17,-3l-16,-3l-17,-2l-17,-3l-16,-3l-17,-2l-16,-3l-17,-2l-16,-3l-17,-2l-16,-3l-17,-2l-16,-3l-17,-2l-16,-2l-17,-3l-16,-2l-17,-2l-16,-2l-17,-2l-16,-2l-17,-2l-16,-2l-17,-2l-16,-2l-17,-2l-16,-2l-17,-1l-17,-2l-16,-1l-17,-2l-16,-1l-17,-2l-16,-1l-17,-2l-16,-1l-17,-1l-16,-1l-17,-1l-16,-1l-17,-1l-16,-1l-17,-1l-16,-1l-17,0l-16,-1l-17,0l-16,-1l-17,0l-16,-1l-17,0l-16,0l-17,0l-17,0l-16,0l-17,0l-16,0l-17,0l-16,0l-17,1l-16,0l-17,1l-16,0l-17,1Z" fill="#000"></path><path fill-opacity="0.125" stroke="none" d="M758,1134l17,-2l16,-2l17,-2l16,-2l17,-1l16,-2l17,-2l16,-2l17,-2l16,-2l17,-2l17,-2l16,-2l17,-2l16,-2l17,-2l16,-3l17,-2l16,-2l17,-2l16,-2l17,-2l16,-2l17,-2l16,-2l17,-2l16,-3l17,-2l16,-2l17,-2l16,-2l17,-2l16,-2l17,-2l16,-2l17,-2l17,-2l16,-2l17,-2l16,-2l17,-2l16,-2l17,-2l16,-2l17,-2l16,-1l17,-2l16,-2l17,-2l16,-2l17,-2l16,-1l17,-2l16,-2l17,-2l16,-1l17,-2l16,-2l17,-1l16,-2l17,-2l17,-1l16,-2l17,-2l16,-1l17,-2l16,-1l17,-2l16,-1l17,-2l16,-1l17,-2l16,-1l17,-2l16,-1l17,-2l16,-1l17,-2l16,-1l17,-2l16,-1l17,-2l16,-1l17,-2l17,-1l16,-1l17,-2l16,-1l17,-2l16,-1l17,-2l16,-1l17,-1l16,-2l17,-1l16,-2l17,-1l16,-2l17,-1l16,-2l17,-1l16,-1l17,-2l16,-1l17,-2l16,-1l17,-2l16,-1l17,-2l17,-1l16,-2l17,-1l16,-2l17,-1l16,-2l17,-1l16,-2l17,-1l16,-2l17,-2l16,-1l17,-2l16,-1l17,-2l16,-1l17,-2l16,-1l17,-2l16,-2l17,-1l16,-2l17,-1l16,-2l17,-1l17,-2l16,-1l17,-2l16,-1l17,-2l16,-1l17,-2l16,-1l17,-2l16,-1l17,-2l16,-1l17,-1l16,-2l17,-1l16,-1l17,-2l16,-1l17,-1l16,-1l17,-2l16,-1l17,-1l17,-1l16,-1l17,-1l16,-1l17,-1l16,-1l17,-1l16,-1l17,0l16,-1l17,-1l16,0l17,-1l16,-1l17,0l16,0l17,-1l16,0l17,0l16,-1l17,0l16,0l17,0l16,0l17,0l17,0l16,0l17,0l16,1l17,0l16,0l17,1l16,0l17,1l16,0l17,1l16,1l17,1l16,0l17,1l16,1l17,1l16,1l17,2l16,1l17,1l16,1l17,2l16,1l17,2l17,1l16,2l17,1l16,2l17,2l16,2l17,1l16,2l17,2l16,2l17,2l16,2l17,2l16,3l17,2l16,2l17,2l16,3l17,2l16,2l17,3l16,2l17,3l17,2l16,3l17,2l16,3l17,3l16,2l17,3l16,3l17,3l16,2l17,3l16,3l17,3l16,3l17,3l16,3l17,2l16,3l17,3l16,3l17,3l16,3l17,3l16,3l17,3l17,3l16,3l17,3l16,3l17,3l16,3l17,4l16,3l17,3l16,3l17,3l16,3l17,3l16,3l17,3l16,3l17,3l16,3l17,2l16,3l17,3l16,3l17,3l16,3l17,3l17,3l16,2l17,3l16,3l17,2l16,3l17,3l16,2l17,3l16,3l17,2l16,3l17,2l16,2l17,3l16,2l17,2l16,3l17,2l16,2l17,2l16,2l17,2l17,2l16,2l17,2l16,2l17,2l16,1l17,2l16,2l17,1l16,2l17,1l16,1l17,2l16,1l17,1l16,1l17,1l16,1l17,1l16,1l17,1l16,1l17,0l16,1l17,0l17,1l16,0l17,1l16,0l17,0l16,0l17,0l16,0l17,0l16,0l17,0l16,-1l17,0l16,-1l17,0l16,-1l17,0l16,-1l17,-1l16,-1l17,0l16,-1l17,-1l16,-1l17,-2l17,-1l16,-1l17,-1l16,-2l17,-1l16,-1l17,-2l16,-1l17,-2l16,-2l17,-1l0,-65l-17,2l-16,2l-17,1l-16,2l-17,1l-16,1l-17,2l-16,1l-17,1l-16,2l-17,1l-17,1l-16,1l-17,1l-16,1l-17,1l-16,1l-17,1l-16,0l-17,1l-16,1l-17,0l-16,1l-17,0l-16,1l-17,0l-16,0l-17,0l-16,0l-17,0l-16,0l-17,0l-16,0l-17,0l-16,0l-17,-1l-17,0l-16,-1l-17,0l-16,-1l-17,0l-16,-1l-17,-1l-16,-1l-17,-1l-16,-1l-17,-1l-16,-1l-17,-1l-16,-1l-17,-2l-16,-1l-17,-2l-16,-1l-17,-2l-16,-1l-17,-2l-16,-2l-17,-1l-16,-2l-17,-2l-17,-2l-16,-2l-17,-2l-16,-2l-17,-2l-16,-2l-17,-3l-16,-2l-17,-2l-16,-2l-17,-3l-16,-2l-17,-3l-16,-2l-17,-3l-16,-2l-17,-3l-16,-2l-17,-3l-16,-3l-17,-2l-16,-3l-17,-3l-17,-3l-16,-3l-17,-2l-16,-3l-17,-3l-16,-3l-17,-3l-16,-3l-17,-3l-16,-3l-17,-3l-16,-3l-17,-3l-16,-3l-17,-3l-16,-3l-17,-3l-16,-3l-17,-3l-16,-3l-17,-3l-16,-3l-17,-3l-16,-3l-17,-3l-17,-4l-16,-3l-17,-3l-16,-3l-17,-3l-16,-3l-17,-3l-16,-3l-17,-3l-16,-3l-17,-3l-16,-3l-17,-3l-16,-3l-17,-2l-16,-3l-17,-3l-16,-3l-17,-3l-16,-3l-17,-2l-16,-3l-17,-3l-16,-3l-17,-2l-17,-3l-16,-2l-17,-3l-16,-2l-17,-3l-16,-2l-17,-3l-16,-2l-17,-3l-16,-2l-17,-2l-16,-2l-17,-2l-16,-3l-17,-2l-16,-2l-17,-2l-16,-2l-17,-1l-16,-2l-17,-2l-16,-2l-17,-1l-17,-2l-16,-2l-17,-1l-16,-2l-17,-1l-16,-1l-17,-2l-16,-1l-17,-1l-16,-1l-17,-1l-16,-1l-17,-1l-16,-1l-17,-1l-16,0l-17,-1l-16,-1l-17,0l-16,0l-17,-1l-16,0l-17,-1l-16,0l-17,0l-17,0l-16,0l-17,0l-16,0l-17,0l-16,0l-17,1l-16,0l-17,0l-16,1l-17,0l-16,1l-17,0l-16,1l-17,1l-16,1l-17,0l-16,1l-17,1l-16,1l-17,1l-16,1l-17,1l-16,1l-17,1l-17,2l-16,1l-17,1l-16,1l-17,2l-16,1l-17,2l-16,1l-17,1l-16,2l-17,1l-16,2l-17,1l-16,2l-17,2l-16,1l-17,2l-16,1l-17,2l-16,2l-17,1l-16,2l-17,2l-17,1l-16,2l-17,2l-16,1l-17,2l-16,2l-17,2l-16,1l-17,2l-16,2l-17,1l-16,2l-17,2l-16,1l-17,2l-16,2l-17,1l-16,2l-17,2l-16,1l-17,2l-16,2l-17,1l-16,2l-17,1l-17,2l-16,2l-17,1l-16,2l-17,1l-16,2l-17,2l-16,1l-17,2l-16,1l-17,2l-16,1l-17,2l-16,1l-17,2l-16,1l-17,2l-16,1l-17,2l-16,1l-17,2l-16,1l-17,2l-16,1l-17,2l-17,1l-16,2l-17,1l-16,2l-17,1l-16,2l-17,1l-16,2l-17,1l-16,2l-17,1l-16,2l-17,1l-16,2l-17,1l-16,2l-17,1l-16,2l-17,1l-16,2l-17,1l-16,2l-17,2l-17,1l-16,2l-17,1l-16,2l-17,2l-16,1l-17,2l-16,2l-17,1l-16,2l-17,2l-16,1l-17,2l-16,2l-17,2l-16,1l-17,2l-16,2l-17,2l-16,2l-17,2l-16,1l-17,2l-16,2l-17,2l-17,2l-16,2l-17,2l-16,2l-17,2l-16,2l-17,2l-16,2l-17,2l-16,2l-17,2l-16,2l-17,2l-16,2l-17,2l-16,2l-17,2l-16,2l-17,2l-16,2l-17,1l-16,2l-17,2l-16,2l-17,2l-17,2l-16,2l-17,2l-16,2l-17,2l-16,2l-17,1l-16,2l-17,2l-16,2l-17,1Z" fill="#000"></path><path fill-opacity="0.251" stroke="none" d="M758,1069l17,-1l16,-2l17,-2l16,-2l17,-1l16,-2l17,-2l16,-2l17,-2l16,-2l17,-2l17,-2l16,-2l17,-2l16,-2l17,-1l16,-2l17,-2l16,-2l17,-2l16,-2l17,-2l16,-2l17,-2l16,-2l17,-2l16,-2l17,-2l16,-2l17,-2l16,-2l17,-2l16,-2l17,-2l16,-2l17,-2l17,-2l16,-2l17,-2l16,-1l17,-2l16,-2l17,-2l16,-2l17,-2l16,-1l17,-2l16,-2l17,-2l16,-1l17,-2l16,-2l17,-1l16,-2l17,-2l16,-1l17,-2l16,-2l17,-1l16,-2l17,-1l17,-2l16,-2l17,-1l16,-2l17,-1l16,-2l17,-1l16,-2l17,-1l16,-2l17,-1l16,-2l17,-1l16,-2l17,-1l16,-2l17,-1l16,-2l17,-1l16,-2l17,-1l16,-2l17,-1l17,-2l16,-1l17,-2l16,-1l17,-2l16,-1l17,-2l16,-1l17,-2l16,-1l17,-2l16,-1l17,-2l16,-1l17,-2l16,-1l17,-2l16,-1l17,-2l16,-2l17,-1l16,-2l17,-1l16,-2l17,-2l17,-1l16,-2l17,-1l16,-2l17,-2l16,-1l17,-2l16,-2l17,-1l16,-2l17,-2l16,-1l17,-2l16,-2l17,-1l16,-2l17,-2l16,-1l17,-2l16,-2l17,-2l16,-1l17,-2l16,-2l17,-1l17,-2l16,-2l17,-1l16,-2l17,-2l16,-1l17,-2l16,-1l17,-2l16,-2l17,-1l16,-2l17,-1l16,-2l17,-1l16,-1l17,-2l16,-1l17,-2l16,-1l17,-1l16,-1l17,-2l17,-1l16,-1l17,-1l16,-1l17,-1l16,-1l17,-1l16,-1l17,0l16,-1l17,-1l16,-1l17,0l16,-1l17,0l16,-1l17,0l16,0l17,-1l16,0l17,0l16,0l17,0l16,0l17,0l17,0l16,0l17,1l16,0l17,1l16,0l17,0l16,1l17,1l16,0l17,1l16,1l17,1l16,1l17,1l16,1l17,1l16,1l17,2l16,1l17,1l16,2l17,1l16,2l17,2l17,1l16,2l17,2l16,2l17,1l16,2l17,2l16,2l17,2l16,3l17,2l16,2l17,2l16,2l17,3l16,2l17,3l16,2l17,3l16,2l17,3l16,2l17,3l17,2l16,3l17,3l16,3l17,2l16,3l17,3l16,3l17,3l16,3l17,2l16,3l17,3l16,3l17,3l16,3l17,3l16,3l17,3l16,3l17,3l16,3l17,3l16,3l17,4l17,3l16,3l17,3l16,3l17,3l16,3l17,3l16,3l17,3l16,3l17,3l16,3l17,3l16,3l17,3l16,3l17,3l16,3l17,3l16,3l17,3l16,3l17,2l16,3l17,3l17,3l16,3l17,2l16,3l17,3l16,2l17,3l16,2l17,3l16,2l17,3l16,2l17,3l16,2l17,2l16,2l17,3l16,2l17,2l16,2l17,2l16,2l17,2l17,2l16,2l17,1l16,2l17,2l16,1l17,2l16,1l17,2l16,1l17,2l16,1l17,1l16,1l17,1l16,1l17,1l16,1l17,1l16,1l17,0l16,1l17,0l16,1l17,0l17,1l16,0l17,0l16,0l17,0l16,0l17,0l16,0l17,0l16,0l17,0l16,-1l17,0l16,-1l17,0l16,-1l17,-1l16,0l17,-1l16,-1l17,-1l16,-1l17,-1l16,-1l17,-1l17,-1l16,-2l17,-1l16,-1l17,-2l16,-1l17,-1l16,-2l17,-1l16,-2l17,-2l0,-971l-6014,0Z" fill="#000"></path><path fill-opacity="0.125" stroke="none" d="" fill="#000"></path></g><g transform="scale(0.1)"></g><g stroke-width="1" stroke="#000" fill="none" stroke-opacity="0.2"><line x2="126.2" y1="10" x1="126.2" y2="370" stroke-opacity="0.2"></line><line x2="172.5" y1="10" x1="172.5" y2="370" stroke-opacity="0.2"></line><line x2="223.7" y1="10" x1="223.7" y2="370" stroke-opacity="0.2"></line><line x2="273.2" y1="10" x1="273.2" y2="370" stroke-opacity="0.2"></line><line x2="324.5" y1="10" x1="324.5" y2="370" stroke-opacity="0.2"></line><line x2="374" y1="10" x1="374" y2="370" stroke-opacity="0.2"></line><line x2="425.2" y1="10" x1="425.2" y2="370" stroke-opacity="0.2"></line><line x2="476.4" y1="10" x1="476.4" y2="370" stroke-opacity="0.2"></line><line x2="526" y1="10" x1="526" y2="370" stroke-opacity="0.2"></line><line x2="577.2" y1="10" x1="577.2" y2="370" stroke-opacity="0.2"></line><line x2="626.8" y1="10" x1="626.8" y2="370" stroke-opacity="0.2"></line><line x2="681" y1="365" x1="72" y2="365"></line><line x2="681" y1="335.4" x1="72" y2="335.4"></line><line x2="681" y1="305.8" x1="72" y2="305.8"></line><line x2="681" y1="276.3" x1="72" y2="276.3"></line><line x2="681" y1="246.7" x1="72" y2="246.7"></line><line x2="681" y1="217.1" x1="72" y2="217.1"></line><line x2="681" y1="187.5" x1="72" y2="187.5"></line><line x2="681" y1="157.9" x1="72" y2="157.9"></line><line x2="681" y1="128.3" x1="72" y2="128.3"></line><line x2="681" y1="98.8" x1="72" y2="98.8"></line><line x2="681" y1="69.2" x1="72" y2="69.2"></line><line x2="681" y1="39.6" x1="72" y2="39.6"></line><line x2="681" y1="10" x1="72" y2="10"></line></g><g><rect fill-opacity="0.004" y="10" x="75" height="355" width="51.2" fill="#fff"></rect><text stroke="none" y="381.5" text-anchor="middle" x="100.6">Jan</text></g><g><rect fill-opacity="0.004" y="10" x="126.2" height="355" width="46.3" fill="#fff"></rect><text stroke="none" y="381.5" text-anchor="middle" x="149.3">Feb</text></g><g><rect fill-opacity="0.004" y="10" x="172.5" height="355" width="51.2" fill="#fff"></rect><text stroke="none" y="381.5" text-anchor="middle" x="198.1">Mar</text></g><g><rect fill-opacity="0.004" y="10" x="223.7" height="355" width="49.6" fill="#fff"></rect><text stroke="none" y="381.5" text-anchor="middle" x="248.5">Apr</text></g><g><rect fill-opacity="0.004" y="10" x="273.2" height="355" width="51.2" fill="#fff"></rect><text stroke="none" y="381.5" text-anchor="middle" x="298.9">May</text></g><g><rect fill-opacity="0.004" y="10" x="324.5" height="355" width="49.6" fill="#fff"></rect><text stroke="none" y="381.5" text-anchor="middle" x="349.2">Jun</text></g><g><rect fill-opacity="0.004" y="10" x="374" height="355" width="51.2" fill="#fff"></rect><text stroke="none" y="381.5" text-anchor="middle" x="399.6">Jul</text></g><g><rect fill-opacity="0.004" y="10" x="425.2" height="355" width="51.2" fill="#fff"></rect><text stroke="none" y="381.5" text-anchor="middle" x="450.8">Aug</text></g><g><rect fill-opacity="0.004" y="10" x="476.4" height="355" width="49.6" fill="#fff"></rect><text stroke="none" y="381.5" text-anchor="middle" x="501.2">Sep</text></g><g><rect fill-opacity="0.004" y="10" x="526" height="355" width="51.2" fill="#fff"></rect><text stroke="none" y="381.5" text-anchor="middle" x="551.6">Oct</text></g><g><rect fill-opacity="0.004" y="10" x="577.2" height="355" width="49.6" fill="#fff"></rect><text stroke="none" y="381.5" text-anchor="middle" x="602">Nov</text></g><g><rect fill-opacity="0.004" y="10" x="626.8" height="355" width="51.2" fill="#fff"></rect><text stroke="none" y="381.5" text-anchor="middle" x="652.4">Dec</text></g><g stroke="none" fill="#666"><text y="370.2" text-anchor="end" x="71">0</text><text y="370.2" x="682">0</text><text y="340.6" text-anchor="end" x="71">2</text><text y="340.6" x="682">2</text><text y="311" text-anchor="end" x="71">4</text><text y="311" x="682">4</text><text y="281.4" text-anchor="end" x="71">6</text><text y="281.4" x="682">6</text><text y="251.9" text-anchor="end" x="71">8</text><text y="251.9" x="682">8</text><text y="222.3" text-anchor="end" x="71">10</text><text y="222.3" x="682">10</text><text y="192.7" text-anchor="end" x="71">12</text><text y="192.7" x="682">12</text><text y="163.1" text-anchor="end" x="71">14</text><text y="163.1" x="682">14</text><text y="133.5" text-anchor="end" x="71">16</text><text y="133.5" x="682">16</text><text y="103.9" text-anchor="end" x="71">18</text><text y="103.9" x="682">18</text><text y="74.4" text-anchor="end" x="71">20</text><text y="74.4" x="682">20</text><text y="44.8" text-anchor="end" x="71">22</text><text y="44.8" x="682">22</text><text y="15.2" text-anchor="end" x="71">0</text><text y="15.2" x="682">0</text></g><g font-family="sans-serif" text-decoration="none" font-style="normal" font-size="15" font-weight="normal"><text font-family="sans-serif" stroke="none" opacity="0.8" y="273.6" text-decoration="none" text-anchor="middle" x="122.4" font-style="normal" font-size="15" fill="#fff" font-weight="normal">7°-12°</text></g><g font-family="sans-serif" text-decoration="none" font-style="normal" font-size="15" font-weight="normal"><text font-family="sans-serif" stroke="none" opacity="0.8" y="270.5" text-decoration="none" text-anchor="middle" x="654" font-style="normal" font-size="15" fill="#fff" font-weight="normal">7°-12°</text></g><g font-family="sans-serif" text-decoration="none" font-style="normal" font-size="15" font-weight="normal"><text font-family="sans-serif" stroke="none" opacity="0.8" y="73.8" text-decoration="none" text-anchor="middle" x="116.5" font-style="normal" font-size="15" fill="#fff" font-weight="normal">13°-17°</text></g><g font-family="sans-serif" text-decoration="none" font-style="normal" font-size="15" font-weight="normal"><text font-family="sans-serif" stroke="none" opacity="0.8" y="40.8" text-decoration="none" text-anchor="middle" x="647.4" font-style="normal" font-size="15" fill="#fff" font-weight="normal">13°-17°</text></g><g font-family="sans-serif" text-decoration="none" font-style="normal" font-size="15" font-weight="normal"><text font-family="sans-serif" stroke="none" opacity="0.8" y="283.2" text-decoration="none" text-anchor="middle" x="302.4" font-style="normal" font-size="15" fill="#fff" font-weight="normal">24°-28°</text></g><g font-family="sans-serif" text-decoration="none" font-style="normal" font-size="15" font-weight="normal"><text font-family="sans-serif" stroke="none" opacity="0.8" y="276.1" text-decoration="none" text-anchor="middle" x="509.2" font-style="normal" font-size="15" fill="#fff" font-weight="normal">24°-28°</text></g><g font-family="sans-serif" text-decoration="none" font-style="normal" font-size="15" font-weight="normal"><text font-family="sans-serif" stroke="none" opacity="0.8" y="297.4" text-decoration="none" text-anchor="middle" x="396.5" font-style="normal" font-size="15" fill="#fff" font-weight="normal">29°-34°</text></g><g font-family="sans-serif" text-decoration="none" font-style="normal" font-size="15" font-weight="normal"><text font-family="sans-serif" stroke="none" opacity="0.8" y="134.9" text-decoration="none" text-anchor="middle" x="415.5" font-style="normal" font-size="15" fill="#fff" font-weight="normal">35°+</text></g><g font-family="sans-serif" text-decoration="none" font-style="normal" font-size="15" font-weight="normal"><text font-family="sans-serif" stroke="none" opacity="0.8" y="25.6" text-decoration="none" text-anchor="middle" x="95.8" font-style="normal" font-size="15" fill="#fff" font-weight="normal">7°-12°</text></g><g font-family="sans-serif" text-decoration="none" font-style="normal" font-size="15" font-weight="normal"><text font-family="sans-serif" stroke="none" opacity="0.8" y="356.1" text-decoration="none" text-anchor="middle" x="413" font-style="normal" font-size="15" fill="#fff" font-weight="normal">35°+</text></g><g font-family="sans-serif" text-decoration="none" font-style="normal" font-size="15" font-weight="normal"><text font-family="sans-serif" stroke="none" opacity="0.8" y="137.7" text-decoration="none" text-anchor="middle" x="155.5" font-style="normal" font-size="15" fill="#fff" font-weight="normal">18°-23°</text></g><g font-family="sans-serif" text-decoration="none" font-style="normal" font-size="15" font-weight="normal"><text font-family="sans-serif" stroke="none" opacity="0.8" y="137.7" text-decoration="none" text-anchor="middle" x="631.2" font-style="normal" font-size="15" fill="#fff" font-weight="normal">18°-23°</text></g></svg>