<svg font-family="sans-serif" viewBox="0 0 753 387" xmlns:xlink="http://www.w3.org/1999/xlink" text-decoration="none" font-style="normal" width="753px" xmlns="http://www.w3.org/2000/svg" font-size="15" version="1.1" font-weight="normal" height="387px"><title>Average Hourly Temperature in Riyadh</title><defs><clipPath id="plot-sample-bounds-0"><rect y="0" x="75.8" height="365" width="601.3"></rect></clipPath><clipPath id="plot-sample-bounds-scaled-0"><rect y="0" x="758.3" height="3650" width="6013.5"></rect></clipPath></defs><g transform="scale(0.1)"><path fill-opacity="1.000" stroke-width="10" stroke="#5ca0b4" d="" fill="#5ca0b4" stroke-opacity="1.0"></path><path fill-opacity="1.000" stroke-width="10" stroke="#83c2d5" d="" fill="#83c2d5" stroke-opacity="1.0"></path><path fill-opacity="1.000" stroke-width="10" stroke="#679568" d="" fill="#679568" stroke-opacity="1.0"></path><path fill-opacity="1.000" stroke-width="10" stroke="#74a877" d="M758,3408l17,12l11,8l5,4l17,7l16,7l17,3l16,7l17,8l16,3l17,3l16,4l17,0l17,-7l16,-11l17,-4l16,-13l17,-7l5,-4l11,-8l17,-16l16,-12l17,-11l16,-5l17,-4l16,-8l17,-18l16,-13l17,-11l16,-12l17,-15l9,-15l7,-12l17,-30l16,-19l17,-33l16,-34l14,-20l3,-4l16,-38l17,-25l17,-30l16,-25l17,-26l16,-39l17,-37l16,-31l17,-31l4,-10l12,-28l17,-34l16,-29l17,-22l14,-34l2,-10l17,-59l16,-70l2,-9l-2,-4l-16,-22l-17,-19l-16,-23l-17,-18l-16,-18l-17,-24l-12,-20l-4,-3l-17,-10l-16,-9l-17,-12l-16,-11l-17,-10l-16,-9l-17,-11l-17,-9l-16,-15l-17,-10l-16,-13l-17,-12l-16,-8l-10,-6l-7,-4l-16,-11l-17,-5l-16,-4l-17,-6l-16,-2l-17,-5l-16,-3l-17,-2l-16,0l-17,-1l-16,-6l-17,-3l-16,-2l-17,-3l-16,-3l-17,0l-16,0l-17,-2l-17,0l-16,2l-17,3l-16,2l-17,3l-16,3l-17,2l-16,5l-17,4l-16,4l-17,6ZM6743,2245l-4,3l-17,9l-16,7l-17,6l-16,8l-17,6l-16,8l-17,6l-16,8l-17,9l-17,11l-16,9l-17,11l-16,12l-17,10l-16,14l-12,11l-5,9l-16,25l-17,23l-16,23l-17,26l-16,22l-13,20l13,148l16,47l17,49l16,45l3,6l14,32l16,42l17,48l8,26l8,22l17,32l16,33l17,31l16,22l5,8l12,22l17,26l16,20l17,19l16,16l17,18l16,18l7,9l10,12l16,13l17,16l16,25l17,27l0,-1145l-17,10Z" fill="#74a877" stroke-opacity="1.0"></path><path fill-opacity="1.000" stroke-width="10" stroke="#8dbf71" d="M758,871l17,9l16,6l17,2l16,4l17,0l16,5l17,0l16,2l17,2l16,0l17,-6l17,-7l16,-2l17,-5l16,-4l17,-5l16,-8l17,-9l16,-9l17,-6l16,-4l17,-6l16,-13l17,-13l16,-13l17,-11l16,-12l2,-2l15,-16l16,-21l17,-18l16,-16l17,-21l16,-21l17,-18l12,-17l4,-8l17,-19l17,-19l16,-16l17,-24l16,-19l17,-22l16,-16l4,-5l13,-16l16,-20l17,-15l16,-16l17,-20l16,-19l17,-22l14,-20l2,-3l17,-31l16,-37l17,-29l16,-22l17,-26l16,-24l17,-24l16,-26l-958,0ZM6175,100l2,6l17,51l5,17l11,27l17,35l16,32l17,33l10,21l6,12l17,33l16,33l17,34l16,33l2,3l15,25l16,35l17,22l16,25l17,23l16,18l17,16l16,21l17,21l16,16l17,13l16,10l17,12l16,14l17,13l17,9l4,3l12,6l17,8l16,6l17,11l16,8l17,9l16,11l17,14l16,13l17,13l0,0l0,-765ZM791,1653l-16,6l-17,11l0,549l17,-7l16,-4l17,-4l16,-5l17,-1l16,-4l17,-2l16,-3l17,-3l16,-1l17,-1l17,2l16,0l17,0l16,3l17,4l16,1l17,4l16,5l17,2l16,-1l17,3l16,3l17,4l16,3l17,5l16,4l17,6l16,10l5,3l12,7l16,8l17,12l16,14l17,10l16,15l17,8l17,12l16,9l17,9l16,11l17,12l16,9l17,10l2,2l14,24l17,24l16,17l17,18l16,23l17,20l16,22l-16,69l-17,59l-4,20l-12,28l-17,23l-16,28l-17,34l-14,34l-2,5l-17,31l-16,31l-17,37l-16,39l-3,5l-14,22l-16,25l-17,29l-17,26l-16,38l-6,8l-11,16l-16,34l-17,32l-16,20l-17,29l-9,17l-7,11l-17,15l-16,12l-17,12l-16,12l-17,18l-16,8l-17,4l-16,6l-17,10l-16,12l-17,16l-16,12l-17,7l-16,14l-17,4l-16,10l-17,7l-17,0l-16,-3l-17,-4l-16,-2l-17,-8l-16,-7l-17,-4l-16,-7l-17,-7l-16,-12l-17,-13l0,247l958,0l0,-1l17,-27l16,-21l17,-20l4,-5l13,-21l16,-23l17,-24l16,-27l17,-23l16,-27l2,-3l15,-29l16,-35l17,-26l16,-22l17,-26l5,-10l11,-21l17,-32l16,-33l17,-41l9,-21l7,-19l17,-45l16,-44l17,-36l2,-4l14,-38l17,-52l16,-48l5,-10l12,-27l17,-64l15,-56l-5,-148l-10,-16l-17,-26l-17,-18l-16,-26l-17,-26l-16,-25l-8,-11l-9,-7l-16,-18l-17,-18l-16,-17l-17,-16l-16,-15l-17,-15l-16,-13l-17,-12l-16,-10l-9,-7l-8,-7l-16,-15l-17,-14l-16,-14l-17,-11l-16,-13l-17,-12l-16,-12l-17,-12l-17,-9l-16,-12l-17,-15l-2,-2l-14,-15l-17,-13l-16,-13l-17,-14l-16,-13l-17,-20l-16,-17l-17,-15l-16,-9l-17,-12l-12,-7l-4,-3l-17,-12l-16,-9l-17,-11l-16,-14l-17,-12l-16,-9l-17,-13l-16,-13l-17,-11l-16,-7l-17,-11l-17,-11l-13,-12l-3,-4l-17,-12l-16,-18l-17,-16l-16,-14l-17,-14l-16,-15l-17,-11l-16,-9l-17,-11l-16,-9l-17,-7l-13,-8l-3,-2l-17,-2l-16,2l-17,-5l-16,-9l-17,-5l-16,-3l-17,-4l-16,-2l-17,0l-16,0l-17,-5l-17,-2l-16,4l-17,5l-16,5l-17,0l-16,7l-17,0l-16,11ZM6609,1801l-2,2l-17,8l-17,10l-16,10l-17,10l-16,9l-17,8l-16,14l-17,18l-16,14l-17,13l-16,13l-17,16l-3,3l-13,13l-17,15l-16,18l-17,17l-16,15l-17,19l-16,16l-17,18l-16,17l-17,14l-16,16l-17,18l-16,17l-17,17l-17,15l-16,17l-17,19l-14,15l-2,2l-17,19l-16,18l-17,16l-16,18l-17,16l-16,16l-17,17l-16,17l-10,9l-7,9l-16,25l-17,25l-16,24l-17,21l-16,22l-17,18l-2,4l-3,148l5,18l17,51l16,59l6,19l11,34l16,55l17,55l1,4l15,47l17,51l16,46l1,4l16,50l16,51l16,47l1,4l16,44l17,44l16,49l3,7l14,40l16,44l17,47l7,17l9,30l15,44l597,0l0,-281l-17,-27l-16,-25l-17,-16l-16,-13l-7,-8l-10,-13l-16,-18l-17,-18l-16,-16l-17,-20l-16,-19l-17,-26l-9,-18l-8,-12l-16,-23l-17,-30l-16,-33l-17,-32l-6,-18l-10,-31l-17,-48l-16,-42l-12,-27l-5,-13l-16,-44l-17,-50l-14,-40l-2,-22l-11,-126l11,-17l16,-22l17,-26l16,-23l17,-23l16,-25l7,-12l10,-9l16,-14l17,-11l16,-11l17,-11l16,-10l17,-10l17,-10l16,-8l17,-5l16,-9l17,-5l16,-9l17,-5l16,-8l17,-9l7,-4l9,-5l17,-11l0,0l0,-545l-17,12l-16,15l-17,15l-16,12l-17,9l-16,11l-17,10l-16,12l-17,9Z" fill="#8dbf71" stroke-opacity="1.0"></path><path fill-opacity="1.000" stroke-width="10" stroke="#e9cc77" d="M1714,100l-14,24l-17,23l-16,25l-2,2l-15,24l-16,21l-17,29l-16,37l-17,32l-3,5l-13,18l-17,22l-16,19l-17,20l-16,15l-17,16l-16,20l-15,18l-2,2l-16,17l-17,21l-16,19l-17,24l-16,16l-17,20l-17,19l-6,10l-10,15l-17,17l-16,22l-17,21l-16,16l-17,17l-16,22l-17,18l-16,12l-17,11l-16,13l-17,13l-16,13l-17,6l-16,3l-17,7l-16,9l-17,9l-16,8l-17,5l-16,4l-17,5l-16,2l-17,6l-17,7l-16,0l-17,-2l-16,-2l-17,0l-16,-5l-17,0l-16,-4l-17,-2l-16,-6l-17,-9l0,0l0,803l0,0l17,-11l16,-6l9,-2l8,-2l16,-12l17,0l16,-7l17,0l16,-5l17,-5l16,-4l17,3l17,4l16,0l17,0l16,2l17,5l16,2l17,5l16,9l17,5l16,-2l17,2l16,9l17,8l16,9l17,11l16,9l17,11l16,14l17,15l16,13l17,17l16,18l17,12l2,2l14,14l17,11l17,10l16,8l17,10l16,13l17,13l16,9l17,13l16,13l17,11l16,9l17,12l2,2l14,8l17,12l16,10l17,14l16,17l17,20l16,14l17,13l16,13l17,14l13,13l3,4l17,14l16,12l17,9l17,12l16,12l17,12l16,13l17,11l16,14l17,15l16,15l7,5l10,8l16,11l17,11l16,14l17,15l16,15l17,15l16,18l17,17l16,18l7,6l10,13l16,25l17,27l16,25l17,18l17,27l9,13l4,148l-13,51l-17,64l-14,32l-3,5l-16,48l-17,52l-16,43l-17,36l-16,44l-17,45l-9,23l-7,18l-17,41l-16,33l-17,32l-13,24l-3,7l-17,25l-16,23l-17,26l-16,35l-17,32l-16,27l-17,23l-16,27l-17,24l-16,23l-15,24l-2,2l-17,20l-16,22l-17,26l-2,4l609,0l5,-8l16,-27l17,-30l5,-9l11,-24l17,-32l16,-33l17,-33l13,-26l3,-6l17,-39l16,-35l17,-39l11,-29l5,-14l17,-42l16,-39l17,-42l4,-11l13,-36l16,-44l17,-48l7,-20l9,-26l17,-50l16,-46l9,-26l8,-28l16,-63l15,-56l-15,-55l-16,-65l-8,-28l-9,-10l-16,-17l-17,-19l-16,-20l-17,-22l-16,-21l-17,-18l-17,-21l-16,-16l-17,-18l-16,-19l-17,-17l-16,-21l-17,-18l-16,-17l-17,-17l-4,-5l-12,-13l-17,-17l-16,-18l-17,-19l-16,-18l-17,-19l-16,-19l-17,-16l-8,-9l-8,-11l-17,-18l-16,-18l-17,-15l-16,-17l-17,-15l-16,-13l-17,-16l-17,-13l-14,-12l-2,-2l-17,-20l-16,-15l-17,-17l-16,-20l-17,-18l-16,-19l-17,-18l-16,-19l-17,-18l-16,-18l-17,-14l-16,-14l-17,-13l-16,-18l-17,-19l-16,-18l-17,-12l-4,-4l-12,-15l-17,-18l-16,-22l-17,-20l-17,-18l-16,-16l-17,-24l-8,-15l-8,-20l-17,-36l-16,-29l-17,-29l-16,-27l-3,-7l-14,-111l-4,-37l4,-29l17,-96l6,-23l10,-14l17,-24l16,-30l17,-35l16,-39l3,-5l14,-20l16,-13l17,-20l17,-19l16,-20l17,-19l16,-20l17,-15l1,-2l15,-18l17,-22l16,-16l17,-13l16,-14l17,-17l16,-20l17,-18l7,-10l9,-14l17,-27l16,-25l17,-26l16,-23l17,-22l7,-11l9,-15l17,-25l16,-15l17,-24l17,-24l16,-25l12,-20l5,-8l16,-24l17,-26l16,-29l17,-37l14,-24l2,-2l17,-28l16,-25l12,-19ZM5755,100l9,31l11,43l6,13l16,39l17,40l16,37l8,19l9,19l16,36l17,38l16,38l7,17l10,22l16,36l17,38l16,39l6,13l11,21l16,37l17,37l16,35l9,18l8,14l16,29l17,32l16,33l17,29l6,11l10,19l17,30l16,26l17,27l17,33l7,12l9,25l17,49l16,43l12,31l2,148l-14,45l-16,58l-13,45l-4,8l-16,39l-17,41l-17,35l-10,25l-6,10l-17,31l-16,29l-17,30l-16,36l-7,12l-10,15l-16,25l-17,27l-16,29l-17,32l-10,20l-6,9l-17,23l-16,23l-17,25l-16,23l-17,20l-16,20l-5,5l-12,11l-16,15l-17,19l-16,18l-17,18l-16,19l-17,17l-17,18l-12,13l-4,4l-17,14l-16,13l-17,12l-16,14l-17,13l-16,12l-17,13l-16,11l-17,11l-16,10l-17,11l-11,10l-5,5l-17,16l-16,16l-17,13l-16,15l-17,13l-16,13l-17,14l-16,13l-17,14l-17,14l-1,2l-15,95l-10,53l10,24l16,52l17,46l10,25l7,15l16,37l17,39l16,39l9,18l8,13l16,35l17,31l16,35l15,34l2,3l16,36l17,34l16,35l17,34l3,6l13,26l17,35l16,38l17,38l5,11l11,26l17,41l16,38l17,34l3,9l13,47l8,27l421,0l-16,-48l-8,-26l-8,-21l-17,-46l-16,-44l-13,-37l-4,-10l-16,-50l-17,-43l-16,-45l-17,-50l-16,-52l-14,-46l-3,-8l-16,-46l-17,-51l-14,-43l-2,-8l-17,-55l-16,-55l-10,-30l-7,-23l-16,-60l-17,-51l-4,-13l3,-148l1,-2l17,-19l16,-21l17,-21l16,-24l17,-26l16,-24l8,-11l9,-8l16,-16l17,-18l16,-16l17,-16l16,-18l17,-16l16,-18l17,-19l3,-3l13,-14l17,-19l16,-17l17,-15l17,-17l16,-17l17,-17l16,-17l17,-14l1,-1l15,-16l17,-18l16,-16l17,-18l16,-16l17,-17l16,-17l17,-16l15,-14l1,-2l17,-15l16,-13l17,-13l16,-14l17,-19l16,-13l17,-9l16,-8l17,-10l16,-10l17,-10l17,-9l4,-3l12,-10l17,-9l16,-12l17,-10l16,-11l17,-9l16,-12l17,-15l16,-15l17,-12l0,-823l0,0l-17,-13l-16,-14l-17,-13l-16,-12l-17,-8l-16,-8l-17,-11l-16,-6l-17,-8l-8,-4l-8,-5l-17,-9l-17,-14l-16,-13l-17,-13l-16,-10l-17,-13l-16,-15l-17,-21l-16,-21l-14,-14l-3,-3l-16,-18l-17,-23l-16,-25l-17,-22l-16,-34l-13,-23l-4,-6l-16,-33l-17,-34l-16,-33l-17,-33l-4,-9l-12,-24l-17,-33l-16,-32l-17,-35l-10,-24l-6,-22l-17,-50l-1,-2Z" fill="#e9cc77" stroke-opacity="1.0"></path><path fill-opacity="1.000" stroke-width="10" stroke="#c77560" d="M2322,100l-11,17l-16,25l-17,27l-3,5l-13,21l-17,37l-16,29l-17,27l-16,23l-6,11l-11,17l-16,25l-17,24l-17,24l-16,15l-17,25l-10,18l-6,9l-17,22l-16,23l-17,25l-16,25l-17,28l-10,16l-6,8l-17,18l-16,20l-17,17l-16,14l-17,13l-16,16l-17,22l-16,20l-17,15l-16,20l-17,19l-16,20l-17,19l-17,20l-16,13l-15,22l-2,2l-16,39l-17,35l-16,30l-17,24l-12,17l-4,15l-17,96l-5,37l5,47l13,101l4,10l16,27l17,29l16,30l17,36l6,16l10,18l17,24l16,16l17,17l17,20l16,22l17,18l11,13l5,5l17,13l16,17l17,20l16,17l17,14l16,14l17,14l16,18l15,16l2,2l16,18l17,19l16,18l17,19l16,20l17,17l16,15l17,20l16,14l17,12l17,17l16,13l17,14l16,17l17,15l16,18l17,18l7,10l9,11l17,16l16,19l17,18l16,18l17,20l16,18l17,16l10,12l6,6l17,18l16,17l17,18l16,20l17,17l16,19l17,18l15,15l1,1l17,21l17,18l16,22l17,21l16,21l17,18l16,18l8,8l9,34l16,64l14,50l-14,51l-16,62l-9,34l-8,22l-16,46l-17,50l-10,30l-6,16l-17,48l-16,44l-14,40l-3,8l-17,42l-16,38l-17,43l-6,17l-10,25l-17,40l-16,35l-17,38l-4,10l-12,23l-17,33l-16,33l-17,32l-12,27l-4,7l-17,30l-16,27l-6,10l483,0l2,-3l16,-29l17,-29l8,-13l8,-16l17,-31l16,-27l17,-30l16,-33l5,-11l12,-28l16,-38l17,-35l17,-30l12,-17l4,-6l17,-26l16,-26l17,-24l16,-24l17,-22l13,-20l3,-6l17,-25l16,-22l17,-22l16,-20l17,-21l16,-19l14,-13l3,-3l16,-21l17,-18l16,-16l17,-14l16,-8l17,-10l16,-5l17,-2l17,-3l16,-5l17,-6l16,-6l17,-4l16,0l17,-6l16,-4l17,-7l16,-6l8,-4l9,-5l16,-6l17,-6l16,-6l17,-6l16,-6l17,-18l16,-12l17,-8l16,-15l17,-14l16,-16l17,-24l4,-5l-4,-3l-17,-11l-16,-8l-17,-6l-16,-7l-17,-4l-16,-5l-17,-9l-16,-3l-17,-3l-16,-2l-17,-4l-16,-2l-17,-7l-16,-5l-17,-5l-16,-3l-17,-4l-16,-2l-17,-5l-16,-6l-17,-5l-16,-2l-17,-3l-17,-8l-16,-3l-17,-9l-16,-8l-8,-6l-9,-3l-16,-5l-17,-7l-16,-6l-17,-7l-16,-6l-17,-9l-16,-9l-17,-9l-16,-8l-17,-11l-16,-10l-17,-11l-16,-12l-17,-11l-16,-13l-14,-11l-3,-3l-16,-12l-17,-13l-17,-16l-16,-18l-17,-17l-16,-16l-17,-15l-16,-15l-17,-16l-7,-7l-9,-9l-17,-15l-16,-19l-17,-19l-16,-17l-17,-17l-16,-15l-17,-15l-16,-17l-5,-5l-12,-13l-16,-19l-17,-16l-16,-17l-17,-16l-16,-17l-17,-19l-16,-18l-14,-13l-3,-3l-17,-21l-16,-21l-17,-20l-16,-24l-17,-26l-16,-25l-6,-8l-11,-18l-16,-25l-17,-27l-16,-29l-17,-26l-14,-23l-2,-5l-17,-36l-16,-34l-17,-34l-16,-32l-4,-7l-13,-34l-16,-45l-17,-57l-4,-12l-12,-133l-2,-15l2,-6l16,-85l10,-57l7,-17l16,-33l17,-35l16,-36l11,-26l6,-11l16,-26l17,-29l16,-24l17,-24l16,-32l2,-2l15,-22l16,-26l17,-26l16,-27l17,-29l11,-18l5,-9l17,-23l16,-26l17,-27l17,-25l16,-28l6,-10l11,-19l16,-29l17,-31l16,-29l17,-31l5,-9l11,-21l17,-27l16,-32l17,-30l16,-31l4,-7l13,-19l16,-28l15,-27ZM5282,100l3,6l16,35l16,33l1,2l16,31l17,30l16,32l17,27l15,26l2,2l16,28l17,26l16,26l17,28l16,28l5,10l12,19l16,27l17,30l16,27l17,29l8,16l8,13l17,28l16,27l17,30l16,30l12,20l5,7l16,27l17,27l16,26l17,29l16,30l1,2l16,32l17,33l16,37l17,33l5,12l11,42l17,57l16,49l5,148l-5,21l-16,74l-10,53l-7,21l-16,52l-17,54l-6,21l-10,25l-17,38l-17,40l-16,38l-3,7l-14,23l-16,25l-17,25l-16,26l-17,26l-15,23l-1,1l-17,18l-16,17l-17,19l-16,18l-17,18l-16,15l-17,18l-16,16l-9,8l-8,6l-16,12l-17,11l-16,11l-17,11l-16,11l-17,13l-17,11l-16,13l-17,13l-16,11l-17,10l-16,11l-5,4l-12,7l-16,11l-17,8l-16,8l-17,8l-16,8l-17,9l-16,9l-17,8l-16,10l-17,10l-16,10l-17,8l-16,8l-17,8l-16,9l-15,9l-2,1l-16,11l-17,11l-17,12l-16,11l-17,11l-16,10l-17,11l-16,11l-17,10l-16,9l-17,9l-16,7l-17,8l-16,7l-17,9l-16,35l-17,36l-16,32l-17,30l-8,15l8,13l17,26l16,28l17,31l16,32l10,17l7,11l16,20l17,19l16,18l17,23l16,25l17,26l4,6l12,22l17,28l16,29l17,27l16,27l10,15l7,12l17,26l16,26l17,24l16,26l17,26l5,8l11,18l17,26l16,28l17,29l16,32l10,15l7,10l16,25l17,26l16,24l17,27l16,26l7,10l10,18l16,31l14,25l474,0l-9,-31l-12,-43l-4,-12l-17,-34l-16,-38l-17,-41l-10,-23l-6,-14l-17,-38l-16,-38l-17,-35l-12,-23l-4,-9l-17,-34l-16,-35l-17,-34l-16,-36l-17,-37l-16,-35l-17,-32l-16,-34l-6,-10l-11,-22l-16,-39l-17,-38l-16,-37l-5,-12l-12,-29l-17,-47l-16,-51l-8,-20l8,-44l16,-104l17,-15l17,-13l16,-14l17,-13l16,-14l17,-13l16,-14l17,-14l16,-15l17,-17l6,-6l10,-9l17,-11l16,-10l17,-11l16,-11l17,-13l16,-12l17,-14l16,-13l17,-12l16,-13l17,-14l5,-5l11,-12l17,-18l17,-17l16,-19l17,-18l16,-18l17,-19l16,-15l13,-12l4,-4l16,-19l17,-20l16,-24l17,-24l16,-24l17,-22l7,-11l9,-18l17,-32l16,-30l17,-26l16,-25l11,-17l6,-10l16,-36l17,-30l16,-29l17,-31l7,-12l9,-22l17,-35l17,-41l16,-39l5,-11l12,-40l16,-58l15,-50l-1,-148l-14,-35l-16,-42l-17,-49l-8,-22l-8,-15l-17,-32l-17,-28l-16,-25l-17,-30l-9,-17l-7,-13l-17,-29l-16,-33l-17,-32l-16,-29l-7,-12l-10,-21l-16,-35l-17,-36l-16,-37l-10,-19l-7,-15l-16,-40l-17,-37l-16,-37l-9,-19l-8,-19l-16,-39l-17,-38l-16,-36l-7,-16l-10,-21l-16,-37l-17,-41l-16,-39l-5,-10l-12,-47l-8,-27Z" fill="#c77560" stroke-opacity="1.0"></path><path fill-opacity="1.000" stroke-width="10" stroke="#b05b5a" d="M2804,100l-14,25l-16,28l-14,21l-3,5l-16,30l-17,31l-16,32l-17,26l-13,24l-3,7l-17,31l-16,29l-17,31l-16,28l-12,22l-5,8l-16,28l-17,25l-17,27l-16,25l-17,24l-6,11l-10,16l-17,29l-16,27l-17,26l-16,26l-17,24l-16,32l-17,23l-16,25l-17,28l-16,26l-7,14l-10,23l-16,36l-17,35l-16,33l-9,20l-8,50l-16,85l-4,13l4,30l11,118l5,16l17,56l16,46l11,30l6,10l16,31l17,34l16,34l17,37l1,2l15,25l17,26l16,29l17,27l16,25l10,16l7,10l16,25l17,25l16,24l17,21l16,20l17,21l1,2l16,15l16,17l17,19l16,17l17,16l16,18l17,15l16,19l11,12l6,6l16,17l17,15l16,15l17,18l16,16l17,19l16,19l17,15l7,8l9,8l17,17l16,15l17,14l16,16l17,17l16,19l17,15l17,13l16,13l2,1l15,13l16,12l17,11l16,12l17,11l16,10l17,11l16,9l17,9l16,9l17,8l16,6l17,7l16,6l17,7l16,5l5,2l12,9l16,8l17,9l16,3l17,8l17,2l16,3l17,5l16,6l17,5l16,2l17,4l16,3l17,5l16,4l17,7l16,3l17,4l16,2l17,3l16,3l17,8l16,6l17,3l16,7l17,6l16,9l17,11l-17,23l-16,16l-17,14l-16,15l-17,8l-16,12l-17,18l-16,6l-17,6l-16,6l-17,6l-16,6l-17,11l-16,7l-17,7l-16,3l-17,6l-16,1l-17,3l-16,6l-17,7l-16,4l-17,4l-17,2l-16,4l-17,10l-16,9l-17,13l-16,17l-17,18l-16,20l-7,7l-10,10l-16,19l-17,21l-16,20l-17,22l-16,22l-17,25l-5,9l-11,17l-17,22l-16,24l-17,24l-16,26l-17,26l-6,9l-10,14l-17,30l-17,36l-16,37l-13,31l-4,8l-16,33l-17,30l-16,28l-17,30l-9,19l-7,11l-17,29l-16,29l-3,5l1103,0l7,-4l16,-7l17,-9l16,-4l17,-3l16,-6l17,-4l16,-4l17,-5l16,-4l17,-8l16,-5l17,-4l16,0l17,-5l8,-2l8,-3l17,0l17,0l16,0l17,0l16,0l8,3l9,2l16,0l17,5l16,0l17,5l16,0l17,4l16,1l17,5l16,4l17,5l16,6l17,8l16,5l17,5l16,5l17,4l16,10l742,0l-15,-28l-16,-31l-8,-15l-9,-13l-16,-25l-17,-27l-16,-24l-17,-26l-16,-25l-5,-8l-12,-18l-16,-31l-17,-30l-16,-27l-17,-26l-10,-16l-6,-11l-17,-26l-16,-25l-17,-25l-16,-26l-17,-26l-6,-9l-11,-19l-16,-26l-17,-27l-16,-29l-17,-28l-11,-19l-5,-10l-17,-26l-16,-24l-17,-24l-16,-18l-17,-19l-16,-20l-5,-7l-12,-22l-16,-31l-17,-32l-16,-28l-17,-25l-5,-9l5,-10l17,-30l16,-32l17,-36l16,-35l3,-5l14,-7l16,-8l17,-8l16,-7l17,-9l16,-9l17,-10l16,-10l17,-12l16,-10l17,-11l16,-11l17,-12l17,-11l16,-11l4,-2l13,-8l16,-9l17,-8l16,-8l17,-8l16,-10l17,-10l16,-10l17,-8l16,-9l17,-9l16,-8l17,-8l16,-8l17,-8l16,-10l14,-9l3,-2l16,-12l17,-10l16,-11l17,-13l16,-13l17,-11l17,-13l16,-11l17,-11l16,-11l17,-11l16,-11l9,-8l8,-7l16,-16l17,-17l16,-16l17,-17l16,-19l17,-18l16,-17l17,-19l2,-2l14,-21l17,-27l16,-25l17,-25l16,-25l15,-25l2,-4l16,-39l17,-40l17,-38l11,-27l5,-18l17,-54l16,-52l8,-24l9,-47l16,-74l6,-27l-5,-148l-1,-3l-16,-49l-17,-58l-10,-38l-6,-14l-17,-33l-16,-37l-17,-33l-15,-30l-2,-4l-16,-30l-17,-29l-16,-26l-17,-27l-16,-27l-4,-5l-13,-22l-16,-30l-17,-30l-16,-27l-17,-28l-7,-11l-9,-18l-17,-29l-16,-27l-17,-30l-16,-27l-11,-17l-6,-12l-16,-28l-17,-28l-16,-26l-17,-26l-16,-28l-17,-28l-17,-27l-16,-32l-17,-31l-16,-30l-17,-36l-16,-35l-2,-3l-742,0l17,5l17,9l16,10l17,9l16,9l17,10l16,15l8,7l9,6l16,14l17,13l16,13l17,10l16,16l17,13l16,11l17,15l16,17l17,13l6,7l10,11l17,22l16,21l17,18l16,21l17,18l16,22l12,15l5,5l17,19l16,18l17,17l16,21l17,20l16,19l17,23l4,6l12,15l17,17l16,21l17,21l16,17l17,20l16,21l15,16l2,1l16,21l17,21l16,18l17,19l16,21l17,21l16,24l2,2l15,28l16,30l17,28l17,26l16,29l4,6l13,34l16,44l17,46l9,24l6,148l-15,68l-17,75l-1,5l-15,37l-17,41l-16,40l-13,30l-4,7l-17,28l-16,32l-17,33l-16,23l-15,25l-2,2l-16,16l-17,15l-16,17l-17,15l-16,15l-17,15l-16,16l-17,16l-16,13l-9,8l-8,6l-16,12l-17,12l-16,13l-17,11l-16,12l-17,11l-16,10l-17,12l-16,10l-17,9l-17,12l-16,9l-14,9l-3,1l-16,7l-17,9l-16,9l-17,8l-16,9l-17,5l-16,8l-17,7l-16,6l-17,8l-16,5l-17,6l-16,7l-17,6l-16,6l-17,6l-16,5l-17,6l-16,4l-17,2l-16,4l-17,4l-17,4l-16,5l-8,1l-9,1l-16,4l-17,2l-16,3l-17,1l-16,4l-17,2l-16,4l-17,0l-16,1l-17,2l-16,3l-17,2l-16,2l-17,0l-16,2l-17,2l-16,0l-17,2l-16,0l-17,0l-17,0l-16,0l-17,0l-16,0l-17,0l-16,0l-17,-2l-16,-2l-17,0l-16,-2l-17,-2l-16,0l-17,-2l-16,-2l-17,-2l-16,-2l-17,-4l-16,-4l-17,-3l-16,-5l-17,-4l-8,-1l-8,-1l-17,-5l-16,-2l-17,-2l-17,-5l-16,-4l-17,-2l-16,-5l-17,-3l-16,-2l-17,0l-16,-2l-17,-5l-16,-2l-17,-2l-16,-1l-17,-2l-16,-3l-17,-4l-16,-3l-17,-2l-16,-2l-17,-1l-16,-3l-17,-4l-16,-6l-17,-5l-16,-2l-17,-4l-17,-3l-16,-4l-17,-5l-16,-7l-17,-5l-16,-10l-17,-12l-16,-7l-17,-10l-2,-1l-14,-7l-17,-13l-16,-14l-17,-12l-16,-12l-17,-13l-16,-17l-17,-15l-16,-14l-17,-13l-16,-14l-5,-4l-12,-12l-16,-16l-17,-20l-17,-19l-16,-27l-17,-26l-16,-23l-4,-5l-13,-18l-16,-21l-17,-23l-16,-24l-17,-24l-16,-28l-6,-10l-11,-24l-16,-37l-17,-33l-16,-30l-13,-24l-4,-14l-16,-64l-17,-57l-3,-13l-5,-148l8,-39l17,-78l6,-31l10,-26l17,-36l16,-29l17,-42l5,-14l11,-24l17,-31l16,-30l17,-30l16,-22l7,-11l10,-13l16,-23l17,-27l16,-24l17,-29l16,-27l5,-5l12,-18l17,-20l16,-20l17,-18l16,-22l17,-20l16,-20l8,-10l9,-11l16,-22l17,-19l16,-20l17,-17l16,-22l17,-13l16,-13l14,-11l3,-2l16,-9l17,-13l16,-12l17,-10l16,-7l17,-4l16,-4l17,-5l17,-4l16,-4l17,-6l16,-4l17,-4l16,-3l17,-2l16,-2l17,-4l16,-5l17,-1l16,0l17,0l16,-4l17,-3l16,-5l17,-4l16,0l17,-4l16,-4l17,-4l16,-4l17,-9l8,-2l8,-2l17,-9l17,-4l16,-5l17,-8l16,-5l17,-7l16,-9l17,-8l16,-11l10,-6Z" fill="#b05b5a" stroke-opacity="1.0"></path><path fill-opacity="1.000" stroke-width="10" stroke="#984b44" d="M3900,100l-3,2l-16,11l-17,8l-16,9l-17,7l-16,5l-17,8l-16,4l-17,5l-17,8l-16,5l-4,2l-13,6l-16,5l-17,4l-16,4l-17,4l-16,0l-17,4l-16,5l-17,3l-16,4l-17,0l-16,0l-17,1l-16,4l-17,5l-16,2l-17,2l-16,2l-17,5l-16,4l-17,6l-16,4l-17,4l-17,4l-16,5l-17,4l-16,7l-17,10l-16,12l-17,13l-16,8l-8,7l-9,6l-16,13l-17,14l-16,21l-17,18l-16,20l-17,19l-16,21l-12,16l-5,6l-16,20l-17,20l-16,22l-17,18l-16,20l-17,20l-15,22l-2,2l-16,26l-17,29l-16,24l-17,27l-16,23l-12,17l-5,6l-16,23l-17,29l-16,31l-17,30l-13,29l-3,8l-17,42l-16,29l-17,36l-13,32l-3,19l-17,78l-10,51l4,148l6,22l17,57l16,65l2,4l15,29l16,30l17,34l16,37l9,18l8,14l16,28l17,24l16,24l17,23l16,21l10,14l7,8l16,23l17,27l16,26l17,20l17,19l16,17l8,8l9,7l16,14l17,13l16,14l17,15l16,16l17,14l16,11l17,13l16,13l17,14l8,4l8,4l17,9l16,8l17,12l16,9l17,5l16,7l17,5l16,4l17,4l17,3l16,3l17,4l16,6l17,4l16,3l17,1l16,2l17,3l16,2l17,5l16,2l17,2l16,1l17,2l16,3l17,4l16,2l17,0l16,3l17,2l16,5l17,2l16,4l17,5l17,2l16,2l12,4l5,1l16,2l17,5l16,4l17,3l16,4l17,4l16,2l17,2l16,2l17,2l16,0l17,2l16,2l17,0l16,2l17,2l16,0l17,0l16,0l17,0l16,0l17,0l17,0l16,0l17,-2l16,0l17,-2l16,-2l17,0l16,-2l17,-2l16,-3l17,-2l16,-2l17,0l16,-3l17,-2l16,-3l17,-2l16,-2l17,-2l16,-5l17,-2l4,-1l12,-4l17,-4l17,-4l16,-4l17,-2l16,-4l17,-6l16,-4l17,-7l16,-6l17,-6l16,-6l17,-7l16,-5l17,-8l16,-6l17,-7l16,-8l17,-5l16,-9l17,-8l16,-9l17,-9l16,-7l7,-3l10,-6l16,-10l17,-12l17,-9l16,-10l17,-12l16,-9l17,-12l16,-12l17,-10l16,-14l17,-12l16,-12l12,-8l5,-5l16,-13l17,-16l16,-16l17,-15l16,-15l17,-15l16,-17l17,-15l16,-16l5,-5l12,-20l16,-24l17,-32l16,-33l17,-27l7,-12l10,-23l16,-41l17,-40l16,-40l1,-4l16,-68l16,-74l2,-6l-2,-37l-4,-111l-12,-31l-17,-46l-16,-45l-10,-26l-7,-10l-16,-30l-17,-25l-17,-28l-16,-31l-13,-23l-4,-6l-16,-24l-17,-20l-16,-21l-17,-19l-16,-19l-17,-20l-15,-19l-1,-2l-17,-18l-16,-21l-17,-20l-16,-17l-17,-20l-16,-21l-17,-17l-9,-12l-7,-10l-17,-23l-16,-18l-17,-21l-16,-21l-17,-16l-16,-19l-17,-18l-2,-2l-15,-20l-16,-22l-17,-17l-16,-22l-17,-17l-16,-22l-17,-22l-6,-6l-10,-11l-17,-14l-16,-16l-17,-15l-16,-12l-17,-13l-16,-15l-17,-11l-16,-13l-17,-13l-16,-13l-3,-2l-14,-12l-16,-15l-17,-10l-16,-8l-17,-10l-16,-9l-17,-10ZM4137,3576l-9,2l-16,0l-17,5l-16,4l-17,9l-16,4l-17,4l-16,5l-17,4l-16,6l-17,3l-16,4l-17,9l-16,7l-14,8l658,0l-17,-5l-16,-9l-17,-5l-16,-5l-17,-5l-16,-4l-17,-9l-16,-6l-17,-4l-16,-5l-17,-5l-16,0l-17,-5l-16,0l-17,-5l-16,0l-9,-2l-8,-3l-16,0l-17,-5l-16,0l-17,0l-16,0l-17,0l-17,0l-16,5Z" fill="#984b44" stroke-opacity="1.0"></path><path fill-opacity="0.125" stroke="none" d="" fill="#000"></path><path fill-opacity="0.251" stroke="none" d="M6772,3650l0,-918l-17,1l-16,1l-17,1l-16,1l-17,1l-16,1l-17,1l-16,1l-17,2l-16,1l-17,1l-17,2l-16,1l-17,1l-16,2l-17,1l-16,2l-17,1l-16,2l-17,1l-16,2l-17,1l-16,2l-17,1l-16,2l-17,2l-16,1l-17,2l-16,1l-17,2l-16,2l-17,1l-16,2l-17,2l-16,1l-17,2l-17,2l-16,1l-17,2l-16,2l-17,1l-16,2l-17,2l-16,1l-17,2l-16,2l-17,1l-16,2l-17,1l-16,2l-17,1l-16,2l-17,1l-16,2l-17,1l-16,2l-17,1l-16,2l-17,1l-16,1l-17,2l-17,1l-16,2l-17,1l-16,1l-17,1l-16,2l-17,1l-16,1l-17,1l-16,2l-17,1l-16,1l-17,1l-16,1l-17,1l-16,1l-17,2l-16,1l-17,1l-16,1l-17,1l-16,1l-17,1l-17,1l-16,1l-17,1l-16,1l-17,1l-16,1l-17,1l-16,1l-17,0l-16,1l-17,1l-16,1l-17,1l-16,1l-17,1l-16,1l-17,1l-16,1l-17,1l-16,1l-17,0l-16,1l-17,1l-16,1l-17,1l-17,1l-16,1l-17,1l-16,1l-17,1l-16,1l-17,1l-16,1l-17,1l-16,1l-17,1l-16,0l-17,1l-16,1l-17,1l-16,2l-17,1l-16,1l-17,1l-16,1l-17,1l-16,1l-17,1l-16,1l-17,1l-17,1l-16,1l-17,2l-16,1l-17,1l-16,1l-17,1l-16,1l-17,2l-16,1l-17,1l-16,1l-17,1l-16,2l-17,1l-16,1l-17,1l-16,2l-17,1l-16,1l-17,1l-16,2l-17,1l-17,1l-16,2l-17,1l-16,1l-17,1l-16,2l-17,1l-16,1l-17,1l-16,2l-17,1l-16,1l-17,1l-16,1l-17,2l-16,1l-17,1l-16,1l-17,1l-16,1l-17,1l-16,1l-17,1l-16,1l-17,1l-17,1l-16,1l-17,1l-16,0l-17,1l-16,1l-17,1l-16,0l-17,1l-16,1l-17,0l-16,1l-17,0l-16,0l-17,1l-16,0l-17,0l-16,1l-17,0l-16,0l-17,0l-16,0l-17,0l-16,0l-17,0l-17,0l-16,0l-17,-1l-16,0l-17,0l-16,-1l-17,0l-16,-1l-17,-1l-16,0l-17,-1l-16,-1l-17,0l-16,-1l-17,-1l-16,-1l-17,-1l-16,-1l-17,-1l-16,-1l-17,-2l-16,-1l-17,-1l-17,-2l-16,-1l-17,-1l-16,-2l-17,-1l-16,-2l-17,-2l-16,-1l-17,-2l-16,-2l-17,-2l-16,-1l-17,-2l-16,-2l-17,-2l-16,-2l-17,-2l-16,-2l-17,-2l-16,-2l-17,-2l-16,-2l-17,-3l-16,-2l-17,-2l-17,-2l-16,-3l-17,-2l-16,-2l-17,-3l-16,-2l-17,-3l-16,-2l-17,-2l-16,-3l-17,-2l-16,-3l-17,-2l-16,-3l-17,-2l-16,-3l-17,-2l-16,-3l-17,-2l-16,-3l-17,-3l-16,-2l-17,-3l-16,-2l-17,-3l-17,-2l-16,-3l-17,-2l-16,-3l-17,-2l-16,-3l-17,-3l-16,-2l-17,-3l-16,-2l-17,-3l-16,-2l-17,-2l-16,-3l-17,-2l-16,-3l-17,-2l-16,-2l-17,-3l-16,-2l-17,-2l-16,-3l-17,-2l-17,-2l-16,-2l-17,-2l-16,-3l-17,-2l-16,-2l-17,-2l-16,-2l-17,-2l-16,-2l-17,-1l-16,-2l-17,-2l-16,-2l-17,-2l-16,-1l-17,-2l-16,-2l-17,-1l-16,-2l-17,-1l-16,-1l-17,-2l-16,-1l-17,-1l-17,-2l-16,-1l-17,-1l-16,-1l-17,-1l-16,-1l-17,-1l-16,-1l-17,0l-16,-1l-17,-1l-16,0l-17,-1l-16,0l-17,-1l-16,0l-17,0l-16,-1l-17,0l-16,0l-17,0l-16,0l-17,0l-16,0l-17,0l-17,0l-16,1l-17,0l-16,0l-17,1l-16,0l-17,1l-16,0l-17,1l-16,1l-17,0l0,919Z" fill="#000"></path><path fill-opacity="0.125" stroke="none" d="M758,2731l17,0l16,-1l17,-1l16,0l17,-1l16,0l17,-1l16,0l17,0l16,-1l17,0l17,0l16,0l17,0l16,0l17,0l16,0l17,0l16,1l17,0l16,0l17,1l16,0l17,1l16,0l17,1l16,1l17,0l16,1l17,1l16,1l17,1l16,1l17,1l16,1l17,2l17,1l16,1l17,2l16,1l17,1l16,2l17,1l16,2l17,2l16,1l17,2l16,2l17,2l16,2l17,1l16,2l17,2l16,2l17,2l16,2l17,2l16,3l17,2l16,2l17,2l17,2l16,3l17,2l16,2l17,3l16,2l17,2l16,3l17,2l16,3l17,2l16,2l17,3l16,2l17,3l16,2l17,3l16,3l17,2l16,3l17,2l16,3l17,2l17,3l16,2l17,3l16,2l17,3l16,3l17,2l16,3l17,2l16,3l17,2l16,3l17,2l16,3l17,2l16,3l17,2l16,2l17,3l16,2l17,3l16,2l17,2l16,3l17,2l17,2l16,2l17,3l16,2l17,2l16,2l17,2l16,2l17,2l16,2l17,2l16,2l17,2l16,1l17,2l16,2l17,2l16,1l17,2l16,2l17,1l16,2l17,1l16,1l17,2l17,1l16,1l17,2l16,1l17,1l16,1l17,1l16,1l17,1l16,1l17,0l16,1l17,1l16,0l17,1l16,1l17,0l16,1l17,0l16,0l17,1l16,0l17,0l17,0l16,0l17,0l16,0l17,0l16,0l17,0l16,-1l17,0l16,0l17,-1l16,0l17,0l16,-1l17,0l16,-1l17,-1l16,0l17,-1l16,-1l17,-1l16,0l17,-1l16,-1l17,-1l17,-1l16,-1l17,-1l16,-1l17,-1l16,-1l17,-1l16,-1l17,-1l16,-1l17,-2l16,-1l17,-1l16,-1l17,-1l16,-2l17,-1l16,-1l17,-1l16,-2l17,-1l16,-1l17,-1l16,-2l17,-1l17,-1l16,-2l17,-1l16,-1l17,-1l16,-2l17,-1l16,-1l17,-1l16,-2l17,-1l16,-1l17,-1l16,-1l17,-2l16,-1l17,-1l16,-1l17,-1l16,-1l17,-2l16,-1l17,-1l17,-1l16,-1l17,-1l16,-1l17,-1l16,-1l17,-1l16,-1l17,-1l16,-2l17,-1l16,-1l17,-1l16,0l17,-1l16,-1l17,-1l16,-1l17,-1l16,-1l17,-1l16,-1l17,-1l16,-1l17,-1l17,-1l16,-1l17,-1l16,-1l17,0l16,-1l17,-1l16,-1l17,-1l16,-1l17,-1l16,-1l17,-1l16,-1l17,-1l16,-1l17,0l16,-1l17,-1l16,-1l17,-1l16,-1l17,-1l16,-1l17,-1l17,-1l16,-1l17,-1l16,-1l17,-1l16,-1l17,-2l16,-1l17,-1l16,-1l17,-1l16,-1l17,-1l16,-2l17,-1l16,-1l17,-1l16,-2l17,-1l16,-1l17,-1l16,-2l17,-1l17,-2l16,-1l17,-1l16,-2l17,-1l16,-2l17,-1l16,-2l17,-1l16,-2l17,-1l16,-2l17,-1l16,-2l17,-1l16,-2l17,-2l16,-1l17,-2l16,-2l17,-1l16,-2l17,-2l16,-1l17,-2l17,-2l16,-1l17,-2l16,-2l17,-1l16,-2l17,-2l16,-1l17,-2l16,-1l17,-2l16,-2l17,-1l16,-2l17,-1l16,-2l17,-1l16,-2l17,-1l16,-2l17,-1l16,-2l17,-1l16,-1l17,-2l17,-1l16,-1l17,-2l16,-1l17,-1l16,-1l17,-1l16,-1l17,-1l16,-1l17,-1l0,-61l-17,1l-16,1l-17,1l-16,1l-17,1l-16,1l-17,1l-16,1l-17,1l-16,1l-17,2l-17,1l-16,1l-17,2l-16,1l-17,2l-16,1l-17,2l-16,1l-17,2l-16,1l-17,2l-16,2l-17,1l-16,2l-17,2l-16,1l-17,2l-16,2l-17,1l-16,2l-17,2l-16,2l-17,1l-16,2l-17,2l-17,2l-16,1l-17,2l-16,2l-17,2l-16,1l-17,2l-16,2l-17,2l-16,1l-17,2l-16,2l-17,1l-16,2l-17,2l-16,1l-17,2l-16,1l-17,2l-16,1l-17,2l-16,2l-17,1l-16,2l-17,1l-17,1l-16,2l-17,1l-16,2l-17,1l-16,1l-17,2l-16,1l-17,1l-16,2l-17,1l-16,1l-17,1l-16,1l-17,2l-16,1l-17,1l-16,1l-17,1l-16,1l-17,1l-16,1l-17,1l-17,2l-16,1l-17,1l-16,1l-17,1l-16,0l-17,1l-16,1l-17,1l-16,1l-17,1l-16,1l-17,1l-16,1l-17,1l-16,1l-17,1l-16,1l-17,0l-16,1l-17,1l-16,1l-17,1l-16,1l-17,1l-17,1l-16,0l-17,1l-16,1l-17,1l-16,1l-17,1l-16,1l-17,1l-16,1l-17,0l-16,1l-17,1l-16,1l-17,1l-16,1l-17,1l-16,1l-17,1l-16,1l-17,1l-16,1l-17,1l-16,1l-17,1l-17,1l-16,1l-17,1l-16,1l-17,1l-16,1l-17,1l-16,1l-17,1l-16,1l-17,1l-16,2l-17,1l-16,1l-17,1l-16,1l-17,1l-16,1l-17,1l-16,2l-17,1l-16,1l-17,1l-17,1l-16,1l-17,2l-16,1l-17,1l-16,1l-17,1l-16,1l-17,1l-16,2l-17,1l-16,1l-17,1l-16,1l-17,1l-16,1l-17,1l-16,1l-17,1l-16,1l-17,1l-16,1l-17,1l-16,1l-17,1l-17,1l-16,1l-17,0l-16,1l-17,1l-16,1l-17,0l-16,1l-17,1l-16,0l-17,1l-16,0l-17,1l-16,0l-17,0l-16,1l-17,0l-16,0l-17,1l-16,0l-17,0l-16,0l-17,0l-16,0l-17,0l-17,0l-16,0l-17,0l-16,-1l-17,0l-16,0l-17,-1l-16,0l-17,-1l-16,0l-17,-1l-16,-1l-17,0l-16,-1l-17,-1l-16,-1l-17,-1l-16,0l-17,-1l-16,-1l-17,-2l-16,-1l-17,-1l-17,-1l-16,-1l-17,-2l-16,-1l-17,-2l-16,-1l-17,-1l-16,-2l-17,-2l-16,-1l-17,-2l-16,-2l-17,-1l-16,-2l-17,-2l-16,-2l-17,-2l-16,-2l-17,-2l-16,-2l-17,-2l-16,-2l-17,-2l-16,-2l-17,-2l-17,-2l-16,-2l-17,-3l-16,-2l-17,-2l-16,-2l-17,-3l-16,-2l-17,-2l-16,-3l-17,-2l-16,-3l-17,-2l-16,-2l-17,-3l-16,-2l-17,-3l-16,-2l-17,-3l-16,-2l-17,-3l-16,-2l-17,-3l-16,-2l-17,-3l-17,-2l-16,-3l-17,-3l-16,-2l-17,-3l-16,-2l-17,-3l-16,-2l-17,-3l-16,-2l-17,-3l-16,-2l-17,-3l-16,-2l-17,-2l-16,-3l-17,-2l-16,-3l-17,-2l-16,-2l-17,-3l-16,-2l-17,-2l-17,-2l-16,-3l-17,-2l-16,-2l-17,-2l-16,-2l-17,-2l-16,-3l-17,-2l-16,-2l-17,-1l-16,-2l-17,-2l-16,-2l-17,-2l-16,-2l-17,-1l-16,-2l-17,-2l-16,-1l-17,-2l-16,-1l-17,-2l-16,-1l-17,-2l-17,-1l-16,-1l-17,-1l-16,-1l-17,-2l-16,-1l-17,-1l-16,-1l-17,0l-16,-1l-17,-1l-16,-1l-17,0l-16,-1l-17,0l-16,-1l-17,0l-16,-1l-17,0l-16,0l-17,0l-16,-1l-17,0l-16,0l-17,1l-17,0l-16,0l-17,0l-16,0l-17,1l-16,0l-17,1l-16,0l-17,1l-16,0l-17,1Z" fill="#000"></path><path fill-opacity="0.125" stroke="none" d="M758,1096l17,-1l16,-2l17,-2l16,-1l17,-2l16,-2l17,-1l16,-2l17,-2l16,-2l17,-2l17,-1l16,-2l17,-2l16,-2l17,-2l16,-2l17,-1l16,-2l17,-2l16,-2l17,-2l16,-2l17,-1l16,-2l17,-2l16,-2l17,-2l16,-1l17,-2l16,-2l17,-2l16,-1l17,-2l16,-2l17,-1l17,-2l16,-2l17,-1l16,-2l17,-1l16,-2l17,-2l16,-1l17,-2l16,-1l17,-2l16,-1l17,-2l16,-1l17,-1l16,-2l17,-1l16,-1l17,-2l16,-1l17,-1l16,-2l17,-1l16,-1l17,-1l17,-2l16,-1l17,-1l16,-1l17,-1l16,-2l17,-1l16,-1l17,-1l16,-1l17,-1l16,-1l17,-2l16,-1l17,-1l16,-1l17,-1l16,-1l17,-1l16,-1l17,-1l16,-1l17,-1l17,-1l16,-1l17,-1l16,-1l17,-1l16,-1l17,-1l16,-1l17,-1l16,-1l17,-2l16,-1l17,-1l16,-1l17,-1l16,-1l17,-1l16,-1l17,-1l16,-1l17,-1l16,-1l17,-1l16,-2l17,-1l17,-1l16,-1l17,-1l16,-1l17,-1l16,-2l17,-1l16,-1l17,-1l16,-1l17,-2l16,-1l17,-1l16,-1l17,-1l16,-2l17,-1l16,-1l17,-1l16,-2l17,-1l16,-1l17,-1l16,-2l17,-1l17,-1l16,-1l17,-2l16,-1l17,-1l16,-1l17,-2l16,-1l17,-1l16,-1l17,-1l16,-2l17,-1l16,-1l17,-1l16,-1l17,-1l16,-1l17,-2l16,-1l17,-1l16,-1l17,-1l17,-1l16,-1l17,0l16,-1l17,-1l16,-1l17,-1l16,-1l17,0l16,-1l17,-1l16,0l17,-1l16,0l17,-1l16,0l17,-1l16,0l17,-1l16,0l17,0l16,0l17,0l16,-1l17,0l17,0l16,0l17,0l16,1l17,0l16,0l17,0l16,1l17,0l16,0l17,1l16,1l17,0l16,1l17,0l16,1l17,1l16,1l17,1l16,1l17,1l16,1l17,1l16,1l17,1l17,2l16,1l17,1l16,2l17,1l16,1l17,2l16,2l17,1l16,2l17,2l16,1l17,2l16,2l17,2l16,2l17,2l16,2l17,2l16,2l17,2l16,2l17,2l17,2l16,2l17,3l16,2l17,2l16,2l17,3l16,2l17,2l16,3l17,2l16,3l17,2l16,3l17,2l16,3l17,2l16,3l17,2l16,3l17,3l16,2l17,3l16,2l17,3l17,3l16,2l17,3l16,3l17,2l16,3l17,2l16,3l17,3l16,2l17,3l16,3l17,2l16,3l17,2l16,3l17,3l16,2l17,3l16,2l17,3l16,2l17,3l16,2l17,3l17,2l16,2l17,3l16,2l17,2l16,3l17,2l16,2l17,2l16,3l17,2l16,2l17,2l16,2l17,2l16,2l17,2l16,2l17,2l16,1l17,2l16,2l17,1l17,2l16,2l17,1l16,2l17,1l16,1l17,2l16,1l17,1l16,1l17,2l16,1l17,1l16,1l17,0l16,1l17,1l16,1l17,0l16,1l17,0l16,1l17,0l16,1l17,0l17,0l16,0l17,0l16,0l17,0l16,0l17,0l16,0l17,0l16,-1l17,0l16,0l17,-1l16,-1l17,0l16,-1l17,-1l16,0l17,-1l16,-1l17,-1l16,-1l17,-1l16,-1l17,-1l17,-2l16,-1l17,-1l16,-1l17,-2l16,-1l17,-2l16,-1l17,-2l16,-1l17,-2l0,-61l-17,2l-16,1l-17,2l-16,1l-17,1l-16,2l-17,1l-16,1l-17,2l-16,1l-17,1l-17,1l-16,1l-17,1l-16,1l-17,1l-16,1l-17,1l-16,1l-17,1l-16,1l-17,0l-16,1l-17,0l-16,1l-17,0l-16,1l-17,0l-16,0l-17,1l-16,0l-17,0l-16,0l-17,0l-16,0l-17,0l-17,0l-16,-1l-17,0l-16,0l-17,-1l-16,0l-17,-1l-16,0l-17,-1l-16,-1l-17,-1l-16,0l-17,-1l-16,-1l-17,-1l-16,-1l-17,-2l-16,-1l-17,-1l-16,-1l-17,-1l-16,-2l-17,-1l-16,-2l-17,-1l-17,-2l-16,-2l-17,-1l-16,-2l-17,-2l-16,-1l-17,-2l-16,-2l-17,-2l-16,-2l-17,-2l-16,-2l-17,-2l-16,-2l-17,-2l-16,-3l-17,-2l-16,-2l-17,-2l-16,-3l-17,-2l-16,-2l-17,-3l-17,-2l-16,-3l-17,-2l-16,-2l-17,-3l-16,-2l-17,-3l-16,-2l-17,-3l-16,-3l-17,-2l-16,-3l-17,-2l-16,-3l-17,-3l-16,-2l-17,-3l-16,-3l-17,-2l-16,-3l-17,-3l-16,-2l-17,-3l-16,-3l-17,-2l-17,-3l-16,-3l-17,-2l-16,-3l-17,-3l-16,-2l-17,-3l-16,-2l-17,-3l-16,-3l-17,-2l-16,-3l-17,-2l-16,-3l-17,-2l-16,-3l-17,-2l-16,-3l-17,-2l-16,-3l-17,-2l-16,-2l-17,-3l-16,-2l-17,-2l-17,-2l-16,-3l-17,-2l-16,-2l-17,-2l-16,-2l-17,-2l-16,-2l-17,-2l-16,-2l-17,-2l-16,-2l-17,-2l-16,-2l-17,-1l-16,-2l-17,-2l-16,-1l-17,-2l-16,-1l-17,-2l-16,-1l-17,-2l-17,-1l-16,-1l-17,-1l-16,-2l-17,-1l-16,-1l-17,-1l-16,-1l-17,-1l-16,0l-17,-1l-16,-1l-17,-1l-16,0l-17,-1l-16,0l-17,-1l-16,0l-17,-1l-16,0l-17,0l-16,0l-17,-1l-16,0l-17,0l-17,0l-16,0l-17,0l-16,1l-17,0l-16,0l-17,0l-16,1l-17,0l-16,1l-17,0l-16,1l-17,0l-16,1l-17,1l-16,0l-17,1l-16,1l-17,1l-16,1l-17,0l-16,1l-17,1l-16,1l-17,1l-17,1l-16,2l-17,1l-16,1l-17,1l-16,1l-17,1l-16,2l-17,1l-16,1l-17,1l-16,2l-17,1l-16,1l-17,2l-16,1l-17,1l-16,2l-17,1l-16,1l-17,2l-16,1l-17,1l-17,2l-16,1l-17,1l-16,2l-17,1l-16,2l-17,1l-16,1l-17,2l-16,1l-17,1l-16,2l-17,1l-16,1l-17,2l-16,1l-17,1l-16,2l-17,1l-16,1l-17,1l-16,2l-17,1l-16,1l-17,1l-17,2l-16,1l-17,1l-16,1l-17,1l-16,1l-17,2l-16,1l-17,1l-16,1l-17,1l-16,1l-17,2l-16,1l-17,1l-16,1l-17,1l-16,1l-17,1l-16,1l-17,1l-16,1l-17,1l-16,2l-17,1l-17,1l-16,1l-17,1l-16,1l-17,1l-16,1l-17,1l-16,1l-17,1l-16,1l-17,1l-16,2l-17,1l-16,1l-17,1l-16,1l-17,1l-16,1l-17,1l-16,2l-17,1l-16,1l-17,1l-17,1l-16,2l-17,1l-16,1l-17,1l-16,1l-17,2l-16,1l-17,1l-16,2l-17,1l-16,1l-17,2l-16,1l-17,2l-16,1l-17,1l-16,2l-17,1l-16,2l-17,1l-16,2l-17,1l-16,2l-17,1l-17,2l-16,2l-17,1l-16,2l-17,1l-16,2l-17,2l-16,1l-17,2l-16,2l-17,1l-16,2l-17,2l-16,2l-17,1l-16,2l-17,2l-16,2l-17,1l-16,2l-17,2l-16,2l-17,1l-16,2l-17,2l-17,2l-16,1l-17,2l-16,2l-17,1l-16,2l-17,2l-16,1l-17,2l-16,2l-17,1Z" fill="#000"></path><path fill-opacity="0.251" stroke="none" d="M758,1035l17,-1l16,-2l17,-2l16,-1l17,-2l16,-2l17,-1l16,-2l17,-2l16,-1l17,-2l17,-2l16,-2l17,-1l16,-2l17,-2l16,-2l17,-1l16,-2l17,-2l16,-2l17,-1l16,-2l17,-2l16,-2l17,-1l16,-2l17,-2l16,-1l17,-2l16,-2l17,-1l16,-2l17,-1l16,-2l17,-2l17,-1l16,-2l17,-1l16,-2l17,-1l16,-2l17,-1l16,-2l17,-1l16,-1l17,-2l16,-1l17,-2l16,-1l17,-1l16,-2l17,-1l16,-1l17,-2l16,-1l17,-1l16,-1l17,-1l16,-2l17,-1l17,-1l16,-1l17,-1l16,-2l17,-1l16,-1l17,-1l16,-1l17,-1l16,-1l17,-1l16,-2l17,-1l16,-1l17,-1l16,-1l17,-1l16,-1l17,-1l16,-1l17,-1l16,-1l17,-1l17,-1l16,-2l17,-1l16,-1l17,-1l16,-1l17,-1l16,-1l17,-1l16,-1l17,-1l16,-1l17,-2l16,-1l17,-1l16,-1l17,-1l16,-1l17,-2l16,-1l17,-1l16,-1l17,-1l16,-1l17,-2l17,-1l16,-1l17,-1l16,-2l17,-1l16,-1l17,-1l16,-2l17,-1l16,-1l17,-2l16,-1l17,-1l16,-2l17,-1l16,-1l17,-2l16,-1l17,-1l16,-2l17,-1l16,-2l17,-1l16,-1l17,-2l17,-1l16,-1l17,-2l16,-1l17,-1l16,-2l17,-1l16,-1l17,-2l16,-1l17,-1l16,-2l17,-1l16,-1l17,-1l16,-2l17,-1l16,-1l17,-1l16,-1l17,-1l16,-2l17,-1l17,-1l16,-1l17,-1l16,-1l17,0l16,-1l17,-1l16,-1l17,-1l16,0l17,-1l16,-1l17,0l16,-1l17,0l16,-1l17,0l16,-1l17,0l16,0l17,0l16,-1l17,0l16,0l17,0l17,0l16,0l17,1l16,0l17,0l16,0l17,1l16,0l17,1l16,0l17,1l16,0l17,1l16,1l17,1l16,0l17,1l16,1l17,1l16,1l17,1l16,2l17,1l16,1l17,1l17,2l16,1l17,2l16,1l17,2l16,1l17,2l16,2l17,1l16,2l17,2l16,2l17,2l16,2l17,2l16,2l17,2l16,2l17,2l16,2l17,2l16,3l17,2l17,2l16,2l17,3l16,2l17,2l16,3l17,2l16,3l17,2l16,3l17,2l16,3l17,2l16,3l17,2l16,3l17,3l16,2l17,3l16,2l17,3l16,3l17,2l16,3l17,3l17,2l16,3l17,3l16,2l17,3l16,3l17,2l16,3l17,3l16,2l17,3l16,3l17,2l16,3l17,2l16,3l17,3l16,2l17,3l16,2l17,3l16,2l17,2l16,3l17,2l17,3l16,2l17,2l16,3l17,2l16,2l17,2l16,3l17,2l16,2l17,2l16,2l17,2l16,2l17,2l16,2l17,2l16,1l17,2l16,2l17,1l16,2l17,2l17,1l16,2l17,1l16,2l17,1l16,1l17,1l16,1l17,2l16,1l17,1l16,1l17,1l16,0l17,1l16,1l17,1l16,0l17,1l16,0l17,1l16,0l17,0l16,1l17,0l17,0l16,0l17,0l16,0l17,0l16,0l17,-1l16,0l17,0l16,-1l17,0l16,-1l17,0l16,-1l17,0l16,-1l17,-1l16,-1l17,-1l16,-1l17,-1l16,-1l17,-1l16,-1l17,-1l17,-1l16,-1l17,-2l16,-1l17,-1l16,-2l17,-1l16,-1l17,-2l16,-1l17,-2l0,-937l-6014,0Z" fill="#000"></path><path fill-opacity="0.125" stroke="none" d="" fill="#000"></path></g><g transform="scale(0.1)"></g><g stroke-width="1" stroke="#000" fill="none" stroke-opacity="0.2"><line x2="126.2" y1="10" x1="126.2" y2="370" stroke-opacity="0.2"></line><line x2="172.5" y1="10" x1="172.5" y2="370" stroke-opacity="0.2"></line><line x2="223.7" y1="10" x1="223.7" y2="370" stroke-opacity="0.2"></line><line x2="273.2" y1="10" x1="273.2" y2="370" stroke-opacity="0.2"></line><line x2="324.5" y1="10" x1="324.5" y2="370" stroke-opacity="0.2"></line><line x2="374" y1="10" x1="374" y2="370" stroke-opacity="0.2"></line><line x2="425.2" y1="10" x1="425.2" y2="370" stroke-opacity="0.2"></line><line x2="476.4" y1="10" x1="476.4" y2="370" stroke-opacity="0.2"></line><line x2="526" y1="10" x1="526" y2="370" stroke-opacity="0.2"></line><line x2="577.2" y1="10" x1="577.2" y2="370" stroke-opacity="0.2"></line><line x2="626.8" y1="10" x1="626.8" y2="370" stroke-opacity="0.2"></line><line x2="681" y1="365" x1="72" y2="365"></line><line x2="681" y1="335.4" x1="72" y2="335.4"></line><line x2="681" y1="305.8" x1="72" y2="305.8"></line><line x2="681" y1="276.3" x1="72" y2="276.3"></line><line x2="681" y1="246.7" x1="72" y2="246.7"></line><line x2="681" y1="217.1" x1="72" y2="217.1"></line><line x2="681" y1="187.5" x1="72" y2="187.5"></line><line x2="681" y1="157.9" x1="72" y2="157.9"></line><line x2="681" y1="128.3" x1="72" y2="128.3"></line><line x2="681" y1="98.8" x1="72" y2="98.8"></line><line x2="681" y1="69.2" x1="72" y2="69.2"></line><line x2="681" y1="39.6" x1="72" y2="39.6"></line><line x2="681" y1="10" x1="72" y2="10"></line></g><g><rect fill-opacity="0.004" y="10" x="75" height="355" width="51.2" fill="#fff"></rect><text stroke="none" y="381.5" text-anchor="middle" x="100.6">Jan</text></g><g><rect fill-opacity="0.004" y="10" x="126.2" height="355" width="46.3" fill="#fff"></rect><text stroke="none" y="381.5" text-anchor="middle" x="149.3">Feb</text></g><g><rect fill-opacity="0.004" y="10" x="172.5" height="355" width="51.2" fill="#fff"></rect><text stroke="none" y="381.5" text-anchor="middle" x="198.1">Mar</text></g><g><rect fill-opacity="0.004" y="10" x="223.7" height="355" width="49.6" fill="#fff"></rect><text stroke="none" y="381.5" text-anchor="middle" x="248.5">Apr</text></g><g><rect fill-opacity="0.004" y="10" x="273.2" height="355" width="51.2" fill="#fff"></rect><text stroke="none" y="381.5" text-anchor="middle" x="298.9">May</text></g><g><rect fill-opacity="0.004" y="10" x="324.5" height="355" width="49.6" fill="#fff"></rect><text stroke="none" y="381.5" text-anchor="middle" x="349.2">Jun</text></g><g><rect fill-opacity="0.004" y="10" x="374" height="355" width="51.2" fill="#fff"></rect><text stroke="none" y="381.5" text-anchor="middle" x="399.6">Jul</text></g><g><rect fill-opacity="0.004" y="10" x="425.2" height="355" width="51.2" fill="#fff"></rect><text stroke="none" y="381.5" text-anchor="middle" x="450.8">Aug</text></g><g><rect fill-opacity="0.004" y="10" x="476.4" height="355" width="49.6" fill="#fff"></rect><text stroke="none" y="381.5" text-anchor="middle" x="501.2">Sep</text></g><g><rect fill-opacity="0.004" y="10" x="526" height="355" width="51.2" fill="#fff"></rect><text stroke="none" y="381.5" text-anchor="middle" x="551.6">Oct</text></g><g><rect fill-opacity="0.004" y="10" x="577.2" height="355" width="49.6" fill="#fff"></rect><text stroke="none" y="381.5" text-anchor="middle" x="602">Nov</text></g><g><rect fill-opacity="0.004" y="10" x="626.8" height="355" width="51.2" fill="#fff"></rect><text stroke="none" y="381.5" text-anchor="middle" x="652.4">Dec</text></g><g stroke="none" fill="#666"><text y="370.2" text-anchor="end" x="71">0</text><text y="370.2" x="682">0</text><text y="340.6" text-anchor="end" x="71">2</text><text y="340.6" x="682">2</text><text y="311" text-anchor="end" x="71">4</text><text y="311" x="682">4</text><text y="281.4" text-anchor="end" x="71">6</text><text y="281.4" x="682">6</text><text y="251.9" text-anchor="end" x="71">8</text><text y="251.9" x="682">8</text><text y="222.3" text-anchor="end" x="71">10</text><text y="222.3" x="682">10</text><text y="192.7" text-anchor="end" x="71">12</text><text y="192.7" x="682">12</text><text y="163.1" text-anchor="end" x="71">14</text><text y="163.1" x="682">14</text><text y="133.5" text-anchor="end" x="71">16</text><text y="133.5" x="682">16</text><text y="103.9" text-anchor="end" x="71">18</text><text y="103.9" x="682">18</text><text y="74.4" text-anchor="end" x="71">20</text><text y="74.4" x="682">20</text><text y="44.8" text-anchor="end" x="71">22</text><text y="44.8" x="682">22</text><text y="15.2" text-anchor="end" x="71">0</text><text y="15.2" x="682">0</text></g><g font-family="sans-serif" text-decoration="none" font-style="normal" font-size="15" font-weight="normal"><text font-family="sans-serif" stroke="none" opacity="0.8" y="269.3" text-decoration="none" text-anchor="middle" x="114.3" font-style="normal" font-size="15" fill="#fff" font-weight="normal">7°-12°</text></g><g font-family="sans-serif" text-decoration="none" font-style="normal" font-size="15" font-weight="normal"><text font-family="sans-serif" stroke="none" opacity="0.8" y="267.5" text-decoration="none" text-anchor="middle" x="658.9" font-style="normal" font-size="15" fill="#fff" font-weight="normal">7°-12°</text></g><g font-family="sans-serif" text-decoration="none" font-style="normal" font-size="15" font-weight="normal"><text font-family="sans-serif" stroke="none" opacity="0.8" y="43.6" text-decoration="none" text-anchor="middle" x="110.8" font-style="normal" font-size="15" fill="#fff" font-weight="normal">13°-17°</text></g><g font-family="sans-serif" text-decoration="none" font-style="normal" font-size="15" font-weight="normal"><text font-family="sans-serif" stroke="none" opacity="0.8" y="33.2" text-decoration="none" text-anchor="middle" x="653.6" font-style="normal" font-size="15" fill="#fff" font-weight="normal">13°-17°</text></g><g font-family="sans-serif" text-decoration="none" font-style="normal" font-size="15" font-weight="normal"><text font-family="sans-serif" stroke="none" opacity="0.8" y="316.3" text-decoration="none" text-anchor="middle" x="170.2" font-style="normal" font-size="15" fill="#fff" font-weight="normal">13°-17°</text></g><g font-family="sans-serif" text-decoration="none" font-style="normal" font-size="15" font-weight="normal"><text font-family="sans-serif" stroke="none" opacity="0.8" y="148.3" text-decoration="none" text-anchor="middle" x="121.8" font-style="normal" font-size="15" fill="#fff" font-weight="normal">18°-23°</text></g><g font-family="sans-serif" text-decoration="none" font-style="normal" font-size="15" font-weight="normal"><text font-family="sans-serif" stroke="none" opacity="0.8" y="127" text-decoration="none" text-anchor="middle" x="194.1" font-style="normal" font-size="15" fill="#fff" font-weight="normal">24°-28°</text></g><g font-family="sans-serif" text-decoration="none" font-style="normal" font-size="15" font-weight="normal"><text font-family="sans-serif" stroke="none" opacity="0.8" y="276.1" text-decoration="none" text-anchor="middle" x="505.2" font-style="normal" font-size="15" fill="#fff" font-weight="normal">24°-28°</text></g><g font-family="sans-serif" text-decoration="none" font-style="normal" font-size="15" font-weight="normal"><text font-family="sans-serif" stroke="none" opacity="0.8" y="304.5" text-decoration="none" text-anchor="middle" x="410.2" font-style="normal" font-size="15" fill="#fff" font-weight="normal">29°-34°</text></g><g font-family="sans-serif" text-decoration="none" font-style="normal" font-size="15" font-weight="normal"><text font-family="sans-serif" stroke="none" opacity="0.8" y="125.5" text-decoration="none" text-anchor="middle" x="415.3" font-style="normal" font-size="15" fill="#fff" font-weight="normal">35°+</text></g><g font-family="sans-serif" text-decoration="none" font-style="normal" font-size="15" font-weight="normal"><text font-family="sans-serif" stroke="none" opacity="0.8" y="98.6" text-decoration="none" text-anchor="middle" x="631.2" font-style="normal" font-size="15" fill="#fff" font-weight="normal">18°-23°</text></g></svg>