<svg font-family="sans-serif" viewBox="0 0 753 387" xmlns:xlink="http://www.w3.org/1999/xlink" text-decoration="none" font-style="normal" width="753px" xmlns="http://www.w3.org/2000/svg" font-size="15" version="1.1" font-weight="normal" height="387px"><title>Average Hourly Temperature in New Delhi</title><defs><clipPath id="plot-sample-bounds-13"><rect y="0" x="75.8" height="365" width="601.3"></rect></clipPath><clipPath id="plot-sample-bounds-scaled-13"><rect y="0" x="758.3" height="3650" width="6013.5"></rect></clipPath></defs><g transform="scale(0.1)"><path fill-opacity="1.000" stroke-width="10" stroke="#5ca0b4" d="" fill="#5ca0b4" stroke-opacity="1.0"></path><path fill-opacity="1.000" stroke-width="10" stroke="#83c2d5" d="" fill="#83c2d5" stroke-opacity="1.0"></path><path fill-opacity="1.000" stroke-width="10" stroke="#679568" d="" fill="#679568" stroke-opacity="1.0"></path><path fill-opacity="1.000" stroke-width="10" stroke="#74a877" d="M758,550l0,0l17,2l16,2l17,4l16,2l17,0l16,-1l17,-6l16,-3l17,-6l16,-8l17,-10l17,-8l16,-9l17,-12l16,-2l17,-8l16,-10l10,-7l7,-11l16,-28l17,-20l16,-20l17,-25l16,-30l11,-14l6,-7l16,-23l17,-23l16,-24l17,-27l16,-31l8,-13l9,-17l16,-28l17,-27l1,-2l-530,0ZM6397,100l11,35l13,39l4,7l16,30l17,30l16,27l17,25l16,25l3,4l14,19l16,7l17,23l16,19l17,27l17,22l16,23l7,8l10,6l16,12l17,13l16,10l17,8l16,9l17,5l16,4l17,4l0,-441ZM758,3650l530,0l15,-29l17,-32l7,-13l9,-35l17,-60l17,-53l16,-53l17,-59l11,-36l5,-16l17,-44l16,-35l17,-42l3,-11l13,-37l17,-42l16,-42l9,-27l8,-22l16,-57l17,-53l6,-16l-1,-147l-5,-16l-17,-56l-16,-59l-5,-17l-12,-42l-16,-53l-15,-53l-2,-2l-16,-15l-17,-14l-16,-13l-17,-15l-16,-15l-17,-17l-16,-15l-17,-14l-17,-14l-13,-14l-3,-3l-17,-9l-16,-7l-17,-7l-16,-5l-17,-8l-16,-6l-17,-7l-16,-6l-17,-6l-16,-6l-17,-6l-16,-7l-17,-6l-16,-6l-17,-6l-16,-5l-17,-6l-16,-3l-17,-4l-16,-1l-17,-5l-16,-3l-17,-4l-17,-2l-16,-2l-17,-2l-16,-1l-17,0l-16,0l-17,2l-16,3l-17,2l-16,3l-17,3ZM6463,2245l-5,4l-17,17l-16,13l-17,15l-16,12l-17,12l-16,12l-17,13l-16,14l-17,14l-16,15l-7,7l-10,28l-16,46l-17,43l-12,31l-4,11l-17,38l-16,37l-17,36l-12,26l-5,55l-8,92l8,33l17,60l15,55l2,7l16,54l17,60l8,27l8,24l17,62l16,57l2,5l15,51l16,57l12,40l5,17l16,54l17,42l12,35l4,12l17,44l5,18l375,0l0,-1525l-17,4l-16,4l-17,5l-16,5l-17,7l-16,7l-17,7l-16,7l-17,7l-16,7l-17,7l-17,7l-16,6l-17,4l-16,4l-17,7l-16,8l-17,9Z" fill="#74a877" stroke-opacity="1.0"></path><path fill-opacity="1.000" stroke-width="10" stroke="#8dbf71" d="M1286,100l-16,26l-16,28l-11,20l-6,10l-16,30l-17,27l-16,25l-17,22l-16,24l-9,10l-8,10l-16,30l-17,25l-16,21l-17,20l-16,27l-10,15l-7,5l-16,10l-17,8l-16,2l-17,12l-16,10l-17,7l-17,10l-16,8l-17,6l-16,4l-17,5l-16,1l-17,0l-16,-2l-17,-4l-16,-2l-17,-2l0,579l0,0l17,13l16,12l17,9l16,6l17,6l16,-1l17,-7l16,-7l17,-11l16,-17l17,-18l17,-15l16,-16l14,-20l3,-2l16,-4l17,-10l16,-14l17,-16l16,-19l17,-16l16,-17l17,-18l16,-16l15,-15l2,-2l16,-8l17,-10l16,-10l17,-12l16,-11l17,-11l16,-12l17,-13l16,-12l17,-14l16,-13l17,-13l10,-7l7,-6l16,-14l17,-12l16,-13l17,-11l16,-11l17,-13l16,-12l17,-13l16,-13l17,-15l16,-14l2,-1l15,-19l16,-19l17,-23l16,-21l17,-22l16,-22l16,-22l1,-3l16,-38l17,-33l16,-34l17,-29l5,-11l11,-25l17,-35l17,-39l16,-35l6,-14l11,-22l16,-34l8,-18ZM5837,100l10,53l3,21l13,37l17,39l16,37l14,35l3,7l16,39l17,40l16,41l8,21l9,10l16,21l17,20l16,20l17,20l16,20l17,18l16,19l17,12l16,12l17,11l16,10l17,13l17,11l16,10l17,11l16,11l17,13l16,12l17,11l16,11l17,12l16,12l17,10l16,10l17,12l16,12l17,12l16,11l17,12l16,11l17,9l16,11l17,12l3,2l13,6l17,13l16,13l17,15l17,16l16,15l17,13l16,15l17,14l16,12l17,8l13,7l3,3l17,13l16,9l17,13l0,-560l0,0l-17,-4l-16,-4l-17,-5l-16,-9l-17,-8l-16,-10l-17,-13l-16,-12l-7,-4l-10,-12l-16,-22l-17,-23l-17,-27l-16,-19l-17,-22l-16,-8l-11,-15l-6,-8l-16,-25l-17,-25l-16,-27l-17,-30l-16,-30l-2,-3l-15,-45l-9,-29ZM758,2120l17,-3l16,-3l17,-2l16,-3l17,-2l16,0l17,0l16,1l17,2l16,2l17,2l17,4l16,3l17,5l16,1l17,4l16,3l17,6l16,5l17,6l16,6l17,6l16,7l17,6l16,6l17,6l16,6l17,7l16,6l17,7l16,6l17,7l16,7l17,10l1,1l15,16l17,14l17,14l16,15l17,16l16,16l17,14l16,13l17,14l16,16l17,59l16,53l10,36l7,22l16,60l17,55l3,11l1,147l-4,11l-17,53l-16,57l-9,27l-8,22l-16,42l-17,42l-15,42l-1,6l-17,42l-16,34l-17,44l-7,22l-9,30l-17,59l-16,53l-2,6l-15,47l-17,60l-11,41l-5,10l-17,32l-16,30l-1,2l554,0l9,-18l16,-34l11,-22l6,-19l16,-55l17,-60l4,-14l12,-38l17,-62l12,-48l4,-13l17,-52l16,-57l8,-26l9,-30l16,-58l17,-51l3,-9l13,-41l17,-47l16,-55l2,-5l-2,-14l-11,-133l-5,-11l-17,-31l-16,-30l-17,-33l-16,-41l-1,-2l-16,-33l-16,-37l-17,-38l-16,-40l-17,-20l-16,-19l-17,-20l-16,-20l-17,-22l-16,-19l-17,-18l-8,-10l-8,-8l-17,-13l-16,-10l-17,-14l-17,-13l-16,-12l-17,-12l-16,-11l-17,-12l-16,-12l-17,-11l-16,-12l-10,-8l-7,-6l-16,-12l-17,-10l-16,-10l-17,-11l-16,-12l-17,-10l-16,-9l-17,-8l-16,-8l-17,-8l-16,-8l-17,-7l-16,-7l-17,-8l-16,-11l-5,-3l-12,-9l-17,-13l-16,-13l-17,-14l-16,-10l-17,-13l-16,-10l-17,-11l-16,-10l-17,-10l-16,-9l-17,-9l-16,-9l-13,-8l-4,-5l-16,-18l-17,-22l-16,-17l-17,-17l-16,-20l-17,-16l-16,-12l-17,-12l-16,-7l-4,-2l-13,-10l-16,-9l-17,-5l-17,-10l-16,-7l-17,-6l-16,-2l-17,-3l-16,3l-17,5l-16,7l-17,10l-16,10l-17,12l0,0ZM6656,1801l-16,14l-17,15l-16,14l-17,15l-17,14l-16,14l-17,15l-16,10l-17,14l-16,13l-12,10l-5,3l-16,12l-17,11l-16,9l-17,8l-16,9l-17,10l-16,9l-17,9l-16,10l-17,9l-16,7l-17,8l-16,10l-17,9l-16,13l-3,2l-14,10l-16,12l-17,8l-17,8l-16,7l-17,7l-16,9l-17,9l-16,10l-17,11l-16,9l-17,8l-16,9l-17,11l-16,13l-7,7l-10,10l-16,16l-17,15l-16,15l-17,16l-16,17l-17,18l-16,17l-17,17l-6,7l-10,22l-17,34l-16,35l-17,33l-11,24l-6,13l-16,35l-17,38l-16,38l-10,24l-7,55l-11,92l11,62l17,86l16,90l11,58l6,30l16,83l8,35l9,42l17,77l7,29l9,34l17,74l9,40l7,35l7,39l562,0l-7,-25l-17,-43l-2,-6l-14,-41l-17,-42l-16,-53l-4,-12l-13,-45l-16,-57l-14,-46l-3,-11l-16,-57l-17,-62l-6,-18l-10,-33l-17,-61l-16,-54l-17,-61l-17,-61l-6,-26l6,-73l7,-74l10,-22l17,-36l16,-37l17,-38l6,-15l10,-27l17,-43l16,-46l11,-32l6,-5l16,-16l17,-14l16,-14l17,-12l16,-13l17,-12l16,-12l17,-15l16,-13l17,-17l6,-5l10,-7l17,-9l16,-8l17,-7l16,-4l17,-4l16,-7l17,-6l17,-7l16,-7l17,-7l16,-7l17,-7l16,-7l17,-7l16,-5l17,-5l16,-4l17,-4l0,-448l-17,13l-16,14l-17,14l-16,14l-17,16l-16,24Z" fill="#8dbf71" stroke-opacity="1.0"></path><path fill-opacity="1.000" stroke-width="10" stroke="#e9cc77" d="M1839,100l-7,15l-16,34l-12,25l-5,11l-16,36l-17,38l-17,35l-12,28l-4,8l-17,30l-16,33l-17,33l-16,38l-3,6l-14,20l-16,22l-17,22l-16,22l-17,22l-16,20l-17,20l-16,14l-17,15l-16,13l-17,12l-16,13l-17,13l-16,11l-17,11l-16,13l-17,12l-16,14l-9,7l-8,6l-17,13l-16,13l-17,14l-16,12l-17,12l-16,13l-17,11l-16,11l-17,11l-16,11l-17,10l-16,8l-4,3l-13,13l-16,16l-17,18l-16,17l-17,16l-16,19l-17,16l-16,14l-17,10l-16,5l-6,3l-11,16l-16,16l-17,15l-17,18l-16,17l-17,11l-16,7l-17,8l-16,1l-17,-6l-16,-6l-17,-9l-16,-12l-17,-13l0,527l0,0l17,-13l16,-10l17,-9l16,-7l17,-6l16,-2l17,2l16,3l17,5l16,8l17,9l17,5l16,10l10,7l7,5l16,7l17,11l16,12l17,17l16,20l17,16l16,18l17,21l16,19l2,2l15,9l16,9l17,9l16,9l17,10l16,11l17,10l16,10l17,13l16,10l17,15l16,12l17,13l10,8l7,4l16,11l17,8l16,7l17,7l16,8l17,8l16,8l17,8l16,9l17,10l16,12l17,11l16,10l17,10l16,12l6,5l11,9l16,12l17,11l16,12l17,12l16,11l17,12l16,12l17,13l17,13l16,11l17,13l7,7l9,11l17,18l16,19l17,22l16,20l17,20l16,20l16,18l1,3l16,40l17,38l16,36l14,31l3,5l16,40l17,34l16,30l17,31l4,8l12,147l-16,55l-17,48l-15,45l-1,5l-17,50l-16,58l-10,35l-7,22l-16,57l-17,51l-5,18l-11,43l-17,62l-13,43l-3,10l-17,59l-16,55l-7,24l-10,20l-16,33l-10,21l461,0l11,-20l17,-29l12,-25l4,-17l17,-46l16,-55l11,-30l6,-17l16,-46l17,-47l11,-38l5,-15l17,-45l16,-46l13,-42l4,-11l16,-43l17,-42l16,-48l2,-4l15,-40l17,-45l16,-43l9,-20l-9,-30l-16,-64l-12,-53l-5,-8l-17,-22l-16,-22l-17,-22l-16,-22l-17,-25l-16,-26l-1,-1l-16,-24l-16,-26l-17,-23l-16,-24l-17,-25l-16,-26l-17,-19l-16,-21l-17,-19l-16,-19l-17,-17l-16,-17l-17,-17l-16,-19l-17,-17l-16,-13l-17,-14l-16,-14l-17,-14l-17,-13l-16,-14l-17,-12l-16,-13l-17,-11l-14,-13l-2,-2l-17,-14l-16,-12l-17,-14l-16,-15l-17,-14l-16,-12l-17,-14l-16,-14l-17,-11l-16,-12l-17,-14l-16,-18l-17,-16l-16,-17l-17,-18l-16,-19l-17,-19l-17,-22l-16,-18l-1,-1l-16,-34l-16,-28l-17,-30l-16,-37l-9,-19l-8,-16l-16,-34l-17,-28l-16,-28l-17,-29l-7,-13l-9,-65l-13,-83l13,-51l16,-62l9,-35l8,-26l16,-58l17,-58l1,-6l15,-23l17,-26l16,-30l17,-22l16,-23l14,-23l3,-3l16,-18l17,-18l17,-19l16,-18l17,-17l16,-17l17,-17l16,-17l4,-4l13,-12l16,-18l17,-17l16,-16l17,-19l16,-17l17,-18l16,-19l11,-12l6,-9l16,-24l17,-23l16,-23l17,-24l16,-25l16,-20l1,-3l16,-34l17,-35l17,-31l16,-35l5,-10l12,-23l16,-36l17,-37l16,-32l13,-20l4,-5l16,-31l17,-29l5,-9ZM5404,100l12,74l1,3l17,45l16,48l17,48l1,4l15,42l17,49l16,50l3,7l14,19l16,26l17,24l16,24l17,21l16,24l7,10l10,9l16,17l17,14l16,16l17,15l16,15l17,15l16,13l17,14l17,13l8,7l8,6l17,12l16,13l17,14l16,14l17,13l16,14l17,13l16,13l17,14l16,13l10,9l7,7l16,17l17,17l16,17l17,18l16,17l17,16l16,17l17,14l8,7l8,11l17,23l16,24l17,23l17,24l16,25l14,18l3,5l16,24l17,26l16,23l17,24l16,26l14,20l3,74l2,74l-2,5l-17,32l-16,30l-17,30l-16,32l-11,19l-6,11l-16,31l-17,29l-16,35l-17,31l-6,11l-11,8l-16,14l-17,13l-16,13l-17,12l-16,16l-17,14l-16,15l-17,15l-16,15l-14,13l-3,2l-16,13l-17,10l-16,9l-17,8l-16,7l-17,9l-16,9l-17,10l-16,10l-17,10l-16,9l-17,7l-16,8l-17,9l-17,12l-6,6l-10,8l-17,12l-16,10l-17,10l-16,12l-17,13l-16,12l-17,12l-16,13l-17,12l-16,11l-17,12l-12,11l-4,5l-17,20l-16,18l-17,22l-16,18l-17,20l-16,19l-17,17l-7,9l-9,20l-17,33l-17,37l-16,36l-10,22l-7,13l-16,36l-17,36l-16,35l-13,28l-4,29l-16,118l16,81l13,67l4,20l16,77l11,51l6,27l16,94l6,27l11,58l16,84l2,6l15,94l9,54l8,52l3,22l434,0l-8,-46l-5,-28l-11,-45l-17,-74l-7,-29l-9,-35l-17,-77l-8,-36l-9,-41l-16,-83l-5,-24l-12,-64l-15,-84l-1,-6l-17,-86l-10,-56l10,-83l8,-64l9,-22l16,-38l17,-37l16,-35l8,-16l9,-22l17,-32l16,-35l17,-35l11,-24l5,-5l17,-18l16,-16l17,-19l16,-17l17,-16l16,-15l17,-15l16,-16l11,-11l6,-6l16,-13l17,-11l16,-9l17,-8l16,-9l17,-11l16,-10l17,-9l16,-10l17,-6l16,-7l17,-8l17,-8l16,-12l15,-11l2,-1l16,-13l17,-9l16,-10l17,-8l16,-7l17,-9l16,-10l17,-9l16,-9l17,-10l16,-9l17,-9l16,-8l17,-10l16,-13l6,-4l11,-8l16,-14l17,-14l16,-10l17,-14l16,-15l17,-13l17,-16l16,-14l17,-15l16,-14l1,-1l16,-25l16,-25l17,-16l16,-14l17,-14l16,-14l17,-13l0,-584l-17,-13l-16,-9l-17,-13l-16,-8l-17,-9l-16,-12l-17,-14l-16,-14l-17,-14l-16,-15l-17,-15l-17,-15l-16,-14l-17,-13l-9,-4l-7,-3l-17,-12l-16,-11l-17,-9l-16,-11l-17,-12l-16,-11l-17,-12l-16,-12l-17,-12l-16,-10l-17,-10l-16,-12l-15,-11l-2,-2l-16,-10l-17,-11l-16,-12l-17,-13l-16,-11l-17,-11l-16,-10l-17,-12l-17,-12l-16,-10l-17,-11l-16,-12l-15,-11l-2,-2l-16,-18l-17,-19l-16,-19l-17,-20l-16,-20l-17,-20l-16,-22l-7,-8l-10,-25l-16,-41l-17,-40l-16,-39l-2,-3l-15,-38l-16,-38l-17,-38l-12,-34l-4,-28l-9,-46Z" fill="#e9cc77" stroke-opacity="1.0"></path><path fill-opacity="1.000" stroke-width="10" stroke="#c77560" d="M2298,100l-3,6l-17,29l-16,31l-5,8l-12,18l-16,31l-17,38l-16,35l-13,26l-4,8l-16,34l-17,32l-17,34l-16,35l-3,5l-14,19l-16,24l-17,24l-16,23l-17,23l-16,24l-7,11l-10,11l-16,18l-17,18l-16,18l-17,18l-16,17l-17,17l-16,18l-14,13l-3,2l-16,18l-17,17l-16,17l-17,17l-16,18l-17,18l-17,18l-16,19l-4,4l-13,21l-16,23l-17,22l-16,30l-17,26l-16,25l-17,59l-16,58l-9,31l-8,29l-16,62l-14,57l14,93l8,55l8,16l17,28l16,29l17,28l16,34l7,13l10,21l16,37l17,31l16,27l15,32l2,3l16,18l17,21l17,19l16,19l17,19l16,16l17,17l15,16l1,1l17,14l16,12l17,11l16,14l17,13l16,13l17,14l16,15l17,14l16,12l17,14l1,1l15,14l17,11l16,13l17,12l16,14l17,13l17,14l16,14l17,14l16,13l16,16l1,1l16,20l17,16l16,17l17,17l16,19l17,19l16,21l16,18l1,2l16,26l17,25l16,23l17,24l16,26l15,22l2,3l16,25l17,26l16,22l17,22l16,21l17,23l4,6l13,59l16,64l7,24l-7,16l-16,43l-17,45l-17,44l-16,48l-17,42l-16,43l-5,15l-12,38l-16,46l-17,45l-6,19l-10,34l-17,47l-16,46l-8,21l-9,25l-16,55l-17,47l-6,21l-10,22l-17,29l-13,23l588,0l3,-5l17,-23l16,-21l17,-22l3,-3l13,-22l17,-24l17,-23l16,-19l17,-23l16,-32l4,-5l13,-14l16,-31l17,-24l16,-33l17,-32l10,-14l6,-9l17,-26l16,-19l17,-26l16,-27l17,-22l16,-10l9,-9l8,-10l16,-15l17,-6l16,-11l17,-5l16,-16l17,-19l17,-22l16,-16l17,-11l16,-5l11,-12l6,-5l16,-6l17,-6l16,-1l17,-6l16,-8l17,-5l16,4l17,-5l16,5l17,6l16,13l17,14l16,15l17,22l16,23l17,26l16,23l17,24l11,15l5,7l17,14l17,22l16,7l17,14l16,10l17,22l16,37l11,15l6,8l16,37l17,22l16,22l17,36l12,23l4,8l17,25l16,11l17,14l16,20l17,35l16,26l5,9l12,26l16,32l17,16l1293,0l-4,-30l-6,-44l-11,-60l-14,-88l-3,-13l-16,-83l-10,-52l-7,-33l-16,-95l-4,-20l-13,-58l-16,-77l-3,-13l-14,-74l-15,-74l15,-108l5,-39l12,-26l16,-35l17,-35l16,-36l8,-16l9,-19l16,-37l17,-37l17,-32l10,-23l6,-8l17,-17l16,-19l17,-19l16,-19l17,-21l16,-19l17,-19l6,-7l10,-10l17,-12l16,-11l17,-13l16,-12l17,-12l16,-12l17,-13l16,-12l17,-10l16,-10l17,-12l11,-9l5,-5l17,-12l17,-9l16,-8l17,-7l16,-9l17,-11l16,-9l17,-10l16,-9l17,-9l16,-8l17,-7l16,-9l17,-10l16,-13l4,-3l13,-12l16,-15l17,-15l16,-15l17,-14l16,-16l17,-12l16,-13l17,-13l16,-13l12,-10l5,-8l17,-32l16,-34l17,-30l16,-31l8,-13l9,-16l16,-32l17,-30l16,-30l17,-32l4,-8l-4,-111l-2,-37l-15,-22l-16,-26l-17,-25l-16,-22l-17,-26l-16,-24l-2,-3l-15,-20l-16,-25l-17,-24l-17,-24l-16,-23l-17,-23l-6,-9l-10,-8l-17,-15l-16,-17l-17,-16l-16,-17l-17,-17l-16,-18l-17,-17l-16,-17l-5,-5l-12,-10l-16,-13l-17,-14l-16,-13l-17,-14l-16,-13l-17,-13l-16,-14l-17,-14l-16,-13l-17,-12l-7,-5l-9,-8l-17,-14l-17,-13l-16,-13l-17,-15l-16,-15l-17,-15l-16,-17l-17,-13l-16,-17l-8,-8l-9,-12l-16,-24l-17,-21l-16,-23l-17,-25l-16,-25l-13,-18l-4,-11l-16,-49l-17,-49l-14,-39l-2,-7l-17,-48l-16,-48l-17,-45l-12,-74l-1293,0l16,8l17,14l16,19l17,16l17,1l16,8l8,8l9,7l16,13l17,14l16,6l17,0l16,14l17,6l16,17l17,7l16,10l17,14l16,8l17,6l16,0l17,0l16,7l17,6l11,13l5,6l17,7l16,0l17,6l17,0l16,6l17,16l16,14l17,16l16,9l17,15l16,11l17,24l16,12l17,6l16,7l17,4l16,12l17,10l16,6l17,8l16,6l17,5l16,16l17,10l16,11l17,11l16,7l17,11l17,12l16,12l17,10l16,11l17,9l16,7l17,11l16,9l17,8l16,8l17,10l16,8l17,8l16,10l17,9l16,9l17,8l16,11l2,2l15,10l16,12l17,12l16,11l17,12l16,12l17,13l17,11l16,10l17,10l16,13l17,13l11,9l5,5l17,19l16,17l17,18l16,18l17,19l16,17l17,18l15,16l1,3l17,29l16,34l17,32l16,31l12,19l5,9l16,30l17,29l16,27l17,25l17,23l3,5l8,148l-11,18l-17,27l-17,28l-16,29l-17,31l-8,15l-8,16l-17,32l-16,32l-17,33l-16,32l-2,3l-15,13l-16,13l-17,13l-16,12l-17,14l-16,14l-17,15l-16,13l-17,13l-16,14l-17,14l-16,9l-17,7l-16,7l-17,7l-17,10l-16,8l-17,9l-16,8l-17,9l-16,9l-17,7l-16,9l-17,8l-16,7l-17,4l-16,6l-17,5l-16,6l-17,2l-16,5l-17,4l-5,2l-11,3l-17,3l-16,5l-17,7l-16,3l-17,6l-16,5l-17,3l-17,2l-16,3l-17,3l-16,3l-17,4l-16,4l-17,1l-16,3l-17,4l-16,3l-17,3l-16,1l-17,3l-16,1l-17,2l-16,2l-17,6l-16,6l-17,4l-16,5l-17,7l-16,7l-17,4l-16,4l-17,5l-17,0l-16,2l-17,2l-16,0l-17,4l-16,0l-17,5l-16,5l-17,5l-16,10l-17,10l-16,6l-17,6l-16,4l-17,3l-16,6l-17,1l-16,8l-17,7l-16,6l-17,4l-16,7l-17,5l-17,8l-16,6l-17,9l-16,2l-17,9l-16,9l-17,13l-12,9l-4,4l-17,14l-16,17l-17,13l-16,7l-17,12l-16,13l-17,18l-16,13l-17,12l-16,13l-13,12l-4,4l-16,15l-17,11l-16,8l-17,9l-16,7l-17,11l-17,9l-16,10l-17,10l-16,8l-17,7l-16,10l-17,7l-16,6l-17,6l-16,7l-17,3l-16,8l-17,0l-16,-1l-17,0l-8,-7l-8,-3l-17,-3l-16,-2l-17,-2l-16,-3l-17,-7l-16,-2l-17,-6l-16,-7l-17,-8l-17,-9l-16,-6l-17,-5l-16,-3l-17,-2l-16,-7l-17,-9l-16,-6l-17,-8l-16,-8l-17,-11l-16,-10l-17,-10l-16,-11l-17,-12l-16,-12l-17,-12l-16,-11l-17,-10l-16,-11l-17,-11l-16,-6l-17,-7l-17,-11l-16,-10l-17,-12l-16,-11l-12,-12l-5,-4l-16,-10l-17,-8l-16,-8l-17,-9l-16,-10l-17,-12l-16,-13l-17,-15l-16,-13l-17,-12l-16,-13l-17,-12l-11,-9l-5,-4l-17,-9l-16,-10l-17,-10l-16,-11l-17,-10l-16,-11l-17,-12l-17,-12l-16,-13l-17,-12l-16,-11l-17,-13l-10,-10l-6,-6l-17,-14l-16,-14l-17,-12l-16,-13l-17,-14l-16,-13l-17,-16l-16,-15l-17,-15l-16,-14l-3,-2l-14,-16l-16,-17l-17,-17l-16,-19l-17,-23l-16,-23l-17,-19l-12,-14l-4,-11l-17,-37l-17,-38l-16,-40l-10,-22l-7,-14l-16,-37l-17,-34l-16,-37l-12,-26l-5,-42l-12,-106l12,-61l17,-87l16,-77l17,-71l16,-30l17,-30l16,-30l17,-31l14,-26l3,-3l16,-18l17,-19l16,-21l17,-19l16,-16l17,-15l16,-15l17,-16l6,-6l10,-10l17,-18l16,-17l17,-17l16,-15l17,-15l16,-14l17,-16l16,-17l11,-9l6,-8l16,-24l17,-17l16,-17l17,-19l16,-16l17,-17l17,-15l16,-14l2,-1l15,-20l16,-25l17,-19l16,-22l17,-18l16,-22l15,-22l2,-3l16,-22l17,-18l16,-25l17,-23l16,-22l17,-20l14,-15l2,-3l17,-14l16,-19l17,-21l13,-17Z" fill="#c77560" stroke-opacity="1.0"></path><path fill-opacity="1.000" stroke-width="10" stroke="#b05b5a" d="M2884,100l-11,15l-17,21l-16,18l-17,14l-4,6l-12,12l-17,21l-16,21l-17,24l-16,25l-17,17l-16,23l-4,5l-13,20l-16,21l-17,18l-16,22l-17,20l-16,25l-17,22l-16,14l-17,14l-17,17l-16,16l-17,19l-16,17l-17,18l-16,23l-8,10l-9,8l-16,17l-17,16l-16,14l-17,15l-16,15l-17,17l-16,17l-17,18l-11,11l-5,5l-17,16l-16,15l-17,15l-16,16l-17,19l-16,21l-17,19l-16,18l-4,4l-13,24l-17,31l-16,29l-17,30l-16,31l-1,2l-16,66l-16,76l-1,6l-16,80l-14,68l14,117l4,31l13,29l16,37l17,34l16,37l6,11l11,25l16,39l17,39l17,37l3,8l13,16l17,19l16,22l17,23l16,19l17,17l16,17l13,15l4,3l16,14l17,15l16,15l17,16l16,13l17,14l16,13l17,12l16,14l17,14l5,5l11,11l17,13l16,11l17,12l16,13l17,12l17,12l16,11l17,10l16,11l17,10l16,10l17,10l3,2l13,10l17,12l16,14l17,12l16,12l17,15l16,14l17,11l16,11l17,8l16,8l17,8l16,10l4,3l13,14l16,11l17,12l16,10l17,10l17,8l16,6l17,11l16,11l17,10l16,11l17,11l16,13l14,10l3,2l16,11l17,10l16,10l17,11l16,8l17,8l16,6l17,9l16,7l17,2l16,4l17,4l16,6l17,9l17,9l16,6l17,6l16,3l17,7l16,2l17,2l16,3l17,3l16,15l17,0l16,1l17,0l16,-8l17,-8l16,-7l17,-6l16,-6l17,-7l16,-10l17,-7l16,-8l17,-10l16,-10l17,-9l17,-11l16,-7l17,-9l16,-7l17,-11l16,-16l8,-7l9,-8l16,-13l17,-12l16,-13l17,-18l16,-12l17,-13l16,-7l17,-13l16,-17l17,-13l8,-9l8,-6l17,-13l16,-9l17,-9l16,-2l17,-8l16,-7l17,-7l17,-5l16,-8l17,-3l16,-7l17,-6l16,-9l17,-1l16,-5l17,-4l16,-4l17,-6l16,-6l17,-10l16,-10l9,-3l8,-3l16,-5l17,-4l16,0l17,-5l16,0l17,-2l16,-2l17,0l17,-4l16,-4l17,-5l16,-7l17,-6l16,-6l17,-4l16,-5l17,-7l16,-2l17,-2l16,-1l17,-3l16,-1l17,-3l16,-3l17,-4l16,-3l17,-1l16,-4l17,-4l16,-3l17,-4l16,-2l17,-3l17,-2l16,-5l17,-6l16,-4l17,-6l16,-5l17,-4l16,-4l17,-5l16,-4l17,-3l16,-5l17,-6l16,-6l17,-3l16,-8l17,-7l16,-10l17,-7l16,-9l17,-9l16,-8l17,-9l16,-8l17,-10l17,-7l16,-7l17,-7l16,-9l2,-1l15,-13l16,-14l17,-13l16,-13l17,-14l16,-14l17,-14l16,-12l17,-14l16,-13l17,-14l16,-31l17,-34l16,-32l17,-32l10,-19l6,-12l17,-31l16,-29l17,-27l17,-28l12,-21l-7,-148l-5,-7l-17,-24l-17,-24l-16,-28l-17,-29l-16,-30l-3,-6l-14,-22l-16,-31l-17,-32l-16,-34l-17,-29l-16,-18l-17,-18l-16,-17l-17,-19l-16,-18l-17,-18l-16,-17l-17,-19l-3,-3l-13,-10l-17,-13l-16,-13l-17,-11l-16,-10l-17,-10l-17,-14l-16,-12l-17,-12l-16,-10l-17,-13l-16,-11l-12,-9l-5,-3l-16,-11l-17,-9l-16,-9l-17,-9l-16,-9l-17,-8l-16,-9l-17,-10l-16,-8l-17,-8l-16,-9l-17,-11l-16,-7l-17,-10l-16,-10l-14,-8l-3,-3l-16,-12l-17,-12l-17,-11l-16,-7l-17,-11l-16,-12l-17,-10l-16,-15l-17,-6l-16,-6l-17,-7l-16,-7l-17,-10l-16,-12l-17,-3l-8,-4l-8,-6l-17,-6l-16,-12l-17,-24l-16,-11l-17,-15l-16,-9l-17,-16l-16,-14l-17,-17l-16,-5l-17,0l-17,-7l-16,0l-17,-6l-16,-19l-17,-7l-16,-6l-17,0l-16,0l-17,-7l-16,-8l-17,-14l-16,-10l-17,-6l-16,-17l-17,-7l-16,-13l-17,0l-16,-7l-17,-14l-16,-13l-17,-16l-16,-7l-17,-3l-17,-15l-16,-20l-17,-13ZM2906,759l16,-7l17,-8l16,-5l17,-5l17,0l16,-4l17,-5l16,-6l17,-8l16,-5l17,-6l16,-8l17,-6l16,-5l17,-4l16,-5l17,-5l16,-3l17,-2l16,0l17,1l16,1l17,3l16,0l17,1l16,1l17,-3l17,4l16,4l17,6l16,5l17,7l16,7l17,10l16,7l17,6l16,6l17,10l16,11l17,11l6,6l10,9l17,16l16,17l17,16l16,16l17,14l16,16l17,20l16,21l2,3l15,27l16,25l17,18l17,31l16,25l12,21l5,28l16,89l6,31l11,53l16,86l2,9l-2,19l-14,129l-2,5l-17,34l-16,39l-17,33l-16,33l-3,4l-14,27l-17,27l-16,31l-17,30l-16,29l-2,4l-15,17l-16,20l-17,15l-16,22l-17,16l-16,19l-17,14l-16,18l-9,7l-8,5l-16,7l-17,13l-16,6l-17,6l-16,9l-17,7l-16,6l-17,5l-16,8l-17,3l-16,5l-17,1l-17,0l-16,1l-17,0l-16,4l-17,0l-16,3l-17,1l-16,-2l-17,0l-16,-2l-17,-2l-16,-5l-17,-4l-16,-4l-17,-3l-16,-7l-17,-5l-16,-6l-17,-4l-16,-5l-17,-6l-16,-2l-17,-3l-17,-3l-16,-6l-17,-6l-16,-4l-17,-8l-8,-3l-8,-5l-17,-7l-16,-6l-17,-7l-16,-9l-17,-6l-16,-15l-17,-13l-16,-12l-17,-10l-16,-12l-17,-13l-16,-9l-17,-10l-16,-12l-2,-2l-15,-19l-16,-22l-17,-24l-16,-25l-17,-28l-15,-30l-2,-3l-16,-28l-17,-34l-16,-29l-17,-34l-8,-20l-8,-65l-11,-83l11,-74l10,-74l6,-37l17,-88l4,-23l12,-19l17,-22l16,-24l17,-21l17,-21l16,-21l17,-17l1,-2l15,-11l17,-7l16,-12l17,-7l16,-10l17,-10l16,-9l17,-10l16,-9l17,-12l16,-9l17,-7l16,-7l17,-5l16,-7l17,-8l16,-7l3,-1ZM3424,2984l-6,6l-16,6l-17,10l-16,17l-17,22l-17,19l-16,15l-17,6l-16,10l-17,7l-16,15l-13,15l-4,5l-16,9l-17,22l-16,27l-17,27l-16,19l-17,26l-10,13l-6,9l-17,33l-16,32l-17,25l-16,31l-17,18l-16,32l-17,24l-16,18l-17,23l-17,24l-16,27l-17,22l-16,21l-17,23l-5,8l1244,0l-16,-7l-17,-18l-16,-32l-8,-17l-9,-17l-16,-26l-17,-35l-16,-21l-17,-14l-16,-10l-17,-25l-16,-31l-17,-35l-16,-23l-17,-22l-16,-37l-17,-23l-16,-36l-17,-22l-16,-10l-17,-14l-16,-7l-17,-22l-17,-14l-16,-23l-17,-23l-16,-24l-17,-26l-16,-22l-17,-22l-8,-8l-8,-7l-17,-14l-16,-12l-17,-7l-16,-5l-17,5l-16,-3l-17,5l-16,8l-17,6l-16,1l-17,6l-16,6Z" fill="#b05b5a" stroke-opacity="1.0"></path><path fill-opacity="1.000" stroke-width="10" stroke="#984b44" d="M2887,766l-14,6l-17,7l-16,7l-17,5l-16,7l-17,8l-16,9l-17,11l-16,10l-17,10l-16,9l-17,10l-16,9l-17,8l-16,11l-17,8l-16,11l-3,2l-14,15l-16,20l-17,22l-17,21l-16,24l-17,22l-15,23l-1,8l-17,89l-8,51l-8,58l-13,90l13,102l6,46l10,26l17,34l16,28l17,35l15,25l1,3l17,33l17,27l16,25l17,24l16,22l10,14l7,5l16,12l17,10l16,9l17,13l16,12l17,10l16,12l17,13l16,15l17,6l16,10l17,6l16,7l17,6l3,2l13,6l17,7l16,5l17,5l16,7l17,3l17,2l16,3l17,5l16,5l17,5l16,6l17,5l16,6l17,4l16,4l17,4l16,5l17,1l16,3l17,0l16,2l17,-1l16,-3l17,0l16,-4l17,0l16,-1l17,0l17,-1l16,-5l17,-3l16,-8l17,-5l16,-6l17,-7l16,-9l17,-6l16,-6l17,-13l16,-7l14,-8l3,-2l16,-19l17,-14l16,-18l17,-16l16,-22l17,-15l16,-20l17,-19l2,-3l14,-26l17,-29l16,-31l17,-27l17,-31l2,-4l14,-29l17,-33l16,-38l17,-35l6,-13l10,-92l5,-56l-5,-27l-16,-89l-7,-32l-10,-52l-16,-86l-2,-10l-15,-27l-16,-25l-17,-31l-17,-18l-16,-25l-12,-21l-5,-7l-16,-21l-17,-20l-16,-16l-17,-14l-16,-16l-17,-16l-16,-17l-17,-16l-6,-5l-10,-10l-17,-11l-16,-11l-17,-10l-16,-6l-17,-6l-16,-7l-17,-10l-16,-7l-17,-6l-16,-5l-17,-6l-16,-5l-17,-3l-17,2l-16,-1l-17,0l-16,0l-17,-3l-16,-1l-17,-1l-16,0l-17,2l-16,3l-17,5l-16,5l-17,4l-16,6l-17,5l-16,8l-17,7l-16,5l-17,8l-16,5l-17,5l-16,4l-17,0l-17,5l-16,6l-17,7l-16,8l-17,7Z" fill="#984b44" stroke-opacity="1.0"></path><path fill-opacity="0.125" stroke="none" d="" fill="#000"></path><path fill-opacity="0.251" stroke="none" d="M6772,3650l0,-1005l-17,1l-16,1l-17,1l-16,1l-17,1l-16,1l-17,1l-16,1l-17,1l-16,1l-17,2l-17,1l-16,1l-17,2l-16,1l-17,2l-16,1l-17,2l-16,1l-17,2l-16,1l-17,2l-16,2l-17,2l-16,1l-17,2l-16,2l-17,2l-16,1l-17,2l-16,2l-17,2l-16,2l-17,2l-16,1l-17,2l-17,2l-16,2l-17,2l-16,2l-17,2l-16,1l-17,2l-16,2l-17,2l-16,2l-17,2l-16,1l-17,2l-16,2l-17,2l-16,2l-17,1l-16,2l-17,2l-16,2l-17,1l-16,2l-17,2l-16,1l-17,2l-17,2l-16,1l-17,2l-16,2l-17,1l-16,2l-17,1l-16,2l-17,1l-16,2l-17,1l-16,2l-17,1l-16,2l-17,1l-16,2l-17,1l-16,1l-17,2l-16,1l-17,2l-16,1l-17,1l-17,2l-16,1l-17,1l-16,1l-17,2l-16,1l-17,1l-16,2l-17,1l-16,1l-17,1l-16,2l-17,1l-16,1l-17,1l-16,2l-17,1l-16,1l-17,1l-16,2l-17,1l-16,1l-17,1l-16,2l-17,1l-17,1l-16,1l-17,2l-16,1l-17,1l-16,1l-17,2l-16,1l-17,1l-16,2l-17,1l-16,1l-17,2l-16,1l-17,1l-16,2l-17,1l-16,1l-17,2l-16,1l-17,1l-16,2l-17,1l-16,2l-17,1l-17,1l-16,2l-17,1l-16,2l-17,1l-16,2l-17,1l-16,2l-17,1l-16,2l-17,1l-16,2l-17,1l-16,2l-17,1l-16,2l-17,1l-16,2l-17,1l-16,2l-17,2l-16,1l-17,2l-17,1l-16,2l-17,1l-16,2l-17,1l-16,2l-17,1l-16,1l-17,2l-16,1l-17,2l-16,1l-17,1l-16,2l-17,1l-16,1l-17,2l-16,1l-17,1l-16,1l-17,2l-16,1l-17,1l-16,1l-17,1l-17,1l-16,1l-17,1l-16,1l-17,0l-16,1l-17,1l-16,1l-17,0l-16,1l-17,0l-16,1l-17,0l-16,1l-17,0l-16,0l-17,0l-16,1l-17,0l-16,0l-17,0l-16,0l-17,0l-16,-1l-17,0l-17,0l-16,0l-17,-1l-16,0l-17,-1l-16,0l-17,-1l-16,-1l-17,-1l-16,0l-17,-1l-16,-1l-17,-1l-16,-1l-17,-1l-16,-2l-17,-1l-16,-1l-17,-1l-16,-2l-17,-1l-16,-2l-17,-1l-17,-2l-16,-2l-17,-1l-16,-2l-17,-2l-16,-2l-17,-2l-16,-2l-17,-2l-16,-2l-17,-2l-16,-2l-17,-2l-16,-2l-17,-2l-16,-3l-17,-2l-16,-2l-17,-3l-16,-2l-17,-3l-16,-2l-17,-3l-16,-2l-17,-3l-17,-2l-16,-3l-17,-3l-16,-2l-17,-3l-16,-3l-17,-3l-16,-2l-17,-3l-16,-3l-17,-3l-16,-2l-17,-3l-16,-3l-17,-3l-16,-3l-17,-3l-16,-3l-17,-2l-16,-3l-17,-3l-16,-3l-17,-3l-16,-3l-17,-3l-17,-3l-16,-3l-17,-3l-16,-2l-17,-3l-16,-3l-17,-3l-16,-3l-17,-3l-16,-3l-17,-2l-16,-3l-17,-3l-16,-3l-17,-2l-16,-3l-17,-3l-16,-3l-17,-2l-16,-3l-17,-3l-16,-2l-17,-3l-17,-2l-16,-3l-17,-2l-16,-3l-17,-2l-16,-2l-17,-3l-16,-2l-17,-2l-16,-3l-17,-2l-16,-2l-17,-2l-16,-2l-17,-2l-16,-2l-17,-2l-16,-2l-17,-2l-16,-2l-17,-1l-16,-2l-17,-2l-16,-1l-17,-2l-17,-1l-16,-2l-17,-1l-16,-1l-17,-2l-16,-1l-17,-1l-16,-1l-17,-1l-16,-1l-17,-1l-16,-1l-17,-1l-16,0l-17,-1l-16,0l-17,-1l-16,0l-17,-1l-16,0l-17,0l-16,-1l-17,0l-16,0l-17,0l-17,0l-16,0l-17,1l-16,0l-17,0l-16,0l-17,1l-16,0l-17,1l-16,0l-17,1l0,1006Z" fill="#000"></path><path fill-opacity="0.125" stroke="none" d="M758,2644l17,-1l16,0l17,-1l16,0l17,-1l16,0l17,0l16,0l17,-1l16,0l17,0l17,0l16,0l17,0l16,1l17,0l16,0l17,1l16,0l17,1l16,0l17,1l16,0l17,1l16,1l17,1l16,1l17,1l16,1l17,1l16,1l17,2l16,1l17,1l16,2l17,1l17,2l16,1l17,2l16,2l17,1l16,2l17,2l16,2l17,2l16,2l17,2l16,2l17,2l16,2l17,2l16,3l17,2l16,2l17,3l16,2l17,2l16,3l17,2l16,3l17,2l17,3l16,2l17,3l16,3l17,2l16,3l17,3l16,3l17,2l16,3l17,3l16,3l17,2l16,3l17,3l16,3l17,3l16,3l17,3l16,2l17,3l16,3l17,3l17,3l16,3l17,3l16,3l17,3l16,3l17,2l16,3l17,3l16,3l17,3l16,3l17,3l16,2l17,3l16,3l17,3l16,2l17,3l16,3l17,3l16,2l17,3l16,3l17,2l17,3l16,2l17,3l16,2l17,3l16,2l17,3l16,2l17,2l16,3l17,2l16,2l17,2l16,2l17,2l16,2l17,2l16,2l17,2l16,2l17,2l16,2l17,1l16,2l17,2l17,1l16,2l17,1l16,2l17,1l16,1l17,1l16,2l17,1l16,1l17,1l16,1l17,1l16,0l17,1l16,1l17,1l16,0l17,1l16,0l17,1l16,0l17,0l17,0l16,1l17,0l16,0l17,0l16,0l17,0l16,-1l17,0l16,0l17,0l16,-1l17,0l16,-1l17,0l16,-1l17,0l16,-1l17,-1l16,-1l17,0l16,-1l17,-1l16,-1l17,-1l17,-1l16,-1l17,-1l16,-1l17,-2l16,-1l17,-1l16,-1l17,-2l16,-1l17,-1l16,-2l17,-1l16,-1l17,-2l16,-1l17,-2l16,-1l17,-1l16,-2l17,-1l16,-2l17,-1l16,-2l17,-1l17,-2l16,-1l17,-2l16,-2l17,-1l16,-2l17,-1l16,-2l17,-1l16,-2l17,-1l16,-2l17,-1l16,-2l17,-1l16,-2l17,-1l16,-2l17,-1l16,-2l17,-1l16,-2l17,-1l17,-1l16,-2l17,-1l16,-2l17,-1l16,-1l17,-2l16,-1l17,-1l16,-2l17,-1l16,-1l17,-2l16,-1l17,-1l16,-2l17,-1l16,-1l17,-2l16,-1l17,-1l16,-1l17,-2l16,-1l17,-1l17,-1l16,-2l17,-1l16,-1l17,-1l16,-2l17,-1l16,-1l17,-1l16,-2l17,-1l16,-1l17,-1l16,-2l17,-1l16,-1l17,-1l16,-2l17,-1l16,-1l17,-2l16,-1l17,-1l16,-1l17,-2l17,-1l16,-1l17,-2l16,-1l17,-2l16,-1l17,-1l16,-2l17,-1l16,-2l17,-1l16,-2l17,-1l16,-2l17,-1l16,-2l17,-1l16,-2l17,-1l16,-2l17,-2l16,-1l17,-2l17,-2l16,-1l17,-2l16,-2l17,-1l16,-2l17,-2l16,-2l17,-1l16,-2l17,-2l16,-2l17,-2l16,-1l17,-2l16,-2l17,-2l16,-2l17,-2l16,-1l17,-2l16,-2l17,-2l16,-2l17,-2l17,-2l16,-1l17,-2l16,-2l17,-2l16,-2l17,-2l16,-1l17,-2l16,-2l17,-2l16,-1l17,-2l16,-2l17,-2l16,-1l17,-2l16,-1l17,-2l16,-1l17,-2l16,-1l17,-2l16,-1l17,-1l17,-2l16,-1l17,-1l16,-1l17,-1l16,-1l17,-1l16,-1l17,-1l16,-1l17,-1l0,-64l-17,1l-16,1l-17,1l-16,1l-17,1l-16,1l-17,1l-16,1l-17,1l-16,1l-17,2l-17,1l-16,1l-17,2l-16,1l-17,2l-16,1l-17,2l-16,1l-17,2l-16,2l-17,1l-16,2l-17,2l-16,2l-17,2l-16,1l-17,2l-16,2l-17,2l-16,2l-17,2l-16,2l-17,2l-16,2l-17,2l-17,2l-16,2l-17,2l-16,2l-17,2l-16,1l-17,2l-16,2l-17,2l-16,2l-17,2l-16,2l-17,2l-16,2l-17,2l-16,2l-17,2l-16,2l-17,1l-16,2l-17,2l-16,2l-17,2l-16,1l-17,2l-17,2l-16,2l-17,1l-16,2l-17,2l-16,1l-17,2l-16,2l-17,1l-16,2l-17,1l-16,2l-17,1l-16,2l-17,1l-16,2l-17,1l-16,2l-17,1l-16,2l-17,1l-16,2l-17,1l-17,1l-16,2l-17,1l-16,1l-17,2l-16,1l-17,1l-16,1l-17,2l-16,1l-17,1l-16,2l-17,1l-16,1l-17,1l-16,2l-17,1l-16,1l-17,1l-16,1l-17,2l-16,1l-17,1l-16,1l-17,1l-17,2l-16,1l-17,1l-16,1l-17,1l-16,2l-17,1l-16,1l-17,1l-16,1l-17,2l-16,1l-17,1l-16,1l-17,2l-16,1l-17,1l-16,1l-17,2l-16,1l-17,1l-16,2l-17,1l-16,1l-17,1l-17,2l-16,1l-17,1l-16,2l-17,1l-16,1l-17,2l-16,1l-17,1l-16,2l-17,1l-16,2l-17,1l-16,1l-17,2l-16,1l-17,2l-16,1l-17,1l-16,2l-17,1l-16,2l-17,1l-17,1l-16,2l-17,1l-16,1l-17,2l-16,1l-17,1l-16,2l-17,1l-16,1l-17,2l-16,1l-17,1l-16,1l-17,2l-16,1l-17,1l-16,1l-17,1l-16,2l-17,1l-16,1l-17,1l-16,1l-17,1l-17,1l-16,0l-17,1l-16,1l-17,1l-16,1l-17,0l-16,1l-17,1l-16,0l-17,1l-16,0l-17,1l-16,0l-17,1l-16,0l-17,0l-16,0l-17,0l-16,1l-17,0l-16,0l-17,0l-16,-1l-17,0l-17,0l-16,0l-17,-1l-16,0l-17,0l-16,-1l-17,0l-16,-1l-17,-1l-16,0l-17,-1l-16,-1l-17,-1l-16,-1l-17,-1l-16,-1l-17,-1l-16,-1l-17,-1l-16,-2l-17,-1l-16,-1l-17,-2l-17,-1l-16,-2l-17,-1l-16,-2l-17,-2l-16,-1l-17,-2l-16,-2l-17,-2l-16,-2l-17,-2l-16,-2l-17,-2l-16,-2l-17,-2l-16,-2l-17,-2l-16,-2l-17,-3l-16,-2l-17,-2l-16,-3l-17,-2l-16,-2l-17,-3l-17,-2l-16,-3l-17,-2l-16,-3l-17,-3l-16,-2l-17,-3l-16,-3l-17,-2l-16,-3l-17,-3l-16,-2l-17,-3l-16,-3l-17,-3l-16,-2l-17,-3l-16,-3l-17,-3l-16,-3l-17,-3l-16,-2l-17,-3l-16,-3l-17,-3l-17,-3l-16,-3l-17,-3l-16,-2l-17,-3l-16,-3l-17,-3l-16,-3l-17,-3l-16,-3l-17,-2l-16,-3l-17,-3l-16,-3l-17,-3l-16,-2l-17,-3l-16,-3l-17,-2l-16,-3l-17,-3l-16,-2l-17,-3l-17,-3l-16,-2l-17,-3l-16,-2l-17,-3l-16,-2l-17,-3l-16,-2l-17,-2l-16,-3l-17,-2l-16,-2l-17,-2l-16,-2l-17,-3l-16,-2l-17,-2l-16,-2l-17,-2l-16,-1l-17,-2l-16,-2l-17,-2l-16,-1l-17,-2l-17,-2l-16,-1l-17,-2l-16,-1l-17,-2l-16,-1l-17,-1l-16,-1l-17,-1l-16,-1l-17,-1l-16,-1l-17,-1l-16,-1l-17,-1l-16,-1l-17,0l-16,-1l-17,0l-16,-1l-17,0l-16,0l-17,-1l-16,0l-17,0l-17,0l-16,0l-17,0l-16,0l-17,1l-16,0l-17,0l-16,1l-17,0l-16,1l-17,0Z" fill="#000"></path><path fill-opacity="0.125" stroke="none" d="M758,1048l17,-1l16,-2l17,-2l16,-2l17,-2l16,-1l17,-2l16,-2l17,-2l16,-2l17,-2l17,-2l16,-2l17,-2l16,-2l17,-2l16,-2l17,-2l16,-2l17,-2l16,-3l17,-2l16,-2l17,-2l16,-2l17,-2l16,-2l17,-2l16,-2l17,-2l16,-2l17,-2l16,-2l17,-2l16,-2l17,-2l17,-2l16,-2l17,-2l16,-2l17,-2l16,-1l17,-2l16,-2l17,-2l16,-2l17,-2l16,-1l17,-2l16,-2l17,-2l16,-1l17,-2l16,-2l17,-1l16,-2l17,-2l16,-1l17,-2l16,-1l17,-2l17,-2l16,-1l17,-2l16,-1l17,-2l16,-1l17,-2l16,-1l17,-2l16,-1l17,-2l16,-1l17,-1l16,-2l17,-1l16,-2l17,-1l16,-1l17,-2l16,-1l17,-2l16,-1l17,-1l17,-2l16,-1l17,-1l16,-2l17,-1l16,-2l17,-1l16,-1l17,-2l16,-1l17,-1l16,-2l17,-1l16,-2l17,-1l16,-1l17,-2l16,-1l17,-2l16,-1l17,-1l16,-2l17,-1l16,-2l17,-1l17,-1l16,-2l17,-1l16,-2l17,-1l16,-2l17,-1l16,-2l17,-1l16,-2l17,-1l16,-2l17,-1l16,-2l17,-1l16,-2l17,-1l16,-2l17,-1l16,-2l17,-1l16,-2l17,-1l16,-2l17,-1l17,-2l16,-1l17,-2l16,-1l17,-2l16,-1l17,-1l16,-2l17,-1l16,-2l17,-1l16,-1l17,-2l16,-1l17,-1l16,-2l17,-1l16,-1l17,-1l16,-2l17,-1l16,-1l17,-1l17,-1l16,-1l17,-1l16,-1l17,-1l16,-1l17,-1l16,-1l17,0l16,-1l17,-1l16,0l17,-1l16,-1l17,0l16,-1l17,0l16,0l17,-1l16,0l17,0l16,0l17,0l16,0l17,0l17,0l16,0l17,0l16,0l17,1l16,0l17,0l16,1l17,0l16,1l17,1l16,0l17,1l16,1l17,1l16,1l17,1l16,1l17,1l16,1l17,1l16,1l17,2l16,1l17,2l17,1l16,2l17,1l16,2l17,1l16,2l17,2l16,2l17,2l16,2l17,2l16,2l17,2l16,2l17,2l16,2l17,2l16,3l17,2l16,2l17,3l16,2l17,2l17,3l16,2l17,3l16,2l17,3l16,3l17,2l16,3l17,3l16,2l17,3l16,3l17,3l16,3l17,2l16,3l17,3l16,3l17,3l16,3l17,3l16,3l17,2l16,3l17,3l17,3l16,3l17,3l16,3l17,3l16,3l17,3l16,3l17,3l16,3l17,3l16,3l17,3l16,3l17,3l16,3l17,3l16,2l17,3l16,3l17,3l16,3l17,3l16,2l17,3l17,3l16,3l17,2l16,3l17,3l16,2l17,3l16,2l17,3l16,2l17,3l16,2l17,3l16,2l17,2l16,3l17,2l16,2l17,2l16,2l17,2l16,2l17,2l17,2l16,2l17,2l16,2l17,1l16,2l17,2l16,1l17,2l16,1l17,2l16,1l17,1l16,1l17,2l16,1l17,1l16,1l17,0l16,1l17,1l16,1l17,0l16,1l17,0l17,1l16,0l17,0l16,1l17,0l16,0l17,0l16,0l17,0l16,0l17,-1l16,0l17,0l16,-1l17,0l16,-1l17,-1l16,0l17,-1l16,-1l17,-1l16,-1l17,-1l16,-1l17,-1l17,-1l16,-1l17,-2l16,-1l17,-1l16,-2l17,-1l16,-2l17,-1l16,-2l17,-2l0,-63l-17,1l-16,2l-17,1l-16,2l-17,1l-16,2l-17,1l-16,1l-17,2l-16,1l-17,1l-17,1l-16,1l-17,1l-16,1l-17,1l-16,1l-17,1l-16,1l-17,0l-16,1l-17,0l-16,1l-17,0l-16,1l-17,0l-16,0l-17,1l-16,0l-17,0l-16,0l-17,0l-16,0l-17,-1l-16,0l-17,0l-17,-1l-16,0l-17,-1l-16,0l-17,-1l-16,0l-17,-1l-16,-1l-17,-1l-16,-1l-17,-1l-16,-1l-17,-1l-16,-1l-17,-2l-16,-1l-17,-1l-16,-2l-17,-1l-16,-2l-17,-2l-16,-1l-17,-2l-16,-2l-17,-1l-17,-2l-16,-2l-17,-2l-16,-2l-17,-2l-16,-2l-17,-3l-16,-2l-17,-2l-16,-2l-17,-3l-16,-2l-17,-2l-16,-3l-17,-2l-16,-3l-17,-2l-16,-3l-17,-2l-16,-3l-17,-3l-16,-2l-17,-3l-17,-3l-16,-3l-17,-2l-16,-3l-17,-3l-16,-3l-17,-3l-16,-3l-17,-2l-16,-3l-17,-3l-16,-3l-17,-3l-16,-3l-17,-3l-16,-3l-17,-3l-16,-3l-17,-3l-16,-3l-17,-3l-16,-3l-17,-3l-16,-3l-17,-3l-17,-3l-16,-3l-17,-3l-16,-3l-17,-3l-16,-3l-17,-3l-16,-3l-17,-3l-16,-3l-17,-3l-16,-2l-17,-3l-16,-3l-17,-3l-16,-3l-17,-3l-16,-2l-17,-3l-16,-3l-17,-3l-16,-2l-17,-3l-16,-3l-17,-2l-17,-3l-16,-2l-17,-3l-16,-2l-17,-3l-16,-2l-17,-2l-16,-3l-17,-2l-16,-2l-17,-2l-16,-2l-17,-3l-16,-2l-17,-2l-16,-2l-17,-2l-16,-1l-17,-2l-16,-2l-17,-2l-16,-1l-17,-2l-17,-2l-16,-1l-17,-1l-16,-2l-17,-1l-16,-2l-17,-1l-16,-1l-17,-1l-16,-1l-17,-1l-16,-1l-17,-1l-16,-1l-17,0l-16,-1l-17,-1l-16,0l-17,-1l-16,0l-17,-1l-16,0l-17,0l-16,0l-17,0l-17,-1l-16,0l-17,1l-16,0l-17,0l-16,0l-17,0l-16,1l-17,0l-16,0l-17,1l-16,1l-17,0l-16,1l-17,0l-16,1l-17,1l-16,1l-17,1l-16,1l-17,1l-16,1l-17,1l-16,1l-17,1l-17,1l-16,1l-17,2l-16,1l-17,1l-16,2l-17,1l-16,1l-17,2l-16,1l-17,2l-16,1l-17,2l-16,1l-17,2l-16,1l-17,2l-16,1l-17,2l-16,2l-17,1l-16,2l-17,1l-17,2l-16,2l-17,1l-16,2l-17,2l-16,1l-17,2l-16,1l-17,2l-16,2l-17,1l-16,2l-17,2l-16,1l-17,2l-16,2l-17,1l-16,2l-17,1l-16,2l-17,1l-16,2l-17,2l-16,1l-17,2l-17,1l-16,2l-17,1l-16,2l-17,1l-16,2l-17,1l-16,2l-17,1l-16,2l-17,1l-16,2l-17,1l-16,2l-17,1l-16,2l-17,1l-16,1l-17,2l-16,1l-17,2l-16,1l-17,2l-16,1l-17,1l-17,2l-16,1l-17,2l-16,1l-17,1l-16,2l-17,1l-16,2l-17,1l-16,2l-17,1l-16,1l-17,2l-16,1l-17,2l-16,1l-17,2l-16,1l-17,2l-16,1l-17,2l-16,1l-17,2l-17,1l-16,2l-17,1l-16,2l-17,1l-16,2l-17,2l-16,1l-17,2l-16,1l-17,2l-16,2l-17,1l-16,2l-17,2l-16,2l-17,1l-16,2l-17,2l-16,2l-17,1l-16,2l-17,2l-16,2l-17,2l-17,2l-16,1l-17,2l-16,2l-17,2l-16,2l-17,2l-16,2l-17,2l-16,2l-17,2l-16,2l-17,2l-16,1l-17,2l-16,2l-17,2l-16,2l-17,2l-16,2l-17,2l-16,2l-17,2l-16,2l-17,2l-17,2l-16,2l-17,1l-16,2l-17,2l-16,2l-17,2l-16,1l-17,2l-16,2l-17,1Z" fill="#000"></path><path fill-opacity="0.251" stroke="none" d="M758,984l17,-1l16,-2l17,-2l16,-1l17,-2l16,-2l17,-2l16,-2l17,-1l16,-2l17,-2l17,-2l16,-2l17,-2l16,-2l17,-2l16,-2l17,-2l16,-2l17,-2l16,-2l17,-2l16,-1l17,-2l16,-2l17,-2l16,-2l17,-2l16,-2l17,-2l16,-2l17,-2l16,-2l17,-2l16,-1l17,-2l17,-2l16,-2l17,-2l16,-2l17,-1l16,-2l17,-2l16,-2l17,-1l16,-2l17,-2l16,-2l17,-1l16,-2l17,-2l16,-1l17,-2l16,-1l17,-2l16,-2l17,-1l16,-2l17,-1l16,-2l17,-1l17,-2l16,-1l17,-2l16,-1l17,-2l16,-1l17,-2l16,-1l17,-2l16,-1l17,-2l16,-1l17,-1l16,-2l17,-1l16,-2l17,-1l16,-2l17,-1l16,-1l17,-2l16,-1l17,-2l17,-1l16,-1l17,-2l16,-1l17,-2l16,-1l17,-2l16,-1l17,-1l16,-2l17,-1l16,-2l17,-1l16,-2l17,-1l16,-2l17,-1l16,-2l17,-1l16,-2l17,-1l16,-2l17,-1l16,-2l17,-1l17,-2l16,-1l17,-2l16,-2l17,-1l16,-2l17,-1l16,-2l17,-1l16,-2l17,-2l16,-1l17,-2l16,-2l17,-1l16,-2l17,-2l16,-1l17,-2l16,-1l17,-2l16,-2l17,-1l16,-2l17,-2l17,-1l16,-2l17,-1l16,-2l17,-2l16,-1l17,-2l16,-1l17,-2l16,-1l17,-2l16,-1l17,-2l16,-1l17,-2l16,-1l17,-1l16,-2l17,-1l16,-1l17,-2l16,-1l17,-1l17,-1l16,-1l17,-1l16,-1l17,-1l16,-1l17,-1l16,-1l17,-1l16,-1l17,0l16,-1l17,0l16,-1l17,-1l16,0l17,0l16,-1l17,0l16,0l17,0l16,0l17,-1l16,0l17,1l17,0l16,0l17,0l16,0l17,1l16,0l17,1l16,0l17,1l16,1l17,0l16,1l17,1l16,1l17,1l16,1l17,1l16,1l17,1l16,2l17,1l16,2l17,1l16,1l17,2l17,2l16,1l17,2l16,2l17,2l16,1l17,2l16,2l17,2l16,2l17,3l16,2l17,2l16,2l17,2l16,3l17,2l16,2l17,3l16,2l17,3l16,2l17,3l17,2l16,3l17,3l16,2l17,3l16,3l17,3l16,2l17,3l16,3l17,3l16,3l17,3l16,2l17,3l16,3l17,3l16,3l17,3l16,3l17,3l16,3l17,3l16,3l17,3l17,3l16,3l17,3l16,3l17,3l16,3l17,3l16,3l17,3l16,3l17,3l16,3l17,3l16,3l17,3l16,3l17,2l16,3l17,3l16,3l17,3l16,3l17,2l16,3l17,3l17,3l16,2l17,3l16,3l17,2l16,3l17,2l16,3l17,2l16,3l17,2l16,2l17,3l16,2l17,2l16,2l17,3l16,2l17,2l16,2l17,2l16,2l17,2l17,1l16,2l17,2l16,1l17,2l16,2l17,1l16,2l17,1l16,1l17,2l16,1l17,1l16,1l17,1l16,1l17,1l16,1l17,1l16,0l17,1l16,0l17,1l16,0l17,1l17,0l16,0l17,1l16,0l17,0l16,0l17,0l16,0l17,-1l16,0l17,0l16,-1l17,0l16,-1l17,0l16,-1l17,0l16,-1l17,-1l16,-1l17,-1l16,-1l17,-1l16,-1l17,-1l17,-1l16,-1l17,-2l16,-1l17,-1l16,-2l17,-1l16,-2l17,-1l16,-2l17,-1l0,-887l-6014,0Z" fill="#000"></path><path fill-opacity="0.125" stroke="none" d="" fill="#000"></path></g><g transform="scale(0.1)"></g><g stroke-width="1" stroke="#000" fill="none" stroke-opacity="0.2"><line x2="126.2" y1="10" x1="126.2" y2="370" stroke-opacity="0.2"></line><line x2="172.5" y1="10" x1="172.5" y2="370" stroke-opacity="0.2"></line><line x2="223.7" y1="10" x1="223.7" y2="370" stroke-opacity="0.2"></line><line x2="273.2" y1="10" x1="273.2" y2="370" stroke-opacity="0.2"></line><line x2="324.5" y1="10" x1="324.5" y2="370" stroke-opacity="0.2"></line><line x2="374" y1="10" x1="374" y2="370" stroke-opacity="0.2"></line><line x2="425.2" y1="10" x1="425.2" y2="370" stroke-opacity="0.2"></line><line x2="476.4" y1="10" x1="476.4" y2="370" stroke-opacity="0.2"></line><line x2="526" y1="10" x1="526" y2="370" stroke-opacity="0.2"></line><line x2="577.2" y1="10" x1="577.2" y2="370" stroke-opacity="0.2"></line><line x2="626.8" y1="10" x1="626.8" y2="370" stroke-opacity="0.2"></line><line x2="681" y1="365" x1="72" y2="365"></line><line x2="681" y1="335.4" x1="72" y2="335.4"></line><line x2="681" y1="305.8" x1="72" y2="305.8"></line><line x2="681" y1="276.3" x1="72" y2="276.3"></line><line x2="681" y1="246.7" x1="72" y2="246.7"></line><line x2="681" y1="217.1" x1="72" y2="217.1"></line><line x2="681" y1="187.5" x1="72" y2="187.5"></line><line x2="681" y1="157.9" x1="72" y2="157.9"></line><line x2="681" y1="128.3" x1="72" y2="128.3"></line><line x2="681" y1="98.8" x1="72" y2="98.8"></line><line x2="681" y1="69.2" x1="72" y2="69.2"></line><line x2="681" y1="39.6" x1="72" y2="39.6"></line><line x2="681" y1="10" x1="72" y2="10"></line></g><g><rect fill-opacity="0.004" y="10" x="75" height="355" width="51.2" fill="#fff"></rect><text stroke="none" y="381.5" text-anchor="middle" x="100.6">Jan</text></g><g><rect fill-opacity="0.004" y="10" x="126.2" height="355" width="46.3" fill="#fff"></rect><text stroke="none" y="381.5" text-anchor="middle" x="149.3">Feb</text></g><g><rect fill-opacity="0.004" y="10" x="172.5" height="355" width="51.2" fill="#fff"></rect><text stroke="none" y="381.5" text-anchor="middle" x="198.1">Mar</text></g><g><rect fill-opacity="0.004" y="10" x="223.7" height="355" width="49.6" fill="#fff"></rect><text stroke="none" y="381.5" text-anchor="middle" x="248.5">Apr</text></g><g><rect fill-opacity="0.004" y="10" x="273.2" height="355" width="51.2" fill="#fff"></rect><text stroke="none" y="381.5" text-anchor="middle" x="298.9">May</text></g><g><rect fill-opacity="0.004" y="10" x="324.5" height="355" width="49.6" fill="#fff"></rect><text stroke="none" y="381.5" text-anchor="middle" x="349.2">Jun</text></g><g><rect fill-opacity="0.004" y="10" x="374" height="355" width="51.2" fill="#fff"></rect><text stroke="none" y="381.5" text-anchor="middle" x="399.6">Jul</text></g><g><rect fill-opacity="0.004" y="10" x="425.2" height="355" width="51.2" fill="#fff"></rect><text stroke="none" y="381.5" text-anchor="middle" x="450.8">Aug</text></g><g><rect fill-opacity="0.004" y="10" x="476.4" height="355" width="49.6" fill="#fff"></rect><text stroke="none" y="381.5" text-anchor="middle" x="501.2">Sep</text></g><g><rect fill-opacity="0.004" y="10" x="526" height="355" width="51.2" fill="#fff"></rect><text stroke="none" y="381.5" text-anchor="middle" x="551.6">Oct</text></g><g><rect fill-opacity="0.004" y="10" x="577.2" height="355" width="49.6" fill="#fff"></rect><text stroke="none" y="381.5" text-anchor="middle" x="602">Nov</text></g><g><rect fill-opacity="0.004" y="10" x="626.8" height="355" width="51.2" fill="#fff"></rect><text stroke="none" y="381.5" text-anchor="middle" x="652.4">Dec</text></g><g stroke="none" fill="#666"><text y="370.2" text-anchor="end" x="71">0</text><text y="370.2" x="682">0</text><text y="340.6" text-anchor="end" x="71">2</text><text y="340.6" x="682">2</text><text y="311" text-anchor="end" x="71">4</text><text y="311" x="682">4</text><text y="281.4" text-anchor="end" x="71">6</text><text y="281.4" x="682">6</text><text y="251.9" text-anchor="end" x="71">8</text><text y="251.9" x="682">8</text><text y="222.3" text-anchor="end" x="71">10</text><text y="222.3" x="682">10</text><text y="192.7" text-anchor="end" x="71">12</text><text y="192.7" x="682">12</text><text y="163.1" text-anchor="end" x="71">14</text><text y="163.1" x="682">14</text><text y="133.5" text-anchor="end" x="71">16</text><text y="133.5" x="682">16</text><text y="103.9" text-anchor="end" x="71">18</text><text y="103.9" x="682">18</text><text y="74.4" text-anchor="end" x="71">20</text><text y="74.4" x="682">20</text><text y="44.8" text-anchor="end" x="71">22</text><text y="44.8" x="682">22</text><text y="15.2" text-anchor="end" x="71">0</text><text y="15.2" x="682">0</text></g><g font-family="sans-serif" text-decoration="none" font-style="normal" font-size="15" font-weight="normal"><text font-family="sans-serif" stroke="none" opacity="0.8" y="27.8" text-decoration="none" text-anchor="middle" x="95.7" font-style="normal" font-size="15" fill="#fff" font-weight="normal">7°-12°</text></g><g font-family="sans-serif" text-decoration="none" font-style="normal" font-size="15" font-weight="normal"><text font-family="sans-serif" stroke="none" opacity="0.8" y="282.9" text-decoration="none" text-anchor="middle" x="116.2" font-style="normal" font-size="15" fill="#fff" font-weight="normal">7°-12°</text></g><g font-family="sans-serif" text-decoration="none" font-style="normal" font-size="15" font-weight="normal"><text font-family="sans-serif" stroke="none" opacity="0.8" y="285.6" text-decoration="none" text-anchor="middle" x="647.1" font-style="normal" font-size="15" fill="#fff" font-weight="normal">7°-12°</text></g><g font-family="sans-serif" text-decoration="none" font-style="normal" font-size="15" font-weight="normal"><text font-family="sans-serif" stroke="none" opacity="0.8" y="43.6" text-decoration="none" text-anchor="middle" x="142.4" font-style="normal" font-size="15" fill="#fff" font-weight="normal">13°-17°</text></g><g font-family="sans-serif" text-decoration="none" font-style="normal" font-size="15" font-weight="normal"><text font-family="sans-serif" stroke="none" opacity="0.8" y="37.7" text-decoration="none" text-anchor="middle" x="620.6" font-style="normal" font-size="15" fill="#fff" font-weight="normal">13°-17°</text></g><g font-family="sans-serif" text-decoration="none" font-style="normal" font-size="15" font-weight="normal"><text font-family="sans-serif" stroke="none" opacity="0.8" y="291.3" text-decoration="none" text-anchor="middle" x="182.3" font-style="normal" font-size="15" fill="#fff" font-weight="normal">13°-17°</text></g><g font-family="sans-serif" text-decoration="none" font-style="normal" font-size="15" font-weight="normal"><text font-family="sans-serif" stroke="none" opacity="0.8" y="319.9" text-decoration="none" text-anchor="middle" x="598.4" font-style="normal" font-size="15" fill="#fff" font-weight="normal">13°-17°</text></g><g font-family="sans-serif" text-decoration="none" font-style="normal" font-size="15" font-weight="normal"><text font-family="sans-serif" stroke="none" opacity="0.8" y="301" text-decoration="none" text-anchor="middle" x="449.1" font-style="normal" font-size="15" fill="#fff" font-weight="normal">24°-28°</text></g><g font-family="sans-serif" text-decoration="none" font-style="normal" font-size="15" font-weight="normal"><text font-family="sans-serif" stroke="none" opacity="0.8" y="141.5" text-decoration="none" text-anchor="middle" x="479.2" font-style="normal" font-size="15" fill="#fff" font-weight="normal">29°-34°</text></g><g font-family="sans-serif" text-decoration="none" font-style="normal" font-size="15" font-weight="normal"><text font-family="sans-serif" stroke="none" opacity="0.8" y="339.3" text-decoration="none" text-anchor="middle" x="351.2" font-style="normal" font-size="15" fill="#fff" font-weight="normal">29°-34°</text></g><g font-family="sans-serif" text-decoration="none" font-style="normal" font-size="15" font-weight="normal"><text font-family="sans-serif" stroke="none" opacity="0.8" y="140.9" text-decoration="none" text-anchor="middle" x="316.5" font-style="normal" font-size="15" fill="#fff" font-weight="normal">35°+</text></g><g font-family="sans-serif" text-decoration="none" font-style="normal" font-size="15" font-weight="normal"><text font-family="sans-serif" stroke="none" opacity="0.8" y="25.1" text-decoration="none" text-anchor="middle" x="660.5" font-style="normal" font-size="15" fill="#fff" font-weight="normal">7°-12°</text></g><g font-family="sans-serif" text-decoration="none" font-style="normal" font-size="15" font-weight="normal"><text font-family="sans-serif" stroke="none" opacity="0.8" y="155.4" text-decoration="none" text-anchor="middle" x="121.8" font-style="normal" font-size="15" fill="#fff" font-weight="normal">18°-23°</text></g><g font-family="sans-serif" text-decoration="none" font-style="normal" font-size="15" font-weight="normal"><text font-family="sans-serif" stroke="none" opacity="0.8" y="119.9" text-decoration="none" text-anchor="middle" x="631.2" font-style="normal" font-size="15" fill="#fff" font-weight="normal">18°-23°</text></g></svg>